<svg xmlns="http://www.w3.org/2000/svg" xmlns:xlink="http://www.w3.org/1999/xlink" width="49" height="49" viewBox="0 0 49 49"><defs><clipPath id="b"><rect width="49" height="49"/></clipPath></defs><g id="a" clip-path="url(#b)"><g transform="translate(0.679 0.397)"><path d="M1446.752 1246.366a23.969 23.969.0 11-23.969-23.969 23.924 23.924.0 0123.969 23.969" transform="translate(-1398.813 -1222.397)" fill="#006dae"/><g transform="translate(10.825 14.581)"><path d="M1437.473 1239.628a18.465 18.465.0 01-3.314.884 6.034 6.034.0 002.54-3.2 13.188 13.188.0 01-3.644 1.436 5.281 5.281.0 00-4.2-1.766 5.656 5.656.0 00-5.633 5.633 5.01 5.01.0 00.109 1.325 16.456 16.456.0 01-11.818-5.965 6.558 6.558.0 00-.774 2.872 5.62 5.62.0 002.541 4.75 4.615 4.615.0 01-2.541-.774v.111a5.715 5.715.0 004.529 5.634 3.031 3.031.0 01-1.436.221h-1.1a5.752 5.752.0 005.413 3.866 11.41 11.41.0 01-7.069 2.429 6.325 6.325.0 01-1.436-.11 16.48 16.48.0 008.837 2.54c10.492.0 16.237-8.725 16.237-16.237v-.772a13.709 13.709.0 002.761-2.873" transform="translate(-1409.638 -1236.978)" fill="#fff"/></g></g></g></svg>