<svg xmlns="http://www.w3.org/2000/svg" xmlns:xlink="http://www.w3.org/1999/xlink" width="48" height="48" viewBox="0 0 48 48"><defs><clipPath id="b"><rect width="48" height="48"/></clipPath></defs><g id="a" clip-path="url(#b)"><g transform="translate(-1744.274 1143)"><rect width="24" height="23" rx="4" transform="translate(1756.274 -1130.154)" fill="#fff"/><path d="M226.95 265.586a22.6 22.6.0 01-22.294-22.964c.023-12.744 9.969-22.885 22.311-22.886 12.363.0 22.357 10.19 22.311 23.021A22.6 22.6.0 01226.95 265.586zM227 232.548v.038c-1.059.0-2.119-.024-3.178.008a13.821 13.821.0 00-2.177.2 4.945 4.945.0 00-4.085 3.7 9.713 9.713.0 00-.343 2.516 76.956 76.956.0 00.114 8.676 5.068 5.068.0 003.776 4.641 12.3 12.3.0 002.781.336c2.052.048 4.105.031 6.158.006a12.729 12.729.0 002.213-.194 5.041 5.041.0 004.107-3.643 10.222 10.222.0 00.368-3.021c.027-2.054.021-4.107.009-6.16-.006-.66-.051-1.322-.123-1.978a5.3 5.3.0 00-5.267-5.011C229.906 232.572 228.452 232.582 227 232.548z" transform="translate(1541.178 -1361.928)" fill="#006dae"/><path d="M221.064 240.432a3.3 3.3.0 113.182-3.306A3.265 3.265.0 01221.064 240.432z" transform="translate(1546.792 -1356.086)" fill="#006dae"/><path d="M222.623 247.4c-1.455.0-2.913.027-4.367-.009a4.723 4.723.0 01-2.7-.774 3.587 3.587.0 01-1.543-2.925c-.08-2.62-.1-5.244-.1-7.866a14.441 14.441.0 01.224-2.83 3.553 3.553.0 013.524-2.951c3.115-.064 6.231-.071 9.346-.067a4.92 4.92.0 012.268.5 3.659 3.659.0 012.011 3.2 91.448 91.448.0 01.071 9.417 6.278 6.278.0 01-.18 1.281 3.666 3.666.0 01-3.474 2.945c-.851.066-1.7.105-2.558.127s-1.684.0-2.528.0zm5.536-8.693a5.508 5.508.0 10-5.547 5.479 5.522 5.522.0 005.547-5.476zm.224-4.424a1.34 1.34.0 10-1.335-1.349A1.376 1.376.0 00228.382 234.286z" transform="translate(1545.114 -1357.724)" fill="#006dae"/><path d="M223.365 228.963c1.451.034 2.9.024 4.352.113a5.318 5.318.0 015.267 5.043 19.771 19.771.0 01.123 1.991c.013 2.066.019 4.134-.009 6.2a10.348 10.348.0 01-.368 3.041 5.05 5.05.0 01-4.107 3.666 12.638 12.638.0 01-2.213.2c-2.053.026-4.107.043-6.159-.006a12.071 12.071.0 01-2.781-.338 5.092 5.092.0 01-3.776-4.671 77.942 77.942.0 01-.114-8.732 9.756 9.756.0 01.345-2.531 4.952 4.952.0 014.084-3.722 13.748 13.748.0 012.177-.2c1.059-.033 2.119-.009 3.178-.009zm-.058 18.334v.056c.765.0 1.529.016 2.294.0s1.547-.056 2.32-.118a3.361 3.361.0 003.15-2.763 5.887 5.887.0 00.162-1.2 88.257 88.257.0 00-.064-8.835 3.447 3.447.0 00-1.824-3.007 4.374 4.374.0 00-2.058-.47c-2.826.0-5.653.0-8.477.064a3.254 3.254.0 00-3.2 2.767 13.989 13.989.0 00-.2 2.655c0 2.459.013 4.92.086 7.378a3.4 3.4.0 001.4 2.744 4.179 4.179.0 002.448.725C220.663 247.323 221.985 247.3 223.306 247.3z" transform="translate(1544.942 -1358.156)" fill="#fff"/></g></g></svg>