<svg xmlns="http://www.w3.org/2000/svg" xmlns:xlink="http://www.w3.org/1999/xlink" width="49" height="49" viewBox="0 0 49 49"><defs><clipPath id="b"><rect width="49" height="49"/></clipPath></defs><g id="a" clip-path="url(#b)"><g transform="translate(1.357 0.714)"><circle cx="19.997" cy="19.997" r="19.997" transform="translate(3.983 4.113)" fill="#fff" stroke="#fff" stroke-width=".31"/><circle cx="20.604" cy="20.604" r="20.604" transform="translate(3.374 3.501)" fill="#fff"/><path d="M1497.829 1221.714a23.338 23.338.0 00-23.338 23.338v.006a23.339 23.339.0 0023.336 23.341h0a23.338 23.338.0 0023.342-23.336h0a23.338 23.338.0 00-23.33-23.348h-.011zm9.891 8.951a3.4 3.4.0 11-3.4 3.407h0c0-.048.005-.092.008-.136l-.185-.042a4.466 4.466.0 00-5.431 4.35 17 17 0 018.395 2.556 4.08 4.08.0 114.774 6.489 7.951 7.951.0 01.152 1.547c0 5.86-6.357 10.61-14.2 10.61s-14.2-4.75-14.2-10.61a7.988 7.988.0 01.152-1.544 4.075 4.075.0 114.777-6.492 16.98 16.98.0 018.392-2.553 6.223 6.223.0 017.572-6.067l.326.071a3.4 3.4.0 012.872-1.582zm0 1.762a1.646 1.646.0 101.649 1.643 1.645 1.645.0 00-1.649-1.643zm-9.888 7.553a15.034 15.034.0 00-8.987 2.762 7.1 7.1.0 000 12.185 16.026 16.026.0 0017.974.0 7.1 7.1.0 000-12.185 15.035 15.035.0 00-8.987-2.756zm-12.157 1.378a2.313 2.313.0 10-1.351 4.2 10.278 10.278.0 012.8-3.692 2.309 2.309.0 00-1.448-.51zm24.314.0a2.308 2.308.0 00-1.447.51 10.344 10.344.0 012.8 3.689 2.317 2.317.0 00-1.351-4.2zm-17.345 3.143a1.856 1.856.0 011.858 1.853v0a1.854 1.854.0 01-1.853 1.858h-.005a1.854 1.854.0 01-1.855-1.855v0a1.856 1.856.0 011.852-1.858h0zm10.373.0a1.856 1.856.0 011.856 1.855h0a1.855 1.855.0 01-1.853 1.858h0a1.855 1.855.0 01-1.855-1.855v0a1.856 1.856.0 011.853-1.858h0zm-11.368 5.679a.845.845.0 01.615.278 7.095 7.095.0 009.968.414.882.882.0 011.185 1.3 8.85 8.85.0 01-12.441-.509.882.882.0 01.673-1.478z" transform="translate(-1474.491 -1221.714)" fill="#006dae"/></g></g></svg>