<svg xmlns="http://www.w3.org/2000/svg" xmlns:xlink="http://www.w3.org/1999/xlink" width="47" height="49" viewBox="0 0 47 49"><defs><clipPath id="b"><rect width="47" height="49"/></clipPath></defs><g id="a" clip-path="url(#b)"><g transform="translate(1.178 -0.472)"><g transform="translate(0.48 4.376)"><ellipse cx="18.969" cy="18.972" rx="18.969" ry="18.972" transform="translate(3.105 3.194)" fill="#fff" stroke="#fff" stroke-width=".31"/><path d="M43 21.593a21.705 21.705.0 010 17.185 23 23 0 01-4.7 7.088 22 22 0 01-7.085 4.693 21.727 21.727.0 01-17.184.0 23 23 0 01-7.088-4.7A22.064 22.064.0 012.253 21.593 23 23 0 016.948 14.5a21.988 21.988.0 017.085-4.693 21.7 21.7.0 0117.184.0 23.024 23.024.0 017.088 4.7A26 26 0 0143 21.593zM29.8 40.373l3.633-17.1a1.585 1.585.0 00-.267-1.6 1.05 1.05.0 00-1.24-.175l-21.347 8.24a2.03 2.03.0 00-.973.617.557.557.0 00-.089.62 1.108 1.108.0 00.8.445l5.492 1.682 12.664-7.973a.757.757.0 01.8-.178c.089.089.089.178-.089.356L18.906 34.7l-.445 5.668a1.9 1.9.0 001.151-.531l2.66-2.569 5.492 4.075c1.151.617 1.771.264 2.035-.976z" transform="translate(-0.48 -8.038)" fill="#006dae"/></g><g transform="translate(8.788 0.928)"><circle cx="7.629" cy="7.629" r="7.629" fill="#fff"/><path d="M25.482 1.546a7.331 7.331.0 107.325 7.325 7.338 7.338.0 00-7.325-7.325zm0 1.484A5.832 5.832.0 0131.32 8.855v.019A5.843 5.843.0 0119.635 8.9V8.871a5.836 5.836.0 015.848-5.844z" transform="translate(-17.85 -1.245)" fill="#006dae"/><g transform="translate(2.391 4.155)"><path d="M41.633 12.2l.08.155.836-.442-.16-.31-.836.443.161.31-.08-.155.08.155.836-.442-.16-.31-.836.443.161.31z" transform="translate(-32.294 -10.583)" fill="#006dae"/><path d="M42.181 15.751v.175h1.1v-.35h-1.1v.35h1.1v-.35h-1.1v.175z" transform="translate(-32.617 -12.628)" fill="#006dae"/><path d="M42.413 19.337l.08-.155-.888-.466-.159.31.888.466.16-.31-.08.155.08-.155-.888-.466-.159.31.888.466.16-.31z" transform="translate(-32.238 -14.244)" fill="#006dae"/><path d="M28.376 18.991l-.023.831.513-.124z" transform="translate(-25.495 -14.386)" fill="#005ba1"/><path d="M30.38 12.833s.006.09.18.094v.069l-.267.081z" transform="translate(-26.495 -11.215)" fill="#005ba1"/><path d="M30.381 18.565a.2.2.0 01.186-.068v-.1l-.267-.081z" transform="translate(-26.497 -14.04)" fill="#005ba1"/><path d="M38.22 15.849h0z" transform="translate(-30.571 -12.768)" fill="#005ba1"/><path d="M24.21 12.831a1.455 1.455.0 00-1.339.885v.006a.606.606.0 00-.412.573V14.3a.606.606.0 00.419.569 1.453 1.453.0 001.33.869h.039l.119 1.385h0l.113 1.11v0a.246.246.0 00.274.209L25.1 18.4l.281-.036.264-.034a.165.165.0 00.141-.185l-.248-.162-.085-1.009h0l-.081-1.237h.979V12.832z" transform="translate(-22.46 -11.214)" fill="#006dae"/><path d="M31.507 11.958V9.792a.307.307.0 00-.321-.29h-.088v0h-.048v.049a5.771 5.771.0 01-1.859 1.2 5.253 5.253.0 01-2.031.462L23.985 12.56l.039.014-.039.014 3.173 1.354a6.8 6.8.0 012.032.522A6.214 6.214.0 0131.049 15.6v.046h.047v0l.087-.005a.307.307.0 00.321-.29V13.159a.6.6.0 000-1.2zm-.782 2.711c-.086.042-.148-.032-.206-.08a7.105 7.105.0 00-1.153-.728 6.888 6.888.0 00-1.874-.636c-.146-.031-.173-.083-.171-.206.0-.265.007-.53.0-.794-.006-.151.057-.205.2-.227a6.9 6.9.0 003.032-1.352c.053-.039.106-.112.177-.079.09.042.051.139.052.212.0.618.0 1.237.0 1.855s0 1.217.0 1.825C30.775 14.53 30.816 14.625 30.725 14.669z" transform="translate(-23.245 -9.496)" fill="#006dae"/></g></g></g></g></svg>