<svg xmlns="http://www.w3.org/2000/svg" xmlns:xlink="http://www.w3.org/1999/xlink" width="47" height="49" viewBox="0 0 47 49"><defs><clipPath id="b"><rect width="47" height="49"/></clipPath></defs><g id="a" clip-path="url(#b)"><g transform="translate(1.517 0.88)"><g transform="translate(0 3.456)"><circle cx="18.96" cy="18.96" r="18.96" transform="translate(3.116 3.204)" fill="#fff" stroke="#fff" stroke-width="0.31"/><path d="M1669.17,1238.89a21.705,21.705,0,0,1,0,17.184,22.993,22.993,0,0,1-4.7,7.088,22.078,22.078,0,0,1-24.27,4.693,23.024,23.024,0,0,1-7.088-4.695,22.058,22.058,0,0,1-4.692-24.27,22.994,22.994,0,0,1,4.695-7.088,22.057,22.057,0,0,1,24.269-4.692,23.032,23.032,0,0,1,7.089,4.694A26,26,0,0,1,1669.17,1238.89Zm-13.2,18.78,3.633-17.1a1.585,1.585,0,0,0-.267-1.6,1.049,1.049,0,0,0-1.24-.175l-21.348,8.239a2.028,2.028,0,0,0-.973.617.557.557,0,0,0-.089.62,1.106,1.106,0,0,0,.8.445l5.493,1.682,12.664-7.973a.757.757,0,0,1,.8-.177c.089.089.089.177-.089.355l-10.274,9.39-.445,5.668a1.9,1.9,0,0,0,1.151-.531l2.66-2.568,5.493,4.075c1.151.617,1.771.264,2.035-.976Z" transform="translate(-1626.651 -1225.336)" fill="#006dae"/></g><g transform="translate(8.237)"><circle cx="7.654" cy="7.654" r="7.654" fill="#fff"/><path d="M1642.545,1222.183a7.354,7.354,0,1,0,7.348,7.348,7.361,7.361,0,0,0-7.348-7.348Zm0,1.488a5.851,5.851,0,0,1,5.857,5.844v.019a5.862,5.862,0,0,1-11.723.026v-.029a5.854,5.854,0,0,1,5.866-5.863Z" transform="translate(-1634.888 -1221.88)" fill="#006dae"/><path d="M1641.282,1226.291a1.26,1.26,0,0,1,2.517-.127c0,.042,0,.084,0,.127a1.26,1.26,0,0,1-2.517,0Zm1.864,2.115a1.367,1.367,0,0,1,.257-.739,1.645,1.645,0,0,0-.328-.033h-1.067a1.606,1.606,0,0,0-.331.033,1.383,1.383,0,0,1,.26.794A1.364,1.364,0,0,1,1643.146,1228.406Zm.212.112a1.439,1.439,0,0,1,.669,1.068,1.17,1.17,0,1,0-.669-1.084Zm-.758,2.376a1.161,1.161,0,1,0,0-2.321h0a1.161,1.161,0,1,0,0,2.321Zm.491.077h-.983a1.488,1.488,0,0,0-1.485,1.485v1.225l.083.032a6.773,6.773,0,0,0,2.022.321,4.184,4.184,0,0,0,1.762-.327l.077-.039h.009v-1.2a1.485,1.485,0,0,0-1.485-1.486Zm1.919-1.2h-.977a1.429,1.429,0,0,1-.44,1,1.766,1.766,0,0,1,1.26,1.687v.37a3.991,3.991,0,0,0,1.556-.325l.077-.041h.01v-1.2A1.489,1.489,0,0,0,1645.01,1229.775Zm-4.445-.08a1.134,1.134,0,0,0,.617-.18,1.434,1.434,0,0,1,.537-.913l0-.064a1.157,1.157,0,1,0-1.157,1.157Zm1.041,1.077a1.429,1.429,0,0,1-.44-.99h-1.1a1.487,1.487,0,0,0-1.485,1.485v1.2l0,.032.084.032a7,7,0,0,0,1.671.315v-.363a1.769,1.769,0,0,1,1.263-1.691Z" transform="translate(-1634.888 -1221.88)" fill="#006dae"/></g></g></g></svg>