<svg xmlns="http://www.w3.org/2000/svg" xmlns:xlink="http://www.w3.org/1999/xlink" width="49" height="48" viewBox="0 0 49 48"><defs><clipPath id="b"><rect width="49" height="48"/></clipPath></defs><g id="a" clip-path="url(#b)"><g transform="translate(0.513)"><circle cx="19.221" cy="19.221" r="19.221" transform="translate(4.689 4.922)" fill="#fff"/><path d="M1568.125 1243.771a3.161 3.161.0 102.887 3.155A3.025 3.025.0 001568.125 1243.771zm9.872.0a3.16 3.16.0 102.9 3.155A3.02 3.02.0 001578 1243.771z" transform="translate(-1549.598 -1221.08)" fill="#006dae"/><path d="M1597.7 1245.178a24.026 24.026.0 10-24.026 24.026A24.026 24.026.0 001597.7 1245.178zm-16.849 11.376s-.984-1.166-1.79-2.189a8.573 8.573.0 004.9-3.225 15.481 15.481.0 01-3.116 1.6 17.771 17.771.0 01-3.927 1.166 18.974 18.974.0 01-7.018-.026 22.621 22.621.0 01-3.979-1.166 15.9 15.9.0 01-1.976-.92c-.083-.052-.161-.083-.245-.135a.318.318.0 01-.109-.083 8.823 8.823.0 01-.759-.464 8.4 8.4.0 004.739 3.2c-.812 1.03-1.81 2.248-1.81 2.248-5.988-.187-8.266-4.115-8.266-4.115a36.267 36.267.0 013.9-15.793 13.37 13.37.0 017.61-2.846l.271.328a18.3 18.3.0 00-7.126 3.542s.6-.322 1.6-.781a20.188 20.188.0 016.154-1.706 2.257 2.257.0 01.457-.051 22.076 22.076.0 0113.629 2.549 17.953 17.953.0 00-6.752-3.444l.385-.437a13.37 13.37.0 017.61 2.846 36.288 36.288.0 013.9 15.793S1586.834 1256.365 1580.851 1256.553z" transform="translate(-1549.647 -1221.151)" fill="#006dae"/></g></g></svg>