<svg width="376.99799" height="224.873" viewBox="0 0 99.218608 59.497882" id="svg4043" sodipodi:docname="WEB.svg" inkscape:version="1.2.2 (b0a8486541, 2022-12-01, custom)" xmlns:inkscape="http://www.inkscape.org/namespaces/inkscape" xmlns:sodipodi="http://sodipodi.sourceforge.net/DTD/sodipodi-0.dtd" xmlns="http://www.w3.org/2000/svg" xmlns:svg="http://www.w3.org/2000/svg"><sodipodi:namedview id="namedview4045" pagecolor="#ffffff" bordercolor="#000000" borderopacity=".25" inkscape:showpageshadow="2" inkscape:pageopacity="0" inkscape:pagecheckerboard="0" inkscape:deskcolor="#d1d1d1" showgrid="false" inkscape:zoom="2.675" inkscape:cx="150.28037" inkscape:cy="112.52336" inkscape:window-width="1858" inkscape:window-height="1023" inkscape:window-x="62" inkscape:window-y="27" inkscape:window-maximized="1" inkscape:current-layer="svg4043"/><defs id="defs4029"><clipPath clipPathUnits="userSpaceOnUse" id="a"><path d="M0 192H192V0H0z" id="path4026"/></clipPath></defs><g clip-path="url(#a)" style="stroke-width:.853333" transform="matrix(0.41341,0,0,-0.41341,0,69.436344)" id="g4041"><path d="M77.608 52.126H63.217V66.518H77.608zM58.182 126.322H72.573V111.931H58.182zm61.859 41.638H120.04A71.968 71.968.0 0192.606 162.522V150.299H78.215v4.253A71.994 71.994.0 0166.362 143.918h1.482V129.527H56.373a71.97 71.97.0 01-7.039-20.182h8.848V94.953H48.093a71.892 71.892.0 011.419-13.182H61.493V67.38H54.026A71.964 71.964.0 0174.977 39.905v3.868H89.368V30.912A71.951 71.951.0 01120.04 24.04C159.782 24.04 192 56.257 192 96c0 39.742-32.217 71.96-71.959 71.96M49.622 163.956H64.013V149.565H49.622zM35.613 143.918H50.004V129.527H35.613zM.214 141.877H14.605V127.486H.214zm14.487-27.331H29.092V100.155H14.701zM26.675 81.771H41.066V67.38H26.675zM0 67.12H14.391V52.729H0zM39.219 45.09H53.61V30.699H39.219z" style="fill:#d1b000;fill-opacity:1;fill-rule:nonzero;stroke:none;stroke-width:.853333" id="path4031"/><g style="stroke-width:.853333" id="g4035"><path d="M0 0H14.974l7.36-36.28L42.522.0H57.463L48.201-51.961H36.585l4.76 30.154-16.074-28.951-.667-1.203h-9.377l-.431 2.133.001.001-6.123 30.306-5.782-32.44H-8.723l4.759 30.154z" style="fill:#252525;fill-opacity:1;fill-rule:nonzero;stroke:none;stroke-width:.853333" transform="translate(76.884,123.735)" id="path4033"/></g><g style="stroke-width:.853333" id="g4039"><path d="m0 0c2.143 4.076 5.738 6.734 9.109 6.733 3.371.0 5.854-2.658 6.292-6.733zm11.337 17.115c-11.46.0-22.488-9.532-24.632-21.291-2.145-11.758 5.406-21.29 16.865-21.29 8.516.0 17.14 5.339 21.753 13.464h-14.33c-1.967-1.976-4.279-3.081-6.446-3.083-3.687.023-6.258 3.223-6.319 7.863h29.206c.326 1.009.583 2.027.77 3.046v.001c2.144 11.759-5.408 21.291-16.867 21.29" style="fill:#252525;fill-opacity:1;fill-rule:nonzero;stroke:none;stroke-width:.853333" transform="translate(146.83,96.84)" id="path4037"/></g></g></svg>