<svg width="11" height="13" viewBox="0 0 11 13" fill="none" xmlns="http://www.w3.org/2000/svg">
<path d="M4.07428 0.759853C4.40904 0.639125 4.75044 0.547857 5.09849 0.486051C5.44654 0.424245 5.79946 0.392536 6.15727 0.390923C6.64662 0.389659 7.12747 0.45318 7.59983 0.581487C8.07219 0.709793 8.51222 0.897542 8.91994 1.14473C9.32766 1.39192 9.68881 1.69772 10.0034 2.06212C10.318 2.42651 10.5617 2.84833 10.7345 3.32757C10.7981 3.50376 10.8011 3.67787 10.7437 3.8499C10.6863 4.02193 10.606 4.18029 10.5029 4.325C10.4891 4.34192 10.4695 4.36492 10.4442 4.39397C10.4188 4.42303 10.3906 4.45512 10.3594 4.49024C10.3283 4.52536 10.3029 4.55442 10.2833 4.57741C10.2638 4.6004 10.2488 4.61972 10.2385 4.63538L8.62316 8.07313L9.48668 10.4676C9.53752 10.6085 9.53139 10.7461 9.46831 10.8804C9.40522 11.0146 9.30321 11.1071 9.16225 11.158L6.79426 12.012C6.65331 12.0628 6.51571 12.0567 6.38146 11.9936C6.24721 11.9305 6.15466 11.8285 6.10383 11.6875L5.2403 9.29312L1.80256 7.67774C1.79297 7.67323 1.7709 7.66725 1.73635 7.6598C1.70181 7.65235 1.66198 7.6468 1.61686 7.64316C1.57175 7.63952 1.53192 7.63397 1.49737 7.62652C1.46283 7.61907 1.43068 7.61274 1.40093 7.60754C1.22919 7.56196 1.06632 7.49128 0.912312 7.3955C0.758307 7.29972 0.649533 7.16374 0.585992 6.98755C0.41443 6.51184 0.333447 6.03332 0.343043 5.55201C0.352639 5.07069 0.434847 4.60301 0.589669 4.14897C0.74449 3.69492 0.963404 3.26953 1.24641 2.87279C1.52942 2.47605 1.85904 2.12024 2.23528 1.80535C2.51176 1.57822 2.80368 1.37737 3.11106 1.2028C3.41844 1.02823 3.73952 0.880582 4.07428 0.759853ZM5.93007 6.9657C5.5082 7.10988 5.08413 7.23693 4.65787 7.34686C4.2316 7.45678 3.79532 7.54444 3.34901 7.60982L5.54784 8.63865L6.41998 8.32412L5.93007 6.9657ZM7.96869 7.7656L9.00471 5.57015C8.62166 5.79988 8.23097 6.00847 7.83267 6.19592C7.43436 6.38337 7.02569 6.55863 6.60664 6.7217L7.09655 8.08013L7.96869 7.7656Z" fill="#D1B000"/>
</svg>