<?xml version="1.0" encoding="utf-8"?>
<!-- Generator: Adobe Illustrator 23.1.0, SVG Export Plug-In . SVG Version: 6.00 Build 0)  -->
<svg version="1.1" id="Capa_1" xmlns="http://www.w3.org/2000/svg" xmlns:xlink="http://www.w3.org/1999/xlink" x="0px" y="0px"
	 viewBox="0 0 128 128" style="enable-background:new 0 0 128 128;" xml:space="preserve">
<style type="text/css">
	.st0{fill:#FFFFFF;}
</style>
<g>
	<polygon class="st0" points="64.34,82.01 81.45,108.86 97.25,99.7 74.78,64.29 	"/>
	<path class="st0" d="M111.63,88.93l-0.01-7.34L87.08,43.36l-9.11,15.45l23.7,38.32l8.57-4.96c0.84-0.68,1.35-1.68,1.4-2.76
		L111.63,88.93z"/>
	<path class="st0" d="M8.78,95.85l12.1,6.97l40.26-64.57l-6.83-0.18c-5.82-0.08-12.09,1.43-14.97,6.13L16.47,79.64L8.78,91.46
		L8.78,95.85L8.78,95.85z"/>
	<polygon class="st0" points="84.37,38.25 66.37,38.32 25.62,105.55 39.86,113.75 43.74,107.18 	"/>
	<path class="st0" d="M119.22,38.16c-0.15-3.77-2.19-7.21-5.38-9.22L69.07,3.19c-3.16-1.59-7.11-1.59-10.27,0
		c-0.37,0.19-43.54,25.22-43.54,25.22c-0.6,0.29-1.17,0.63-1.71,1.01c-2.85,2.04-4.59,5.22-4.77,8.71v53.32l7.69-11.82L16.4,38.5
		c0.01-0.15,0.03-0.3,0.05-0.44c0.17-0.97,0.71-1.83,1.53-2.42c0.2-0.15,44.1-25.56,44.24-25.63c1.03-0.52,2.34-0.52,3.38-0.02
		l44.19,25.42c1.05,0.67,1.7,1.79,1.76,3.03v50.96c-0.05,1.08-0.48,2.08-1.32,2.76l-8.57,4.96l-4.42,2.56l-15.8,9.16l-16.02,9.29
		c-0.86,0.31-1.87,0.29-2.73-0.05l-18.96-10.9l-3.87,6.57l17.04,9.81c0.56,0.32,1.07,0.6,1.48,0.84c0.64,0.36,1.07,0.6,1.23,0.67
		c1.21,0.59,2.95,0.93,4.52,0.93c1.44,0,2.84-0.26,4.17-0.78l46.54-26.95c2.67-2.07,4.24-5.19,4.38-8.57V38.16z"/>
</g>
</svg>
