<?xml version="1.0" encoding="utf-8"?>
<!-- Generator: Adobe Illustrator 23.1.0, SVG Export Plug-In . SVG Version: 6.00 Build 0)  -->
<svg version="1.1" id="Capa_1" xmlns="http://www.w3.org/2000/svg" xmlns:xlink="http://www.w3.org/1999/xlink" x="0px" y="0px"
	 viewBox="0 0 128 128" style="enable-background:new 0 0 128 128;" xml:space="preserve">
<style type="text/css">
	.st0{fill-rule:evenodd;clip-rule:evenodd;fill:#FFFFFF;}
</style>
<path class="st0" d="M126,64c0,34.24-27.76,62-62,62C29.76,126,2,98.24,2,64C2,29.76,29.76,2,64,2C98.24,2,126,29.76,126,64z
	 M46.43,88.67H34.4c-2.53,0-3.78,0-4.54-0.49c-0.82-0.53-1.33-1.42-1.39-2.39c-0.05-0.9,0.58-2,1.83-4.19l29.71-52.37
	c1.26-2.22,1.9-3.34,2.71-3.75c0.87-0.44,1.9-0.44,2.77,0c0.81,0.41,1.45,1.52,2.71,3.75l6.11,10.66l0.03,0.05
	c1.37,2.39,2.06,3.6,2.36,4.87c0.34,1.39,0.34,2.85,0,4.23c-0.3,1.28-0.99,2.5-2.38,4.92L58.72,81.56l-0.04,0.07
	c-1.37,2.41-2.07,3.62-3.04,4.54c-1.05,1.01-2.32,1.74-3.7,2.15C50.68,88.67,49.26,88.67,46.43,88.67z M76.82,88.67h17.24
	c2.54,0,3.82,0,4.59-0.5c0.82-0.53,1.34-1.43,1.39-2.41c0.04-0.87-0.57-1.92-1.76-3.99c-0.04-0.07-0.08-0.14-0.12-0.21L89.5,66.79
	l-0.1-0.17c-1.21-2.05-1.83-3.09-2.61-3.49c-0.87-0.44-1.89-0.44-2.76,0c-0.79,0.41-1.43,1.49-2.7,3.67l-8.61,14.77l-0.03,0.05
	c-1.26,2.17-1.89,3.26-1.84,4.15c0.06,0.97,0.56,1.87,1.39,2.41C72.99,88.67,74.27,88.67,76.82,88.67z"/>
</svg>
