<svg id="Layer_1" data-name="Layer 1" xmlns="http://www.w3.org/2000/svg" viewBox="0 0 213.33 213.33"><defs><style>.cls-1{fill:#fff;}</style></defs><path class="cls-1" d="M133.33,17.33A106.67,106.67,0,1,0,240,124,106.56,106.56,0,0,0,133.33,17.33ZM64,102.67H88.46l15.12-15.12a18.64,18.64,0,1,1,7.54,7.54L94.44,111.77a5.32,5.32,0,0,1-3.77,1.56H64Zm138.67,42.66H178.21l-15.12,15.12a18.64,18.64,0,1,1-7.54-7.54l16.68-16.68a5.32,5.32,0,0,1,3.77-1.56h26.67Zm0-37.33h-45.8l-41.1,41.1a5.29,5.29,0,0,1-3.77,1.57H64V140h45.79L150.9,98.9a5.27,5.27,0,0,1,3.77-1.57h48Z" transform="translate(-26.67 -17.33)"/></svg>