<svg xmlns="http://www.w3.org/2000/svg" viewBox="0 0 448 512"><path d="M256 32V49.88C328.5 61.39 384 124.2 384 2e2v33.4c0 45.4 15.5 89.5 43.8 125L442.7 377C448.5 384.2 449.6 394.1 445.6 402.4 441.6 410.7 433.2 416 424 416H24C14.77 416 6.365 410.7 2.369 402.4-1.628 394.1-.504 384.2 5.26 377l14.91-18.6C48.54 322.9 64 278.8 64 233.4V2e2c0-75.8 55.5-138.61 128-150.12V32c0-17.67 14.3-32 32-32s32 14.33 32 32v0zM216 96c-57.4.0-104 46.6-104 104v33.4C112 281.3 98.12 328 72.31 368H375.7C349.9 328 336 281.3 336 233.4V2e2c0-57.4-46.6-104-104-104H216zm72 352C288 464.1 281.3 481.3 269.3 493.3S240.1 512 224 512C207 512 190.7 505.3 178.7 493.3S160 464.1 160 448H288z"/></svg>