<svg xmlns="http://www.w3.org/2000/svg" viewBox="0 0 193.85 280"><defs><style>.cls-1{fill:#efefef}.cls-2{fill:#d1b000}.cls-3{fill:#fff}.cls-4{font-size:46.79px;fill:#5a5a5a;font-family:Roboto-Bold,Roboto;font-weight:700;letter-spacing:-.03em}.cls-5{fill:#aaa}</style></defs><title>Recurso 7</title><g id="Capa_2" data-name="Capa 2"><g id="Capa_1-2" data-name="Capa 1"><rect class="cls-1" width="193.85" height="280" rx="5"/><path class="cls-2" d="M188.1.0H5.76C2.58.0.0 1.31.0 2.93V19.8H193.85V2.93C193.85 1.31 191.28.0 188.1.0z"/><rect class="cls-3" x="13.27" y="27.75" width="167.31" height="243.25"/><text class="cls-4" transform="translate(31.09 79.11)">T</text><rect class="cls-5" x="64.18" y="51.72" width="98.76" height="5.03"/><rect class="cls-5" x="64.18" y="62.04" width="66.53" height="5.03"/><rect class="cls-5" x="64.18" y="72.86" width="98.76" height="5.03"/><rect class="cls-5" x="30.91" y="83.73" width="132.03" height="5.03"/><rect class="cls-5" x="30.91" y="94.43" width="112.63" height="5.03"/><rect class="cls-5" x="30.91" y="105.12" width="123.24" height="5.03"/><rect class="cls-5" x="30.91" y="181.8" width="132.03" height="5.03"/><rect class="cls-5" x="30.91" y="192.5" width="112.63" height="5.03"/><rect class="cls-5" x="30.91" y="203.2" width="123.24" height="5.03"/><rect class="cls-5" x="30.91" y="224.13" width="112.63" height="5.03"/><rect class="cls-5" x="30.91" y="234.83" width="123.24" height="5.03"/><rect class="cls-2" x="31.08" y="117.59" width="131.87" height="55.86"/></g></g></svg>