<svg id="Layer_1" xmlns="http://www.w3.org/2000/svg" xmlns:xlink="http://www.w3.org/1999/xlink" viewBox="0 0 956.8 1266.5" style="enable-background:new 0 0 956.8 1266.5"><style>.st0{fill:#d1b000}</style><g id="Layer_2_1_"><g id="Layer_1-2"><path class="st0" d="M954.3 509.1c19.9-133.1-81.4-204.6-220-252.3l45-180.3L669.6 49.2l-43.8 175.5c-28.8-7.2-58.4-14-87.9-20.7l44-176.7L472.2.0l-44.9 180.2L206 125.4l-29.2 117.2s81.4 18.7 79.7 19.8c44.4 11.1 52.5 40.5 51.1 63.8L184.5 820c-5.4 13.5-19.2 33.7-50.3 26 1.1 1.6-79.8-20-79.8-20L0 951.8l221 55.8L175.6 1190l109.6 27.3 45-180.4c30 8.1 59 15.6 87.4 22.7l-44.8 179.6 109.7 27.3 45.4-182c187.1 35.4 327.8 21.1 387-148 47.7-136.3-2.3-214.8-100.8-266.1 71.7-16.6 125.7-63.7 140.1-161.2M703.5 860.7c-34 136.3-263.4 62.6-337.8 44.1L426 663.3C500.4 681.8 738.9 718.6 703.5 860.7m34-353.5c-30.9 124-221.9 61-283.9 45.5l54.6-219.1c62 15.5 261.5 44.3 229.3 173.6"/></g></g></svg>