<svg width="391.88" height="341.33" viewBox="0 0 103.69 90.31" id="svg8" xmlns:xlink="http://www.w3.org/1999/xlink" xmlns="http://www.w3.org/2000/svg"><defs id="defs2"><color-profile name="U.S.-Web-Coated--SWOP--v2" xlink:href="file:///usr/share/color/icc/USWebCoatedSWOP.icc" id="color-profile58477"/><color-profile name="sRGB" xlink:href="file:///usr/share/color/icc/colord/sRGB.icc" id="color-profile58479"/><clipPath clipPathUnits="userSpaceOnUse" id="clipPath8232"><path d="M0 3354h1920V0H0z" id="path8230"/></clipPath></defs><g id="layer1" transform="translate(-152.3 -91.9)"><g id="g8226" transform="matrix(.35278 0 0 -.35278 41.18 799.22)"><g id="g8228" clip-path="url(#clipPath8232)"><g id="g8234" transform="translate(579.98 1871.77)"><path d="M0 0a122.4 122.4.0 00-38.24-89.03 122.3 122.3.0 00-84.53-33.74c-21.92.0-49.49 11.7-74.5 27.91a250.48 250.48.0 00-9 6.1 252.36 252.36.0 00-27.4 22.38 177.43 177.43.0 00-15.82 16.91C-268.7-25.76-272.95-4.39-245.54.0a294.85 294.85.0 0122.14 4.42 215.77 215.77.0 0120.07 5.89c22.72 7.98 37.93 18.38 48.27 29.67a81.5 81.5.0 0111.02 15.17 88.14 88.14.0 016.36 14.19l.1.27c8.23 23.75 5.73 45.79 14.81 53.16 38.83 31.52 87.18-13.37 109.87-66.31a182.8 182.8.0 007.55-21.17 151.56 151.56.0 001.94-7.52C-1.2 18.25.0 8.87.0.0" style="fill:#f1f1f1;fill-opacity:1;fill-rule:nonzero;stroke:none" id="path8236"/></g><g id="g8238" transform="translate(459.96 1749.03)"><path d="M0 0c-.92-.02-1.83-.03-2.76-.03-21.92.0-49.48 11.7-74.5 27.91A251.47 251.47.0 00-83.42 32l1.79 10.85 53.97 7.17L-.56 29.3z" style="fill:#3f3d56;fill-opacity:1;fill-rule:nonzero;stroke:none" id="path8240"/></g><g id="g8242" transform="translate(462.55 1942.74)"><path d="M0 0h-7.68a.9.9.0 01-.9-.9v-7.68c0-.5.4-.9.9-.9H0c.5.0.9.4.9.9V-.9C.9-.4.5.0.0.0" style="fill:#fff;fill-opacity:1;fill-rule:nonzero;stroke:none" id="path8244"/></g><g id="g8246" transform="translate(462.56 1929.66)"><path d="M0 0h-7.7a.9.9.0 01-.89-.9v-7.7c0-.49.4-.89.9-.89H0c.5.0.9.4.9.9v7.7A.9.9.0 010 0" style="fill:#afafaf;fill-opacity:1;fill-rule:nonzero;stroke:none" id="path8248"/></g><g id="g8250" transform="translate(462.56 1916.55)"><path d="M0 0h-7.7a.9.9.0 01-.89-.9v-7.7c0-.49.4-.89.9-.89H0c.5.0.9.4.9.9v7.7A.9.9.0 010 0" style="fill:#e6e6e6;fill-opacity:1;fill-rule:nonzero;stroke:none" id="path8252"/></g><g id="g8254" transform="translate(463.45 1902.7)"><path d="M0 0a.9.9.0 01-.89.74h-7.69a.9.9.0 01-.9-.9v-7.7c0-.49.4-.89.9-.89h7.7c.5.0.9.4.9.9v7.7L0 0" style="fill:#e6e6e6;fill-opacity:1;fill-rule:nonzero;stroke:none" id="path8256"/></g><g id="g8258" transform="translate(462.91 1890.25)"><path d="M0 0a.93.93.0 01-.35.07h-7.7a.9.9.0 01-.89-.9v-7.7c0-.49.4-.89.9-.89h7.7c.49.0.89.4.89.9v7.69A.9.9.0 010 0" style="fill:#e6e6e6;fill-opacity:1;fill-rule:nonzero;stroke:none" id="path8260"/></g><g id="g8262" transform="translate(478.72 1942.78)"><path d="M0 0h-7.7a.9.9.0 01-.9-.9v-7.7a.9.9.0 01.9-.89H0c.5.0.9.4.9.9v7.7A.9.9.0 010 0" style="fill:#afafaf;fill-opacity:1;fill-rule:nonzero;stroke:none" id="path8264"/></g><g id="g8266" transform="translate(478.69 1929.64)"><path d="M0 0h-7.68a.9.9.0 01-.9-.9v-7.68c0-.5.4-.9.9-.9H0c.5.0.9.4.9.9V-.9C.9-.4.5.0.0.0" style="fill:#fff;fill-opacity:1;fill-rule:nonzero;stroke:none" id="path8268"/></g><g id="g8270" transform="translate(478.69 1916.54)"><path d="M0 0h-7.68a.9.9.0 01-.9-.9v-7.68c0-.5.4-.9.9-.9H0c.5.0.9.4.9.9V-.9C.9-.4.5.0.0.0" style="fill:#fff;fill-opacity:1;fill-rule:nonzero;stroke:none" id="path8272"/></g><g id="g8274" transform="translate(478.72 1903.44)"><path d="M0 0h-7.7a.9.9.0 01-.9-.9v-7.7c0-.49.4-.89.9-.89H0c.5.0.9.4.9.9v7.7A.9.9.0 010 0" style="fill:#afafaf;fill-opacity:1;fill-rule:nonzero;stroke:none" id="path8276"/></g><g id="g8278" transform="translate(478.72 1890.32)"><path d="M0 0h-7.7a.9.9.0 01-.9-.9v-7.69c0-.5.4-.9.9-.9H0c.5.0.9.4.9.9v7.7A.9.9.0 010 0" style="fill:#e6e6e6;fill-opacity:1;fill-rule:nonzero;stroke:none" id="path8280"/></g><g id="g8282" transform="translate(494.83 1942.74)"><path d="M0 0h-7.68a.9.9.0 01-.9-.9v-7.68c0-.5.4-.9.9-.9H0c.5.0.9.4.9.9V-.9C.9-.4.5.0.0.0" style="fill:#fff;fill-opacity:1;fill-rule:nonzero;stroke:none" id="path8284"/></g><g id="g8286" transform="translate(494.88 1929.66)"><path d="M0 0h-7.7a.9.9.0 01-.9-.9v-7.7a.9.9.0 01.9-.89H0c.5.0.9.4.9.9v7.7A.9.9.0 010 0" style="fill:#afafaf;fill-opacity:1;fill-rule:nonzero;stroke:none" id="path8288"/></g><g id="g8290" transform="translate(494.83 1916.54)"><path d="M0 0h-7.68a.9.9.0 01-.9-.9v-7.68c0-.5.4-.9.9-.9H0c.5.0.9.4.9.9V-.9C.9-.4.5.0.0.0" style="fill:#fff;fill-opacity:1;fill-rule:nonzero;stroke:none" id="path8292"/></g><g id="g8294" transform="translate(494.83 1890.35)"><path d="M0 0h-7.68a.9.9.0 01-.9-.9v-7.68c0-.5.4-.9.9-.9H0c.5.0.9.4.9.9V-.9C.9-.4.5.0.0.0" style="fill:#fff;fill-opacity:1;fill-rule:nonzero;stroke:none" id="path8296"/></g><g id="g8298" transform="translate(510.96 1942.74)"><path d="M0 0h-7.68a.9.9.0 01-.9-.9v-7.68c0-.5.4-.9.9-.9H0c.5.0.9.4.9.9V-.9C.9-.4.5.0.0.0" style="fill:#fff;fill-opacity:1;fill-rule:nonzero;stroke:none" id="path8300"/></g><g id="g8302" transform="translate(510.96 1929.64)"><path d="M0 0h-7.68a.9.9.0 01-.9-.9v-7.68c0-.5.4-.9.9-.9H0c.5.0.9.4.9.9V-.9C.9-.4.5.0.0.0" style="fill:#fff;fill-opacity:1;fill-rule:nonzero;stroke:none" id="path8304"/></g><g id="g8306" transform="translate(511.04 1916.55)"><path d="M0 0h-7.7a.9.9.0 01-.89-.9v-7.7c0-.49.4-.89.9-.89H0c.5.0.9.4.9.9v7.7A.9.9.0 010 0" style="fill:#afafaf;fill-opacity:1;fill-rule:nonzero;stroke:none" id="path8308"/></g><g id="g8310" transform="translate(510.96 1903.45)"><path d="M0 0h-7.68a.9.9.0 01-.9-.9v-7.68c0-.5.4-.9.9-.9H0c.5.0.9.4.9.9V-.9C.9-.4.5.0.0.0" style="fill:#fff;fill-opacity:1;fill-rule:nonzero;stroke:none" id="path8312"/></g><g id="g8314" transform="translate(511.04 1890.32)"><path d="M0 0h-7.7a.9.9.0 01-.89-.9v-7.69c0-.5.4-.9.9-.9H0c.5.0.9.4.9.9v7.7A.9.9.0 010 0" style="fill:#afafaf;fill-opacity:1;fill-rule:nonzero;stroke:none" id="path8316"/></g><g id="g8318" transform="translate(527.1 1942.74)"><path d="M0 0h-7.69a.9.9.0 01-.89-.9v-7.68c0-.5.4-.9.9-.9H0c.5.0.9.4.9.9V-.9C.9-.4.5.0.0.0" style="fill:#fff;fill-opacity:1;fill-rule:nonzero;stroke:none" id="path8320"/></g><g id="g8322" transform="translate(527.2 1916.55)"><path d="M0 0h-7.7a.9.9.0 01-.89-.9v-7.7c0-.48.4-.89.9-.89H0c.5.0.9.4.9.9v7.7A.9.9.0 010 0" style="fill:#fff;fill-opacity:1;fill-rule:nonzero;stroke:none" id="path8324"/></g><g id="g8326" transform="translate(527.2 1903.44)"><path d="M0 0h-7.7a.9.9.0 01-.89-.9v-7.7c0-.48.4-.89.9-.89H0c.5.0.9.4.9.9v7.7A.9.9.0 010 0" style="fill:#afafaf;fill-opacity:1;fill-rule:nonzero;stroke:none" id="path8328"/></g><g id="g8330" transform="translate(527.2 1890.32)"><path d="M0 0h-7.7a.9.9.0 01-.89-.9v-7.69c0-.5.4-.9.9-.9H0c.5.0.9.4.9.9v7.7A.9.9.0 010 0" style="fill:#fff;fill-opacity:1;fill-rule:nonzero;stroke:none" id="path8332"/></g><g id="g8334" transform="translate(543.35 1942.78)"><path d="M0 0h-7.7a.9.9.0 01-.9-.9v-7.7a.9.9.0 01.9-.89H0c.5.0.9.4.9.9v7.7A.9.9.0 010 0" style="fill:#fff;fill-opacity:1;fill-rule:nonzero;stroke:none" id="path8336"/></g><g id="g8338" transform="translate(543.35 1929.66)"><path d="M0 0h-7.7a.9.9.0 01-.9-.9v-7.7a.9.9.0 01.9-.89H0c.5.0.9.4.9.9v7.7A.9.9.0 010 0" style="fill:#afafaf;fill-opacity:1;fill-rule:nonzero;stroke:none" id="path8340"/></g><g id="g8342" transform="translate(543.35 1916.55)"><path d="M0 0h-7.7a.9.9.0 01-.9-.9v-7.7c0-.48.4-.89.9-.89H0c.5.0.9.4.9.9v7.7A.9.9.0 010 0" style="fill:#fff;fill-opacity:1;fill-rule:nonzero;stroke:none" id="path8344"/></g><g id="g8346" transform="translate(543.35 1903.44)"><path d="M0 0h-7.7a.9.9.0 01-.9-.9v-7.7c0-.48.4-.89.9-.89H0c.5.0.9.4.9.9v7.7A.9.9.0 010 0" style="fill:#fff;fill-opacity:1;fill-rule:nonzero;stroke:none" id="path8348"/></g><g id="g8350" transform="translate(559.51 1942.78)"><path d="M0 0h-7.7a.9.9.0 01-.9-.9v-7.7a.9.9.0 01.9-.89H0c.5.0.9.4.9.9v7.7A.9.9.0 010 0" style="fill:#fff;fill-opacity:1;fill-rule:nonzero;stroke:none" id="path8352"/></g><g id="g8354" transform="translate(559.51 1929.66)"><path d="M0 0h-7.7a.9.9.0 01-.9-.9v-7.7a.9.9.0 01.9-.89H0c.5.0.9.4.9.9v7.7A.9.9.0 010 0" style="fill:#fff;fill-opacity:1;fill-rule:nonzero;stroke:none" id="path8356"/></g><g id="g8358" transform="translate(559.51 1916.55)"><path d="M0 0h-7.7a.9.9.0 01-.9-.9v-7.7c0-.48.4-.89.9-.89H0c.5.0.9.4.9.9v7.7A.9.9.0 010 0" style="fill:#fff;fill-opacity:1;fill-rule:nonzero;stroke:none" id="path8360"/></g><g id="g8362" transform="translate(559.51 1903.44)"><path d="M0 0h-7.7a.9.9.0 01-.9-.9v-7.7c0-.48.4-.89.9-.89H0c.5.0.9.4.9.9v7.7A.9.9.0 010 0" style="fill:#afafaf;fill-opacity:1;fill-rule:nonzero;stroke:none" id="path8364"/></g><g id="g8366" transform="translate(559.51 1890.32)"><path d="M0 0h-7.7a.9.9.0 01-.9-.9v-7.69c0-.5.4-.9.9-.9H0c.5.0.9.4.9.9v7.7A.9.9.0 010 0" style="fill:#fff;fill-opacity:1;fill-rule:nonzero;stroke:none" id="path8368"/></g><g id="g8370" transform="translate(575.67 1929.66)"><path d="M0 0h-7.7a.9.9.0 01-.9-.9v-7.7a.9.9.0 01.9-.89H0c.5.0.9.4.9.9v7.7A.9.9.0 010 0" style="fill:#f1f1f1;fill-opacity:1;fill-rule:nonzero;stroke:none" id="path8372"/></g><g id="g8374" transform="translate(575.67 1916.55)"><path d="M0 0h-7.7a.9.9.0 01-.9-.9v-7.7c0-.48.4-.89.9-.89H0c.5.0.9.4.9.9v7.7A.9.9.0 010 0" style="fill:#afafaf;fill-opacity:1;fill-rule:nonzero;stroke:none" id="path8376"/></g><g id="g8378" transform="translate(575.67 1903.44)"><path d="M0 0h-7.7a.9.9.0 01-.9-.9v-7.7c0-.48.4-.89.9-.89H0c.5.0.9.4.9.9v7.7A.9.9.0 010 0" style="fill:#afafaf;fill-opacity:1;fill-rule:nonzero;stroke:none" id="path8380"/></g><g id="g8382" transform="translate(575.67 1890.32)"><path d="M0 0h-7.7a.9.9.0 01-.9-.9v-7.69c0-.5.4-.9.9-.9H0c.5.0.9.4.9.9v7.7A.9.9.0 010 0" style="fill:#fff;fill-opacity:1;fill-rule:nonzero;stroke:none" id="path8384"/></g><g id="g8386" transform="translate(591.83 1942.78)"><path d="M0 0h-7.7a.9.9.0 01-.89-.9v-7.7c0-.49.4-.89.9-.89H0c.5.0.9.4.9.9v7.7A.9.9.0 010 0" style="fill:#f1f1f1;fill-opacity:1;fill-rule:nonzero;stroke:none" id="path8388"/></g><g id="g8390" transform="translate(591.83 1929.66)"><path d="M0 0h-7.7a.9.9.0 01-.89-.9v-7.7c0-.49.4-.89.9-.89H0c.5.0.9.4.9.9v7.7A.9.9.0 010 0" style="fill:#afafaf;fill-opacity:1;fill-rule:nonzero;stroke:none" id="path8392"/></g><g id="g8394" transform="translate(591.83 1916.55)"><path d="M0 0h-7.7a.9.9.0 01-.89-.9v-7.7c0-.48.4-.89.9-.89H0c.5.0.9.4.9.9v7.7A.9.9.0 010 0" style="fill:#f1f1f1;fill-opacity:1;fill-rule:nonzero;stroke:none" id="path8396"/></g><g id="g8398" transform="translate(591.83 1890.32)"><path d="M0 0h-7.7a.9.9.0 01-.89-.9v-7.69c0-.5.4-.9.9-.9H0c.5.0.9.4.9.9v7.7A.9.9.0 010 0" style="fill:#f1f1f1;fill-opacity:1;fill-rule:nonzero;stroke:none" id="path8400"/></g><g id="g8402" transform="translate(607.99 1942.78)"><path d="M0 0h-7.7a.9.9.0 01-.89-.9v-7.7c0-.49.4-.89.9-.89H0c.5.0.9.4.9.9v7.7A.9.9.0 010 0" style="fill:#afafaf;fill-opacity:1;fill-rule:nonzero;stroke:none" id="path8404"/></g><g id="g8406" transform="translate(607.99 1929.66)"><path d="M0 0h-7.7a.9.9.0 01-.89-.9v-7.7c0-.49.4-.89.9-.89H0c.5.0.9.4.9.9v7.7A.9.9.0 010 0" style="fill:#afafaf;fill-opacity:1;fill-rule:nonzero;stroke:none" id="path8408"/></g><g id="g8410" transform="translate(607.99 1916.55)"><path d="M0 0h-7.7a.9.9.0 01-.89-.9v-7.7c0-.48.4-.89.9-.89H0c.5.0.9.4.9.9v7.7A.9.9.0 010 0" style="fill:#f1f1f1;fill-opacity:1;fill-rule:nonzero;stroke:none" id="path8412"/></g><g id="g8414" transform="translate(607.99 1903.44)"><path d="M0 0h-7.7a.9.9.0 01-.89-.9v-7.7c0-.48.4-.89.9-.89H0c.5.0.9.4.9.9v7.7A.9.9.0 010 0" style="fill:#afafaf;fill-opacity:1;fill-rule:nonzero;stroke:none" id="path8416"/></g><g id="g8418" transform="translate(607.99 1890.32)"><path d="M0 0h-7.7a.9.9.0 01-.89-.9v-7.69c0-.5.4-.9.9-.9H0c.5.0.9.4.9.9v7.7A.9.9.0 010 0" style="fill:#f1f1f1;fill-opacity:1;fill-rule:nonzero;stroke:none" id="path8420"/></g><g id="g8422" transform="translate(431.12 1776.91)"><path d="M0 0h-.21l.18.02z" style="fill:#2f2e41;fill-opacity:1;fill-rule:nonzero;stroke:none" id="path8424"/></g><g id="g8426" transform="translate(412.7 1967.53)"><path d="M0 0a23.6 23.6.0 100-47.22A23.6 23.6.0 000 0" style="fill:#efbdbd;fill-opacity:1;fill-rule:nonzero;stroke:none" id="path8428"/></g><g id="g8430" transform="translate(433.38 1961.23)"><path d="M0 0s6.17 11.8-7.41 12.88c0 0-11.58 10.5-23.39 1.92.0.0-6.43.0-9.96-7.29.0.0-5.06 1.92-6.17-3.22.0.0-3.7-10.73.0-20.39S-42-26.83-42-26.83-48.08-6.58-33.26-5.5C-18.44-4.43-1.86 4.83-.62-6.98c1.23-11.8 3.1-14.7 3.1-14.7S14.2-4.84.0.0" style="fill:#2f2e41;fill-opacity:1;fill-rule:nonzero;stroke:none" id="path8432"/></g><g id="g8434" transform="translate(473.78 1885.74)"><path d="m0 0-.08-.4-.85-4.5-5.9-31.18-.35-1.83-.73-3.88-1-5.3-2.22-11.73-.64-3.36-.24-1.26-.08-.44-.66-3.48-.2-1.05-1.61-11.94-1.4-10.4 4.7-4.7-2.8-2.8-1.85-10.56v-.02h-75.16c-3.05 1.97-6.04 4-9 6.1l.62 4.62s2.13 8.27 1.24 9.26c-.9.99-2.85 2.75-2.85 2.75l2.46 5.75.34.8-.57 11.9-.01.29-.2 3.92-.02.5-.04.76-.73 15.1v.24l-.23 4.58-.2 4.35-.1 1.83-.89 18.36-.6 12.47-.52 10.86 2.11.71L-77.68 14l9.36 12.16 19.46-.15 9.54-.07 15.9-14.75 3.62-1.73.02-.01 2.6-1.24 6.58-3.14 6.95-3.33L-.08.04z" style="fill:#2f2e41;fill-opacity:1;fill-rule:nonzero;stroke:none" id="path8436"/></g><g id="g8438" transform="translate(407.97 1812.33)"><path d="M0 0a10.47 10.47.0 00-14.05 7.75l-36.82 5.22 12.8 14.48 33-7.18A10.52 10.52.0 000 0" style="fill:#efbdbd;fill-opacity:1;fill-rule:nonzero;stroke:none" id="path8440"/></g><g id="g8442" transform="translate(391.55 1838.65)"><path d="M0 0a4.67 4.67.0 01-2.73 1.68l-15.1 3.14-1.56.33a6.54 6.54.0 00-4.87 8.44l5.24 15.78 3.4 10.23a14.98 14.98.0 01-2.41 13.8 14.75 14.75.0 01-17.2 4.62 14.72 14.72.0 01-8.75-9.82l-3.69-13.42-7.61-27.68A19.96 19.96.0 01-38.36-18l21.76-2.55 10.07-1.19a4.67 4.67.0 015.16 3.9l.24 1.5L.92-3.79l.02.12A4.65 4.65.0 010 0" style="fill:#2f2e41;fill-opacity:1;fill-rule:nonzero;stroke:none" id="path8444"/></g><g id="g8446" transform="translate(431.42 1811.93)"><path d="M0 0a10.47 10.47.0 0112.82 9.66l35.72 10.36-14.72 12.53L2.16 20.79A10.52 10.52.0 010 0" style="fill:#efbdbd;fill-opacity:1;fill-rule:nonzero;stroke:none" id="path8448"/></g><g id="g8450" transform="translate(497.7 1855.13)"><path d="m0 0-16.99 39.1a14.8 14.8.0 01-26.73.9 14.9 14.9.0 01-.13-13.42l.21-.42 12-24.1A6.53 6.53.0 00-35.25-7l-.84-.3-15.17-5.48a4.66 4.66.0 01-2.88-5.8l.04-.12 4.25-13.6a3.79 3.79.0 01.2-.53 4.66 4.66.0 015.47-2.6l8.18 2.16 1.67.44 21.13 5.58A19.96 19.96.0 010 0z" style="fill:#2f2e41;fill-opacity:1;fill-rule:nonzero;stroke:none" id="path8452"/></g><g id="g8454" transform="translate(330.49 1822.3)"><path d="M0 0a177.56 177.56.0 0115.8-16.9H172a5.68 5.68.0 005.67-5.68l.22-39.58a122.83 122.83.0 0137.44 26.66A122.89 122.89.0 01239.1.0z" style="fill:#2e2e2e;fill-opacity:1;fill-rule:nonzero;stroke:none" id="path8456"/></g><g id="g8458" transform="translate(545.82 1786.8)"><path d="M0 0a113.03 113.03.0 00-4.08-4.06h-33.24V0z" style="fill:#2e2e2e;fill-opacity:1;fill-rule:nonzero;stroke:none" id="path8460"/></g><g id="g8462" transform="translate(473.46 1916.55)"><path d="M0 0c-.33.62-.98 1-1.68 1h-113.3a1.92 1.92.0 01-1.9-1.92v-67.8H.22v67.8C.23-.59.16-.28.0.0" style="fill:#2e2e2e;fill-opacity:1;fill-rule:nonzero;stroke:none" id="path8464"/></g><g id="g8466" transform="translate(356.48 1849.66)"><path d="M0 0v-8.37A2.64 2.64.0 012.64-11h43.23v-16.51h-.57a.34.34.0 01-.35-.35V-29c0-.2.16-.35.34-.35h26.84c.2.0.34.16.34.35v1.14c0 .2-.15.35-.34.35h-.57V-11h43.23a2.64 2.64.0 012.64 2.64V0z" style="fill:#2e2e2e;fill-opacity:1;fill-rule:nonzero;stroke:none" id="path8468"/></g><g id="g8470" transform="translate(441.33 1945.21)"><path d="M0 0h-1.73c0 13.06-12.92 21.62-25.97 21.63-1.9.0-3.79-.18-5.65-.55a68.48 68.48.0 01-6.4-1.57C-48.17 16.92-55.98 11.94-55.98.0c0-2.32.3-4.63.88-6.87l-1.67-.43a28.95 28.95.0 00-.94 7.3c0 10.43 4.28 17.6 11.68 21.86 3.89 2.25 8.63 3.7 14.07 4.4 2.26.3 4.54.37 6.82.21C-10.14 25.39.0 13.89.0.0" style="fill:#d1b000;fill-opacity:1;fill-rule:nonzero;stroke:none" id="path8472"/></g><g id="g8474" transform="translate(444.21 1944.26)"><path d="m0 0-.68 5.03a5.47 5.47.0 01-6.3 4.69l-1.09-.15c-.6-.08-1.14-.4-1.5-.88a2.26 2.26.0 01-.45-1.68l1.57-11.59a2.27 2.27.0 012.56-1.94l1.21.16A5.46 5.46.0 010 0" style="fill:#d1b000;fill-opacity:1;fill-rule:nonzero;stroke:none" id="path8476"/></g><g id="g8478" transform="translate(435.45 1953.61)"><path d="M0 0a2.26 2.26.0 01-1.25-2.35L.32-13.94c.13-.97.87-1.74 1.83-1.92z" style="fill:#4c4c4c;fill-opacity:1;fill-rule:nonzero;stroke:none" id="path8480"/></g><g id="g8482" transform="translate(444.21 1944.26)"><path d="m0 0-.68 5.03a5.43 5.43.0 01-1.73 3.3L-.84-3.2c.02-.18.07-.36.14-.54A5.8 5.8.0 010 0" style="fill:#3f3d56;fill-opacity:1;fill-rule:nonzero;stroke:none" id="path8484"/></g><g id="g8486" transform="translate(438.18 1945.43)"><path d="M0 0c.47.06 1-.96 1.18-2.28S1.12-4.73.65-4.79c-.47-.07-1 .95-1.18 2.28C-.71-1.2-.47-.06.0.0" style="fill:#3f3d56;fill-opacity:1;fill-rule:nonzero;stroke:none" id="path8488"/></g><g id="g8490" transform="translate(437.15 1951.65)"><path d="M0 0c.47.06 1-.96 1.18-2.28S1.12-4.73.65-4.79c-.47-.07-1 .95-1.18 2.28C-.71-1.2-.47-.06.0.0" style="fill:#3f3d56;fill-opacity:1;fill-rule:nonzero;stroke:none" id="path8492"/></g><g id="g8494" transform="translate(443.71 1949.23)"><path d="M0 0c.47.06 1-.96 1.18-2.28S1.12-4.73.65-4.79c-.47-.07-1 .95-1.18 2.28C-.71-1.2-.47-.06.0.0" style="fill:#3f3d56;fill-opacity:1;fill-rule:nonzero;stroke:none" id="path8496"/></g><g id="g8498" transform="translate(413.64 1966.84)"><path d="M0 0c-1.9.0-3.79-.18-5.65-.55-2.1-.42-4.27-.92-6.4-1.57-3.34.16-5.8 1.03-6.29 2.36 3.9 2.24 8.64 3.69 14.07 4.4 2.26.3 4.55.36 6.83.2.48-.28.83-.76.94-1.32C3.66 2.32 2.29 1.04.0.0" style="fill:#3f3d56;fill-opacity:1;fill-rule:nonzero;stroke:none" id="path8500"/></g><g id="g8502" transform="translate(391.58 1933.22)"><path d="m0 0-2.66 11.06a2.08 2.08.0 01-2.52 1.54l-1.03-.25a5.15 5.15.0 01-3.8-6.2l1.2-4.97a5.47 5.47.0 012.31-3.3 5.13 5.13.0 013.93-.65l1.03.25A2.07 2.07.0 010 0" style="fill:#d1b000;fill-opacity:1;fill-rule:nonzero;stroke:none" id="path8504"/></g><g id="g8506" transform="translate(384.87 1939.99)"><path d="M0 0c.46.11 1.1-.85 1.4-2.15.32-1.3.2-2.44-.27-2.55-.46-.12-1.1.85-1.4 2.15C-.6-1.25-.47-.11.0.0" style="fill:#3f3d56;fill-opacity:1;fill-rule:nonzero;stroke:none" id="path8508"/></g><g id="g8510" transform="translate(381.41 1938.95)"><path d="M0 0c.46.11 1.1-.85 1.4-2.15.32-1.3.2-2.44-.27-2.55-.46-.12-1.1.85-1.4 2.15C-.6-1.25-.47-.11.0.0" style="fill:#3f3d56;fill-opacity:1;fill-rule:nonzero;stroke:none" id="path8512"/></g><g id="g8514" transform="translate(391.75 1933.27)"><path d="m0 0-2.66 11.06a2.26 2.26.0 01-1.83 1.7l3.63-15.1C-.12-1.82.21-.89.0.0" style="fill:#4c4c4c;fill-opacity:1;fill-rule:nonzero;stroke:none" id="path8516"/></g><g id="g8518" transform="translate(382.17 1941.56)"><path d="M0 0c-.07.3-.21.6-.4.85A5.09 5.09.0 01-.6-2.2L.6-7.15a5.48 5.48.0 011.84-2.98z" style="fill:#3f3d56;fill-opacity:1;fill-rule:nonzero;stroke:none" id="path8520"/></g><g id="g8522" transform="translate(528.1 1924.92)"><path d="M0 0a4.74 4.74.0 10-9.49.0A4.74 4.74.0 000 0" style="fill:#d1b000;fill-opacity:1;fill-rule:nonzero;stroke:none" id="path8524"/></g><g id="g8526" transform="translate(592.73 1898.7)"><path d="M0 0a4.74 4.74.0 10-9.49.0A4.74 4.74.0 000 0" style="fill:#d1b000;fill-opacity:1;fill-rule:nonzero;stroke:none" id="path8528"/></g><g id="g8530" transform="translate(495.78 1898.7)"><path d="M0 0a4.74 4.74.0 10-9.49.0A4.74 4.74.0 000 0" style="fill:#d1b000;fill-opacity:1;fill-rule:nonzero;stroke:none" id="path8532"/></g><g id="g8534" transform="translate(576.57 1938.47)"><path d="M0 0a4.74 4.74.0 10-9.49.0A4.74 4.74.0 000 0" style="fill:#d1b000;fill-opacity:1;fill-rule:nonzero;stroke:none" id="path8536"/></g><g id="g8538" transform="translate(544.25 1885.58)"><path d="M0 0a4.74 4.74.0 10-9.49.0A4.74 4.74.0 000 0" style="fill:#d1b000;fill-opacity:1;fill-rule:nonzero;stroke:none" id="path8540"/></g></g></g></g></svg>