<svg xmlns="http://www.w3.org/2000/svg" viewBox="0 0 48 48" width="256px" height="256px" baseProfile="basic"><path fill="#2196f3" d="M24,4C12.938,4,4,12.938,4,24s8.938,20,20,20s20-8.938,20-20S35.062,4,24,4z"/><circle cx="21.5" cy="15.5" r="3.5" fill="#fff"/><path fill="#fff" d="M16,22h-5v-2h4.586l5.707-5.707l1.414,1.414l-6,6C16.52,21.895,16.266,22,16,22z"/><circle cx="26.5" cy="32.5" r="3.5" fill="#fff"/><path fill="#fff" d="M26.707,33.707l-1.414-1.414l6-6C31.48,26.105,31.734,26,32,26h5v2h-4.586L26.707,33.707z"/><path fill="#fff" d="M20,29h-9v-2h8.586l7.707-7.707C27.48,19.105,27.734,19,28,19h9v2h-8.586l-7.707,7.707 C20.52,28.895,20.266,29,20,29z"/></svg>
