<svg xmlns="http://www.w3.org/2000/svg" xmlns:xlink="http://www.w3.org/1999/xlink" width="95" height="95" viewBox="0 0 95 95"><defs><clipPath id="b"><rect width="95" height="95"/></clipPath></defs><g id="a" clip-path="url(#b)"><g transform="translate(-913 -493)"><g transform="translate(914 494)"><path d="M45.286.0A45.286 45.286.0 110 45.286 45.286 45.286.0 0145.286.0z" transform="translate(1 1)" fill="none" stroke="#fff" stroke-width="2"/><path d="M34.889 30.448q-.127 3.744-.253 6.816l-.082 2.609c-.028.869-.052 1.669-.065 2.4s-.028 1.36-.041 1.894-.021.9-.021 1.092c0 .562-.02 1.214-.065 1.957s-.089 1.452-.147 2.125q-.083 1.177-.168 2.4h.086c.363-.813.729-1.613 1.092-2.4.308-.673.64-1.38.989-2.125s.682-1.4.99-1.957c.113-.195.3-.56.568-1.092s.582-1.164.945-1.894.764-1.529 1.2-2.4.876-1.74 1.328-2.609q1.557-3.072 3.407-6.816H56.18L49.825 60.489H42.042l4.838-22.8H46.8l-11.909 22.8h-6.31l.294-22.8h-.085l-7.362 22.8H13.684L23.36 30.448z" fill="#fff"/><path d="M62.323 51.359a5.539 5.539.0 00-.127 1.787 3.456 3.456.0 00.589 1.642 3.826 3.826.0 001.473 1.221 5.8 5.8.0 002.568.483 13.285 13.285.0 002.335-.232q1.284-.231 2.565-.568t2.506-.736q1.216-.4 2.188-.777l-2.527 5.637a2.656 2.656.0 01-.883.295q-.843.21-2.144.441t-2.9.4a29.593 29.593.0 01-3.115.17 13.424 13.424.0 01-4.9-.8 7.555 7.555.0 01-3.239-2.294 7.109 7.109.0 01-1.473-3.66 12.938 12.938.0 01.442-4.9A15.391 15.391.0 0161.44 40.9a14.7 14.7.0 014.334-2.188 15.834 15.834.0 014.753-.736 10.481 10.481.0 014.041.716 7.214 7.214.0 012.8 1.977A7.361 7.361.0 0178.878 43.6a9.581 9.581.0 01.233 3.555c-.085.674-.2 1.361-.356 2.063a12.626 12.626.0 01-.695 2.145zM72.38 46.983a7.427 7.427.0 00.126-1.726 3.057 3.057.0 00-.38-1.388 2.29 2.29.0 00-1.03-.925 4.114 4.114.0 00-1.788-.337 5.329 5.329.0 00-3.6 1.178 8.409 8.409.0 00-2.208 3.2z" fill="#fff"/></g></g></g></svg>