<svg id="Capa_1" xmlns="http://www.w3.org/2000/svg" xmlns:xlink="http://www.w3.org/1999/xlink" viewBox="0 0 512 512" style="enable-background:new 0 0 512 512"><style>.st0{opacity:.15}.st1{fill:#575e63}</style><title>Recurso 1</title><g class="st0"><g id="svg8"><g id="g16684"><path id="path16452" class="st1" d="M16.3 212.2c2.9-.1 5.6-1.5 7.3-3.9 1 6.9 6.5 12.3 13.5 13.1 6 .6 15-.9 18.2-6.6.2.4.4.7.6 1.1 1.5 2.6 4.7 3.5 7.5 3.7 4.4.3 7.2-2.7 8.2-6.4 4.9 7.6 20.5 6.2 27.3 3.7 5.9-2.2 11.3-6.1 14.3-11.6 1.3-2.4 2.8-6.5 1.7-9.4 1.1.1 2.2.0 3.2-.4 2-1 3.6-2.7 4.3-4.8.8-2.2 1.5-7.2-.8-8.9 6.1-3.2 9.5-7 10.4-14.3.8-6.8.1-13.5-3.4-19.5s-17.1-15.5-24-10.2c.2-4.5-6.3-9.2-9.6-10.5-4.7-1.9-11.6-1.5-14.6 2.6-.8-4.3-4.6-8.6-7.4-11.4-5.8-5.9-14.7-9.7-22.5-11.9-9.3-2.7-27.1-2.9-33.5 6.1-1.4-3.2-6.4-5.2-9.4-5.4-2.6-.1-5.2.5-7.6 1.6v2.6c.4-.5.9-.9 1.5-1.3 2-1 4.3-1.3 6.5-.9 4.4.5 7 2.9 8.8 6.7.1.1.2.1.3.1l.1-.1c.1-.5.2-1 .2-1.5 5.4-8.8 21.9-8.7 30.6-6.7 12.3 2.8 29.7 11.7 30.6 25.9.0.4.4.8.8.8.3.0.6-.3.7-.6.2-.6.4-1.3.4-2 3.1-3.9 8.2-4.4 13.1-2.9 2.7.8 5 2.4 6.7 4.6s1.1 4.7 2 7.1c.1.2.3.4.5.3.1.0.1-.1.2-.1.2-.2.5-.5.7-.8h.1c8.4-6.8 21.9 5.3 24.8 13 1.8 4.8 1.5 10.4.9 15.3-.8 7-6 8.9-10.7 12.9-.8.6.2 1.6 1 1.3l.2-.1c2.1 1.1 1.2 5.5.6 7.1-.5 1.5-1.5 2.8-2.9 3.7-1.8 1-3.4-.3-5.2.2-.1.1-.3.2-.3.3-.2.2-.3.5-.2.8 2.7 8.6-5.9 15.6-12.5 19-9.1 4.5-21.5 4-27.5-4.9v-.1c-.1-.7-.7-1.1-1.3-1s-1 .5-1.1 1.1c0 3.8-1.4 7.7-5.7 8.1-2.2.2-4.3-.6-5.8-2.2-1.5-1.5-1.1-3.6-2-5.3-.1-.2-.4-.3-.6-.1l-.1.1c-.3.3-.6.7-.7 1.2-.1.1-.1.2-.2.3-1.9 7.8-12.3 9.1-18.9 7.8-7.4-1.4-8.7-7.9-10.7-14-.1-.5-.6-.7-1.1-.6-.2.1-.4.3-.5.5l-.1.1c-1.5 2.9-3 4.7-6.5 5-1.4.1-2.8-.2-4.1-.9-1.5-.7-1.8-2.2-3-3.2-.3-.3-.7-.2-1 .1-.1.0-.2.1-.3.1-2.2 1.3-4.6 2.1-7.1 2.3-.4.0-.9.0-1.3.0v2.4c3 0 6-.9 8.6-2.4C9.6 211 14 212.3 16.3 212.2"/><path id="path16454" class="st1" d="M5.8 105.3c2.2.3 4.3 1.3 6.5 1.5.1.0.3-.1.2-.3.0-.1.0-.1-.1-.2-2.8-2.7-8.9-3.3-12.4-1v1.1C1.8 105.4 3.8 105 5.8 105.3"/><path id="path16456" class="st1" d="M91.2 123.2c-.1.0-.1.0-.1.1s0 .1.1.1c2.9-.1 5.9.5 8.5 1.7 3.2 1.5 4.5 4.4 6.5 7 .1.2.3.2.5.1.1-.1.2-.2.2-.4C105.4 125.1 97.3 121.6 91.2 123.2"/><path id="path16458" class="st1" d="M135.8 170.4c0 .1.0.2.1.2s.2.0.2-.1c2.2-7.5 2-15.5-.7-22.9-2.9-7.4-11-11.4-18.3-12.9.0.0-.1.0-.1.1.0.0.0.1.1.1 7.9 2.8 14.9 6.2 18 14.5C137.6 156 137.1 163.6 135.8 170.4"/><path id="path16460" class="st1" d="M130.4 181.7c1.9-1.1 3.2-2.9 3.7-5.1.1-.2-.3-.4-.4-.2-.4.8-.8 1.6-1.3 2.4-.6.9-1.5 1.7-2.2 2.6-.1.1-.1.2.0.2C130.3 181.7 130.3 181.7 130.4 181.7"/><path id="path16462" class="st1" d="M71.7 220c.1-.2-.1-.5-.3-.3-2 1.6-3.6 2.9-6.3 3.2-2.4.3-4.1-.8-6.3-1.4-.2-.1-.3.2-.3.4C60.9 226.7 69.8 224.1 71.7 220"/><path id="path16464" class="st1" d="M13.3 215.1c-1.3-.5-2.7-.8-3.5-2-.1-.2-.5-.1-.4.2.6 1.6 2.2 2.5 3.8 2.4.1.0.3-.1.2-.3C13.5 215.3 13.4 215.2 13.3 215.1"/><path id="path16466" class="st1" d="M295.2 144c2.8-13.5 5.4-30.1 12.7-42 4.5-7.3 21.1-3.6 28.3-2.7 5.1.7 10.1 1.7 15.1 2.7 11.4 3.3 23.3 5.6 34.7 8.2 10.8 2.5 27.1 4.2 33.1 14.8 3.7 6.6.7 17-.7 23.7-1.4 7.1-3.1 14.1-4.8 21.1-1.8 7.4-3.7 14.7-6 21.9-1.3 4.1-2.8 7.6-5.7 10.7-3.7 4-9.4 3.4-14.3 3.3-.2-1.1-.7-2.2-1.2-3.2-.1-.1-.3-.1-.4.0-.7 3.7-.7 7.5-1.7 11.2-1.5 5.6-5.2 10.6-9 15-6.2 7.2-14.7 12.1-24.1 13.6 5.6-3.6 8.8-11.1 11.1-17.1 2.8-7.3 3.6-16.1-.3-23.1-.1-.2-.4-.3-.6-.1-.1.1-.2.3-.2.4.2.9.3 1.7.4 2.5-9.4-3.8-19.8-4.5-29.6-6.8-9.5-2.3-19.3-5-28.2-9.1C287.2 181.6 292.3 158.4 295.2 144zM297.5 189.6c6.5 4.9 15.7 6.9 23.3 9.2 13.4 4 27.3 6.1 41.1 8.4.7 5.9.0 11.9-1.9 17.5-2.3 6.9-7.3 11.7-10.4 18-.1.2.0.4.1.4.0.3.1.5.4.6 9.4 2.6 20.7-7.3 26.7-13.3 4.8-4.8 11.1-13.9 11-21.9 17.4 2.4 21.6-11.2 25.7-25.6 2.7-9.5 4.8-19.1 6.9-28.8 1.8-7.9 3.7-16.1 3-24.2-1-12.5-14.4-16.9-24.7-19.6-8.7-2.2-17.5-4.1-26.2-6.2-5.5-1.3-11.1-3-16.8-4-7.2-1.9-14.6-3.3-22-4.3-7.3-1-20-3.7-26.4 1.3-4.8 3.9-6.8 12.1-8.5 17.7-2.8 9.2-5 18.7-7.1 28.1C288.8 157 284.1 179.4 297.5 189.6"/><path id="path16468" class="st1" d="M368.8 242.4c.1-.2-.2-.5-.4-.3-2.1 2.5-5.6 3.8-8.7 4.6-2.9.8-6.1.3-8.9 1.4-.2.1-.1.3.0.4 2.6 1.9 7.3.4 10.1-.4C364.2 247.1 367.3 245.6 368.8 242.4"/><path id="path16470" class="st1" d="M374.9 238c-.6.7-1.4 1.3-2 1.9-.8.6-1.5 1.2-2.2 1.9-.1.2.0.4.1.5.0.0.1.0.2.0 1-.1 1.9-.6 2.5-1.4.7-.8 1.3-1.7 1.7-2.8C375.2 238.1 375 237.9 374.9 238"/><path id="path16472" class="st1" d="M401.2 211.3c-1.1.5-2.1 1.3-3.3 1.7-1.3.5-2.7.6-4.1.5-.5.0-.5.8.0.9 2.4.3 6.7-.1 7.8-2.8C401.7 211.4 401.4 211.2 401.2 211.3"/><path id="path16474" class="st1" d="M418.8 177.8c-3.4 12-2.6 22.8-13.6 31-.4.3.0.9.4.8 11.9-3.8 12.9-21.5 13.9-31.7C419.4 177.5 418.9 177.4 418.8 177.8"/><path id="path16476" class="st1" d="M293.9 111.5c4.3-11.4 8.3-24.2 23.2-21.5.2.0.3-.2.1-.3-12.6-7-24.8 10.3-23.7 21.7.0.1.1.2.2.2C293.8 111.7 293.9 111.6 293.9 111.5"/><path id="path16478" class="st1" d="M290.1 124.6c1.3-2 1.8-4.7 2.3-7 0-.2.0-.3-.2-.4-.2.0-.3.0-.4.2-.9 2.2-2.3 4.6-2.3 7 0 .2.1.3.3.4C289.9 124.8 290.1 124.8 290.1 124.6"/><path id="path16480" class="st1" d="M299.9 196.8c.1.0.3-.1.3-.3.0-.1.0-.2-.1-.2-2.9-1.9-5.8-3.2-8.4-5.6-2.9-2.7-5.7-6.7-5.1-10.9.0-.1-.2-.2-.3.0-1.1 4 .8 7.4 3.3 10.4C291.7 193 296.1 197 299.9 196.8"/><path id="path16482" class="st1" d="M426 125.3c.5 1.8.2 3.6.5 5.4.0.1.2.2.3.2s.1-.1.1-.1c1.4-3.1-.3-8.5-2.9-10.6-.1-.1-.2.1-.2.2C424.8 122 425.5 123.6 426 125.3"/><path id="path16484" class="st1" d="M389.7 435.8c-3.2 1.1-6.6 1.8-10 1.8 5-2.7 8.9-9.7 10.7-14 2.8-6.6 2.5-16-2.2-21.6-.3-.3-.6.1-.5.4.8 1.8 1.5 3.7 2 5.6-5.1 1.8-10 .7-15-1.4-6.6-2.8-9-8.4-10.6-14.9.0-.1-.1-.1-.2-.1-.1.0-.1.1-.1.1-.2.9-.2 1.7-.2 2.6-1.6 2.8-2.9 5.2-5.6 7.2-2.5 1.6-5.3 2.7-8.3 3.3-7.6 1.7-16.5-.1-23.7-3.1-11.2-4.7-20.3-17.2-17-29.6.0-.1.0-.2.1-.3.1-.3-.1-.5-.3-.6-.2.0-.3.0-.5.1-.2.0-.4.2-.5.4-1.2 4.2-9.7-2.1-10.7-3-3.6-3-6.2-7.8-7.9-12.1-3.1-8.1-2.6-17.4-.7-25.7 2-8.9 8.8-15.1 16.7-19 7.5-3.7 19.1-5.2 26.5-.1.6.4 1.4-.6.8-1.1-1.3-13.8 11.3-23 23.8-24.5 6.9-.8 13.9.5 20.1 3.7 5.5 2.8 11.2 6.6 12.6 12.9.2.6.8 1 1.4.8.3-.1.6-.3.7-.6 13.5-7 32.6-.5 42.2 10.2 5.2 5.8 5.9 14.9 6.7 22.3.9 7.8-2.9 15.6-8.8 20.5-.8.6.1 1.9 1 1.6 9.9 2.2 10.7 13.1 6.7 21-3.4 6.6-16.9 15.1-22.9 7.1-.3-.3-.9-.1-.7.3.3.7.6 1.4 1 2 .3 2-.2 4-1.2 5.7-.6 1.2-2 2.2-2.9 3.4-.4-1.4-.9-2.8-1.5-4.1-.2-.4-.7-.1-.6.3 1.3 6.2 2 11.7.5 18-1.3 5.4-4.6 10.2-8.2 14.4s-7.6 8.1-12.6 10.2L389.7 435.8zm14.8-10.3c6.2-7.3 9.8-16.8 8.1-26.1 2.2-.5 4.1-4 4.9-5.7.5-1.2.8-2.4.7-3.7 6.4 4.2 18.5-4 22-9.1 4.9-7 4.8-23.5-5.5-24.7 5-3.6 7.5-11.3 7.8-16.9.5-8.6-1.5-19.1-6.3-26.3-8.1-12.2-31.8-20-45.2-12-2-6.5-7.8-9.8-13.5-13.1-6.6-3.9-15.5-4.9-23-3.6-7 1.1-14.8 4.2-19 10.3-2.9 4.1-5.9 10.2-4.2 15.2-7.5-5.2-19.4-2.7-27 .7-10.9 4.9-16.9 14.2-18.6 25.8-1.6 10.6.3 22 7.1 30.5 1.5 1.9 10.2 9.6 14.3 7.9-3.2 12.6 7.7 24.5 18.8 29.5 8 3.7 17.1 4.5 25.6 2.3 4.9-1.3 10.7-4.7 12.3-9.8 1.2 5.3 4.8 9.6 9.8 11.9 4.2 1.9 12.4 4.6 16.3.4 1.3 5 .9 10.3-1.2 15.1-1.4 3.1-3.2 5.9-5.5 8.4-2.3 2.6-5.2 3.6-8 5.4-.2.1-.3.5-.1.7.1.1.2.2.4.2h.1c.1.2.3.3.5.3 5.2.6 10.5-.2 15.4-2.2C396.8 434.7 401 429.7 404.5 425.5"/><path id="path16486" class="st1" d="M328.1 299.5c0 .3.4.5.5.2 2.8-6.4 6-11 11.8-15.1 5.1-3.6 11.2-4.2 17.1-5.3.0.0.1-.1.0-.1C345.7 276.5 329.6 287.4 328.1 299.5"/><path id="path16488" class="st1" d="M316.3 303.3c-.1.1-.2.3-.1.4.1.1.1.1.2.1 1.3.1 2.6-.2 3.9-.2 1.5.0 3 .4 4.5.3.2.0.4-.4.1-.5-1.3-.5-2.7-.7-4.1-.7C319.3 302.4 317.8 302.6 316.3 303.3"/><path id="path16490" class="st1" d="M444.5 326.5c.1.1.2.2.4.2.1.0.2-.1.2-.3.5-7.1-2-13.5-7.6-17.9M437.4 308.5c1.5 3 4 5 5.2 8.3s1 6.5 1.9 9.7"/><path id="path16492" class="st1" d="M444.4 334.5c.9-1.2.4-3.2.0-4.5.0-.1-.1-.2-.2-.2s-.2.1-.2.2c0 .7-.1 1.4-.1 2.2-.1.7-.1 1.5.0 2.3C444 334.7 444.4 334.6 444.4 334.5"/><path id="path16494" class="st1" d="M446.8 366.7c0 .1.2.2.3.2s.1-.1.2-.1c.7-1.6.1-3.5-.6-5.1-.2-.5-.9-.1-.8.3.2.8.4 1.6.5 2.5S446.7 366 446.8 366.7"/><path id="path16496" class="st1" d="M422.6 395.2c-.3.0-.3.6.0.6 5.3.9 11.1-2.3 15-5.7 5.4-4.7 8-10.5 9-17.5.0-.2-.1-.4-.3-.4s-.3.1-.4.2c-2.1 6.1-3.1 11.3-8 15.9C433.5 392.6 428.3 394.3 422.6 395.2"/><path id="path16498" class="st1" d="M418.4 395.7c-.2.4-.4.8-.5 1.2-.2.4-.5.8-.8 1.2-.1.1.0.2.1.3h.1c.5-.2 1-.6 1.3-1.1s.3-1.1.2-1.6C418.7 395.6 418.5 395.6 418.4 395.7"/><path id="path16500" class="st1" d="M385 423.2c0 .2.1.3.2.4.1.0.2.0.3-.1 2.4-2.5 4-7.4 2.4-10.7-.1-.1-.3-.2-.4-.1-.1.0-.1.1-.1.2.3 1.7.1 3.5-.4 5.2C386.5 419.9 385.5 421.5 385 423.2"/><path id="path16502" class="st1" d="M383.3 427.7c.1-.3-.3-.4-.5-.2-.3.5-.6 1-.9 1.5-.3.5-.9.9-1 1.5.0.2.1.4.3.4C382.5 430.6 383 428.7 383.3 427.7"/><path id="path16504" class="st1" d="M305.3 388.1c-1.1-3.3-.8-6.5-.9-9.9.0.0-.1-.1-.1.0-2.8 5.6-.2 14.8 4.8 18.5.1.1.4.2.5.0.1-.1.2-.3.1-.5C308.2 393.5 306.3 391.2 305.3 388.1"/><path id="path16506" class="st1" d="M300.9 376c-1.5-.6-2.9-1.2-4.4-2-1.8-1.1-3.3-2.6-4.4-4.5-.1-.1-.2-.1-.2.0.0.0-.1.1-.1.2.5 2.1 2 3.5 3.7 4.8 1.4 1 3.6 2.4 5.4 1.9C301 376.3 301 376.2 300.9 376c.100000000000023.0.0.0.0.0"/><path id="path16508" class="st1" d="M353.8 462.5c-10.8-6.4-25.1-6.4-37.1-1.9-16 3.3-29.8 18.5-36.1 32.4-2.6 6-4 12.4-4 18.9h3c.2-6.7 1.7-13.4 4.4-19.6 6.8-15 19.7-23.9 34.2-30 11.3-3.3 23.9-3.1 34.1 2.3 14.2 7.5 21.4 22.9 21 38.5-.1 2.9-.5 5.9-1.2 8.7h3c.6-2.8 1-5.6 1.2-8.5C377.2 486.7 368.1 471 353.8 462.5"/><path id="path16510" class="st1" d="M281.9 484.1c.1-.2-.2-.5-.3-.3-6.4 6.8-9.8 17.6-10 28.2h2C273.4 502.1 275.7 492.3 281.9 484.1"/><path id="path16512" class="st1" d="M329 455.1c-.5.1-.4.9.1.8 6.9-1.4 14-1.1 20.7.9 6.5 1.9 11 5.9 16.1 10 .1.1.3.0.3-.1s0-.1.0-.2C359.2 454.4 341.4 451.9 329 455.1"/><path id="path16514" class="st1" d="M370.3 473c-.2-.1-.4.2-.3.4.7 1 1.3 2 1.8 3.1.4 1.1.8 2.3 1.4 3.3.2.3.7.3.7-.1C373.9 477.4 372.6 473.9 370.3 473"/><path id="path16516" class="st1" d="M28.6 351.8c17.5-5.6 35.3-10.6 52.9-16.1 10.3-3.2 26-5.5 29.5-16.7 3.7 2.8 6.4 6.6 7.8 11 1.3 3.8 1.5 7.8.7 11.7-.6 2.9-2.4 4.7-4.1 6.8l-.6.3c-.4.2-.6.6-.5 1.1l-.1.1c-.1.2.0.4.1.6.1.1.2.1.3.0.1.0.2-.1.4-.1s.4.0.6-.1c23.8-9.5 11.9-65.9-11.9-61.1-.4-9.5-3.8-19.8-8.2-28.2s-12.1-10.7-21.6-8.9c-4.9.9-9.7 2.8-14.5 4.3-7.2 2.2-14.4 4.1-21.5 6.4l-3.9 1.3c-6.1 1.4-12.1 3.2-18 5.4-3.2.8-6.3 1.9-9.3 3.2L0 275.2v3.9c8.7-2.8 17.6-5.4 26.1-8.6 1.8-.5 3.6-1.1 5.3-1.7 10.6-3.8 21.5-6.5 32.2-10 11.1-3.6 21.9-7.1 28.8 4.2 5 8.2 6.2 18.2 9.7 27-.8.3-1.6.6-2.4 1-.2.1-.3.4-.2.6.1.1.2.2.4.2 6.4-.3 11.2.4 15.8 4.7s7.2 10.4 9 16.1c2.8 9.2 2.8 22.4-3.6 30.9 1-4.1 1-8.4.2-12.5-1.1-5.1-4.9-12.1-10.5-14.5-.3-.3-.8-.5-1.3-.5-1.4-.4-2.8-.6-4.2-.4-.1.0-.1.1-.1.2.0.0.0.1.1.1 1 .4 1.9.9 2.8 1.4-4.5 11.7-24.4 14.1-35.4 17.6-14.1 4.4-28.4 8.5-42.5 12.8-10.1 3.1-20 6-30.2 8.5v3.8c1.9-.5 3.7-1 5.4-1.4C13.4 356.7 21 354.3 28.6 351.8"/><path id="path16518" class="st1" d="M6.4 362.5c-2.2.4-4.2 1.3-6.4 1.6v1.2c2.5-.1 5.2-.8 6.7-2.3.1-.1.1-.3.0-.5.0.100000000000023-.2.0-.3.0"/><path id="path16520" class="st1" d="M90.2 248.9c-6.5-2.4-17.5-1.5-23.3 2.4.0.0-.1.1.0.1s.1.1.1.0c7.3-1.2 14.2-3 21.5-1.5 6.2 1.3 8.6 6.3 11.2 11 .1.2.4.2.6.1.1-.1.2-.2.2-.4C99.3 255.1 95.4 250.7 90.2 248.9"/><path id="path16522" class="st1" d="M101.8 264.9c-.2-.5-1.1-.1-.8.5s.5 1.3.7 1.9c.1.5.3 1 .6 1.5.1.1.4.1.5.0.0.0.0-.1.1-.1.1-.6.0-1.2-.3-1.8C102.3 266.2 102.1 265.5 101.8 264.9"/><path id="path16524" class="st1" d="M129.3 307.9c-.5-4.5-3.3-11-7.9-13.1-.1.0-.2.0-.2.1 1.3 2.2 3.2 4 4.4 6.2 1.1 2.3 2.1 4.6 3 7C128.8 308.5 129.3 308.2 129.3 307.9"/><path id="path16526" class="st1" d="M130.2 319.3c.1.9.3 1.8.5 2.7.1.2.3.3.5.2.1.0.2-.1.2-.2.7-2 .2-4.3-1.1-5.9-.4-.4-1 0-.9.5C129.7 317.5 130 318.4 130.2 319.3"/><path id="path16528" class="st1" d="M101.9 333c2.2-.1 6.1-.7 7-3.1.1-.4-.2-.6-.6-.6-1.1.3-2 .8-2.9 1.4-1.1.5-2.3 1-3.6 1.3-.2.1-.4.3-.3.5C101.5 332.9 101.7 333 101.9 333"/><path id="path16530" class="st1" d="M216.3 495.9c-10.7-2.7-18.3 1-26.1 7.2-.1-.4-.3-.8-.5-1.2-1.2-1.9-3.5-2.8-5.6-3.2-2.2-.5-4.6-.2-6.6.7-.5.2-.9.5-1.3.9-4.3-12.3-24.6-14.9-35.7-14.1-9.1.6-17.7 4.3-24.4 10.6-4.1 3.9-9.1 9.4-9.1 15.2h2.4c.2-5.8 5.3-10.6 9.4-14.5 6.3-5.9 15-8.5 23.4-9 11.2-.7 28.4 3 32.7 14.7.0.1.0.3.1.4.0.0.1.0.1.1.1.3.2.5.2.7.1.4.6.7 1 .6.3-.1.6-.4.6-.8.0-.5-.1-1-.2-1.5.4-.9 1.1-1.6 2.1-1.7 1.5-.4 3.1-.4 4.6.0 1.5.2 2.8.9 3.9 1.9 1.1 1.1.1 2.6.8 3.7.2.2.4.4.7.3.7-.1 1.3-.7 1.4-1.5 7.4-5.2 13.9-8.8 23.5-7 8.1 1.5 15.6 5.2 20 12.4.3.4.5.8.7 1.3h3.3c-.2-.4-.4-.9-.6-1.3C233.4 502.1 224.9 498 216.3 495.9"/><path id="path16532" class="st1" d="M101.7 511.3c-1.8-.2-3.7.1-5.4.7h5.6c.2-.2.1-.5.0-.6C101.8 511.3 101.7 511.3 101.7 511.3"/><path id="path16534" class="st1" d="M122.9 488.5c-9.1 1.8-18.8 12.9-18.7 22.2.0.2.2.3.4.3s.3-.1.3-.3c.7-5.3 3.2-10.2 7-13.9 3.3-3.4 7.4-5 11.2-7.7.2-.1.2-.3.1-.5C123.2 488.5 123 488.5 122.9 488.5"/><path id="path16536" class="st1" d="M198.6 494c-.1.0.0.1.1.1 9-2.1 18.2-3.9 27.3-1 8 2.5 10.9 9.3 15.5 15.4.1.1.2.2.3.1.1-.1.2-.2.1-.3C239 489 212.5 485.9 198.6 494"/><path id="path16538" class="st1" d="M241.8 511.5c0 .1.0.3.0.5h1.2c-.1-.3-.3-.5-.6-.8-.2-.2-.4-.2-.6.0C241.8 511.3 241.7 511.4 241.8 511.5"/><path id="path16540" class="st1" d="M245.4 289.5c-.1.1-.2.2-.3.3-.4-.8-.8-1.6-1.2-2.4-.1-.2-.4-.3-.7-.2-.2.1-.3.4-.2.6 1.8 6 3.1 11 9.2 13.6 7.2 3 7 12 7.8 19.6-2.4-4.4-5.3-8.5-9.2-11.2-2.9-2-6.4-2.1-9.7-2-5 .1-8.2.6-12.2-3.3-2.4-2.3-3.9-5.7-5.7-8.5-.5-.7-1.4.0-1.2.7.1.4.2.8.4 1.2-13 5.4-23.4-18.5-28.3-27.1-6.8-12.1-13-24.5-19.4-36.8-2.9-5.7-5.8-11.4-8.5-17.1-3.2-6.6-8.3-15.5-6-22.9 1.6-5.1 7.2-9.3 11.3-12.3 3.3-2.4 7-4.7 10.6-7 5.5-2.5 11-4.9 16.6-7.3 7.4-3.3 15.1-6.4 23.4-6 10.2.5 14.5 10 19 17.5 4.9 8.3 9.4 16.6 13.6 25.3 7.9 16.3 17.2 32.5 23.7 49.3C286.9 275.1 260.3 282.7 245.4 289.5zm28.7-52.4c-5.8-11.2-10.9-22.8-16.4-34.2-4.9-10-10.3-19.4-15.8-29-3.7-6.4-8-13.2-15.7-15-8.1-1.9-15.9.5-23.4 3.5-6.9 2.7-13.5 5.9-19.9 9.6-4.5 2.2-8.9 4.7-13.1 7.4-5.4 3.2-9.7 7.9-12.5 13.4-2.3 5.1.2 11.1 1.9 15.9 3.3 9.2 8.2 17.9 12.6 26.6 8.4 16.4 16.5 33.3 26.3 48.9 5.6 8.8 13.3 22.2 25.3 16.5 2.6 5.8 7.2 10.2 14.1 9.8 7.5-.3 12.5.5 17 6.9 2.6 3.6 4.1 7.8 7.1 11.1l.1.3c.1.2.2.3.4.3l.2.2c.6.6 1.8.1 1.4-.8l-1-2c-.6-7.6-1.1-14.6-4.4-21.6-.8-1.7-2-4-3.8-4.8-4.7-2.1-7-5.3-9-9.2.1.0.2.0.3.0 14-4.9 34.1-9.4 37.2-26.3C284.8 255 278.2 245.2 274.1 237.1"/><path id="path16542" class="st1" d="M254.4 320.7c.2.2.5-.1.4-.3-1.8-4.1-5.4-7.2-9.8-8.2-.2.0-.3.3-.1.4 2.2 1 4.2 2.4 5.9 4C252.1 317.9 253.1 319.4 254.4 320.7"/><path id="path16544" class="st1" d="M282.8 246.9c-.1-.2-.5-.1-.5.1 1.1 4.4 2.5 8.8 3.5 13.3 1.4 6.9-.7 11.8-4 17.7-.2.3.1.6.4.4C292.2 270.9 287.2 256 282.8 246.9"/><path id="path16546" class="st1" d="M278.3 280.6c-.8.2-1.6.7-2.1 1.3-.7.6-1.3 1.3-1.9 2-.2.3.1.6.4.6.9-.1 1.7-.5 2.3-1.2.7-.6 1.4-1.3 1.9-2.1C278.9 280.9 278.6 280.6 278.3 280.6"/><path id="path16548" class="st1" d="M160.6 220.2c-2.2-6.9-6.7-12.6-8.3-19.9-1.5-6.7 2.3-15.9 8.2-19.3.1-.1.1-.3.0-.3-5.4-.6-8.8 9-9.6 13-2 9.4 3.8 19.5 9 26.9C160.2 221.1 160.8 220.6 160.6 220.2"/><path id="path16550" class="st1" d="M166.4 230.9c-.4-2-1.9-3.5-3.4-4.9-.4-.4-1 .3-.6.7 1.3 1.4 2.5 2.9 3.5 4.4.1.1.3.1.4.0S166.4 231 166.4 230.9"/><path id="path16552" class="st1" d="M233.9 160.4c1.1 1.4 2 3.2 3.5 4.3.3.2.8.0.7-.4-.8-2.9-4.6-8.6-8.1-7.6-.1.0-.1.1-.1.2C231.1 158.2 232.7 159 233.9 160.4"/><path id="path16554" class="st1" d="M243.6 173.5c.4.8.7 1.6 1.2 2.3.1.1.2.1.4.0.0.0.1-.1.1-.2.0-.8-.2-1.6-.6-2.3-.5-.8-1.1-1.6-1.8-2.3.0.0-.1.0-.2.0v.1C243.1 171.9 243.2 172.8 243.6 173.5"/><path id="path16556" class="st1" d="M221.4 304.4c-3-.2-5.6 1.6-8.7.8-3.7-1-7.2-4.6-8.8-8-.1-.2-.2-.2-.4-.2-.2.1-.2.2-.2.4 1.3 3.6 3.9 6.7 7.3 8.5 3.6 1.8 7.3.9 10.7-1.1C221.6 304.7 221.6 304.4 221.4 304.4"/><path id="path16558" class="st1" d="M74.9 488.8c.6-.3.9-1 .6-1.6-.1-.1-.1-.2-.2-.3.0-.3-.2-.6-.5-.6-10.2-1.7-18.7-7-23.8-16.2-5.3-9.6-2.4-18.7.7-28.3.3-1-1.1-1.9-1.8-1.1-.5.6-.9 1.2-1.4 1.8-8.4 5.4-15.6 4.8-25.1 1.7-12.3-4-15.9-13.4-19-24.7.0-.6.1-1.1.1-1.7.0-.5-.4-.8-.8-.8-.5.0-.8.4-.8.8-.1 3.8-1 7.6-2.7 11v4.4c1.7-2.6 2.9-5.5 3.6-8.5 1.1 9.7 7.4 18.5 16.8 22 6.9 2.6 17.6 5.6 24.8 2.1-5.7 16.8 9 36 26.3 38.6-9.2 5.3-10.3 15.2-7.8 24.6h2.4C63.8 502.9 64.6 494 74.9 488.8"/><path id="path16560" class="st1" d="M25.6 439.8c-3-1.9-5.7-2.8-7.9-5.8-2-2.6-2.7-5.9-4.5-8.5-.1-.1-.3-.2-.4-.1-.1.1-.1.1-.1.2-.2 5.8 6.3 15.5 12.7 15.1.3.1.6-.1.6-.4S25.9 439.9 25.6 439.8"/><path id="path16562" class="st1" d="M31.8 442.3c-.1.0-.1.1.0.2 1.1.6 2.4.9 3.7 1.1.1.0.2-.1.2-.3.0-.1.0-.1-.1-.2C34.3 442.6 33.1 442.4 31.8 442.3"/><path id="path16564" class="st1" d="M72.9 493.5c-.4.2-1.1.3-1.5.6-.5.5-.9 1-1.3 1.6-.9 1.2-1.2 2.7-1 4.2.1.3.3.4.6.3.1.0.2-.1.3-.2.6-1 .8-2.1 1.3-3.1.3-.5.7-1 1-1.6s.3-1 .8-1.4C73.3 493.6 73.1 493.4 72.9 493.5"/><path id="path16566" class="st1" d="M250.4 425.4c-3.3.4-6.6.5-9.9.7-2.2.1-4.7-.2-6.9.5-.2-.3-.3-.5-.5-.8-2.7-3.3-6.8-5.2-11.1-5.2-4.7-1-10.7 3.5-12.2 8.4-5.7.1-11.4.6-17.2.9-4.7.2-9.3.1-13.8.9-6.9.1-13.9.1-20.8.3-6.6.2-13.1.3-19.7.5s-13 .7-19.4-.5c-3.4-.6-6.6-2.3-9.2-4.7-4.8-4.4.6-6.5 4.5-7.1 1.2-.2.8-1.8-.3-1.9-.9-.1-1.8-.1-2.7.1-6.5-1.5-9.1-7.3-9.3-14-.1-3.8 1.7-7.1 4-10 3.1-3.8 6.8-4.2 11.3-4.1.4.0.8-.4.8-.8.0-.3-.1-.5-.4-.6l-.5-.3c0-.1.0-.3-.1-.4-1.5-3.5.9-7 3.6-9 1.2-.9 2.6-1.6 4.1-1.8 1.5-.1 2 1 3.1 1.5.4.2.8.0 1-.3v-.1c.1-.3.1-.5.1-.8.8-5.9 2.2-10.9 6.1-15.6 4.8-5.8 11.7-9.5 18.9-11.1 6.9-1.6 14.2-.9 20.7 2.1 6.2 2.9 8.9 7.7 12.3 13 0 .2.0.4.1.6.1.4.4.6.8.7.2.3.6.4 1 .2.2-.1.3-.3.3-.6s0-.7-.1-1c.5-5.3 7.6-6.5 11.8-4.5 1.9.9 1.6 3.1 3 3.9.8.4 1.2-.2 1.3-1 .1-.1.2-.2.3-.3 4.4-9 14.7-10.9 23.8-9.4 10.4 1.7 22.1 11.7 16.9 23.5-.3.7.5 1.4 1 .8.2-.2.3-.3.4-.5l.1-.1c1.2-.9 2-1.5 3.4-.8 1.4.8 2.5 2.1 3 3.6.6 1.4.8 3.1.4 4.6-.4 1.9-2.4 2.5-2.9 4.2-.1.5.1 1 .6 1.1.2.0.5.0.8.0 5.7 1.2 7.8 5.5 7.8 11.2.0 6-3.2 9.1-7.7 12.1-.2.1-.3.4-.2.7.1.1.2.2.3.2.4.1.9.2 1.3.3 2.8 1.1 5.1 2.3 5.4 5.6.4 4.6-6.6 4.7-9.5 5L250.4 425.4zm-23.6 13c-4.4 1.1-10.9.0-13.8-3.8-2.4-3.1-.3-6.7 1.9-9 1.4-1.4 3.3-2.4 5.3-2.7 3.7-.5 7.4.7 10.1 3.2C235.3 430.4 232.5 436.9 226.8 438.4zm31.5-24.5c7.3-4.5 7.8-25-2.7-25.3.7-.9 1.2-1.9 1.5-3 .5-2.4.1-4.9-1.1-7-1.1-2.2-4.3-4.6-6.7-4.1 1.4-4.3-.3-9.7-2.5-13.5-2.8-4.7-8.3-7.4-13.4-8.9-9.6-2.9-23.9-1.5-28.7 8.5-3-5.3-13.5-4.4-16.8.5-1.9-4-5.8-7.3-9.1-9.6-6.8-4.7-15.2-5.3-23.2-4.3-13.5 1.8-27.9 13-28.1 27.4-.4-.2-.8-.4-1.3-.5-2.2-.5-4.5.6-6.3 1.7-3.7 2.4-6.3 6.7-5.2 10.9-7.3-1.1-13.9 8.4-14.9 14.9-1 6.9 2.3 14.4 8.4 16.9-1.4.8-2.5 2-3 3.5-1.3 3.6 4.7 7.6 7 9.1 9.3 5.8 23.8 3.2 34.1 3 13.3-.2 26.6-.6 39.8-1.7 7.8-.2 15.6-1 23.4-1.1.0.5.1 1.1.2 1.6 2.1 7.4 11.3 9.1 17.9 7.9 5-.8 8.4-5.5 7.6-10.5-.1-.6-.2-1.2-.4-1.7 3.9.9 9.4-.2 12.9-.5 4.3-.3 9.7-.3 13.1-3.4S262.1 415.7 258.3 413.9"/><path id="path16568" class="st1" d="M197.1 455.2c-.4-3.2 2.2-4.5 4.7-5.4 1.5-.3 3-.2 4.5.1 4.9 1.2 3.9 6.7.4 8.9C203.4 460.9 197.6 459.5 197.1 455.2zM206.5 461.2c4.5-2 7.3-7.4 3.5-11.5-2.4-2.6-9-3.3-11.7-.5-2.3 1.4-3.6 4-3.3 6.7C195.6 460.9 202.3 463 206.5 461.2"/><path id="path16570" class="st1" d="M184 472.5c0-1.2.4-2.4 1.2-3.2 1.2-.5 2.2-1.3 3.6-1.4 1.6-.1 2.9 1 3.7 2.3 2.3 3.6-.9 7.5-4.7 7.6C185 477.8 183.9 474.7 184 472.5zm4.5 7c4-.5 6.8-4.2 6.2-8.1-.1-.7-.3-1.3-.5-1.9-.8-1.9-2.5-3.3-4.6-3.5-.6.0-1.2.0-1.8.1C181 465.3 179.6 480.6 188.5 479.5"/><path id="path16572" class="st1" d="M195.6 475.6c-1.4 1-1.9 2.9-3.4 4-1.9 1.4-4.1 1-6.3 1-.1.0-.2.1-.2.2.0.1.0.2.1.2 2.1 1 4.6 1 6.6-.1 1.6-.9 3.8-3.1 3.6-5.1C195.9 475.7 195.8 475.6 195.6 475.6 195.7 475.6 195.7 475.6 195.6 475.6"/><path id="path16574" class="st1" d="M194.6 450c-4.1 1.3-3.4 10.4.5 11.5.2.1.5-.2.4-.4-.7-1.8-1.7-3.1-1.9-5.1-.3-2.2.8-3.8 1.2-5.8C194.8 450.2 194.7 450.1 194.6 450"/><path id="path16576" class="st1" d="M234.4 440.7c1.9-1.7 2.8-4.3 2.4-6.8-.1-.4-.6-.2-.6.1-.1 2.3-1 4.4-2.5 6.1-1.6 1.9-3.7 2.2-6 2.7-.1.0-.2.2-.2.3s.1.2.2.2C230.2 443.9 232.7 442.3 234.4 440.7"/><path id="path16578" class="st1" d="M263.1 414.3c-.3-.2-.6.3-.4.5 2.8 3.4 2.1 9.7-1.6 12.2-3.5 2.4-7.4 2-11.2 2.9-.2.1-.2.2-.2.4.0.1.1.2.2.2 4.3 1 11.1-1.1 13.9-4.5C266.1 423.2 266.2 416.5 263.1 414.3"/><path id="path16580" class="st1" d="M262.8 410.8c.5-.2.7-.8.9-1.3s.4-1 .5-1.5c0-.1-.1-.1-.2-.1-.4.4-.7.8-.9 1.2s-.7.8-.7 1.3C262.5 410.7 262.6 410.8 262.8 410.8"/><path id="path16582" class="st1" d="M163.2 437.2c-6.2-.6-12.7.4-18.9.5s-12.5-.6-18.8-.4c6 1.9 12.5 1.8 18.8 1.8s13 .2 19-1.3C163.7 437.7 163.6 437.2 163.2 437.2"/><path id="path16584" class="st1" d="M172.8 437.1c-1.3-.6-2.9-.2-4.2.0-.1.0-.3.1-.3.3.0.1.1.3.3.3 1.3.2 2.9.6 4.2.0.1-.1.2-.3.1-.4C172.9 437.1 172.8 437.1 172.8 437.1"/><path id="path16586" class="st1" d="M100.8 414.7c-.7-.9-1.4-1.9-2-2.9.0-.1-.1-.1-.2-.1l-.1.1c-.3 1.3.7 2.6 1.5 3.5s2.1 2.1 3.5 1.8c.2.0.3-.2.2-.4.0-.1-.1-.1-.1-.2C102.6 416.1 101.7 415.5 100.8 414.7"/><path id="path16588" class="st1" d="M107 385.8S107.1 385.7 107 385.8v-.1c-8.7-.2-16.2 15.3-11 22.1.1.2.4.1.4-.1-.3-4.4-.5-8.1 1.3-12.3C99.7 390.9 103.3 388.5 107 385.8"/><path id="path16590" class="st1" d="M130.9 358.7c-.1.2.2.3.3.1 2.8-3.9 5.4-7.3 9.4-10.1 3.6-2.5 7.7-3.4 11.9-4.3.2.0.1-.3.0-.3C144.1 343.3 133.6 350.8 130.9 358.7"/><path id="path16592" class="st1" d="M155.7 344.1c.9.0 1.8-.1 2.7.0.8.2 1.7.2 2.6.1.2-.1.2-.2.2-.4.0-.1-.1-.1-.1-.2C159.3 342.9 157.3 343.1 155.7 344.1"/><path id="path16594" class="st1" d="M206 355.6c-.1.1.1.3.2.2 7.1-5.4 13.4-8.5 22.6-7.5.2.0.2-.2.0-.3C221 345.4 209.9 347.7 206 355.6"/><path id="path16596" class="st1" d="M238.4 351.5c.1.0.3.0.3-.2v-.1c-.3-1-1.4-1.5-2.2-1.8-.8-.5-1.8-.6-2.7-.5-.1.0-.1.1-.1.1s0 0 0 .1c.7.5 1.5.8 2.3 1.1C236.9 350.5 237.6 351.2 238.4 351.5"/><path id="path16598" class="st1" d="M259.7 385.2c.9-2.5.1-7.6-2.5-9-.1-.1-.3.1-.2.2 2 2.2 2.4 5.9 2.2 8.8C259.2 385.5 259.6 385.5 259.7 385.2"/><path id="path16600" class="st1" d="M209.9 437.2c-.2-.7-.5-1.4-.9-2-.4-.7-.6-1.5-.9-2.1-.1-.2-.4-.3-.6-.2-.1.1-.2.2-.2.3-.3 1.5 1 3.5 2.1 4.4.1.1.3.1.5.0C209.9 437.5 210 437.4 209.9 437.2"/><path id="path16602" class="st1" d="M499.6 195.6c3.3-.6 6.9.0 7.5 4 .4 3.3-1.3 6.4-4.3 7.8-3.8 1.6-7.5-1.6-7.4-5.4C495.5 199.2 497.1 196.8 499.6 195.6zM508.9 113.2c-.5-.7-1.2-1.4-1.9-2-1.8-1.1-3.8-1.8-5.9-1.9-4.3-.7-8.8.6-12.7 2.4-6.3 2.9-14 12.2-12.2 19.8-3.9-1-7.4 4.6-8.1 8.2-1.2 6 1.6 10.9 6.9 12.7-10.9 6.8-.1 36.6 16 29.3-1.9 3-2.1 7-1.8 10.4.2 2.5 1.7 6.8 4.5 7.1-.3.8-.5 1.6-.6 2.4-.4 4.2 2.7 8 6.9 8.4 1 .1 2 0 3-.3.8-.2 1.6-.6 2.3-1.1 1.9 1.6 4.3 2.4 6.8 2.3v-2.4c-1.8-.3-3.5-.8-5.3-1.3 2-2.3 2.8-5.3 2.4-8.3-.9-3.8-4.6-6.3-8.5-5.8-2.4-.1-4.5 1.7-5.9 3.9-2.9-.9-3.3-3.9-3.3-7-.1-2.7.1-7.6 2-9.7.2-.2.2-.5.0-.7s-.5-.2-.7.0c-3.8 1-7 1.9-10.8.1s-5.9-5.6-7.4-9.3c-1.1-2.8-1.6-5.8-1.5-8.9.0-4.3 2.3-6.6 5.6-8.9.4-.2.5-.8.2-1.1-.2-.3-.6-.4-.9-.4-.3.1-.7.2-1 .3-5-1.2-7.4-4.7-7.3-10 .1-2 .7-3.9 1.7-5.5 1.6-2.9 3.9-2.9 6.7-2.1.3.1.7-.1.7-.5.0-.2.0-.4-.1-.5-.2-.2-.5-.4-.7-.6-.8-3.4 1.5-7.4 2.8-10.4 2.1-4.6 6.7-7.7 11.3-9.4 3.7-1.4 7.8-1.5 11.6-.5 2.2.5 4.5 3.9 6.5 3.8.3.0.5-.3.5-.6.0-.2-.1-.3-.3-.4l-.1-.1c.5-1 1.1-2 1.8-2.9V109C510.2 109.9 508.9 111.3 508.9 113.2"/><path id="path16604" class="st1" d="M488.6 218.4c.3-2.1 1.8-2.5 3.6-2.5.2.1.5.2.7.4 1.1 1.1 1.6 2.7 1.3 4.2-.3 1.8-2.6 4.6-4.4 2.8C488.8 221.9 488.3 220.1 488.6 218.4zM489.6 225.2c3.3 1.8 6.2-2.8 6.3-5.6.1-2-.8-3.8-2.5-4.9-.8-.5-1.8-.6-2.6-.2-1.9-.1-3.5 1.5-3.9 3.7C486.5 220.6 487.2 224 489.6 225.2"/><path id="path16606" class="st1" d="M482.3 234.4h.1c.7.1 1.3.5 1.8 1 1.2 1.1 1.5 2.9-.2 3.6C480.3 240.6 480 235.2 482.3 234.4zM480.1 234.7c-.4.7-.6 1.6-.6 2.4.0 2.8 2.7 4.1 5 3s2.2-3.7.7-5.5c-.7-.9-1.7-1.5-2.9-1.6C481.3 232.9 480.2 233.6 480.1 234.7"/><path id="path16608" class="st1" d="M486.5 241.1c-.2.4-.3.7-.4 1.1-.2.6-.6 1-.8 1.6.0.2.0.3.2.4h.1c.8-.1 1.4-.7 1.6-1.5.2-.5.4-1.3-.1-1.7C487 240.9 486.7 240.9 486.5 241.1 486.6 241 486.5 241.1 486.5 241.1"/><path id="path16610" class="st1" d="M485.4 220.7c.1-.8.1-1.6.1-2.5.1-.9.6-2.5 1.4-3-1 .3-1.8 1-2.1 2s-.6 2.7.1 3.6c.1.1.3.2.4.1C485.4 220.8 485.4 220.8 485.4 220.7"/><path id="path16612" class="st1" d="M466.3 160.1s-.1-.1-.1.0c-2.3 5.8-1.2 11.4 2.1 16.5 2.9 4.6 7.4 10.9 13.6 9.3.4-.1.3-.7-.1-.7-6.7-.5-9.7-5.2-13-10.4C465.9 170.2 465.9 165.3 466.3 160.1"/><path id="path16614" class="st1" d="M467.3 154.8c.2.2.5-.2.4-.4-1.3-2.1-2.8-3.8-3.5-6.2s-.1-4.7-.2-7.1c0-.1-.1-.1-.2-.1.0.0-.1.0-.1.1C461.2 145.6 463.2 151.8 467.3 154.8"/><path id="path16616" class="st1" d="M509.8 107.7c-.1.2.1.3.3.2.6-.6 1.2-1.1 1.9-1.5v-1.1C511.1 105.9 510.3 106.7 509.8 107.7"/><path id="path16618" class="st1" d="M471.5 304.7c-.1 7.4 4.4 16 6.6 23 2.3 7.2 5.1 14.2 7.8 21.3s5.1 12.5 13.9 12.7c4 .1 8.2-.8 12.3-1.9V356c-1.7.4-3.3.8-5 1.1-5.5 1.2-11.7 2.1-14.9-3-2-3.2-2.9-7.1-4.3-10.5-2.6-6.3-4.8-12.7-6.8-19.2-2.1-6.7-5.8-14.3-5.7-21.5.1-11.8 16.6-17.1 26.4-20.6 3.4-1.2 6.8-2.3 10.2-3.4V275c-6.4 2.1-12.7 4.3-19 6.6C482.1 285.8 471.6 293.1 471.5 304.7"/><path id="path16620" class="st1" d="M504.5 365.6c.2-.1.3-.4.2-.6-.1-.1-.2-.2-.4-.2-4.1.4-7.5 1.2-11.5-.4-3.3-1.4-5.5-4.4-7.3-7.2-3.3-5.3-4.6-11.4-6.7-17.2-.1-.2-.3-.4-.5-.3s-.4.3-.3.5C479.5 350.9 488.2 373.8 504.5 365.6"/><path id="path16622" class="st1" d="M509.6 364.3c-.3-.1-.6.1-.7.3-.1.3.1.6.3.7.1.0.2.0.3.0.8.1 1.6.1 2.4.0v-1.2C511.2 364.2 510.4 364.3 509.6 364.3"/><path id="path16624" class="st1" d="M475 287.2c-.7.2-1.5.5-2.1.9-.7.5-1.3 1.1-1.9 1.8-1.1 1.3-1.7 3-1.8 4.7.0.2.2.4.4.4.1.0.2-.1.3-.2.9-1.2 1.6-2.4 2.3-3.7.4-.6.9-1.3 1.4-1.9.5-.6.9-1.3 1.4-1.8C475.2 287.4 475.1 287.2 475 287.2"/><path id="path16626" class="st1" d="M462.3 426.9c-.5-.7-1.5-.1-1.6.6-.1.1-.1.3-.1.4 1 16.7-21.7 37.7-37.5 25-.3-.3-.8-.3-1 0-.2.2-.3.6-.1.8.3.5.6 1.1 1 1.6 5.3 8.7 1.4 18-3.4 26-2.9 5.2-7.6 9.3-13.2 11.4-3.1 1.2-4.8 1.5-7 3.9-.3.4-.1 1.1.4 1.1l.6-.1c0 .1.2.3.3.3 6.7 3 12.3 8 16.2 14.2h4.3c-3.6-6.9-10.4-13.8-17.5-15.1 9.5-2.4 16-9.5 20.7-18.3 2.8-5.2 5.6-14.4 2.4-20.2 5.7 2.6 13.8.3 19.1-2.4 9.1-4.7 17-13.6 16.8-23.9 5.9 8.6 21.1 11.6 30.2 11.3 8.6-.2 15.2-4.2 19.2-10.2v-4.4C503 445.9 474.2 442 462.3 426.9"/><path id="path16628" class="st1" d="M446.5 448.7c-.4.3-.2.9.3.8 6.4-2 12-13.8 8.6-19.9-.1-.3-.5-.1-.5.1-.4 3.4-.2 6.6-1.4 9.9C452.3 443.4 449.8 446.6 446.5 448.7"/><path id="path16630" class="st1" d="M441.6 451.9c-1.9.2-3.7.6-5.5 1.2-.1.0-.2.2-.2.3s.1.2.2.2c2 .3 4-.1 5.7-1.3C441.9 452.2 441.8 451.8 441.6 451.9"/><path id="path16632" class="st1" d="M278.3 14c1.9 7.1 6 16.4 13 19.8-1.9 4.2-4.5 10.7-1.8 13.3 3.5 3.3 7.6 4 6.6 10.6-.7 5.2-1.7 10.4-3 15.5-.1.5.2 1 .7 1.2.1.0.2.0.3.0.2.0.5-.1.7-.3 5.5-5.4 9-12.8 12.1-19.8 1-2.2 1.4-3.9.6-6.1-.8-2.4-2.4-1.3-2.1-5.4.1-1.3.4-2.5.8-3.8 13.8 7.4 31.2 1.5 43.9-5.6C362.8 26.3 371.8 14.2 375 0h-3c-6.6 26.6-39.1 46.7-65.5 38 .2-.9.4-1.8.4-2.7.0-.1-.1-.2-.2-.3-.1.0-.2.1-.2.2-1.4 4.2-5 8.5-1.9 12.7 3.5 4.7-4.3 16.4-9 22.4 1.4-5.8 2.9-12.6 2-18-.4-2-2.4-3.4-3.9-4.5-4.5-3.3-2.4-9.2-.8-14 0-.1.1-.1.1-.2.2-.7.4-1.4.6-2.1.1-.3.0-.6-.3-.6-.3-.1-.6.0-.6.3-.1.3-.3.7-.5 1.1-9.3-7.5-13-20-12.5-32.1h-3C276.5 4.8 277.1 9.5 278.3 14"/><path id="path16634" class="st1" d="M309.6 58.9c3.4-3.4 3.1-9 .6-12.8-.1-.2-.3-.2-.5-.2-.1.1-.2.2-.2.4.2 2 1 3.9 1.4 5.8.4 2.5-.7 4.4-1.6 6.5.0.1.0.2.1.3C309.5 59 309.5 58.9 309.6 58.9"/><path id="path16636" class="st1" d="M303.6 68.2c1-.5 1.5-1.6 2.1-2.5.7-1 1.1-2 1.5-3.2.0-.1.0-.2-.2-.3-.1.0-.1.0-.2.0-.9.7-1.7 1.6-2.3 2.6-.7.8-1.2 1.8-1.5 2.9.0.2.2.4.4.4C303.5 68.2 303.6 68.2 303.6 68.2"/><path id="path16638" class="st1" d="M277.8 23.2c.2.3.6.0.5-.3-2.9-7.3-4.5-15.1-4.7-22.9h-2C271.4 8.6 273.4 17.1 277.8 23.2"/><path id="path16640" class="st1" d="M282.5 29.2c.2.0.4-.1.4-.3.0-.1.0-.1.0-.2-.3-.4-.6-.8-1-1.2-.3-.5-.5-1.1-.5-1.6-.1-.3-.3-.4-.6-.3-.2.0-.3.2-.4.4C280.4 27.2 281.1 28.9 282.5 29.2"/><path id="path16642" class="st1" d="M351.4 37.8c4.4-.5 9.3-2.9 11.2-7.2.1-.2.0-.4-.2-.4-.1.0-.2.0-.3.1-3.4 3.1-6.1 5.9-10.8 6.9-.2.0-.3.2-.2.4C351.1 37.8 351.3 37.9 351.4 37.8"/><path id="path16644" class="st1" d="M86.2 17.8c-2.1 7.6 1.6 18 9.4 20.5-1.3 1.1-2 3.3-2.3 4.9-.4 3.2.4 6.3 2 9.1 1.8 3.2 6.6 6.8 10.4 5.8-1.7 3.3-1.7 7.6-.7 11.2 1.8 6.7 7.9 12.3 13.8 15.6 5.3 2.9 22.2 2.7 24.2-4.9 2.4 3.2 8.5 4.1 12.1 3.6 2.9-.4 7.5-2.6 9.2-5.5 6.7 10.6 25.5 11.2 35.9 7.7 7.1-2.4 14.2-7 18.6-13 3.4-4.7 6.8-11.9 4.9-17.9 1.6.2 3.3-.1 4.7-.9 2.9-1.6 5.1-4.2 6.3-7.3 1-2.9 1-6 .1-8.8-.5-1.2-1.3-2.1-2.5-2.7 12.1-6 10-24 5.5-35h-3.2c4.9 9.5 7.1 29.9-4.6 34.2-.5.2-.7.7-.5 1.2.0.1.1.2.1.2.0.1.0.2.1.3 1.6 1.2 2.9 1.3 3.4 3.6.3 2 .2 4.1-.4 6-.7 2.1-2 3.9-3.6 5.2-1 1-2.3 1.7-3.7 2.1-.5.2-2.3-.4-3.1-.4-.3.0-.6.3-.6.6.0.1.0.1.0.2.1.3.3.6.5.8-.9 6-.9 10.9-4.5 16.3-3.9 5.9-10.3 10-16.7 12.7-6.2 2.6-13 3.4-19.6 2.2-8.7-1.4-13.7-6.6-18.6-13.4-.1-.2-.4-.3-.6-.2s-.3.3-.2.5c0 0 0 .1.0.2.0.1.0.2.0.4.0.1.1.2.1.2.1.7.3 1.4.6 2.1.3 4-4.9 6.1-8.9 6.3-4.9.3-9.3-1.3-11.1-6.1-.1-.2-.3-.3-.5-.2-.1.0-.2.1-.2.2-.2.7-.2 1.5-.1 2.2-3.5 7.3-15.3 8.1-21.9 5.1-5-2.3-9-6.7-11.6-11.3-3.5-6.1-.8-11 2-16.5.1-.2.0-.5-.2-.6-.1-.1-.3-.1-.4.0-.6.3-1.2.7-1.7 1.1-1.8.5-3.4 1.1-5.4.6-2.3-.6-4.2-2.8-5.4-4.7-1.3-2.1-2-4.5-1.9-7 0-2.3 1.5-3.5 2.2-5.3h.1c1 .1 1.1-1.4.2-1.7C90 34.6 87 26 88.4 18.4c.8-4.5 4.6-8.4 8.3-10.9 4.1-2.7 8.5-2 13-2.1.4.0.8-.3.8-.8.0-.3-.2-.6-.6-.7h-.1c-.4-1.3-.6-2.6-.5-3.9H107c0 1 .2 2.1.5 3.1-9.2-1.9-18.9 6-21.3 14.7"/><path id="path16646" class="st1" d="M129.4 92.3c.1.0.2-.2.2-.3s-.1-.2-.2-.2c-7.7.3-15.2-2.6-20.7-8-6.2-5.8-6.8-13.1-7.3-21 0-.2-.3-.3-.3-.1-3.6 6.7 1.2 15.8 5.4 21.1C111.2 90.1 121.6 95.5 129.4 92.3"/><path id="path16648" class="st1" d="M137.7 91.2c.9-.3 2.1-.8 2.3-1.8.1-.2-.1-.4-.3-.4-.1.0-.1.0-.2.0-.8.4-1.7.8-2.4 1.3-.4.2-.9.3-1.4.4-.4.2-.8.4-1.2.7.0.0-.1.1.0.1C135.6 91.7 136.7 91.6 137.7 91.2"/><path id="path16650" class="st1" d="M91.1 4.8c0 .1.1.1.1.2C92.7 5 93.6 2.8 94.7 2c2-1.5 4.7-1 6.9-1.8.1.0.2-.1.3-.2h-5.6c-.3.1-.7.3-1 .4C93.5 1.4 92 2.9 91.1 4.8"/><path id="path16652" class="st1" d="M242.8 5.2c.2.3.8.3.9-.1.1-1.1.1-2.2-.1-3.3-.1-.6-.2-1.3-.5-1.9h-1.2c0 .7.1 1.4.1 2.1C241.9 3.2 242.2 4.3 242.8 5.2"/><path id="path16654" class="st1" d="M228.2 64.7c1-2 1-4.4.0-6.4h-.1c-.2 2.1-.3 4.2-.5 6.3.0.2.1.3.3.3C228.1 64.9 228.2 64.8 228.2 64.7"/><path id="path16656" class="st1" d="M207.3 89.5c.4-2.4 2.3-4.4 4-6 .8-.7 1.8-1.4 2.8-1.8 4.1-1.5 9.1-2.4 11.4 1.1 2.5 4-4.7 8.6-7.3 10C214.9 94.5 206.1 96 207.3 89.5zM218.1 95c4-1.7 11.4-7.6 9.1-12.7-2.4-5.5-11.1-4.6-15.7-1.3-.4.2-.7.5-1.1.8-2.5 1.9-4.9 4.9-5.2 8.1C204.5 97.2 213.4 97 218.1 95"/><path id="path16658" class="st1" d="M207 108.3c1.8-1.1 3.9-1.5 6-1.1 3.7.7 2.5 4.6.2 6.3s-6.7 1.6-7.8-1.5C204.9 110.6 205.9 109.2 207 108.3zM214.2 115.3c3.1-2 4.8-7.2 1-9.4-2.3-1.1-5-1.2-7.3-.2-.8.2-1.6.6-2.2 1.2-1.8 1.3-2.6 3.5-2.2 5.7C204.6 117.2 211 117.4 214.2 115.3"/><path id="path16660" class="st1" d="M193 131.4c.1-1.9 2-2.8 3.4-3.4.1.0.1-.2.1-.2s0-.1-.1-.1h-.1c1.4-.8 2.8-1.2 4.2-.3 3.2 1.9-2 5.6-3.7 6.2S192.9 133.7 193 131.4zM197.6 134.7c2.7-.9 7.3-4.9 4.6-8-1.4-1.7-3.5-1.8-5.5-1.3-1.6.5-3.9 1.8-4.6 3.5-.5.8-.8 1.7-.9 2.6C191.2 135.2 195 135.6 197.6 134.7"/><path id="path16662" class="st1" d="M201.8 135.5c-.1.1-.1.3.0.4s.2.1.3.1c1.3-.3 2.3-1.3 2.8-2.5.6-1.2.6-2.7.0-3.9h-.1c.2 1.2-.1 2.4-.8 3.4C203.5 133.9 202.7 134.7 201.8 135.5"/><path id="path16664" class="st1" d="M201.7 116.5c.3.1.5-.1.4-.4-1.3-2.9-.6-5.6.1-8.5.0-.1.0-.2-.1-.2s-.1.0-.2.0C199.9 109.3 198.8 114.8 201.7 116.5"/><path id="path16666" class="st1" d="M228.6 88.2c1.2-2 1.2-4.5.1-6.5h-.1c-.4 2.1.1 4.2-.4 6.2-.1.1.0.3.1.3S228.5 88.3 228.6 88.2"/><path id="path16668" class="st1" d="M225.9 90.9c-.5.6-1 1.3-1.4 2-.1.1.0.3.1.3s.1.0.2.0c.7-.5 1.3-1.1 1.6-1.8C226.6 91 226.2 90.6 225.9 90.9"/><path id="path16670" class="st1" d="M3.9 50.5c3.2-6.4 6-11.1 12.3-14.9 3.2-2 7-3.1 10.8-3.2 4.3-.2 7.1 2.7 10.7 4.5.2.1.4.0.5-.2.0-.1.1-.2.0-.3-.1-.8-.3-1.6-.6-2.3 1-7.4 5.2-14.1 11.4-18.2 6.5-4.4 13.1-3.6 20.3-4.6 1.2-.2 1-1.8.1-2.2-1.3-2.9-2.4-6-3.3-9.1h-2.4c.8 2.9 2 5.7 3.4 8.4-7-1.4-15.4 2-20.9 5.9-6.3 4.4-9.2 10.6-9.7 17.9-6.9-9-31.3 1.7-33.8 14.3C2 45 1.1 43.7.0 42.5v3.2c1.2 1.5 2 3.2 2.6 5C2.8 51.4 3.9 51.3 3.9 50.5"/><path id="path16672" class="st1" d="M27 36.3c-4.1-.4-7.2.6-9.8 3.8v.1s.1.0.1.0c3-2.5 6.8-2.8 10.5-2 3 .6 5.3 2.7 8.1 3.4.3.1.6-.1.6-.4.0-.1.0-.3.0-.4-1.8-2.9-6.3-4.2-9.5-4.5"/><path id="path16674" class="st1" d="M45 29c-1 .5-1.7 1.4-1.8 2.4-.3 1.3-.2 2.7.3 3.9h.1c.1-1 .2-2 .3-3 .3-1.1.8-2.1 1.4-3C45.4 29.1 45.2 28.8 45 29"/><path id="path16676" class="st1" d="M411.3 31.7c-1.2.9.3 2.6 1.5 2l.4-.2c5.9-1.4 27.5-8.5 30.5-.9 2.6 6.5-5.1 14.8-3.8 21.9.8 4.3 6.6 5 9.9 5.7 9.3 1.9 1.9 27.5 1.3 33.4-.1 1.2 1.3 1.7 2.2 1.3.2.1.5.0.7-.2 6.2-7.5 11.7-15.2 17.4-23 1.9-2.6 9.9-12.5 6.2-16.3-2.9-3-5.7-5.6-3.4-10.2 3.9-7.7 8.7-10.9 17.3-9.7 7.5 1.1 16 4.2 20.6 10.3v-3.2c-8.2-9.1-27.2-14.4-34.9-7-3 2.9-12.2 13.6-7.3 17.7 2.9 2.5 6.3 3.3 3.9 8.9-1.6 3.8-4.3 7.3-6.7 10.6-4.3 6.1-8.8 12.2-12.6 18.6 1.5-8.6 4.1-17.4 2.7-26.1-.5-3.5-1.3-5.5-4.5-7.2-1.2-.5-2.5-.8-3.8-1-7-1.5-5.8-8.7-4-13.4 1.6-4.3 5.1-14.7-2-16.6-7.6-2.1-16.9.5-24.9 2.9 6.2-6.2 7.9-15.6 5.5-24.4-.5-1.9-1.3-3.8-2.3-5.5h-4.3C422.9 10.1 422.8 22.6 411.3 31.7"/><path id="path16678" class="st1" d="M413.9 21.9c4-4.8 3.4-11.2 1.4-16.8-.3-.7-1.5-.7-1.4.2.3 2.5 1 5 1.1 7.6.2 3.1-.8 5.8-1.6 8.7C413.3 21.9 413.7 22.1 413.9 21.9"/><path id="path16680" class="st1" d="M450.4 86.2c1.9-4.1 1.5-9.7 1.4-14.1.0-.3-.2-.5-.5-.5s-.5.2-.5.5c-.1 2.4-.2 4.7-.4 7.1-.2 2.3-.8 4.6-.6 6.9C449.7 86.3 450.2 86.5 450.4 86.2"/><path id="path16682" class="st1" d="M481.5 55.7c.1 2.9-2.2 5.9-3 8.7-.1.3.3.5.5.3 2.6-3.3 4.6-7.3 3.6-11.5-.4-1.7-1.5-3.2-2.9-4.2-2.1-1.2-.8-4.3-.5-6.3.0-.1-.2-.2-.2-.1-.9 1.3-3 5.3-1.4 6.7C479.7 51.1 481.4 52.6 481.5 55.7"/></g></g></g></svg>