<svg xmlns="http://www.w3.org/2000/svg" width="480" height="480" viewBox="0 0 127 127">
    <g transform="translate(-7.056 -7.056) scale(1.41111)">
        <path d="M67.92 22.92c0 9.901-8.024 17.92-17.92 17.92a17.871 17.871 0 01-13.78-6.464 17.837 17.837 0 01-4.14-11.456C32.08 13.024 40.104 5 50 5c4.283 0 8.216 1.505 11.299 4.019A17.856 17.856 0 0167.92 22.92z" fill="#f4c85b"/>
        <circle transform="rotate(-9.25 50.04 22.978)" cy="22.922" cx="50.002" r="13.767" fill="#efb250"/>
        <path d="M93.607 26.263c-.024-.824-.806-1.437-1.604-1.23a6.234 6.234 0 00-4.641 5.443L85.516 49.89 75.131 60.8l-4.56-4.64 3.89-4.25a8.376 8.376 0 00-.318-11.643l-15.08 16.01a8.005 8.005 0 00-2.152 4.832l-.876 10.656V83.84h17.248v-8.008l19.424-18.068a5.33 5.33 0 001.697-4.058z" fill="#fdd7ad"/>
        <path d="M75.134 77.578h-20.8a1.33 1.33 0 00-1.33 1.33V93.67c0 .735.596 1.33 1.33 1.33h20.8a1.33 1.33 0 001.33-1.33V78.908a1.33 1.33 0 00-1.33-1.33z" fill="#27a2db"/>
        <path d="M58.2 84.38a2.165 2.165 0 100 4.33 2.165 2.165 0 000-4.33z" fill="#ebf0f3"/>
        <path d="M6.393 26.263c.024-.824.806-1.437 1.604-1.23a6.234 6.234 0 014.641 5.443l1.846 19.414L24.869 60.8l4.56-4.64-3.89-4.25a8.376 8.376 0 01.318-11.643l15.08 16.01a8.005 8.005 0 012.152 4.832l.876 10.656V83.84H26.717v-8.008L7.293 57.763a5.33 5.33 0 01-1.697-4.058z" fill="#fdd7ad"/>
        <path d="M24.866 77.578h20.8c.734 0 1.33.596 1.33 1.33V93.67a1.33 1.33 0 01-1.33 1.33h-20.8a1.33 1.33 0 01-1.33-1.33V78.908c0-.734.596-1.33 1.33-1.33z" fill="#27a2db"/>
        <path d="M42.635 84.38a2.165 2.165 0 100 4.33 2.165 2.165 0 000-4.33z" fill="#ebf0f3"/>
    </g>
</svg>
