<svg xmlns="http://www.w3.org/2000/svg" width="480" height="480" viewBox="0 0 127 127">
    <path d="M37.297 43.434c13.02 0 15.624-15.624 15.624-15.624 7.813-5.208 0-10.417 0-10.417 0-8.628-6.995-15.624-15.624-15.624-8.63 0-15.624 6.996-15.624 15.624 0 0-7.813 5.209 0 10.417 0 0 2.604 15.624 15.624 15.624zm0 0" fill="#fdd7ad"/>
    <path d="M46.02 40.387c.938 5.339 2.891 10.86 6.901 10.86 7.813 0 13.02 7.811 13.02 15.624H8.652c0-7.813 5.208-15.624 13.021-15.624 4.01 0 5.963-5.521 6.9-10.86" fill="#fdd7ad"/>
    <path d="M65.941 66.87H8.652c0-7.812 5.208-15.623 13.021-15.623.148.004.296-.005.443-.027a23.008 23.008 0 0014.426 4.583 22.728 22.728 0 0014.791-4.895 3.63 3.63 0 001.588.339c7.813 0 13.02 7.811 13.02 15.624zm0 0" fill="#44c4a1"/>
    <path d="M89.704 43.434c13.02 0 15.624-15.624 15.624-15.624 7.812-5.208 0-10.417 0-10.417 0-8.628-6.996-15.624-15.624-15.624-8.63 0-15.625 6.996-15.625 15.624 0 0-7.812 5.209 0 10.417 0 0 2.604 15.624 15.625 15.624zm0 0" fill="#fdd7ad"/>
    <path d="M98.427 40.387c.938 5.339 2.891 10.86 6.901 10.86 7.812 0 13.02 7.811 13.02 15.624h-57.29c0-7.813 5.21-15.624 13.02-15.624 4.012 0 5.965-5.521 6.902-10.86" fill="#fdd7ad"/>
    <path d="M118.348 66.87h-57.29c0-7.812 5.21-15.623 13.02-15.623.15.004.298-.005.444-.027a23.007 23.007 0 0014.426 4.583 22.723 22.723 0 0014.791-4.895c.498.231 1.04.347 1.589.339 7.812 0 13.02 7.811 13.02 15.624zm0 0" fill="#285680"/>
    <path d="M46.417 42.514a13.938 13.938 0 01-18.332 0c.155-.728.312-1.484.442-2.213a14.01 14.01 0 0017.447 0c.13.73.286 1.485.443 2.213zm0 0M98.834 42.578a13.942 13.942 0 01-18.333 0c.156-.73.312-1.485.442-2.214a14.015 14.015 0 0017.448 0c.13.726.286 1.484.443 2.214zm0 0" fill="#cbb292"/>
    <path d="M89.703 101.794c13.02 0 15.624-15.624 15.624-15.624 7.813-5.208 0-10.415 0-10.415 0-8.63-6.994-15.626-15.624-15.626S74.08 67.125 74.08 75.755c0 0-7.812 5.207 0 10.415 0 0 2.605 15.624 15.624 15.624zm0 0" fill="#fdd7ad"/>
    <path d="M98.427 98.748c.937 5.338 2.89 10.859 6.9 10.859 7.813 0 13.02 7.811 13.02 15.624H61.06c0-7.813 5.208-15.624 13.02-15.624 4.01 0 5.963-5.52 6.9-10.86" fill="#fdd7ad"/>
    <path d="M118.347 125.231H61.06c0-7.813 5.208-15.624 13.02-15.624a2.36 2.36 0 00.443-.027 23.009 23.009 0 0014.427 4.584 22.735 22.735 0 0014.79-4.896 3.63 3.63 0 001.588.339c7.813 0 13.02 7.811 13.02 15.624zm0 0" fill="#44c4a1"/>
    <path d="M98.864 100.938a13.94 13.94 0 01-18.332 0c.156-.73.312-1.484.443-2.213a14.013 14.013 0 0017.447 0c.136.725.287 1.484.442 2.213zm0 0" fill="#cbb292"/>
    <g fill="#cbb292">
        <path d="M37.296 101.794c13.021 0 15.625-15.624 15.625-15.624 7.812-5.208 0-10.415 0-10.415 0-8.63-6.995-15.626-15.625-15.626-8.628 0-15.624 6.996-15.624 15.626 0 0-7.812 5.207 0 10.415 0 0 2.604 15.624 15.624 15.624zm0 0" fill="#fdd7ad"/>
        <path d="M46.02 98.748c.938 5.338 2.89 10.859 6.901 10.859 7.812 0 13.02 7.811 13.02 15.624H8.652c0-7.813 5.208-15.624 13.02-15.624 4.01 0 5.963-5.52 6.901-10.86" fill="#fdd7ad"/>
        <path d="M65.941 125.231H8.652c0-7.813 5.208-15.624 13.02-15.624.149.004.296-.003.442-.027a23.02 23.02 0 0014.427 4.584 22.73 22.73 0 0014.791-4.896c.498.232 1.04.347 1.59.339 7.81 0 13.02 7.811 13.02 15.624zm0 0" fill="#285680"/>
        <path d="M46.458 100.955a13.337 13.337 0 01-9.162 3.439 13.33 13.33 0 01-9.165-3.439c.155-.728.312-1.484.442-2.212a13.385 13.385 0 008.723 3.047 13.386 13.386 0 008.724-3.047c.13.728.281 1.484.438 2.212zm0 0"/>
    </g>
</svg>
