<svg xmlns="http://www.w3.org/2000/svg" width="480" height="480" viewBox="0 0 127 127">
    <g transform="matrix(1.41112 0 0 1.41112 -7.056 -7.056)">
        <circle r="27.791" cx="50.072" cy="67.209" transform="rotate(-9.25 50.08 67.313)" fill="#fcd462"/>
        <circle r="22.395" cx="50.072" cy="67.209" transform="rotate(-9.25 50.08 67.313)" fill="#dc8744"/>
        <path d="M50.033 87.41a20.394 20.394 0 01-2.183-.12.36.36 0 01-.32-.4.356.356 0 01.399-.318c.694.076 1.402.115 2.104.116a.36.36 0 010 .722zm2.144-.11a.36.36 0 01-.037-.72 19.517 19.517 0 002.08-.334.36.36 0 11.153.705 20.228 20.228 0 01-2.196.349zm-6.406-.358a.37.37 0 01-.078-.008 20.108 20.108 0 01-2.106-.588.361.361 0 01.232-.684c.663.226 1.346.416 2.03.567a.36.36 0 01-.078.713zm10.597-.552a.36.36 0 01-.115-.703 19.295 19.295 0 001.96-.777.36.36 0 11.302.655c-.657.304-1.342.575-2.033.807a.361.361 0 01-.114.018zm-14.659-.823a.36.36 0 01-.152-.034 20.273 20.273 0 01-1.928-1.028.36.36 0 11.374-.618c.6.363 1.226.697 1.859.992a.36.36 0 01-.153.688zm18.555-.97a.36.36 0 01-.186-.671c.6-.36 1.187-.757 1.746-1.18a.36.36 0 11.436.575c-.58.439-1.19.85-1.811 1.224a.36.36 0 01-.185.051zm-22.222-1.249a.358.358 0 01-.219-.074 20.323 20.323 0 01-1.663-1.418.36.36 0 11.497-.523c.507.482 1.047.942 1.604 1.367a.36.36 0 01-.22.648zm25.64-1.342a.36.36 0 01-.248-.623c.51-.481 1-.995 1.455-1.527a.36.36 0 11.548.469 20.426 20.426 0 01-1.507 1.583.36.36 0 01-.248.098zm-28.748-1.612a.36.36 0 01-.276-.128 20.52 20.52 0 01-1.322-1.741.361.361 0 11.598-.405 19.84 19.84 0 001.275 1.68.36.36 0 01-.275.594zm31.533-1.648a.36.36 0 01-.298-.564c.396-.58.764-1.186 1.093-1.803a.36.36 0 11.636.34 20.189 20.189 0 01-1.133 1.87.36.36 0 01-.298.157zm-33.938-1.903a.361.361 0 01-.32-.192 20.25 20.25 0 01-.916-1.986.361.361 0 01.67-.266c.258.65.556 1.293.884 1.914a.36.36 0 01-.318.53zm35.958-1.877a.362.362 0 01-.334-.496c.261-.65.49-1.322.678-1.996a.36.36 0 11.695.195 20.076 20.076 0 01-.704 2.07.36.36 0 01-.335.227zm-37.543-2.11a.36.36 0 01-.347-.264c-.194-.703-.35-1.421-.466-2.136a.36.36 0 11.713-.115c.11.689.262 1.382.448 2.06a.36.36 0 01-.348.456zm38.7-2.019a.36.36 0 01-.356-.42c.115-.69.193-1.394.232-2.094a.36.36 0 11.72.04c-.04.726-.12 1.457-.24 2.172a.36.36 0 01-.355.302zM30.26 68.624c-.191 0-.35-.15-.36-.342a20.444 20.444 0 01.002-2.186c.01-.198.178-.361.38-.34a.36.36 0 01.34.38 19.704 19.704 0 00-.001 2.108c.01.2-.143.37-.342.38h-.02zm39.626-2.068a.361.361 0 01-.36-.343 19.636 19.636 0 00-.219-2.096.36.36 0 11.713-.113c.114.715.19 1.446.227 2.174a.361.361 0 01-.342.378h-.019zm-39.392-2.213a.361.361 0 01-.357-.419 20.27 20.27 0 01.47-2.136.361.361 0 01.696.193c-.187.674-.34 1.366-.453 2.059a.361.361 0 01-.356.303zm38.717-2.021a.361.361 0 01-.348-.266c-.186-.677-.41-1.35-.667-2a.361.361 0 01.671-.265c.267.674.5 1.372.692 2.075a.361.361 0 01-.348.456zm-37.57-2.11a.361.361 0 01-.335-.495c.27-.674.58-1.342.921-1.983a.36.36 0 11.637.339c-.329.618-.627 1.261-.887 1.912a.361.361 0 01-.335.226zm35.995-1.88a.36.36 0 01-.32-.192 19.56 19.56 0 00-1.082-1.809.361.361 0 01.598-.404c.407.603.784 1.234 1.123 1.877a.36.36 0 01-.32.529zm-33.981-1.906a.36.36 0 01-.298-.564c.408-.6.854-1.185 1.325-1.738a.361.361 0 01.55.468 19.65 19.65 0 00-1.278 1.677.36.36 0 01-.299.157zm31.583-1.65a.36.36 0 01-.276-.127 19.765 19.765 0 00-1.445-1.535.361.361 0 01.498-.523 20.49 20.49 0 011.498 1.592.36.36 0 01-.275.594zM36.434 53.16a.36.36 0 01-.248-.623c.527-.499 1.088-.975 1.666-1.415a.36.36 0 11.437.575c-.558.424-1.098.883-1.607 1.365a.36.36 0 01-.248.098zm25.7-1.343a.36.36 0 01-.218-.074 19.59 19.59 0 00-1.74-1.191.36.36 0 01.375-.617c.621.378 1.228.793 1.804 1.235a.361.361 0 01-.22.647zm-22.286-1.252a.36.36 0 01-.187-.67c.623-.376 1.272-.72 1.932-1.026a.36.36 0 11.303.655c-.636.294-1.262.627-1.862.989a.359.359 0 01-.186.052zm18.623-.975a.362.362 0 01-.152-.034 19.549 19.549 0 00-1.955-.788.36.36 0 01.233-.683c.687.234 1.369.51 2.028.817a.361.361 0 01-.154.688zm-14.732-.828a.36.36 0 01-.115-.702 20.067 20.067 0 012.108-.584.36.36 0 11.155.705c-.686.15-1.37.34-2.033.562a.357.357 0 01-.115.02zm10.675-.556a.356.356 0 01-.08-.008 19.476 19.476 0 00-2.078-.347.361.361 0 01-.32-.398.368.368 0 01.4-.32c.723.081 1.448.202 2.156.36a.36.36 0 01-.078.713zm-6.486-.362a.36.36 0 01-.038-.72c.72-.077 1.455-.116 2.182-.116h.08a.36.36 0 110 .722h-.08a19.855 19.855 0 00-2.144.114z" fill="#fcd462"/>
        <path d="M67.63 21.01l-8.772 12.365-8.612-23.056v-.055l-.01.027-.008-.027v.055L41.51 33.375l-8.77-12.366s4.546 12.444 3.428 26.215H64.2c-1.118-13.771 3.429-26.215 3.429-26.215z" fill="#f7be56"/>
        <path d="M76.915 18.886L65.742 33.39c-1.027 1.334-3.105 1.093-3.8-.44-5.997-8.707-9.906-17.337-11.664-25.74v-.06l-.013.029-.014-.03v.06c-2.972 9.557-6.772 18.284-11.817 25.765-.7 1.526-2.771 1.762-3.796.431L23.454 18.886s6.967 13.593 5.254 28.636H71.66c-1.714-15.043 5.254-28.636 5.254-28.636z" fill="#fcd462"/>
        <g fill="#ebf0f3">
            <path d="M50.184 5a4.434 4.434 0 100 8.868 4.434 4.434 0 000-8.868zM75.755 18.058a2.604 2.604 0 100 5.208 2.604 2.604 0 000-5.208zM67.402 19.639a2.21 2.21 0 100 4.42 2.21 2.21 0 000-4.42zM24.245 18.058a2.604 2.604 0 110 5.208 2.604 2.604 0 010-5.208zM32.598 19.639a2.21 2.21 0 110 4.42 2.21 2.21 0 010-4.42z"/>
        </g>
        <g fill="#f7be56">
            <path d="M72.496 46.49H27.872a1.82 1.82 0 100 3.64h44.624a1.82 1.82 0 100-3.64zM50 30.268l1.903 3.856 4.256.619-3.08 3.001.727 4.239L50 39.982l-3.806 2 .727-4.238-3.08-3.001 4.256-.619z"/>
        </g>
    </g>
</svg>
