<svg xmlns="http://www.w3.org/2000/svg" width="480" height="480" viewBox="0 0 127 127">
    <g transform="translate(-7.037 -7.056) scale(1.41111)">
        <path d="M58.846 17.757s-1.042-10.491 11.68-6.632c0 0 1.69.603 3.438.301 0 0-1.838 14.23-15.118 6.33z" fill="#3ea69b"/>
        <path d="M57.24 19.018s5.568-6.901 14.77-6.487c0 0-10.378 2.668-13.655 7.868z" fill="#31978c"/>
        <path d="M51.75 30.938s7.211-15.947-14.848-16.636c0 0-2.976.052-5.566-1.351 0 0-4.669 23.356 20.414 17.987z" fill="#3ea69b"/>
        <path d="M53.605 33.775s-5.09-13.813-19.784-18.05c0 0 14.907 9.71 17.299 19.629z" fill="#31978c"/>
        <path d="M65.76 86.243l-30.858-.111v-3.638H65.76z" fill="#f7be56"/>
        <path d="M50.33 77.386c-8.52 0-15.428 3.943-15.428 8.807C34.902 91.057 41.81 95 50.33 95c8.52 0 15.429-3.943 15.429-8.807 0-4.864-6.908-8.807-15.43-8.807z" fill="#f7be56"/>
        <ellipse ry="8.807" rx="15.429" cy="82.494" cx="50.331" fill="#fcd462"/>
        <ellipse ry="6.856" rx="12.011" cy="82.494" cx="50.331" fill="#f7be56"/>
        <path d="M50.49 88.69c-5.938 0-10.77-2.758-10.77-6.148 0-3.39 4.832-6.149 10.77-6.149 5.94 0 10.773 2.758 10.773 6.149 0 3.39-4.833 6.148-10.772 6.148zm0-11.847c-5.505 0-9.983 2.556-9.983 5.699 0 3.142 4.478 5.699 9.984 5.699 5.505 0 9.984-2.557 9.984-5.7 0-3.142-4.479-5.698-9.984-5.698z" fill="#fcd462"/>
        <path d="M84.289 85.415l-28.823-11.02 1.286-3.402 28.863 10.915z" fill="#f7be56"/>
        <path d="M72.99 71.673c-7.97-3.014-15.826-1.77-17.547 2.78-1.72 4.55 3.346 10.681 11.317 13.695 7.97 3.014 15.826 1.77 17.546-2.78 1.72-4.549-3.346-10.68-11.316-13.695z" fill="#eab054"/>
        <ellipse transform="rotate(-69.27 71.213 76.479)" ry="15.429" rx="8.807" cy="76.451" cx="71.183" fill="#f7be56"/>
        <ellipse transform="rotate(-69.27 71.213 76.479)" ry="12.011" rx="6.856" cy="76.451" cx="71.183" fill="#eab054"/>
        <path d="M69.141 82.303c-5.555-2.1-9.1-6.39-7.9-9.561 1.2-3.171 6.695-4.042 12.25-1.941 5.556 2.1 9.1 6.39 7.9 9.561-1.199 3.172-6.694 4.042-12.25 1.941zm4.191-11.082c-5.15-1.947-10.243-1.14-11.354 1.8-1.112 2.938 2.173 6.914 7.322 8.862 5.15 1.947 10.243 1.14 11.355-1.8 1.112-2.939-2.173-6.914-7.323-8.862zM44.974 61.992L15.21 70.133l-.973-3.505 29.735-8.249z" fill="#f7be56"/>
        <path d="M27.74 57.582c-8.212 2.278-13.814 7.924-12.514 12.61 1.3 4.687 9.01 6.64 17.222 4.362 8.21-2.277 13.813-7.923 12.513-12.61-1.3-4.687-9.01-6.64-17.222-4.362z" fill="#eab054"/>
        <ellipse transform="rotate(-15.48 29.154 62.573)" ry="8.807" rx="15.429" cy="62.503" cx="29.105" fill="#f7be56"/>
        <ellipse transform="rotate(-15.48 29.154 62.573)" ry="6.856" rx="12.011" cy="62.503" cx="29.105" fill="#eab054"/>
        <path d="M30.915 68.432c-5.723 1.587-11.117.221-12.023-3.046-.906-3.267 3.013-7.216 8.736-8.804 5.723-1.588 11.117-.222 12.023 3.045.907 3.267-3.013 7.217-8.736 8.805zm-3.167-11.417c-5.305 1.472-8.937 5.132-8.097 8.16.84 3.029 5.839 4.295 11.144 2.824 5.305-1.472 8.938-5.133 8.097-8.161-.84-3.029-5.839-4.295-11.144-2.823zM47.282 82.162l-30.78 2.182-.272-3.628 30.773-2.293z" fill="#f7be56"/>
        <path d="M31.237 74.476c-8.497.633-15.093 5.079-14.732 9.929.362 4.85 7.543 8.27 16.04 7.636 8.499-.633 15.094-5.079 14.733-9.929-.362-4.85-7.543-8.269-16.04-7.636z" fill="#f7be56"/>
        <ellipse transform="rotate(-4.25 31.755 79.893)" ry="8.807" rx="15.429" cy="79.569" cx="31.617" fill="#fcd462"/>
        <ellipse transform="rotate(-4.25 31.755 79.893)" ry="6.856" rx="12.011" cy="79.569" cx="31.617" fill="#f7be56"/>
        <path d="M32.237 85.737c-5.923.441-10.947-1.95-11.2-5.332-.251-3.38 4.363-6.49 10.286-6.931 5.923-.442 10.947 1.95 11.199 5.33.252 3.382-4.362 6.492-10.285 6.933zm-.88-11.815c-5.49.409-9.767 3.291-9.534 6.425.234 3.134 4.89 5.35 10.38 4.942 5.49-.41 9.767-3.292 9.533-6.426-.233-3.134-4.89-5.35-10.38-4.941z" fill="#fcd462"/>
        <path d="M50.298 75.213c-1.618-2.727-3.23-5.467-4.567-8.35-1.347-2.873-2.413-5.91-2.859-9.075-.463-3.163-.141-6.427.802-9.48.937-3.062 2.383-5.932 3.964-8.69 3.163-5.492 6.958-10.713 8.642-16.78.857-2.992 1.017-6.179.36-9.195-.644-3-2.197-5.843-4.647-7.632a.56.56 0 01.63-.924l.038.025c2.84 1.815 4.774 4.904 5.676 8.174.926 3.277.952 6.839.203 10.194-1.458 6.732-5.155 12.469-7.812 17.941-1.338 2.743-2.46 5.478-3.052 8.135-.593 2.678-.602 5.128-.037 7.61 1.113 4.993 4.323 9.85 7.868 14.997a3.021 3.021 0 11-5.083 3.262z" fill="#44c4a1"/>
        <path d="M78.236 70.294l-29.293-9.7 1.13-3.458 29.329 9.594z" fill="#f7be56"/>
        <path d="M66.325 57.079c-8.098-2.65-15.89-1.05-17.402 3.573-1.512 4.623 3.827 10.518 11.926 13.167 8.099 2.65 15.89 1.05 17.402-3.573 1.513-4.622-3.827-10.518-11.926-13.167z" fill="#f7be56"/>
        <ellipse transform="rotate(-71.87 64.778 61.959)" ry="15.429" rx="8.807" cy="61.933" cx="64.737" fill="#fcd462"/>
        <ellipse transform="rotate(-71.87 64.778 61.959)" ry="12.011" rx="6.856" cy="61.933" cx="64.737" fill="#f7be56"/>
        <path d="M62.963 67.872c-5.645-1.846-9.38-5.97-8.326-9.193 1.054-3.222 6.505-4.341 12.15-2.495 5.644 1.847 9.38 5.971 8.326 9.193-1.055 3.223-6.505 4.342-12.15 2.495zm3.684-11.26c-5.233-1.712-10.285-.675-11.262 2.312-.977 2.987 2.485 6.81 7.718 8.521 5.232 1.712 10.284.674 11.261-2.313.977-2.986-2.485-6.809-7.717-8.52z" fill="#fcd462"/>
        <path d="M60.574 76.168l-30.583-4.11.471-3.607 30.598 4z" fill="#f7be56"/>
        <path d="M46.423 65.386c-8.45-1.104-15.81 1.91-16.44 6.733-.63 4.823 5.708 9.628 14.157 10.732 8.45 1.105 15.81-1.91 16.44-6.733.63-4.822-5.708-9.627-14.157-10.732z" fill="#f7be56"/>
        <ellipse transform="rotate(-82.53 45.76 70.422)" ry="15.429" rx="8.807" cy="70.451" cx="45.761" fill="#fcd462"/>
        <ellipse transform="rotate(-82.53 45.76 70.422)" ry="12.011" rx="6.856" cy="70.451" cx="45.761" fill="#f7be56"/>
        <path d="M45.117 76.616c-5.89-.77-10.324-4.132-9.884-7.494.439-3.361 5.588-5.47 11.477-4.7 5.89.77 10.324 4.131 9.884 7.493-.439 3.362-5.588 5.47-11.477 4.7zm1.535-11.748c-5.459-.714-10.231 1.24-10.638 4.357-.408 3.116 3.702 6.231 9.16 6.945 5.46.713 10.232-1.241 10.64-4.357.407-3.116-3.703-6.232-9.162-6.945z" fill="#fcd462"/>
        <path d="M47.854 46.045s-1.73-17.416 19.39-11.01c0 0 2.804 1 5.706.5 0 0-3.05 23.622-25.096 10.51z" fill="#3ea69b"/>
        <path d="M45.189 48.139s9.242-11.457 24.519-10.77c0 0-17.23 4.43-22.67 13.061-1.397-.283-1.982-1.067-1.85-2.291z" fill="#31978c"/>
    </g>
</svg>
