<svg xmlns:dc="http://purl.org/dc/elements/1.1/" xmlns:cc="http://creativecommons.org/ns#" xmlns:rdf="http://www.w3.org/1999/02/22-rdf-syntax-ns#" xmlns:svg="http://www.w3.org/2000/svg" xmlns="http://www.w3.org/2000/svg" xmlns:sodipodi="http://sodipodi.sourceforge.net/DTD/sodipodi-0.dtd" xmlns:inkscape="http://www.inkscape.org/namespaces/inkscape" width="1920" height="201.51704" viewBox="0 0 508.00001 53.318055" id="svg8" inkscape:version="0.92.2 2405546, 2018-03-11" sodipodi:docname="footer.svg" inkscape:export-filename="/home/irving/Trabajo/ABC/Mintme/Web/Assets/linkedin.png" inkscape:export-xdpi="96" inkscape:export-ydpi="96"><defs id="defs2"><clipPath clipPathUnits="userSpaceOnUse" id="clipPath1665"><path d="M0 6274H1920V0H0z" id="path1663" inkscape:connector-curvature="0"/></clipPath></defs><sodipodi:namedview id="base" pagecolor="#ffffff" bordercolor="#666666" borderopacity="1" inkscape:pageopacity="0" inkscape:pageshadow="2" inkscape:zoom=".55507882" inkscape:cx="984.45486" inkscape:cy="80.804282" inkscape:document-units="px" inkscape:current-layer="layer1" showgrid="false" units="px" inkscape:window-width="1440" inkscape:window-height="843" inkscape:window-x="0" inkscape:window-y="29" inkscape:window-maximized="1" fit-margin-top="0" fit-margin-left="0" fit-margin-right="0" fit-margin-bottom="0"/><g inkscape:label="Capa 1" inkscape:groupmode="layer" id="layer1" transform="translate(-6.2654375,-152.59227)"><g id="g1770"><path d="M514.26546 205.91032H6.3984875V169.6719H514.26546z" style="fill:#131313;fill-opacity:1;fill-rule:nonzero;stroke:none;stroke-width:.35277781" id="path8879" inkscape:connector-curvature="0"/><g id="g8919" transform="matrix(0.26458332,0,0,-0.26458332,6.2654375,205.91949)" style="stroke-width:1.33333337"><g id="g8917" clip-path="url(#clipPath1665)" style="stroke-width:1.33333337"><path d="m-.423 153.098h1919.92v-20.8H-.423z" style="fill:#131313;fill-opacity:1;fill-rule:nonzero;stroke:none;stroke-width:1.33333337" id="path8907" inkscape:connector-curvature="0"/><g id="g8911" transform="translate(786.8574,158.2979)" style="stroke-width:1.33333337"><path d="M0 0C.8 1.04 1.68 2 2.72 2.96c.16.16-.72.4-1.04.24C.72 2.48-.4 1.84-1.6 1.2-4.08 3.12-6.72 4.96-9.52 6.88-8.08 10.4-5.84 14.4.4 16.4 2.56 9.84 3.52 3.2 4.4-3.359 2.96-2.24 1.36-1.12.0.0m-15.04-6.24c1.04 2.801 2.16 5.68 3.6 8.48.16.24.32.56.4.88.64-2.08.96-4.16 1.36-6.16-1.84-1.04-3.76-2.08-5.36-3.2m-105.68-8.08c-1.28 5.76-2.08 11.6-2.64 17.44-.16.96-.32 1.92-.56 2.8 4-2.399 7.6-4.96 10.8-7.6-3.04-4.16-5.44-8.32-7.6-12.64m-143.84 1.44c-.64.481-1.36 1.04-1.92 1.521.8 2.88 2 5.839 3.76 8.719.72-2.88 1.12-5.759 1.6-8.56-1.28-.56-2.24-1.12-3.44-1.68M-504.48 6.96c.8.96 1.68 2 2.72 2.96.16.16-.72.4-1.04.16-.96-.64-2.08-1.28-3.28-1.92-2.48 1.84-5.12 3.76-7.92 5.68 1.44 3.52 3.76 7.52 9.92 9.44 2.24-6.48 3.12-13.12 4-19.679-1.36 1.119-2.88 2.239-4.4 3.359m-14.88-6.24c.96 2.801 2.08 5.6 3.6 8.4.08.32.32.56.4.88.56-2 .88-4.08 1.28-6.08-1.76-1.04-3.68-2.08-5.28-3.2m-105.68-8.159C-626.4-1.6-627.2 4.24-627.76 10.08c-.08.88-.32 1.84-.48 2.8 4-2.4 7.6-4.96 10.8-7.6-3.12-4.16-5.52-8.32-7.6-12.719M-768.96-5.92c-.64.481-1.28.96-1.92 1.441.8 2.959 2 5.919 3.84 8.799.64-2.88 1.04-5.759 1.6-8.64-1.36-.56-2.4-1.039-3.52-1.6m971.52 23.04c-.24-.08-.64-.16-.96-.32-.08.0.08-.08.16-.08-13.04-.48-31.6-6-38.48-9.119-.96-.481-1.92-.96-2.8-1.441 3.84 9.92 10.24 19.68 23.52 29.28.16.161-.72.4-1.04.161C160.48 23.68 150.48 11.68 144.32-1.68 142.96 4.16 142.16 10 141.6 15.84c-.64 6.32-4.88 13.681-1.52 20 .08.08-.8.32-.96.16-10.16-6.56-15.52-14.08-18.16-21.52-.56 2.88-1.2 5.68-1.6 8.48.0.24-1.68.48-1.68.16-.96-5.84-4.08-11.76-7.2-17.599-4.08 10-10.4 19.679-20.32 29.599-.16.24-1.76.401-1.6.08 6.4-11.28 2.96-23.2 2-34.72-.8 1.041-1.68 2.161-2.8 3.2-1.2 1.36-4.24 8-7.36 8.64.16.0.4.0.32.08l-.4.161c-.16.08-.56.159-.72.08-5.92-3.281-4-9.361-3.52-13.04.08-.481.08-1.04.24-1.521-.64-1.6-1.2-3.28-1.84-4.88-2.32 11.12-4 22.321-.16 33.2.08.161-1.04.4-1.2.161C66.72 19.04 60.16 11.601 56.16 4.08 52.08 13.84 45.2 23.2 36.96 32.96c-.08.16-1.2.32-1.2.08C39.52 22.4 39.68 11.76 39.28 1.12 38.56 2.4 37.92 3.601 37.12 4.8 33.76 9.521 25.76 13.92 23.2 18.72c0 .08-.8.24-.8.08-.08-6.56-.24-13.04-.24-19.6-6.24 8-15.28 15.76-23.28 23.68-.16.16-1.28.32-1.2.08 1.04-2 1.84-4 2.48-6-9.04-1.04-19.28-5.2-23.92-7.68-7.92-4.08-12.8-8.56-15.92-13.12-1.04 5.84-1.2 11.92 3.2 17.441.08.159-1.04.399-1.44.239-5.2-3.52-9.84-7.52-13.36-11.76-.08.24-.08.4-.24.561-1.6 4.96-6.16 10.799-2.16 15.599.08.16-.8.401-1.04.24-8.48-4.879-13.44-9.919-16.16-15.04-2.4-.32-4.88-.799-7.28-1.28-3.92 3.76-8 7.68-11.36 11.68-.16.24-1.36.4-1.28.08 1.52-4.72 2.4-9.359 3.04-14.16-3.04-.8-5.92-1.76-8.32-2.56-1.84.8-3.6 1.68-5.6 2.48 4 7.76 10.16 15.6 20.72 23.12.16.16-.72.4-1.04.16-12.48-6.64-21.2-13.28-27.52-20.24-4.56 1.76-9.6 3.44-14.88 5.2-1.28 5.12-3.2 10.56-.56 15.28.08.08-.8.321-1.12.16-10.08-6.48-15.52-14-18.08-21.44-.64 2.8-1.2 5.601-1.6 8.48.0.241-1.76.48-1.76.161-.96-5.841-4.08-11.761-7.2-17.681-4.08 10-10.4 19.761-20.24 29.6-.24.24-1.84.4-1.6.081 4.4-7.761 4.08-16 3.2-24.081-3.52 2.72-7.44 5.36-10.72 8.081-.24.159-1.28.319-1.28.08.08-.801.08-1.681.08-2.481-.24.08-.4.08-.4.0-1.2-5.36-3.44-10.96-2.32-16.4-.8-2.4-1.68-4.72-2.56-7.119-2.32 11.039-4 22.239-.24 33.199.08.16-.96.4-1.2.16-6.4-7.6-12.88-14.96-16.88-22.56-4.08 9.84-11.04 19.201-19.2 28.96-.08.161-1.2.241-1.2.0 3.68-10.56 3.92-21.2 3.52-31.839-.72 1.199-1.44 2.399-2.24 3.599-3.28 4.8-11.28 9.12-13.92 13.92.0.08-.8.24-.8.08-.08-6.48-.16-13.04-.16-19.599-4.32 5.519-10 10.96-15.68 16.399.08.08.08.16.16.24.08.08-.32.24-.72.24-2.4 2.32-4.8 4.56-7.04 6.88-.24.16-1.36.241-1.2.0 1.44-3.12 2.64-6.32 3.6-9.52-3.76-2.08-7.84-4.08-11.12-6.159-.24.159-.4.319-.72.479.88 2.481 1.92 4.88 3.2 7.36 2 3.76 2.4 11.68 12.48 14.4.32.08-.16.32-.56.24-9.2-1.04-19.6-5.2-24.32-7.68-6.8-3.52-11.36-7.36-14.48-11.36.32 1.12.56 2.32 1.12 3.441 1.44 3.599 2.88 7.12 5.6 10.639 1.28 1.92 2.96 3.76 5.28 5.6 1.2.96 2.8 1.841 4.72 2.72.08-.08.4-.16.56-.08.08.08.08.08.24.161.24.159-.4.319-.96.239-11.68-.88-21.6-5.04-27.6-8.8 2.96 4.96 7.2 9.76 16 14.4.32.161-.56.48-1.2.32-7.28-1.119-13.44-2.48-18.56-4.079-10.8-1.921-22.08-5.521-27.12-7.841-.96-.4-1.92-.88-2.8-1.36 3.84 9.84 10.24 19.68 23.52 29.201.16.159-.72.399-1.04.159C-344 30.88-354 18.96-360.16 5.601c-1.36 5.759-2.16 11.599-2.72 17.439-.64 6.32-4.88 13.76-1.52 20 .08.08-.8.32-.96.16-10.16-6.48-15.52-14-18.16-21.52-.56 2.8-1.2 5.68-1.6 8.48.0.24-1.68.481-1.68.16-.96-5.84-4.08-11.759-7.2-17.6-4.08 9.921-10.4 19.68-20.24 29.6-.24.16-1.84.321-1.6.0 7.44-13.28 1.2-27.6 1.84-41.04.16-2.16.24-4.24.24-6.4-.48 1.6-1.2 3.2-2 4.8-2.64 4.881-6.64 9.52-7.68 14.4-.16.32-2 .64-2.16.24-.64-4.719-2.4-9.28-4.16-13.92-2.32 11.04-4 22.241-.24 33.201.16.159-.96.399-1.2.159-6.4-7.6-12.88-14.96-16.88-22.56-4.08 9.84-10.96 19.2-19.2 28.88-.08.16-1.2.32-1.2.08 3.68-10.559 3.92-21.2 3.52-31.92-.72 1.281-1.44 2.48-2.24 3.68-3.28 4.8-11.28 9.12-13.84 13.92.0.08-.8.16-.8.08-.16-6.48-.24-13.04-.24-19.6-6.32 8-15.28 15.76-23.28 23.76-.24.16-1.28.24-1.2.0.96-2 1.76-4 2.48-6-9.12-1.04-19.28-5.2-24-7.6-7.92-4.16-12.8-8.64-15.92-13.2-.96 5.84-1.2 12 3.2 17.44.16.24-.96.48-1.36.24-5.2-3.439-9.92-7.52-13.52-11.76-.08.16-.08.401-.16.56-1.6 4.96-6.24 10.801-2.16 15.6.16.161-.8.4-.96.241-8.48-4.801-13.52-9.841-16.24-15.04-2.4-.321-4.88-.801-7.28-1.281-3.92 3.84-8 7.68-11.28 11.76-.24.16-1.44.32-1.28.08 1.44-4.72 2.4-9.44 2.96-14.24-2.96-.8-5.92-1.68-8.32-2.56-1.76.88-3.6 1.68-5.6 2.48 4 7.841 10.24 15.6 20.72 23.12.24.16-.72.4-.96.24-12.56-6.72-21.2-13.36-27.52-20.24-4.64 1.76-9.6 3.44-14.88 5.2-1.36 5.12-3.2 10.481-.64 15.28.08.08-.8.32-.96.161-10.16-6.561-15.52-14-18.16-21.521-.56 2.8-1.2 5.68-1.6 8.481.0.239-1.68.479-1.68.159-1.12-5.84-4.08-11.76-7.2-17.6-4.08 9.92-10.4 19.68-20.32 29.6-.16.16-1.76.32-1.6.0 6.96-12.079 2.24-25.119 1.92-37.52L-684-7.6c-1.84 2.96-3.76 6-4.48 9.04-.08.32-2 .64-2.08.24-.48-3.039-1.44-6-2.4-8.96-.88.0-1.92.08-2.88.08-1.76 9.36-2.4 18.801.8 28.08.08.16-1.04.4-1.2.16-6.4-7.6-12.96-14.96-16.96-22.479-4.08 9.759-10.96 19.119-19.2 28.879-.08.161-1.2.24-1.2.0 3.76-10.56 3.92-21.2 3.52-31.839-.72 1.199-1.36 2.399-2.16 3.679-3.36 4.72-11.36 9.04-13.92 13.84.0.08-.8.24-.8.08-.08-6.48-.24-13.04-.24-19.599-4.24 5.599-10 10.96-15.68 16.399.08.08.08.16.24.24.08.08-.32.24-.72.24-2.4 2.32-4.8 4.56-7.12 6.88-.16.161-1.28.32-1.2.08 1.52-3.2 2.72-6.4 3.6-9.6-3.68-2-7.76-4-11.12-6.08-.16.16-.4.32-.64.48.88 2.401 1.84 4.8 3.2 7.281 2 3.759 2.4 11.679 12.48 14.399.32.08-.24.32-.64.24-8.16-.88-17.36-4.32-22.56-6.8V-24.72H165.2c.56 3.92 1.12 7.68 2.8 11.2 5.28 10.8 11.68 22 35.36 30.72.64-.24-.24.08-.8-.08" style="fill:#131313;fill-opacity:1;fill-rule:nonzero;stroke:none;stroke-width:1.33333337" id="path8909" inkscape:connector-curvature="0"/></g><g id="g8915" transform="translate(1786.7773,158.2979)" style="stroke-width:1.33333337"><path d="M0 0C.8 1.04 1.76 2 2.72 2.96c.24.16-.72.4-.96.24C.72 2.48-.4 1.84-1.6 1.2-4.08 3.12-6.64 4.96-9.44 6.88-8.08 10.4-5.76 14.4.4 16.4 2.64 9.84 3.52 3.2 4.4-3.359 3.04-2.24 1.439-1.12.0.0m-14.96-6.24c.96 2.801 2.08 5.68 3.6 8.48.08.24.32.56.4.88.56-2.08.88-4.16 1.28-6.16-1.76-1.04-3.68-2.08-5.28-3.2m-105.68-8.08c-1.36 5.76-2.16 11.6-2.72 17.44-.08.96-.32 1.92-.48 2.8 4-2.399 7.6-4.96 10.8-7.6-3.12-4.16-5.521-8.32-7.6-12.64m-143.921 1.44c-.559.481-1.279 1.04-1.919 1.521.8 2.88 2 5.839 3.84 8.719.72-2.88 1.119-5.759 1.6-8.56-1.28-.56-2.32-1.12-3.521-1.68M-504.48 6.96c.8.96 1.76 2 2.72 2.96.24.16-.72.4-.96.16-1.04-.64-2.16-1.28-3.36-1.92-2.48 1.84-5.04 3.76-7.84 5.68 1.36 3.52 3.68 7.52 9.84 9.44 2.24-6.48 3.12-13.12 4-19.679-1.36 1.119-2.88 2.239-4.4 3.359m-14.88-6.24c1.04 2.801 2.08 5.6 3.6 8.4.08.32.32.56.4.88.64-2 .88-4.08 1.28-6.08-1.76-1.04-3.68-2.08-5.28-3.2m-105.68-8.159c-1.28 5.839-2.08 11.679-2.72 17.519-.08.88-.32 1.84-.48 2.8 4-2.4 7.6-4.96 10.8-7.6-3.12-4.16-5.52-8.32-7.6-12.719M-768.96-5.92c-.56.481-1.28.96-1.84 1.441.8 2.959 2 5.919 3.76 8.799.72-2.88 1.12-5.759 1.6-8.64-1.28-.56-2.4-1.039-3.52-1.6M132.72 31.36c-6.16-5.36-10-11.12-11.92-16.96-.56 2.88-1.2 5.68-1.6 8.48.0.24-1.68.48-1.68.16-.96-5.84-4.081-11.76-7.2-17.6-4.08 10-10.4 19.68-20.32 29.6-.16.24-1.76.4-1.6.08 6.4-11.28 2.96-23.2 2-34.72-.8 1.04-1.68 2.161-2.8 3.201-1.2 1.359-4.24 8-7.36 8.639.16.0.4.0.32.08l-.4.16C80 12.561 79.6 12.641 79.439 12.561 73.52 9.28 75.439 3.2 75.92-.479 76-.96 76-1.52 76.16-2c-.64-1.6-1.2-3.28-1.84-4.88-2.32 11.12-4 22.32-.16 33.2.08.16-1.04.4-1.2.16C66.56 18.96 60 11.521 56 4c-4.08 9.76-10.96 19.12-19.2 28.88C36.72 33.04 35.6 33.2 35.6 32.96c3.76-10.64 3.92-21.28 3.52-31.92C38.4 2.32 37.76 3.521 36.96 4.72 33.6 9.44 25.6 13.84 23.04 18.641c0 .079-.8.239-.8.079C22.16 12.16 22 5.68 22-.88 15.76 7.12 6.72 14.88-1.28 22.8c-.16.16-1.281.32-1.2.08 1.04-2 1.84-4 2.48-6-9.04-1.04-19.28-5.2-24-7.68C-31.84 5.12-36.8.641-39.84-3.92c-1.04 5.84-1.2 11.92 3.2 17.441.079.159-1.04.399-1.44.239C-43.28 10.24-48 6.24-51.44 2c-.16.24-.16.4-.24.561-1.6 4.96-6.16 10.799-2.16 15.599.08.16-.8.401-1.04.24-8.48-4.879-13.52-9.92-16.16-15.04C-73.44 3.04-76 2.561-78.4 2.08c-3.84 3.84-8 7.68-11.28 11.68-.16.24-1.36.4-1.28.08C-89.44 9.12-88.561 4.48-88-.32c-2.96-.8-5.84-1.76-8.24-2.56-1.84.8-3.6 1.68-5.6 2.481 4 7.759 10.16 15.599 20.64 23.119.24.16-.64.4-.96.16-12.48-6.64-21.2-13.279-27.52-20.239-4.56 1.759-9.6 3.439-14.881 5.199-1.279 5.12-3.199 10.56-.639 15.28.16.08-.8.32-1.04.16-10.16-6.48-15.52-14-18.16-21.44-.56 2.801-1.2 5.6-1.6 8.48.0.241-1.68.48-1.68.16-.96-5.839-4.08-11.76-7.2-17.68-4.08 10-10.4 19.761-20.32 29.6-.16.241-1.76.4-1.6.08 4.4-7.76 4.16-16 3.2-24.08-3.44 2.72-7.36 5.36-10.64 8.08-.24.161-1.36.32-1.36.081.16-.801.16-1.681.16-2.481-.24.08-.4.08-.4.0-1.2-5.36-3.44-10.96-2.32-16.4-.8-2.4-1.68-4.72-2.64-7.119-2.24 11.04-4 22.239-.16 33.199.08.16-1.04.4-1.2.16-6.401-7.6-12.88-14.96-16.88-22.56-4.16 9.84-11.04 19.201-19.2 28.96-.16.16-1.2.241-1.2.0 3.68-10.56 3.84-21.2 3.44-31.84-.64 1.2-1.36 2.4-2.16 3.6-3.28 4.8-11.28 9.12-13.92 13.92.0.08-.8.24-.8.08-.08-6.479-.16-13.04-.16-19.6-4.32 5.52-10 10.96-15.68 16.4.08.08.08.16.159.24.081.08-.319.24-.719.24-2.4 2.32-4.8 4.56-7.04 6.88-.241.16-1.36.24-1.201.0 1.441-3.12 2.641-6.32 3.601-9.52-3.76-2.079-7.84-4.079-11.12-6.159-.24.159-.4.319-.72.479.88 2.481 1.92 4.88 3.199 7.36 2 3.76 2.401 11.68 12.481 14.4.32.08-.16.32-.56.24-9.2-1.04-19.6-5.2-24.32-7.68C-291.76 5.84-296.32 2-299.44-2c.32 1.12.56 2.32 1.12 3.44 1.44 3.6 2.88 7.121 5.6 10.64 1.28 1.92 2.96 3.76 5.28 5.6 1.2.961 2.8 1.841 4.72 2.72.08-.08.4-.16.56-.08.08.08.08.08.24.16.24.161-.4.32-.96.24-11.681-.88-21.6-5.04-27.6-8.8 2.959 4.96 7.2 9.76 16 14.4.32.16-.56.48-1.2.321-7.28-1.12-13.44-2.481-18.56-4.08-10.8-1.92-22.08-5.521-27.12-7.841-.96-.4-1.92-.88-2.8-1.36 3.84 9.84 10.24 19.68 23.52 29.201.16.159-.72.399-1.04.159-22.48-11.92-32.48-23.84-38.64-37.199-1.36 5.759-2.16 11.599-2.72 17.439-.64 6.32-4.88 13.76-1.521 20 .081.08-.799.32-.96.16-10.159-6.479-15.519-14-18.159-21.519-.56 2.799-1.2 5.679-1.6 8.479.0.24-1.68.481-1.68.16-.96-5.84-4.08-11.76-7.2-17.599-4.08 9.92-10.401 19.679-20.32 29.599-.16.16-1.76.321-1.6.0 7.519-13.28 1.2-27.599 1.92-41.04.08-2.16.24-4.24.24-6.4-.56 1.6-1.2 3.2-2 4.801-2.641 4.879-6.64 9.519-7.76 14.399-.08.32-2 .641-2.08.24-.72-4.719-2.4-9.28-4.16-13.92-2.32 11.04-4 22.241-.24 33.201.08.159-.96.399-1.2.159-6.4-7.6-12.88-14.96-16.88-22.56-4.08 9.84-11.04 19.2-19.2 28.88-.08.16-1.2.32-1.2.08 3.68-10.559 3.92-21.2 3.52-31.92-.72 1.28-1.44 2.481-2.24 3.68-3.28 4.801-11.28 9.12-13.92 13.92.0.08-.8.16-.8.08-.08-6.48-.16-13.04-.16-19.6-6.32 8-15.28 15.76-23.28 23.76-.24.16-1.36.24-1.2.0.96-2 1.76-4 2.48-6-9.12-1.04-19.28-5.2-24-7.6-7.92-4.16-12.8-8.64-15.92-13.2-.96 5.84-1.2 12 3.2 17.441.08.239-.96.479-1.36.239-5.2-3.44-9.92-7.52-13.52-11.76-.08.16-.08.401-.24.56-1.6 4.961-6.16 10.8-2.08 15.6.08.16-.8.4-.96.241-8.56-4.801-13.52-9.841-16.24-15.041-2.4-.32-4.88-.8-7.28-1.28-3.92 3.84-8 7.68-11.28 11.76-.24.16-1.44.32-1.36.08 1.52-4.72 2.4-9.439 3.04-14.24-3.04-.8-5.92-1.68-8.32-2.56-1.76.88-3.6 1.68-5.6 2.48 4 7.841 10.24 15.6 20.72 23.12.16.16-.72.4-1.04.24-12.48-6.72-21.2-13.36-27.44-20.24-4.64 1.761-9.6 3.44-14.96 5.2-1.28 5.12-3.2 10.481-.56 15.28.08.08-.8.321-1.04.16-10.08-6.56-15.44-14-18.08-21.52-.56 2.8-1.2 5.681-1.6 8.48.0.24-1.68.48-1.68.161-1.12-5.841-4.08-11.761-7.2-17.601-4.08 9.92-10.4 19.68-20.32 29.601-.16.159-1.76.319-1.6.0 6.96-12.08 2.24-25.121 1.92-37.521l-5.12.24c-1.84 2.96-3.76 6-4.48 9.04-.08.32-2 .64-2.08.241-.48-3.04-1.44-6-2.4-8.96-.88.0-1.92.079-2.88.079-1.76 9.36-2.4 18.801.8 28.08.08.16-1.04.4-1.2.16-6.4-7.6-12.96-14.96-16.96-22.48-4.08 9.76-10.96 19.121-19.2 28.88-.08.161-1.2.241-1.2.0 3.76-10.56 3.92-21.2 3.52-31.839-.72 1.199-1.36 2.399-2.16 3.679-3.36 4.72-11.36 9.04-13.92 13.84.0.08-.8.24-.8.08-.08-6.479-.24-13.04-.24-19.599-4.24 5.599-10 10.959-15.68 16.399.08.08.08.16.24.24.08.08-.32.24-.72.24-2.4 2.32-4.8 4.56-7.12 6.88-.16.16-1.28.321-1.2.08 1.52-3.2 2.72-6.4 3.6-9.6-3.68-2-7.76-4-11.12-6.08-.16.16-.4.32-.64.48.88 2.401 1.84 4.8 3.2 7.28 2 3.76 2.4 11.68 12.48 14.4.32.08-.24.32-.64.24-9.2-1.04-19.44-5.2-24.24-7.68-7.92-4.08-12.8-8.56-15.92-13.12-1.04 5.84-1.2 11.92 3.2 17.44.08.16-1.04.4-1.44.24-5.2-3.52-9.84-7.52-13.44-11.76-.16.16-.16.321-.16.56-1.6 4.96-6.16 10.801-2.16 15.6.08.161-.8.32-1.04.161C-832 18.8-837.12 11.601-838.64 4.24c-5.28 5.52-11.52 10.96-16.16 16.72-.16.24-1.44.4-1.36.08 2.24-7.12 3.36-14.32 3.76-21.519-9.84 6-23.44 11.12-39.84 16.399-.72.16-1.68.08-1.2-.24 15.92-8.88 27.28-20.159 31.52-30.079 1.52-3.441 2.4-6.881 2.88-10.321h991.76z" style="fill:#131313;fill-opacity:1;fill-rule:nonzero;stroke:none;stroke-width:1.33333337" id="path8913" inkscape:connector-curvature="0"/></g></g></g></g></g></svg>