<?xml version="1.0" encoding="UTF-8" standalone="no"?>
<!-- Created with Inkscape (http://www.inkscape.org/) -->

<svg
   xmlns:dc="http://purl.org/dc/elements/1.1/"
   xmlns:cc="http://creativecommons.org/ns#"
   xmlns:rdf="http://www.w3.org/1999/02/22-rdf-syntax-ns#"
   xmlns:svg="http://www.w3.org/2000/svg"
   xmlns="http://www.w3.org/2000/svg"
   xmlns:sodipodi="http://sodipodi.sourceforge.net/DTD/sodipodi-0.dtd"
   xmlns:inkscape="http://www.inkscape.org/namespaces/inkscape"
   width="69"
   height="15"
   viewBox="0 0 69 15"
   preserveAspectRatio="none"
   version="1.1"
   id="svg8"
   inkscape:version="0.92.1 r15371"
   sodipodi:docname="grass.svg"
   inkscape:export-filename="/home/irving/Trabajo/ABC/Mintme/Web/registration.png"
   inkscape:export-xdpi="96"
   inkscape:export-ydpi="96">
  <defs
     id="defs2">
    <clipPath
       clipPathUnits="userSpaceOnUse"
       id="clipPath1665">
      <path
         d="M 0,6274 H 1920 V 0 H 0 Z"
         id="path1663"
         inkscape:connector-curvature="0" />
    </clipPath>
    <clipPath
       clipPathUnits="userSpaceOnUse"
       id="clipPath1577">
      <path
         d="M 0,6274 H 1920 V 0 H 0 Z"
         id="path1575"
         inkscape:connector-curvature="0" />
    </clipPath>
  </defs>
  <sodipodi:namedview
     id="base"
     pagecolor="#ffffff"
     bordercolor="#666666"
     borderopacity="1.0"
     inkscape:pageopacity="0.0"
     inkscape:pageshadow="2"
     inkscape:zoom="14.214127"
     inkscape:cx="41.222033"
     inkscape:cy="3.9572745"
     inkscape:document-units="px"
     inkscape:current-layer="layer1"
     showgrid="false"
     units="px"
     inkscape:window-width="1538"
     inkscape:window-height="876"
     inkscape:window-x="62"
     inkscape:window-y="0"
     inkscape:window-maximized="1"
     fit-margin-top="0"
     fit-margin-left="0"
     fit-margin-right="0"
     fit-margin-bottom="0" />
  <metadata
     id="metadata5">
    <rdf:RDF>
      <cc:Work
         rdf:about="">
        <dc:format>image/svg+xml</dc:format>
        <dc:type
           rdf:resource="http://purl.org/dc/dcmitype/StillImage" />
        <dc:title />
      </cc:Work>
    </rdf:RDF>
  </metadata>
  <g
     inkscape:label="Capa 1"
     inkscape:groupmode="layer"
     id="layer1"
     transform="translate(44.245613,-422.43364)">
    <path
       style="fill:#131313;fill-opacity:1;fill-rule:nonzero;stroke:none;stroke-width:0.35626289"
       d="m -2.8067202,422.43367 c -0.027347,-3.8e-4 -0.049648,0.003 -0.060184,0.0143 -2.6757252,1.77864 -4.0873704,3.79489 -4.7826376,5.83376 -0.1474809,-0.75907 -0.3159278,-1.53963 -0.4212687,-2.29898 0,-0.0647 -0.4423611,-0.1296 -0.4423611,-0.043 -0.2949619,1.58319 -1.0742984,3.18795 -1.8959764,4.77113 -1.074505,-2.68925 -2.739014,-5.33498 -5.351531,-8.0242 -0.04213,-0.0434 -0.463413,-0.0868 -0.421272,0 1.832977,3.27451 0.589903,6.80943 0.505627,10.17123 l -1.348684,-0.0651 c -0.48458,-0.80243 -0.990353,-1.6263 -1.179971,-2.45042 -0.02107,-0.0868 -0.52674,-0.17356 -0.547808,-0.0651 -0.126412,0.82385 -0.378825,1.62628 -0.63165,2.42871 -0.231756,0 -0.505875,-0.0217 -0.758698,-0.0217 -0.463513,-2.53741 -0.631857,-5.0968 0.210892,-7.61227 0.02107,-0.0434 -0.274201,-0.1085 -0.316339,-0.0434 -1.685496,2.06031 -3.412863,4.05595 -4.466298,6.09429 -1.074503,-2.64561 -2.88672,-5.18298 -5.056797,-7.82885 -0.02107,-0.0436 -0.315824,-0.065 -0.315824,0 0.990228,2.86271 1.032242,5.74685 0.926899,8.63099 -0.189619,-0.32505 -0.35821,-0.65001 -0.568896,-0.997 -0.884886,-1.27955 -2.991737,-2.45118 -3.665934,-3.75239 0,-0.0215 -0.210378,-0.065 -0.210378,-0.0215 -0.02107,1.75668 -0.06326,3.53519 -0.06326,5.31328 -1.116641,-1.51784 -2.633506,-2.97101 -4.129383,-4.44549 0.02107,-0.0216 0.02061,-0.0434 0.06274,-0.0651 0.02107,-0.0217 -0.08394,-0.0652 -0.18929,-0.0652 -0.632061,-0.62893 -1.264409,-1.23639 -1.875402,-1.86533 -0.04213,-0.0436 -0.336893,-0.0868 -0.315824,-0.0216 0.400304,0.8675 0.716232,1.73542 0.947988,2.6029 -0.969161,0.54219 -2.043437,1.08442 -2.928323,1.64829 -0.04213,-0.0434 -0.105509,-0.0869 -0.168715,-0.13027 0.231756,-0.65089 0.484376,-1.3013 0.842543,-1.97389 0.526718,-1.01903 0.632185,-3.16594 3.286841,-3.90328 0.08428,-0.0219 -0.06285,-0.0868 -0.1682,-0.0652 -2.149007,0.23855 -4.572052,1.17078 -5.941518,1.84311 v 11.40755 h 69 V 425.9165 c -0.267698,0.12412 -0.516133,0.24349 -0.71652,0.34837 -2.085802,1.12776 -3.370974,2.34255 -4.192651,3.57873 -0.252824,-1.58316 -0.315722,-3.25348 0.843056,-4.72824 0.04213,-0.065 -0.253174,-0.12963 -0.358517,-0.0645 -1.369466,0.93226 -2.612396,2.03853 -3.560487,3.18797 -0.02107,-0.0433 -0.02112,-0.10884 -0.04218,-0.15195 -0.421373,-1.34462 -1.643399,-2.92798 -0.568895,-4.22893 0.04213,-0.0436 -0.210421,-0.10872 -0.252558,-0.0657 -2.233282,1.30152 -3.560671,2.6681 -4.277007,4.0775 -0.632061,0.087 -1.285519,0.2172 -1.9175825,0.34734 -1.0323664,-1.041 -2.1066858,-2.08192 -2.9705026,-3.18797 -0.063206,-0.0433 -0.3790523,-0.0873 -0.336915,-0.0222 0.3792368,1.27955 0.6317952,2.55916 0.7792761,3.8604 -0.779542,0.21687 -1.5591682,0.45559 -2.1912294,0.69416 -0.4635114,-0.23857 -0.9479888,-0.45557 -1.4747038,-0.67245 1.0534325,-2.12562 2.6969782,-4.22882 5.4569782,-6.26739 0.063206,-0.0433 -0.1898658,-0.10851 -0.2530719,-0.0651 -3.3077862,1.82172 -5.5830823,3.62184 -7.2475098,5.48694 -1.22198477,-0.47711 -2.5284708,-0.93287 -3.9190052,-1.40999 -0.3581678,-1.38798 -0.8423978,-2.84112 -0.1681993,-4.14209 0.015802,-0.0163 -0.1108503,-0.0567 -0.1928892,-0.0576 z m 0.4665348,4.80762 c 1.0534351,0.65063 2.00173208,1.34452 2.84448018,2.0602 -0.82167939,1.12773 -1.4541513,2.25541 -2.00193748,3.44793 -0.3581681,-1.5829 -0.5685258,-3.16622 -0.7160067,-4.74938 -0.021069,-0.23858 -0.084399,-0.49852 -0.126536,-0.75875 z m -36.5544036,2.32017 c 0.16855,0.78075 0.274304,1.5614 0.421785,2.3424 -0.358168,0.1518 -0.632452,0.28155 -0.927413,0.43363 -0.168551,-0.13039 -0.337079,-0.26035 -0.505629,-0.39076 0.210687,-0.80215 0.526676,-1.60452 1.011257,-2.38527 z"
       id="path8909"
       inkscape:connector-curvature="0" />
  </g>
</svg>
