<?xml version="1.0" encoding="UTF-8" standalone="no"?>
<!-- Created with Inkscape (http://www.inkscape.org/) -->

<svg
   xmlns:dc="http://purl.org/dc/elements/1.1/"
   xmlns:cc="http://creativecommons.org/ns#"
   xmlns:rdf="http://www.w3.org/1999/02/22-rdf-syntax-ns#"
   xmlns:svg="http://www.w3.org/2000/svg"
   xmlns="http://www.w3.org/2000/svg"
   xmlns:sodipodi="http://sodipodi.sourceforge.net/DTD/sodipodi-0.dtd"
   xmlns:inkscape="http://www.inkscape.org/namespaces/inkscape"
   width="262"
   height="55.332111"
   viewBox="0 0 69.320833 14.639955"
   version="1.1"
   id="svg8"
   inkscape:version="0.92.3 (2405546, 2018-03-11)"
   sodipodi:docname="grass.svg"
   inkscape:export-filename="/home/irving/Trabajo/ABC/Mintme/Web/registration.png"
   inkscape:export-xdpi="96"
   inkscape:export-ydpi="96">
  <defs
     id="defs2">
    <clipPath
       clipPathUnits="userSpaceOnUse"
       id="clipPath1665">
      <path
         d="M 0,6274 H 1920 V 0 H 0 Z"
         id="path1663"
         inkscape:connector-curvature="0" />
    </clipPath>
    <clipPath
       clipPathUnits="userSpaceOnUse"
       id="clipPath1577">
      <path
         d="M 0,6274 H 1920 V 0 H 0 Z"
         id="path1575"
         inkscape:connector-curvature="0" />
    </clipPath>
  </defs>
  <sodipodi:namedview
     id="base"
     pagecolor="#ffffff"
     bordercolor="#666666"
     borderopacity="1.0"
     inkscape:pageopacity="0.0"
     inkscape:pageshadow="2"
     inkscape:zoom="7.1070636"
     inkscape:cx="21.744641"
     inkscape:cy="19.013472"
     inkscape:document-units="px"
     inkscape:current-layer="layer1"
     showgrid="false"
     units="px"
     inkscape:window-width="1920"
     inkscape:window-height="1053"
     inkscape:window-x="1920"
     inkscape:window-y="27"
     inkscape:window-maximized="1"
     fit-margin-top="0"
     fit-margin-left="0"
     fit-margin-right="0"
     fit-margin-bottom="0" />
  <metadata
     id="metadata5">
    <rdf:RDF>
      <cc:Work
         rdf:about="">
        <dc:format>image/svg+xml</dc:format>
        <dc:type
           rdf:resource="http://purl.org/dc/dcmitype/StillImage" />
        <dc:title></dc:title>
      </cc:Work>
    </rdf:RDF>
  </metadata>
  <g
     inkscape:label="Capa 1"
     inkscape:groupmode="layer"
     id="layer1"
     transform="translate(44.245608,-422.71928)">
    <path
       style="fill:#131313;fill-opacity:1;fill-rule:nonzero;stroke:none;stroke-width:0.35277778"
       d="m -2.5768103,422.79375 c -0.027474,-3.4e-4 -0.049879,0.003 -0.060463,0.0139 -2.6881668,1.73594 -4.1063758,3.70378 -4.8048758,5.69371 -0.1481667,-0.74086 -0.3173968,-1.50269 -0.4232275,-2.24379 0,-0.0632 -0.444418,-0.12649 -0.444418,-0.0419 -0.2963334,1.54516 -1.0792937,3.11139 -1.9047934,4.65656 -1.0795,-2.62467 -2.751749,-5.2069 -5.376415,-7.83156 -0.04233,-0.0423 -0.465566,-0.0847 -0.42323,0 1.8415,3.1959 0.592645,6.64597 0.507978,9.92704 l -1.354955,-0.0636 c -0.486833,-0.78317 -0.994958,-1.58726 -1.185458,-2.39159 -0.02117,-0.0847 -0.529189,-0.16939 -0.550354,-0.0636 -0.127,0.80407 -0.380587,1.58723 -0.634587,2.3704 -0.232834,0 -0.508227,-0.0212 -0.762227,-0.0212 -0.465667,-2.4765 -0.634793,-4.97445 0.211873,-7.42952 0.02117,-0.0423 -0.275476,-0.1059 -0.31781,-0.0424 -1.693333,2.01084 -3.428732,3.95856 -4.487065,5.94796 -1.0795,-2.58207 -2.900143,-5.05852 -5.08031,-7.64088 -0.02117,-0.0426 -0.317293,-0.0635 -0.317293,0 0.994834,2.794 1.037042,5.60888 0.931209,8.42378 -0.1905,-0.31724 -0.359875,-0.6344 -0.571541,-0.97307 -0.889,-1.24883 -3.005647,-2.39231 -3.68298,-3.66231 0,-0.0212 -0.211356,-0.0635 -0.211356,-0.0212 -0.02117,1.7145 -0.06356,3.45032 -0.06356,5.18573 -1.121834,-1.48141 -2.645751,-2.89969 -4.148584,-4.33876 0.02117,-0.0212 0.02071,-0.0424 0.06304,-0.0636 0.02117,-0.0212 -0.08434,-0.0636 -0.19017,-0.0636 -0.635,-0.61384 -1.270289,-1.20673 -1.884122,-1.82056 -0.04233,-0.0426 -0.33846,-0.0847 -0.317293,-0.0212 0.402165,0.84667 0.719562,1.69375 0.952396,2.54041 -0.973667,0.52917 -2.052939,1.05836 -2.941939,1.60869 -0.04233,-0.0423 -0.105999,-0.0848 -0.169499,-0.12712 0.232833,-0.63527 0.486627,-1.27007 0.84646,-1.9265 0.529167,-0.99457 0.635124,-3.08995 3.302124,-3.80959 0.08467,-0.0212 -0.06315,-0.0847 -0.168982,-0.0636 -2.158999,0.23284 -4.593311,1.14269 -5.969145,1.79886 v 11.13369 h 69.320835 v -11.24066 c -0.268943,0.12115 -0.518533,0.23766 -0.719851,0.34003 -2.095501,1.10067 -3.386649,2.28631 -4.212146,3.49281 -0.254,-1.54517 -0.317191,-3.17537 0.846976,-4.61471 0.04233,-0.0635 -0.254352,-0.12654 -0.360185,-0.063 -1.375833,0.9099 -2.624542,1.9896 -3.577042,3.11144 -0.02117,-0.0423 -0.02122,-0.10624 -0.04238,-0.14831 -0.423333,-1.31234 -1.65104,-2.85767 -0.57154,-4.1274 0.04233,-0.0426 -0.211399,-0.10612 -0.253733,-0.0641 -2.243666,1.27027 -3.577227,2.60403 -4.296894,3.9796 -0.635,0.0849 -1.291497,0.212 -1.9264979,0.339 -1.0371667,-1.016 -2.1164815,-2.03194 -2.9843148,-3.11144 -0.0635,-0.0423 -0.3808148,-0.0852 -0.3384815,-0.0217 0.381,1.24883 0.6347328,2.49773 0.7828995,3.76773 -0.7831667,0.21166 -1.5664181,0.44464 -2.2014181,0.67748 -0.4656667,-0.23284 -0.9523968,-0.44463 -1.4815609,-0.6563 1.0583308,-2.07459 2.7095186,-4.12729 5.482352,-6.11693 0.0635,-0.0423 -0.1907487,-0.1059 -0.2542487,-0.0636 -3.3231667,1.778 -5.6090424,3.5349 -7.2812091,5.35523 -1.22766674,-0.46566 -2.54022764,-0.91047 -3.9372277,-1.37614 -0.3598333,-1.35467 -0.8463148,-2.77291 -0.1689814,-4.04265 0.015875,-0.0159 -0.1113658,-0.0553 -0.1937861,-0.0563 z m 0.4687041,4.69222 c 1.0583333,0.635 2.0110397,1.31223 2.85770639,2.01073 -0.82550002,1.10067 -1.46091279,2.20127 -2.01124609,3.36517 -0.3598334,-1.5449 -0.5711693,-3.09021 -0.719336,-4.63537 -0.021167,-0.23284 -0.084791,-0.48653 -0.1271243,-0.74053 z m -36.7243738,2.26447 c 0.169334,0.762 0.27558,1.5239 0.423747,2.28616 -0.359834,0.14817 -0.635393,0.2748 -0.931726,0.42323 -0.169334,-0.12726 -0.338646,-0.25411 -0.50798,-0.38137 0.211667,-0.7829 0.529126,-1.56602 1.015959,-2.32802 z"
       id="path8909"
       inkscape:connector-curvature="0" />
  </g>
</svg>
