<svg width="512" height="512" viewBox="0 0 135.46666 135.46667" id="svg8" inkscape:version="1.1.2 (0a00cf5339, 2022-02-04)" sodipodi:docname="home-icon_earn.svg" xmlns:inkscape="http://www.inkscape.org/namespaces/inkscape" xmlns:sodipodi="http://sodipodi.sourceforge.net/DTD/sodipodi-0.dtd" xmlns:xlink="http://www.w3.org/1999/xlink" xmlns="http://www.w3.org/2000/svg" xmlns:svg="http://www.w3.org/2000/svg" xmlns:rdf="http://www.w3.org/1999/02/22-rdf-syntax-ns#" xmlns:cc="http://creativecommons.org/ns#" xmlns:dc="http://purl.org/dc/elements/1.1/"><defs id="defs2"><color-profile name="U.S.-Web-Coated--SWOP--v2" xlink:href="file:///usr/share/color/icc/USWebCoatedSWOP.icc" id="color-profile88350"/><color-profile name="sRGB" xlink:href="file:///usr/share/color/icc/colord/sRGB.icc" id="color-profile88352"/></defs><sodipodi:namedview id="base" pagecolor="#ffffff" bordercolor="#666666" borderopacity="1" inkscape:pageopacity="0" inkscape:pageshadow="2" inkscape:zoom="1.5273438" inkscape:cx="236.68542" inkscape:cy="256" inkscape:document-units="px" inkscape:current-layer="layer1" showgrid="false" units="px" inkscape:document-rotation="0" inkscape:showpageshadow="false" objecttolerance="20" inkscape:snap-path-clip="false" inkscape:snap-path-mask="false" guidetolerance="20" inkscape:snap-bbox="false" inkscape:bbox-paths="false" inkscape:snap-bbox-edge-midpoints="false" inkscape:snap-bbox-midpoints="false" inkscape:snap-page="true" showguides="true" inkscape:guide-bbox="true" inkscape:pagecheckerboard="0" width="512" inkscape:window-width="1920" inkscape:window-height="980" inkscape:window-x="0" inkscape:window-y="28" inkscape:window-maximized="1"/><g inkscape:label="Capa 1" inkscape:groupmode="layer" id="layer1" transform="translate(0,-11.249983)"><circle style="fill:#d0af00;fill-opacity:1;stroke:none;stroke-width:4.37382;stroke-miterlimit:4;stroke-dasharray:none;stroke-opacity:1" id="circle" cx="67.733368" cy="78.983315" r="67.73333"/><ellipse style="fill:#202020;fill-opacity:1;stroke:none;stroke-width:4.80259;stroke-miterlimit:4;stroke-dasharray:none;stroke-opacity:1" id="path43464" cx="65.625412" cy="46.300327" rx="14.730899" ry="6.9422626"/><path id="rect46106" style="fill:#202020;fill-opacity:1;stroke-width:4.77795" d="m50.93258 48.328863c1.237963 7.773757 27.035287 8.952564 29.47091-.03344l577e-6 4.910742c.001 8.206378-29.476792 8.406496-29.473448.02652z" sodipodi:nodetypes="ccssc"/><path id="path47170" style="fill:#202020;fill-opacity:1;stroke-width:4.77795" d="m50.93258 54.430946c1.237963 7.773757 27.035287 8.952564 29.47091-.03344l577e-6 4.910742c.001 8.206378-29.476792 8.406496-29.473448.02652z" sodipodi:nodetypes="ccssc"/><path id="path47172" style="fill:#202020;fill-opacity:1;stroke-width:4.77795" d="m50.93258 60.53303c1.237963 7.773757 27.035287 8.952563 29.47091-.03344l577e-6 4.910743c.001 8.206378-29.476792 8.406495-29.473448.02652z" sodipodi:nodetypes="ccssc"/><text style="font-size:12.8358px;line-height:1.25;font-family:Poppins;-inkscape-font-specification:Poppins;fill:#d0af00;fill-opacity:1;stroke-width:.534822" x="61.858181" y="50.799274" id="text49574"><tspan sodipodi:role="line" id="tspan49572" style="fill:#d0af00;fill-opacity:1;stroke-width:.534822" x="61.858181" y="50.799274">$</tspan></text><ellipse style="fill:#202020;fill-opacity:1;stroke:none;stroke-width:4.80259;stroke-miterlimit:4;stroke-dasharray:none;stroke-opacity:1" id="ellipse65637" cx="96.327187" cy="35.666702" rx="14.730899" ry="6.9422626"/><path id="path65639" style="fill:#202020;fill-opacity:1;stroke-width:4.77795" d="m81.634304 37.695239c1.237963 7.773757 27.035286 8.952564 29.470906-.03344l58e-5 4.910742c.001 8.206378-29.476791 8.406496-29.473446.02652z" sodipodi:nodetypes="ccssc"/><path id="path65641" style="fill:#202020;fill-opacity:1;stroke-width:4.77795" d="m81.634304 43.797322c1.237963 7.773757 27.035286 8.952564 29.470906-.03344l58e-5 4.910742c.001 8.206378-29.476791 8.406496-29.473446.02652z" sodipodi:nodetypes="ccssc"/><path id="path65643" style="fill:#202020;fill-opacity:1;stroke-width:4.77795" d="m81.634304 49.899406c1.237963 7.773757 27.035286 8.952563 29.470906-.03344l58e-5 4.910742c.001 8.206379-29.476791 8.406496-29.473446.02652z" sodipodi:nodetypes="ccssc"/><text style="font-size:12.8358px;line-height:1.25;font-family:Poppins;-inkscape-font-specification:Poppins;fill:#d0af00;fill-opacity:1;stroke-width:.534822" x="92.559959" y="40.165646" id="text65647"><tspan sodipodi:role="line" id="tspan65645" style="fill:#d0af00;fill-opacity:1;stroke-width:.534822" x="92.559959" y="40.165646">$</tspan></text><path id="path65649" style="fill:#202020;fill-opacity:1;stroke-width:4.77795" d="m81.634304 56.001489c1.237963 7.773757 27.035286 8.952564 29.470906-.03344l58e-5 4.910742c.001 8.206378-29.476791 8.406496-29.473446.02652z" sodipodi:nodetypes="ccssc"/><path id="path65651" style="fill:#202020;fill-opacity:1;stroke-width:4.77795" d="m81.634304 62.103572c1.237963 7.773757 27.035286 8.952564 29.470906-.03344l58e-5 4.910742c.001 8.206378-29.476791 8.406496-29.473446.02652z" sodipodi:nodetypes="ccssc"/><path id="rect65729" style="fill:#202020;fill-opacity:1;stroke:none;stroke-width:4.57656;stroke-miterlimit:4;stroke-dasharray:none;stroke-opacity:1" d="m31.15723 82.780333-9.102496 5.255891v33.981516l23.815349-13.75053z"/><circle style="fill:#d0af00;fill-opacity:1;stroke:none;stroke-width:4.57656;stroke-miterlimit:4;stroke-dasharray:none;stroke-opacity:1" id="path65974" cx="32.695316" cy="105.87402" r="3.0633039"/><path style="fill:#202020;fill-opacity:1;stroke:none;stroke-width:.457656;stroke-linecap:butt;stroke-linejoin:miter;stroke-miterlimit:4;stroke-dasharray:none;stroke-opacity:1" d="m35.31658 86.1908 9.55995-5.302219c2.386672-1.345777 4.38975-1.638861 6.258427-1.563047L62.824139 79.08983c5.85644.803612 11.581882 1.848319 16.47302 4.428294 4.368763 2.61247 3.375037 6.688892.141838 6.340929-4.826909-.230342-10.016136-1.023287-15.412758-2.138151-2.138168-.271221-3.432578.0587-3.802969 1.046857.536214 3.136305 6.495687 5.323097 17.693282 5.340336 8.337382-.653651 17.634875-9.000327 26.091958-12.774024 3.52373-2.100864 11.74113 1.758569 3.69976 7.184279-7.22131 5.455363-15.815784 10.094209-24.227371 14.84179-3.144637 1.59456-7.025156 3.9273-15.711019.21016-7.257516-3.599027-14.582375-5.091741-22.106787-.346z" id="path74448" sodipodi:nodetypes="ccccccccccccccc"/></g></svg>