<svg width="512" height="512" viewBox="0 0 135.47 135.47" id="svg8" xmlns:xlink="http://www.w3.org/1999/xlink" xmlns="http://www.w3.org/2000/svg"><defs id="defs2"><color-profile name="U.S.-Web-Coated--SWOP--v2" xlink:href="file:///usr/share/color/icc/USWebCoatedSWOP.icc" id="color-profile101150"/><color-profile name="sRGB" xlink:href="file:///usr/share/color/icc/colord/sRGB.icc" id="color-profile101152"/></defs><g id="layer1" transform="translate(0 -11.25)"><circle style="fill:#d0af00;fill-opacity:1;stroke:none;stroke-width:101.194;stroke-miterlimit:4;stroke-dasharray:none;stroke-opacity:1" id="circle" cx="67.73" cy="78.98" r="67.73"/><g id="back-speak"><path id="back-bubble" style="fill:none;fill-opacity:1;stroke:#202020;stroke-width:2.45874;stroke-miterlimit:4;stroke-dasharray:none;stroke-opacity:1" d="M80.46 58.64h6.49c3.98 5.54 8.54 11.1 8.54 7.49v-7.5h2.62c1.95.0 3.52-1.45 3.52-3.25V35.1c0-1.8-1.57-3.26-3.52-3.26H59.19c-1.95.0-3.52 1.46-3.52 3.26v11.16"/><path style="fill:none;stroke:#202020;stroke-width:2.45874;stroke-linecap:round;stroke-linejoin:miter;stroke-miterlimit:4;stroke-dasharray:none;stroke-opacity:1" d="M61.73 45.39H73.4" id="path89966"/><path style="fill:none;stroke:#202020;stroke-width:2.45874;stroke-linecap:round;stroke-linejoin:miter;stroke-miterlimit:4;stroke-dasharray:none;stroke-opacity:1" d="M79.06 45.39h11.66" id="path90118"/></g><g id="middle-speak"><path id="middle-bubble" style="fill:none;fill-opacity:1;stroke:#202020;stroke-width:2.45874;stroke-miterlimit:4;stroke-dasharray:none;stroke-opacity:1" d="M41.51 88.08h-5.49c-5.03 7.47-10.8 14.97-10.8 10.1v-10.1H21.9a4.42 4.42.0 01-4.46-4.4v-27.3c0-2.44 1.99-4.4 4.46-4.4h49.25a4.42 4.42.0 014.46 4.4v12.7"/><path style="fill:none;stroke:#202020;stroke-width:2.57882;stroke-linecap:round;stroke-linejoin:miter;stroke-miterlimit:4;stroke-dasharray:none;stroke-opacity:1" d="M26.55 67.91h38.54" id="path90120"/><path style="fill:none;stroke:#202020;stroke-width:2.45874;stroke-linecap:round;stroke-linejoin:miter;stroke-miterlimit:4;stroke-dasharray:none;stroke-opacity:1" d="M26.42 74.06H38.1" id="path90122"/></g><g id="front-speak"><path id="front-bubble" style="fill:none;fill-opacity:1;stroke:#202020;stroke-width:2.45874;stroke-miterlimit:4;stroke-dasharray:none;stroke-opacity:1" d="M50.79 73.23c-2.77.0-5 2.17-5 4.87v30.23c0 2.7 2.23 4.87 5 4.87h39.39c5.65 8.27 12.12 16.56 12.12 11.17V113.2h3.72c2.77.0 5-2.17 5-4.87V78.1c0-2.7-2.23-4.87-5-4.87z"/><path style="fill:none;stroke:#202020;stroke-width:2.45874;stroke-linecap:round;stroke-linejoin:miter;stroke-miterlimit:4;stroke-dasharray:none;stroke-opacity:1" d="M89.43 91.04h11.67" id="path90162"/><path style="fill:none;stroke:#202020;stroke-width:2.45874;stroke-linecap:round;stroke-linejoin:miter;stroke-miterlimit:4;stroke-dasharray:none;stroke-opacity:1" d="M55.5 91.04h26.1" id="path90164"/><path style="fill:none;stroke:#202020;stroke-width:2.26183;stroke-linecap:round;stroke-linejoin:miter;stroke-miterlimit:4;stroke-dasharray:none;stroke-opacity:1" d="M55.4 97.02h9.87" id="path90187"/><path style="fill:none;stroke:#202020;stroke-width:2.45874;stroke-linecap:round;stroke-linejoin:miter;stroke-miterlimit:4;stroke-dasharray:none;stroke-opacity:1" d="M73.03 97.12h14.6" id="path90189"/><path style="fill:none;stroke:#202020;stroke-width:2.45874;stroke-linecap:round;stroke-linejoin:miter;stroke-miterlimit:4;stroke-dasharray:none;stroke-opacity:1" d="M55.5 103.57h14.59" id="path90214"/></g></g></svg>