<svg width="512" height="512" viewBox="0 0 135.46666 135.46667" id="svg8" inkscape:version="1.1.2 (0a00cf5339, 2022-02-04)" sodipodi:docname="home-icon_mint.svg" xmlns:inkscape="http://www.inkscape.org/namespaces/inkscape" xmlns:sodipodi="http://sodipodi.sourceforge.net/DTD/sodipodi-0.dtd" xmlns:xlink="http://www.w3.org/1999/xlink" xmlns="http://www.w3.org/2000/svg" xmlns:svg="http://www.w3.org/2000/svg" xmlns:rdf="http://www.w3.org/1999/02/22-rdf-syntax-ns#" xmlns:cc="http://creativecommons.org/ns#" xmlns:dc="http://purl.org/dc/elements/1.1/"><defs id="defs2"><color-profile name="U.S.-Web-Coated--SWOP--v2" xlink:href="file:///usr/share/color/icc/USWebCoatedSWOP.icc" id="color-profile43080"/><color-profile name="sRGB" xlink:href="file:///usr/share/color/icc/colord/sRGB.icc" id="color-profile43082"/></defs><sodipodi:namedview id="base" pagecolor="#ffffff" bordercolor="#666666" borderopacity="1" inkscape:pageopacity="0" inkscape:pageshadow="2" inkscape:zoom=".76026925" inkscape:cx="-347.2454" inkscape:cy="186.77593" inkscape:document-units="px" inkscape:current-layer="layer1" showgrid="false" units="px" inkscape:document-rotation="0" inkscape:showpageshadow="false" objecttolerance="20" inkscape:snap-path-clip="false" inkscape:snap-path-mask="false" guidetolerance="20" inkscape:snap-bbox="false" inkscape:bbox-paths="false" inkscape:snap-bbox-edge-midpoints="false" inkscape:snap-bbox-midpoints="false" inkscape:snap-page="true" showguides="true" inkscape:guide-bbox="true" inkscape:pagecheckerboard="0" width="512" inkscape:window-width="1920" inkscape:window-height="980" inkscape:window-x="0" inkscape:window-y="28" inkscape:window-maximized="1"/><g inkscape:label="Capa 1" inkscape:groupmode="layer" id="layer1" transform="translate(0,-11.249983)"><circle style="fill:#d0af01;fill-opacity:1;stroke:none;stroke-width:4.37382;stroke-miterlimit:4;stroke-dasharray:none;stroke-opacity:1" id="path40424" cx="67.73333" cy="78.983322" r="67.73333"/><circle style="fill:#202020;fill-opacity:1;stroke-width:6.78972" id="path27135" cx="67.168427" cy="43.811684" r="20.116217"/><path style="fill:#202020;fill-opacity:1;stroke:none;stroke-width:1.59852px;stroke-linecap:butt;stroke-linejoin:miter;stroke-opacity:1" d="M82.568991 94.311735C106.55078 99.78928 114.27298 87.65016 112.12525 64.817535c-19.512581-1.002658-33.944278 3.692866-29.556259 29.4942z" id="path27765" sodipodi:nodetypes="ccc"/><path style="fill:#202020;fill-opacity:1;stroke:none;stroke-width:1.59852px;stroke-linecap:butt;stroke-linejoin:miter;stroke-opacity:1" d="M51.276474 107.87526C27.834858 115.33323 19.127445 103.88021 19.364023 80.948023 38.725062 78.321982 53.497997 81.797907 51.276474 107.87526z" id="path31873" sodipodi:nodetypes="ccc"/><path style="fill:none;stroke:#202020;stroke-width:4.55454;stroke-linecap:butt;stroke-linejoin:miter;stroke-miterlimit:4;stroke-dasharray:none;stroke-opacity:1" d="M67.460498 45.640617V139.64606" id="path31921"/><path style="fill:none;stroke:#202020;stroke-width:4.55454;stroke-linecap:butt;stroke-linejoin:miter;stroke-miterlimit:4;stroke-dasharray:none;stroke-opacity:1" d="M39.697825 98.723337 67.623514 122.00004" id="path32036"/><path style="fill:none;stroke:#202020;stroke-width:4.55454;stroke-linecap:butt;stroke-linejoin:miter;stroke-miterlimit:4;stroke-dasharray:none;stroke-opacity:1" d="M94.483026 84.113728 67.713716 106.74014" id="path32038"/><g id="g42942" transform="matrix(0.32057962,0,0,0.32057962,85.576778,10.193977)" style="fill:#fff"><path id="path1488452" style="fill:#fff;fill-opacity:1;stroke:none;stroke-width:.293791px;stroke-linecap:butt;stroke-linejoin:miter;stroke-opacity:1" d="m-99.97252 80.74211-3.72174 20.09312-4.46769 27.78506h10.90354l5.42883-29.89037 5.74786 27.92392-58e-5 57e-5.40454 1.96588h58e-5 8.8011 58e-5l.62717-1.10861v-57e-5l15.0895-26.67645-4.46768 27.78563h10.90411l8.69496-47.87818h-14.02623l-18.95182 33.42962-6.90983-33.42962h-2.64756z"/><path id="path1502737" style="fill:#fff;fill-opacity:1;stroke:none;stroke-width:.503335" d="m-22.85479 89.75265a17.809407 21.457823 46.579181 00-23.12515 19.61801 17.809407 21.457823 46.579181 0015.83375 19.61801 17.809407 21.457823 46.579181 0020.42133-12.40693h-13.45299a7.4578948 10.54748 25.355731 01-6.05139 2.84151 7.4578948 10.54748 25.355731 01-5.93205-7.24493h14.98734 6.11397 6.3165a17.809407 21.457823 46.579181 00.72299-2.80766 17.809407 21.457823 46.579181 00-15.8343-19.61801zm-2.09153 9.566a7.4578948 10.54748 25.355731 015.90737 6.20519H-33.4984a7.4578948 10.54748 25.355731 018.55208-6.20519z"/></g></g></svg>