<svg xmlns="http://www.w3.org/2000/svg" width="640" height="640" viewBox="0 0 169.333 169.333">
    <path d="M145.587 42.745H13.834a5.863 5.863 0 00-5.863 5.863v79.893a5.863 5.863 0 005.863 5.863h131.753a5.863 5.863 0 005.863-5.863V48.608a5.863 5.863 0 00-5.863-5.863z" fill="#4d5c7d"/>
    <path d="M141.46 51.906v73.3H17.964v-73.3z" fill="#ebf0f3"/>
    <path d="M0 134.157v2.65c0 5.876 4.763 10.64 10.639 10.64h138.143c5.876 0 10.64-4.764 10.64-10.64v-2.65z" fill="#474c5b"/>
    <path d="M158.493 21.887H65.906c-5.987 0-10.84 4.853-10.84 10.84V80.21c0 5.987 4.853 10.84 10.84 10.84h58.87l-5.185 23.434 27.376-23.433h11.526c5.987 0 10.84-4.854 10.84-10.84V32.726c0-5.987-4.853-10.84-10.84-10.84z" fill="#e56353"/>
    <path d="M30.291 97.498h35.136v3.883H30.29z" fill="#27a2db"/>
    <path d="M30.291 105.678H73.93v3.883H30.291zM30.291 113.858H73.93v3.882H30.291z" fill="#d5d6db"/>
    <g fill="#ebf0f3">
        <path d="M102.952 42.993h49.962v4.315h-49.962zM102.952 54.31h49.962v4.316h-49.962zM102.952 65.629h24.981v4.315h-24.98z"/>
    </g>
    <path d="M95.326 137.722H74.007l-1.809-3.565h24.937z" fill="#64798a"/>
    <g>
        <path d="M88.49 66.076c0-2.563 1.281-5.014 2.729-7.06 1.468-2.073 3.46-3.727 4.622-6.024a13.615 13.615 0 10-24.032.527c1.187 2.11 3.058 3.69 4.45 5.647 1.413 1.986 2.62 4.427 2.62 6.91zm0 0" fill="#f0c419"/>
        <path d="M74.602 52.75a.8.8 0 01-.698-.408 11.218 11.218 0 011.852-13.416.801.801 0 111.132 1.132A9.619 9.619 0 0075.3 51.557a.8.8 0 01-.697 1.193zm0 0M78.87 58.11a.801.801 0 01-.652-.336 25.235 25.235 0 00-1.522-1.9.8.8 0 01.08-1.12.801.801 0 011.135.069 26.345 26.345 0 011.617 2.019.801.801 0 01-.652 1.265zm0 0" fill="#fff"/>
        <path d="M78.078 66.076h11.213a.8.8 0 01.8.8v3.505a.8.8 0 01-.8.8H78.078a.8.8 0 01-.8-.8v-3.504a.8.8 0 01.8-.8zm0 0" fill="#bdc3c7"/>
        <path d="M88.49 71.186v4.557a4.005 4.005 0 01-4.004 3.948h-1.602a3.979 3.979 0 01-2.611-.969 4.042 4.042 0 01-1.001-1.313 3.881 3.881 0 01-.393-1.722v-4.501zm0 0" fill="#e6e7e8"/>
        <path d="M88.49 74.085v1.658l-8.217 2.979a4.042 4.042 0 01-1.001-1.313.546.546 0 01.136-.072l8.81-3.204a.813.813 0 01.272-.048zm0 0M88.49 71.682a.801.801 0 01-.529.753l-8.81 3.204a.813.813 0 01-.272.048v-1.65l7.833-2.851.705-.257a.8.8 0 01.905.257c.05.07.09.145.12.224a.81.81 0 01.048.272zm0 0" fill="#bdc3c7"/>
    </g>
</svg>
