<svg xmlns="http://www.w3.org/2000/svg" width="640" height="640" viewBox="0 0 169.333 169.333">
    <path d="M100.943 34.545V45.14h9.3v-9.561c0-7.562-6.129-13.691-13.692-13.691H72.783c-7.564 0-13.693 6.13-13.693 13.69v9.562h9.3V34.545c0-2.588 2.628-4.346 5.02-3.357a29.476 29.476 0 0022.513 0c2.392-.989 5.02.77 5.02 3.357z" fill="#a3abaf"/>
    <path d="M54.44 40.488h18.6v11.626h-18.6zM96.293 40.488h18.6v11.626h-18.6z" fill="#cccece"/>
    <path d="M141.461 147.446H27.872c-5.873 0-10.635-4.762-10.635-10.635V60.424c0-5.873 4.762-10.635 10.635-10.635h113.59c5.873 0 10.635 4.762 10.635 10.635v76.387c0 5.873-4.762 10.635-10.636 10.635z" fill="#e7eced"/>
    <path d="M17.237 68.39h134.86v13.951H17.237zM17.237 114.894h134.86v13.951H17.237z" fill="#cccece"/>
    <g>
        <path d="M79.375 96.554L59.121 76.3 38.867 96.554h10.467v24.632h19.574V96.554z" fill="#44c4a1"/>
        <path d="M89.958 100.932l20.254 20.254 20.254-20.254H120V76.3h-19.575v24.632z" fill="#e56353"/>
    </g>
</svg>
