<svg version="1.2" baseProfile="tiny" id="Capa_1" xmlns="http://www.w3.org/2000/svg" xmlns:xlink="http://www.w3.org/1999/xlink" viewBox="0 0 40.9 40.9"><circle fill="#0a3957" cx="20.5" cy="20.5" r="20.5"/><path fill="#76c9f2" d="M25.2 30.7c0 1.6-.2 3-.8 4.3-1.5 3.4-5.1 3.8-7.1.7-.9-1.5-1.2-3.2-1.2-4.9.1-4.3 1.1-8.2 3.3-11.5 1-1.6 1.6-1.6 2.5.0 2 3.4 3.1 7.3 3.3 11.4z"/><path fill="#76c9f2" d="M25.5 8.7c0 2.8-2.3 5-5.2 5-2.7.0-4.9-2.3-4.9-5 0-2.8 2.4-5.1 5.1-5.1C23.4 3.6 25.5 5.8 25.5 8.7z"/></svg>