<svg xmlns="http://www.w3.org/2000/svg" width="720" height="215.218" viewBox="0 0 190.5 56.943">
    <g transform="translate(-26.66 -165.532)">
        <circle r="28.141" cy="194.004" cx="130.957" fill="none" stroke="#c3af83" stroke-width=".661"/>
        <circle cx="130.957" cy="194.004" r="26.284" fill="none" stroke="#c3af83" stroke-width=".441"/>
        <path d="M130.957 168.655a25.349 25.349 0 00-25.349 25.349 25.349 25.349 0 0025.35 25.349 25.349 25.349 0 0025.348-25.35 25.349 25.349 0 00-25.349-25.348zm-14.619 14.571h7.483a748.538 748.538 0 00-.342 10.813c-.01 1.028-.216 2.197-.15 3.132 1.562-3.577 3.407-7.016 5.133-10.514a546.4 546.4 0 001.695-3.431h7.483l-4.124 19.678h-5.052l3.14-14.938c-.337.405-.547 1.022-.835 1.509l-6.948 13.429h-4.096l.19-14.938c-.231.327-.3.881-.468 1.296l-4.365 13.642h-5.025l6.281-19.678zm30.541 4.937c.545 0 1.09.047 1.627.144 1.815.313 3.43 1.707 3.839 3.545.445 1.62.095 3.341-.447 4.893-.084.337-.542.114-.808.178h-9.478c-.276 1.038-.02 2.315.96 2.885 1.093.687 2.469.502 3.675.298 1.536-.327 3.056-.746 4.514-1.336-.547 1.23-1.093 2.462-1.639 3.693-.986.377-2.063.47-3.1.653-2.188.267-4.565.445-6.59-.612-1.516-.735-2.435-2.382-2.471-4.053-.076-3.364 1.612-6.732 4.402-8.596a10 10 0 015.516-1.692zm-.845 3.02a4.05 4.05 0 00-1.753.442c-.913.53-1.502 1.476-1.904 2.432h5.762c.171-.892.187-2.102-.734-2.588a3.056 3.056 0 00-1.37-.286zM61.34 185.923h5.583l-4.565 17.044h-5.55zm6.142-2.135h-5.583l1.15-4.27h5.582zM70.24 187.236c3.832-1.169 7.849-2.024 11.876-1.746 1.58.133 3.435.705 4.068 2.321.643 1.893-.152 3.826-.602 5.673l-2.535 9.484h-5.583c.995-3.777 2.057-7.537 2.997-11.327.285-.974-.013-2.347-1.2-2.487-1.396-.248-2.831.12-4.096.71l-3.514 13.103h-5.549l4.138-15.73zM99.73 189.535h-3.513c-.725 2.785-1.497 5.56-2.19 8.352-.3 1.101.998 1.468 1.84 1.316.493.098 1.732-.36 1.267.486l-.884 3.278c-2.042.151-4.133.393-6.154-.05-1.28-.35-2.174-1.647-2.04-2.971.09-1.413.61-2.75.932-4.12l1.679-6.29h-2.791l.984-3.613h2.792l1.38-5.156h5.583l-1.413 5.156h3.515l-.986 3.612zM161.07 202.799c-.208.018-.35-.215-.267-.397.209-.79.416-1.58.627-2.37a.525.525 0 01.544-.366c.783.001 1.566-.002 2.35.002.198.007.304.235.226.405-.208.786-.414 1.574-.624 2.36a.525.525 0 01-.544.366h-2.313zM170.02 196.281c-.326 1.167-.315 2.666.725 3.48 1.198.897 2.85.715 4.196.301.947-.275 1.841-.696 2.759-1.052l-.86 3.208c-1.594.518-3.24.929-4.926.95-1.891.083-4.007-.182-5.377-1.629-1.29-1.371-1.299-3.432-.862-5.155.679-2.933 2.864-5.493 5.72-6.494 2.125-.77 4.473-.757 6.662-.29.637.196 1.515.381 1.972.722l-.838 3.13c-1.382-.736-2.86-1.568-4.487-1.368-2.28.179-4.146 2.028-4.684 4.197zM180.129 196.23c.714-2.858 2.844-5.336 5.617-6.369 1.775-.674 3.81-.809 5.615-.17 1.498.524 2.632 1.907 2.824 3.485.331 2.492-.649 5.038-2.26 6.92-2.09 2.468-5.618 3.65-8.76 2.825-1.566-.42-2.901-1.703-3.194-3.326-.235-1.113-.12-2.27.158-3.364zm4.22.026c-.276 1.096-.572 2.338-.033 3.401.522.873 1.715.855 2.572.581 1.439-.523 2.165-2.02 2.607-3.384.346-1.175.739-2.45.393-3.67-.23-.837-1.143-1.21-1.945-1.116-1.397.044-2.424 1.218-2.956 2.41-.263.573-.473 1.17-.639 1.778zM197.257 190.698c2.756-.988 6.692-1.485 8.658-1.305 1.966.18 1.281.886 2.816.407 1.536-.48 4.251-.749 6.326-.22 1.157.265 2.13 1.28 2.103 2.505-.005 1.592-.612 3.094-.972 4.627l-1.627 6.087h-4.295c.818-3.089 1.676-6.169 2.46-9.265.375-1.036-.624-1.466-1.59-1.386-.791.065-2.051.165-2.136 1.159-.875 3.157-1.69 6.33-2.547 9.492h-4.295c.808-3.041 1.64-6.077 2.431-9.123.372-.97-.396-1.607-1.442-1.54-.763.048-1.665.214-2.141.738l-2.662 9.925h-4.27l3.183-12.101zM30.798 187.235c3.583-1.284 8.7-1.932 11.256-1.697 2.556.234 1.666 1.152 3.662.529 1.996-.623 5.526-.973 8.224-.286 1.504.344 2.769 1.664 2.734 3.257-.006 2.07-.796 4.022-1.264 6.015l-2.115 7.914h-5.584c1.063-4.016 2.178-8.02 3.198-12.045.488-1.348-.81-1.906-2.066-1.802-1.03.085-2.667.214-2.778 1.506-1.138 4.105-2.197 8.23-3.312 12.341H37.17c1.051-3.954 2.134-7.901 3.162-11.86.483-1.261-.515-2.09-1.876-2.004-.991.063-2.165.279-2.783.96l-3.461 12.904h-5.55l4.137-15.732z" fill="#c3af83"/>
    </g>
</svg>
