<svg id="Layer_1" xmlns="http://www.w3.org/2000/svg" xmlns:xlink="http://www.w3.org/1999/xlink" viewBox="0 0 561.2 80.8" style="enable-background:new 0 0 561.2 80.8"><style>.st0{fill:#d1b000}.st1{fill:#fff}</style><g id="Layer_2_1_"><g id="svg2"><path id="path6700" class="st0" d="M551.8 29.3c-4.2.1-8.3 1.5-11.7 4l.7-3.9h-9.7l-5.8 31.5h9.8l3.6-19.5c2.2-4.3 11.8-5.5 11.4 3L547 60.9h9.8l4.2-22.8C562 32.8 557.8 29.3 551.8 29.3z"/><path id="path6702" class="st0" d="M511 31.4h9.1l-5.3 29.5h-9.2L511 31.4z"/><ellipse id="ellipse6704" transform="matrix(0.9221 -0.3869 0.3869 0.9221 31.9735 202.1045)" class="st0" cx="518.1" cy="21.6" rx="5.8" ry="5.1"/><path id="path6706" class="st0" d="M493 32.1c-7.9.0-15.5 6.5-17 14.4s3.7 14.4 11.6 14.4 15.5-6.5 17-14.4S501 32.1 493 32.1zm-1.5 7c3.2.0 5 3.3 4.2 7.4s-4.1 7.4-7.3 7.4-5-3.3-4.2-7.4S488.4 39.1 491.5 39.1z"/><path id="path13587" class="st0" d="M457.6 16.8c-12.1.0-23.8 9.9-26.2 22.2s5.7 22.2 17.8 22.2c10 0 20-6.8 24.4-16.6h-14.3c-2.3 3.6-5.5 5.8-8.5 5.8-4.6.0-7.4-5.1-6.1-11.3s6.1-11.3 10.7-11.3c3 0 5.2 2.2 6.1 5.6h14.2C475.2 23.9 467.1 16.5 457.6 16.8z"/><g id="layer1"><g id="g1527281"><path id="path1477014" class="st1" d="M126.8 20.6l-3.1 16.6L120 60.1h9l4.4-24.5 4.8 23 .3 1.7h7.2l.6-.9 12.4-21.9-3.7 22.9h9l7.1-39.3h-11.5l-15.5 27.4L138.5 21h-2.2L126.8 20.6z"/><path id="path1483753" class="st1" d="M176 28.5h9.7L179.9 60h-9.7L176 28.5z"/><path id="path1488448" class="st1" d="M212.9 28.4c-4.2.1-8.3 1.5-11.8 4l.7-3.9h-9.7L186.3 60h9.8l3.6-19.5c2.2-4.2 11.8-5.4 11.4 3L208 60h9.8l4.1-22.9C223 32 218.8 28.5 212.9 28.4z"/><path id="path1493197" class="st1" d="M232 20.6l-1.1 7.9h-3.7l-1.6 8.7h3.9c-1.9 9.8-6.6 22.9 6.4 22.9h5.1l1.6-8.7H240s-1.8.1-2.2-.5-.1-2.8-.1-2.8l1.6-10.9h6l1.6-8.7h-6.2l1.1-7.9L232 20.6zM236.4 59.5c-.1.1-.2.1-.4.1C236.2 59.6 236.3 59.5 236.4 59.5z"/><path id="path1488452" class="st0" d="M253.3 20.6l-3.1 16.6-3.7 22.9h9l4.4-24.5 4.8 23 .3 1.7h7.2l.5-.9 12.4-21.9-3.7 22.9h9l7.1-39.3h-11.6l-15.5 27.4L264.9 21h-2.2L253.3 20.6z"/><ellipse id="path1488509" transform="matrix(0.9221 -0.3869 0.3869 0.9221 6.2391 72.0775)" class="st1" cx="182.2" cy="20.5" rx="5.8" ry="5.1"/><path id="path1502737" class="st0" d="M316.6 28.1c-8.9.0-17.3 7.2-19 16.1s4.2 16.1 13 16.1c6.5.0 13.2-4 16.8-10.2h-11.1c-1.3 1.4-3.1 2.2-5 2.3-2.9.0-4.8-2.4-4.9-6h22.5c.2-.8.4-1.5.5-2.3C331.2 35.3 325.4 28.1 316.6 28.1zM314.9 36c2.5.0 4.5 2 4.9 5.1h-11.9C309.5 38 312.2 36 314.9 36z"/><path id="ellipse1509853" class="st0" d="M351.4 40c-5.9.2-10.8 4.5-12 10.2-1 5.7 2.7 10.2 8.2 10.2 4.9-.2 9.3-3.2 11.2-7.7h-6.5c-.8 1.5-2.2 2.5-3.9 2.7-2.1.0-3.3-2.3-2.8-5.2s2.8-5.2 4.9-5.2c1.4.1 2.6 1.2 2.8 2.5h6.4C359.5 43.2 355.8 39.8 351.4 40z"/><path id="ellipse1509857" class="st0" d="M372.8 40c-5.9.2-10.8 4.5-12 10.2-1 5.7 2.7 10.2 8.2 10.2 5.9-.2 10.8-4.5 12-10.2C382 44.5 378.3 40 372.8 40zM371.7 45c2.2.0 3.5 2.3 3 5.2s-2.9 5.2-5.2 5.2-3.6-2.3-3-5.2S369.4 45 371.7 45z"/><ellipse id="ellipse1511544" transform="matrix(0.9221 -0.3869 0.3869 0.9221 4.0116 133.2413)" class="st0" cx="333" cy="56.7" rx="3.5" ry="3.1"/><path id="path1519782" class="st0" d="M398.4 40.4c-2.6.1-5.2 1-7.3 2.6l.4-2.4h-6l-3.7 19.5h6.2l2.2-12.1c1.3-2.7 7.3-3.4 7.1 1.9l-1.9 10.3h6.1l2.3-13c2-1.9 6.7-2 6.4 2.7l-1.9 10.3h6.1L417 46c1-5.3-6.5-7.8-13.3-2.7C403.1 41.4 401 40.4 398.4 40.4z"/><path id="path1522556" class="st0" d="M67.2.0c-5.3.0-10.5 1-15.3 3v6.9h-8.1V7.5c-2.4 1.8-4.7 3.8-6.7 6h.8v8.1h-6.4c-1.9 3.5-3.2 7.4-3.9 11.3h5V41h-5.7c0 2.5.3 4.9.8 7.3h6.7v8.1h-4.2c2.6 6 6.6 11.3 11.8 15.3v-2.1H50V77c5.4 2.6 11.3 3.9 17.2 3.9 22.3.0 40.4-18.1 40.4-40.5S89.5.0 67.2.0zM32.5 23.3h8.1v8.1h-8.1V23.3zM43 24.8h8.3l4.1 20.3 11.3-20.3H75l-5.2 29.1h-6.5L66 37l-9 16.2-.3.7h-5.3l-.2-1.2-3.4-17-3.2 18.2h-6.4L40.8 37 43 24.8zm45.5 5.4c6.4.0 10.7 5.3 9.4 11.9-.1.6-.2 1.1-.4 1.7H81.2c0 2.5 1.4 4.4 3.6 4.4 1.4-.1 2.7-.7 3.6-1.8h8c-2.5 4.5-7.1 7.4-12.2 7.6-6.4.0-10.7-5.3-9.4-11.9S82.1 30.2 88.5 30.2zM87.3 36c-1.9.0-3.9 1.4-5.1 3.8h8.7C90.5 37.5 89.2 36 87.3 36zm-52 20.8h8.1v8.1h-8.1V56.8z"/><path id="rect1522842" class="st0" d="M27.8 2.2h8.1v8.1h-8.1V2.2z"/><path id="rect1522844" class="st0" d="M19.9 13.4H28v8.1h-8.1V13.4z"/><path id="rect1522846" class="st0" d="M.1 14.5h8.1v8.1H.1V14.5z"/><path id="rect1522848" class="st0" d="M8.2 29.9h8.1V38H8.2V29.9z"/><path id="rect1522850" class="st0" d="M14.9 48.2H23v8.1h-8.1V48.2z"/><path id="rect1522852" class="st0" d="M0 56.4h8.1v8.1H0V56.4z"/><path id="rect1522854" class="st0" d="M21.9 68.7H30v8.1h-8.1V68.7z"/></g></g></g></g></svg>