<?xml version="1.0" encoding="UTF-8" standalone="no"?>
<!-- Created with Inkscape (http://www.inkscape.org/) -->

<svg
   xmlns:dc="http://purl.org/dc/elements/1.1/"
   xmlns:cc="http://creativecommons.org/ns#"
   xmlns:rdf="http://www.w3.org/1999/02/22-rdf-syntax-ns#"
   xmlns:svg="http://www.w3.org/2000/svg"
   xmlns="http://www.w3.org/2000/svg"
   xmlns:sodipodi="http://sodipodi.sourceforge.net/DTD/sodipodi-0.dtd"
   xmlns:inkscape="http://www.inkscape.org/namespaces/inkscape"
   width="200"
   height="39.25563"
   viewBox="0 0 52.916667 10.386386"
   version="1.1"
   id="svg8"
   inkscape:version="0.92.2 2405546, 2018-03-11"
   sodipodi:docname="logo.svg">
  <defs
     id="defs2" />
  <sodipodi:namedview
     id="base"
     pagecolor="#ffffff"
     bordercolor="#666666"
     borderopacity="1.0"
     inkscape:pageopacity="0.0"
     inkscape:pageshadow="2"
     inkscape:zoom="6.28"
     inkscape:cx="100"
     inkscape:cy="19.627815"
     inkscape:document-units="px"
     inkscape:current-layer="layer1"
     showgrid="false"
     units="px"
     inkscape:window-width="1440"
     inkscape:window-height="843"
     inkscape:window-x="0"
     inkscape:window-y="29"
     inkscape:window-maximized="1"
     fit-margin-top="0"
     fit-margin-left="0"
     fit-margin-right="0"
     fit-margin-bottom="0" />
  <metadata
     id="metadata5">
    <rdf:RDF>
      <cc:Work
         rdf:about="">
        <dc:format>image/svg+xml</dc:format>
        <dc:type
           rdf:resource="http://purl.org/dc/dcmitype/StillImage" />
        <dc:title></dc:title>
      </cc:Work>
    </rdf:RDF>
  </metadata>
  <g
     inkscape:label="Capa 1"
     inkscape:groupmode="layer"
     id="layer1"
     transform="translate(-236.02212,-174.52829)">
    <g
       style="stroke-width:1.35862291"
       transform="matrix(0.25965835,0,0,-0.25965835,223.03923,1792.3877)"
       id="g9947">
      <g
         style="stroke-width:1.35862291"
         id="g9917"
         transform="translate(56.8159,6217.4463)">
        <path
           d="M 0,0 C 0,0 0.415,0.145 1.244,0.433 2.11,0.757 3.264,1.1 4.706,1.461 6.149,1.857 7.826,2.2 9.737,2.488 c 1.911,0.325 3.949,0.488 6.113,0.488 1.587,0 2.921,-0.163 4.003,-0.488 1.118,-0.288 2.037,-0.631 2.759,-1.027 1.406,0.36 3.011,0.703 4.814,1.027 1.803,0.325 3.733,0.488 5.788,0.488 1.911,0 3.462,-0.181 4.652,-0.541 1.226,-0.325 2.182,-0.794 2.867,-1.407 0.722,-0.577 1.208,-1.244 1.461,-2.002 0.288,-0.721 0.432,-1.496 0.432,-2.326 0,-0.793 -0.089,-1.586 -0.27,-2.38 -0.144,-0.793 -0.306,-1.532 -0.487,-2.217 l -4.814,-18.014 h -9.196 l 4.057,15.146 c 0.289,1.118 0.559,2.146 0.812,3.084 0.288,0.937 0.45,1.749 0.486,2.434 0.036,0.685 -0.108,1.226 -0.433,1.623 -0.324,0.396 -0.919,0.595 -1.785,0.595 -0.685,0 -1.37,-0.072 -2.055,-0.217 -0.649,-0.108 -1.227,-0.252 -1.732,-0.432 -0.612,-0.18 -1.189,-0.397 -1.73,-0.65 -0.037,-0.18 -0.09,-0.378 -0.163,-0.594 -0.036,-0.181 -0.126,-0.523 -0.27,-1.028 -0.144,-0.469 -0.343,-1.154 -0.595,-2.056 -0.217,-0.866 -0.541,-2.074 -0.974,-3.624 -0.396,-1.551 -0.901,-3.48 -1.515,-5.788 -0.612,-2.309 -1.37,-5.139 -2.272,-8.493 h -9.196 l 4.057,15.146 c 0.289,1.082 0.559,2.092 0.812,3.03 0.288,0.973 0.433,1.803 0.433,2.488 0.036,0.685 -0.108,1.226 -0.433,1.623 -0.289,0.396 -0.865,0.595 -1.731,0.595 -0.685,0 -1.37,-0.072 -2.056,-0.217 C 10.927,-3.354 10.35,-3.498 9.845,-3.678 9.232,-3.858 8.655,-4.075 8.114,-4.328 L 2.326,-25.911 h -9.142 z"
           style="fill:#f9f9f9;fill-opacity:1;fill-rule:nonzero;stroke:none;stroke-width:1.35862291"
           id="path9915"
           inkscape:connector-curvature="0" />
      </g>
      <g
         style="stroke-width:1.35862291"
         id="g9921"
         transform="translate(123.061,6217.4463)">
        <path
           d="M 0,0 C 0,0 0.487,0.145 1.46,0.433 2.47,0.757 3.787,1.1 5.409,1.461 7.032,1.857 8.872,2.2 10.927,2.488 c 2.055,0.325 4.165,0.488 6.329,0.488 1.911,0 3.462,-0.181 4.652,-0.541 1.226,-0.325 2.182,-0.794 2.867,-1.407 0.722,-0.577 1.208,-1.244 1.461,-2.002 0.288,-0.721 0.432,-1.496 0.432,-2.326 0,-0.793 -0.09,-1.586 -0.27,-2.38 -0.144,-0.793 -0.307,-1.532 -0.487,-2.217 l -4.814,-18.014 h -9.196 l 4.057,15.146 c 0.252,0.974 0.487,1.911 0.703,2.813 0.253,0.938 0.342,1.767 0.271,2.489 -0.036,0.721 -0.325,1.298 -0.866,1.731 -0.505,0.468 -1.388,0.703 -2.65,0.703 -0.686,0 -1.353,-0.072 -2.002,-0.217 C 10.801,-3.354 10.242,-3.498 9.737,-3.678 9.16,-3.858 8.619,-4.075 8.114,-4.328 L 2.326,-25.911 h -9.142 z"
           style="fill:#f9f9f9;fill-opacity:1;fill-rule:nonzero;stroke:none;stroke-width:1.35862291"
           id="path9919"
           inkscape:connector-curvature="0" />
      </g>
      <g
         style="stroke-width:1.35862291"
         id="g9925"
         transform="translate(172.2744,6213.6597)">
        <path
           d="m 0,0 h -5.788 l -3.408,-12.875 c -0.253,-0.865 -0.306,-1.514 -0.162,-1.947 0.144,-0.432 0.432,-0.739 0.865,-0.919 0.469,-0.145 1.082,-0.217 1.839,-0.217 0.758,0.036 1.623,0.054 2.597,0.054 l -1.677,-6.221 c -0.793,-0.072 -1.713,-0.144 -2.759,-0.216 -1.046,-0.072 -2.11,-0.108 -3.192,-0.108 -1.045,0 -2.037,0.054 -2.975,0.162 -0.901,0.108 -1.623,0.325 -2.163,0.649 -0.505,0.289 -0.938,0.631 -1.299,1.028 -0.36,0.397 -0.649,0.865 -0.865,1.406 -0.18,0.578 -0.271,1.263 -0.271,2.056 0.036,0.794 0.198,1.713 0.487,2.759 L -14.93,0 h -4.598 l 1.623,5.951 h 4.598 l 2.272,8.492 h 9.196 L -4.166,5.951 h 5.789 z"
           style="fill:#f9f9f9;fill-opacity:1;fill-rule:nonzero;stroke:none;stroke-width:1.35862291"
           id="path9923"
           inkscape:connector-curvature="0" />
      </g>
      <g
         style="stroke-width:1.35862291"
         id="g9929"
         transform="translate(196.8848,6230.1587)">
        <path
           d="M 0,0 C -0.108,-3.209 -0.216,-6.131 -0.324,-8.763 -0.36,-9.881 -0.396,-11 -0.433,-12.117 c -0.036,-1.118 -0.072,-2.146 -0.108,-3.084 0,-0.937 -0.018,-1.749 -0.054,-2.434 v -1.407 c 0,-0.721 -0.036,-1.568 -0.108,-2.542 -0.036,-0.937 -0.09,-1.839 -0.162,-2.705 -0.072,-1.009 -0.145,-2.037 -0.217,-3.083 h 0.108 c 0.469,1.046 0.938,2.074 1.407,3.083 0.397,0.866 0.812,1.768 1.244,2.705 0.469,0.974 0.902,1.821 1.299,2.542 0.144,0.253 0.378,0.722 0.703,1.407 0.361,0.685 0.775,1.497 1.244,2.434 0.469,0.938 0.973,1.966 1.514,3.084 0.578,1.117 1.155,2.236 1.731,3.354 1.335,2.632 2.795,5.554 4.382,8.763 H 27.372 L 19.204,-38.624 H 9.196 l 6.221,29.32 H 15.309 L 0,-38.624 h -8.114 l 0.379,29.32 h -0.108 l -9.467,-29.32 h -9.954 L -14.822,0 Z"
           style="fill:#f9f9f9;fill-opacity:1;fill-rule:nonzero;stroke:none;stroke-width:1.35862291"
           id="path9927"
           inkscape:connector-curvature="0" />
      </g>
      <g
         style="stroke-width:1.35862291"
         id="g9933"
         transform="translate(232.125,6203.2734)">
        <path
           d="m 0,0 c -0.18,-0.757 -0.234,-1.533 -0.162,-2.326 0.072,-0.757 0.325,-1.461 0.757,-2.11 0.433,-0.613 1.064,-1.136 1.893,-1.568 0.83,-0.397 1.93,-0.596 3.3,-0.596 0.902,0 1.894,0.091 2.976,0.271 1.117,0.217 2.217,0.469 3.299,0.757 1.118,0.289 2.2,0.595 3.246,0.92 1.046,0.36 1.983,0.703 2.813,1.028 l -3.246,-7.249 c -0.036,-0.072 -0.415,-0.198 -1.136,-0.378 -0.721,-0.181 -1.641,-0.361 -2.759,-0.541 -1.118,-0.217 -2.362,-0.397 -3.732,-0.541 -1.371,-0.145 -2.705,-0.217 -4.003,-0.217 -2.453,0 -4.562,0.343 -6.329,1.028 -1.731,0.685 -3.12,1.659 -4.166,2.921 -1.009,1.298 -1.641,2.867 -1.893,4.706 -0.216,1.875 -0.018,3.985 0.595,6.33 0.65,2.416 1.623,4.544 2.922,6.382 1.297,1.84 2.794,3.372 4.489,4.599 1.695,1.262 3.553,2.2 5.572,2.813 2.02,0.649 4.057,0.973 6.113,0.973 1.983,0 3.714,-0.306 5.193,-0.919 1.478,-0.614 2.668,-1.461 3.57,-2.543 0.938,-1.082 1.587,-2.344 1.947,-3.786 C 21.656,8.547 21.764,7.033 21.584,5.41 21.476,4.544 21.313,3.661 21.097,2.759 20.917,1.857 20.628,0.938 20.231,0 Z m 12.929,5.626 c 0.144,0.793 0.198,1.533 0.162,2.218 -0.036,0.685 -0.198,1.28 -0.487,1.785 -0.288,0.505 -0.739,0.902 -1.352,1.19 -0.577,0.288 -1.335,0.433 -2.272,0.433 -1.912,0 -3.462,-0.505 -4.652,-1.515 C 3.174,8.728 2.236,7.357 1.515,5.626 Z"
           style="fill:#f9f9f9;fill-opacity:1;fill-rule:nonzero;stroke:none;stroke-width:1.35862291"
           id="path9931"
           inkscape:connector-curvature="0" />
      </g>
      <g
         style="stroke-width:1.35862291"
         id="g9937"
         transform="translate(97.8926,6230.7236)">
        <path
           d="m 0,0 c 5.324,-7.512 19.169,6.841 23.535,-8.254 -2.873,2.65 -5.756,3.371 -8.919,3.098 4.054,-1.273 8.462,-1.781 12.357,-9.264 l -0.347,-2.33 c -1.12,2.338 -2.276,4.612 -3.797,6.257 C 15.999,-18.129 -0.635,-11.072 0,0"
           style="fill:#f9f9f9;fill-opacity:1;fill-rule:nonzero;stroke:none;stroke-width:1.35862291"
           id="path9935"
           inkscape:connector-curvature="0" />
      </g>
      <g
         style="stroke-width:1.35862291"
         id="g9941"
         transform="translate(118.6514,6223.2705)">
        <path
           d="M 0,0 C 0.992,-0.56 1.921,-1.242 2.758,-2.105 4.009,-3.38 5.181,-4.933 6.214,-6.967 L 5.867,-9.297 C 4.71,-6.867 3.492,-4.631 2.07,-3.04 l 0.085,0.116 C -3.904,-10.167 -20.985,-4.675 -20.759,7.453 -19.077,1.939 -14.227,0.194 -6.143,2.297 -4.012,1.695 -1.893,1.069 0,0"
           style="fill:#f9f9f9;fill-opacity:1;fill-rule:nonzero;stroke:none;stroke-width:1.35862291"
           id="path9939"
           inkscape:connector-curvature="0" />
      </g>
      <g
         style="stroke-width:1.35862291"
         id="g9945"
         transform="translate(106.8926,6216.3613)">
        <path
           d="M 0,0 -6.602,-24.826 H 2.346 L 8.737,-0.963 C 5.972,-1.585 2.849,-1.182 0,0"
           style="fill:#f9f9f9;fill-opacity:1;fill-rule:nonzero;stroke:none;stroke-width:1.35862291"
           id="path9943"
           inkscape:connector-curvature="0" />
      </g>
    </g>
  </g>
</svg>
