<svg width="1920" height="1232.65" viewBox="0 0 508 326.14" id="svg8" xmlns:xlink="http://www.w3.org/1999/xlink" xmlns="http://www.w3.org/2000/svg"><defs id="defs2"><color-profile name="U.S.-Web-Coated--SWOP--v2" xlink:href="file:///usr/share/color/icc/USWebCoatedSWOP.icc" id="color-profile47940"/><color-profile name="sRGB" xlink:href="file:///usr/share/color/icc/colord/sRGB.icc" id="color-profile47942"/></defs><g id="layer1" transform="translate(-376.56 -71.3)"><g id="laptop" transform="translate(-477.92 -99.14) scale(2.28518)"><path id="rect45" style="fill:#e6e6e6;fill-opacity:1;stroke-width:.424013;stroke-linecap:round" d="M409.7 74.58a9.3 9.3.0 00-9.31 9.32v85.9h169.53V83.9a9.3 9.3.0 00-9.32-9.32z"/><rect style="fill:#cbcbcb;fill-opacity:.6;stroke-width:.422511;stroke-linecap:round" id="rect861" width="169.38" height="3.47" x="400.54" y="167.93"/><rect style="fill:#1f1f1f;fill-opacity:1;stroke-width:.456295;stroke-linecap:round" id="rect630" width="161.13" height="85.72" x="404.55" y="79.93" ry="2.37"/><path id="rect965" style="fill:#e6e6e6;fill-opacity:1;stroke-width:.60088;stroke-linecap:round" d="m400.39 169.8-26.47 41.73h222.3l-26.47-41.72H449.94z"/><path id="rect1308" style="fill:#ccc;fill-opacity:1;stroke-width:.667114;stroke-linecap:round" d="M373.92 211.53a6.58 6.58.0 006.57 5.77h209.16c3.4.0 6.19-2.52 6.57-5.77z"/><circle style="fill:#f9f9f9;fill-opacity:1;stroke-width:.423333;stroke-linecap:round" id="path18947" cx="485.15" cy="77.34" r="1.74"/><path id="rect23171" style="fill:#ccc;fill-opacity:1;stroke-width:.431242;stroke-linecap:round" d="M410.54 176.57c-.86.0-1.88.6-2.29 1.35l-8.56 15.49c-.41.75-.06 1.35.8 1.35h169.16c.86.0 1.21-.6.8-1.35l-8.56-15.5a2.87 2.87.0 00-2.29-1.34H413.72z"/><path id="path29474" style="fill:#ccc;fill-opacity:1;stroke-width:.124586;stroke-linecap:round" d="M471.17 199.33c-.16.0-.35.27-.42.6l-1.6 6.94c-.08.33-.01.6.15.6h31.54c.16.0.23-.27.15-.6l-1.6-6.94c-.07-.33-.26-.6-.42-.6h-27.2z"/><path id="path29476" style="fill:#ccc;fill-opacity:1;stroke-width:.0393346;stroke-linecap:round" d="M412.5 172.1c-.05.0-.11.09-.14.2l-.5 2.18c-.03.11.0.2.04.2h9.96c.05.0.07-.09.05-.2l-.5-2.18c-.03-.11-.09-.2-.14-.2h-8.59z"/><path id="path29615" style="fill:#ccc;fill-opacity:1;stroke-width:.0393346;stroke-linecap:round" d="M425.73 172.1c-.05.0-.11.09-.14.2l-.5 2.18c-.03.11.0.2.04.2h9.96c.05.0.07-.09.05-.2l-.5-2.18c-.03-.11-.09-.2-.14-.2h-8.59z"/></g><g id="right-card" transform="translate(-496.04 -85.58) scale(2.28518)"><rect style="opacity:1;fill:#d0af00;fill-opacity:1;stroke-width:.424681;stroke-linecap:round" id="rect29716" width="76.36" height="33.73" x="481.01" y="87.24" ry="1.71"/><circle style="fill:#f9f9f9;fill-opacity:1;stroke-width:.423333;stroke-linecap:round" id="path29919" cx="536.52" cy="103.89" r="7.63"/><rect style="fill:#f9f9f9;fill-opacity:1;stroke-width:.423333;stroke-linecap:round" id="rect30041" width="13.53" height="1.9" x="507.06" y="97.48" ry=".95"/><rect style="fill:#f9f9f9;fill-opacity:1;stroke-width:.59408;stroke-linecap:round" id="rect30123" width="26.65" height="1.9" x="493.95" y="102.77" ry=".95"/><rect style="fill:#f9f9f9;fill-opacity:1;stroke-width:.59408;stroke-linecap:round" id="rect30125" width="26.65" height="1.9" x="493.95" y="108.06" ry=".95"/></g><g id="left-card" transform="translate(-483.95 -91.63) scale(2.28518)"><rect style="fill:#d0af00;fill-opacity:1;stroke-width:.495897;stroke-linecap:round" id="rect33260" width="65.43" height="53.67" x="372.99" y="164.66" ry="1.68" transform="matrix(.98688 -.16145 .1317 .99129 0 0)"/><path style="opacity:1;fill:#f9f9f9;fill-opacity:1;stroke-width:1.6;stroke-linecap:round" id="path33284" transform="rotate(-9.02 475.29 -1606.97) scale(.19959)" d="M894.38 547.69H745.44l37.23-64.5 37.24-64.5 37.24 64.5z"/><path style="opacity:1;fill:#cbcbcb;fill-opacity:1;stroke-width:1.6;stroke-linecap:round" id="path33732" transform="rotate(-9.03 972.27 -2411.34) scale(.03951)" d="M894.38 547.69H745.44l37.23-64.5 37.24-64.5 37.24 64.5z"/><path style="opacity:1;fill:#f9f9f9;fill-opacity:1;stroke-width:1.6;stroke-linecap:round" id="path33730" transform="matrix(.15783 -.02504 .02504 .15783 272.1 74.39)" d="M894.38 547.69H745.44l37.23-64.5 37.24-64.5 37.24 64.5z"/><circle style="fill:#f9f9f9;fill-opacity:1;stroke-width:.278653;stroke-linecap:round" id="circle37705" cx="395.92" cy="178.78" r="5.03" transform="rotate(-9.01)"/></g><g id="text" transform="translate(-496.04 -85.58) scale(2.28518)"><rect style="fill:#f9f9f9;fill-opacity:1;stroke-width:.673768;stroke-linecap:round" id="rect47063" width="34.27" height="1.9" x="519.23" y="134.52" ry=".95"/><rect style="fill:#f9f9f9;fill-opacity:1;stroke-width:.945526;stroke-linecap:round" id="rect47065" width="67.5" height="1.9" x="486.01" y="139.81" ry=".95"/><rect style="fill:#f9f9f9;fill-opacity:1;stroke-width:.945526;stroke-linecap:round" id="rect47067" width="67.5" height="1.9" x="486.01" y="145.1" ry=".95"/></g></g></svg>