<?xml version="1.0" encoding="UTF-8" standalone="no"?>
<svg
   width="127.99999"
   height="128"
   viewBox="0 0 33.866664 33.866668"
   version="1.1"
   id="svg8"
   inkscape:version="1.2.2 (b0a8486541, 2022-12-01)"
   sodipodi:docname="MATIC-logo_gold.svg"
   xml:space="preserve"
   xmlns:inkscape="http://www.inkscape.org/namespaces/inkscape"
   xmlns:sodipodi="http://sodipodi.sourceforge.net/DTD/sodipodi-0.dtd"
   xmlns:xlink="http://www.w3.org/1999/xlink"
   xmlns="http://www.w3.org/2000/svg"
   xmlns:svg="http://www.w3.org/2000/svg"
   xmlns:rdf="http://www.w3.org/1999/02/22-rdf-syntax-ns#"
   xmlns:cc="http://creativecommons.org/ns#"
   xmlns:dc="http://purl.org/dc/elements/1.1/"><defs
     id="defs2"><color-profile
       name="U.S.-Web-Coated--SWOP--v2"
       xlink:href="file:///usr/share/color/icc/USWebCoatedSWOP.icc"
       id="color-profile56532" /><color-profile
       name="sRGB"
       xlink:href="file:///usr/share/color/icc/colord/sRGB.icc"
       id="color-profile56534" /></defs><sodipodi:namedview
     id="base"
     pagecolor="#ffffff"
     bordercolor="#666666"
     borderopacity="1.0"
     inkscape:pageopacity="0.0"
     inkscape:pageshadow="2"
     inkscape:zoom="6.3671875"
     inkscape:cx="64"
     inkscape:cy="64"
     inkscape:document-units="px"
     inkscape:current-layer="layer1"
     showgrid="false"
     units="px"
     inkscape:document-rotation="0"
     inkscape:showpageshadow="false"
     objecttolerance="20"
     inkscape:snap-path-clip="false"
     inkscape:snap-path-mask="false"
     guidetolerance="20"
     inkscape:snap-bbox="false"
     inkscape:bbox-paths="false"
     inkscape:snap-bbox-edge-midpoints="false"
     inkscape:snap-bbox-midpoints="false"
     inkscape:snap-page="true"
     showguides="true"
     inkscape:guide-bbox="true"
     inkscape:pagecheckerboard="0"
     inkscape:deskcolor="#d1d1d1"
     inkscape:window-width="1920"
     inkscape:window-height="1008"
     inkscape:window-x="0"
     inkscape:window-y="0"
     inkscape:window-maximized="1" /><metadata
     id="metadata5"><rdf:RDF><cc:Work
         rdf:about=""><dc:format>image/svg+xml</dc:format><dc:type
           rdf:resource="http://purl.org/dc/dcmitype/StillImage" /></cc:Work></rdf:RDF></metadata><g
     inkscape:label="Capa 1"
     inkscape:groupmode="layer"
     id="layer1"
     transform="translate(0,-11.249983)"><g
       id="g325"
       transform="matrix(0.82898173,0,0,0.82898173,1.0583334,14.297873)"
       style="fill:#d1b000">
	<path
   class="st0"
   d="m 29,10.2 c -0.7,-0.4 -1.6,-0.4 -2.4,0 l -5.6,3.3 -3.8,2.1 -5.5,3.3 c -0.7,0.4 -1.6,0.4 -2.4,0 L 5,16.3 C 4.3,15.9 3.8,15.1 3.8,14.2 v -5 C 3.8,8.4 4.2,7.6 5,7.1 L 9.3,4.6 c 0.7,-0.4 1.6,-0.4 2.4,0 L 16,7.2 c 0.7,0.4 1.2,1.2 1.2,2.1 v 3.3 L 21,10.4 V 7 C 21,6.2 20.6,5.4 19.8,4.9 l -8,-4.7 c -0.7,-0.4 -1.6,-0.4 -2.4,0 L 1.2,5 C 0.4,5.4 0,6.2 0,7 v 9.4 c 0,0.8 0.4,1.6 1.2,2.1 l 8.1,4.7 c 0.7,0.4 1.6,0.4 2.4,0 L 17.2,20 21,17.8 26.5,14.6 c 0.7,-0.4 1.6,-0.4 2.4,0 l 4.3,2.5 c 0.7,0.4 1.2,1.2 1.2,2.1 v 5 c 0,0.8 -0.4,1.6 -1.2,2.1 L 29,28.8 c -0.7,0.4 -1.6,0.4 -2.4,0 L 22.3,26.3 C 21.6,25.9 21.1,25.1 21.1,24.2 V 21 l -3.8,2.2 v 3.3 c 0,0.8 0.4,1.6 1.2,2.1 l 8.1,4.7 c 0.7,0.4 1.6,0.4 2.4,0 l 8.1,-4.7 c 0.7,-0.4 1.2,-1.2 1.2,-2.1 V 17 c 0,-0.8 -0.4,-1.6 -1.2,-2.1 z"
   id="path323"
   style="fill:#d1b000" />
</g></g><style
     type="text/css"
     id="style134">
	.st0{fill-rule:evenodd;clip-rule:evenodd;fill:#D1B000;}
	.st1{fill:#FFFFFF;}
</style><style
     type="text/css"
     id="style321">
	.st0{fill:#8247E5;}
</style></svg>
