<svg xmlns="http://www.w3.org/2000/svg" width="355" height="240" viewBox="0 0 93.927 63.5"><defs><clipPath id="l"><path d="M367.503 475.359h63.28v-68.967h-63.28z"/></clipPath><clipPath id="k"><path d="M343.566 575.699h111.153v-62.525H343.566z"/></clipPath><clipPath id="a"><path d="M0 0h8e2v8e2H0z"/></clipPath><clipPath id="b"><path d="M0 0h8e2v8e2H0z"/></clipPath><clipPath id="c"><path d="M0 0h8e2v8e2H0z"/></clipPath><clipPath id="d"><path d="M0 0h8e2v8e2H0z"/></clipPath><clipPath id="e"><path d="M0 0h8e2v8e2H0z"/></clipPath><clipPath id="f"><path d="M0 0h8e2v8e2H0z"/></clipPath><clipPath id="g"><path d="M0 0h8e2v8e2H0z"/></clipPath><clipPath id="h"><path d="M0 0h8e2v8e2H0z"/></clipPath><clipPath id="i"><path d="M0 0h8e2v8e2H0z"/></clipPath><clipPath id="j"><path d="M0 0h8e2v8e2H0z"/></clipPath></defs><g stroke-width="1.979"><g stroke="#012c4f"><g transform="matrix(.0635 0 0 -.0635 20.393 57.15)" clip-path="url(#a)"><path stroke-miterlimit="10" d="M237.167 539v140H55v78h-255m716.18-186v174H699v55M502.68 263V101H829V0M569 303h130v129.514h232V609h69M203 4e2H97v111H-91V253h-109m502.417-11.75H177.92V117H83v146H-30.931V85h-169.07M380.25 621.212V757h-80.655v43M1e3 710.606H829v-89.394H653V511H542.59" fill="none" stroke-width="7.917"/></g><path stroke-miterlimit="10" d="M43.125 44.006v3.683h-7.1v4.762" fill="none" stroke-width=".5032289999999999"/><g transform="matrix(.0635 0 0 -.0635 20.393 57.15)" clip-path="url(#b)"><path stroke-miterlimit="10" d="M553.833 278v-89H755v89h245M-2e2 511h33.119v121.398H0V587.4h193.101V469.499" fill="none" stroke-width="7.917"/></g><path stroke-miterlimit="10" d="M53.17 16.994h3.354v-7.15" fill="none" stroke-width=".5032289999999999"/><g transform="matrix(.0635 0 0 -.0635 20.393 57.15)" clip-path="url(#c)"><path stroke-miterlimit="10" d="M167.602 679v121m213.433-121h56.667v121M-78.386.0v41.398h211.49M423.688 177.92V0m0 103.5h-84.813V0M601.08 101V60.926H699V0" fill="none" stroke-width="7.917"/></g><path stroke-miterlimit="10" d="M26.553 28.505H22.24V40.45m3.423 3.555h3.563V37.91l5.993-.094M28.845 49.72v4.67m1.429-34.54v6.329h-3.721" fill="none" stroke-width=".5032289999999999"/><g transform="matrix(.0635 0 0 -.0635 20.393 57.15)" clip-path="url(#d)"><path stroke-miterlimit="10" d="M63.042 587.4v-34.899h-229.923" fill="none" stroke-width="7.917"/></g><path stroke-miterlimit="10" d="M27.445 14.034v2.96h8.008m-4.417-6h9.741v8.857" fill="none" stroke-width=".5032289999999999"/><g transform="matrix(.0635 0 0 -.0635 20.393 57.15)" clip-path="url(#e)"><path stroke-miterlimit="10" d="M472.793 596.4v178.49H569V8e2m68.079-55v55M218.6 726.893V8e2m328.233-239.834h69.246V685.5h131.994v77.947h132.953V8e2M931 511H734.574v110.212" fill="none" stroke-width="7.917"/></g><path stroke-miterlimit="10" d="M61.48 31.85v3.541" fill="none" stroke-width=".5032289999999999"/><g transform="matrix(.0635 0 0 -.0635 20.393 57.15)" clip-path="url(#f)"><path stroke-miterlimit="10" d="M595.08 469.542h237.707v-37.028m-98.213 133.592H931" fill="none" stroke-width="7.917"/></g><path stroke-miterlimit="10" d="M55.56 42.995h12.775" fill="none" stroke-width=".5032289999999999"/><g transform="matrix(.0635 0 0 -.0635 20.393 57.15)" clip-path="url(#g)"><path stroke-miterlimit="10" d="M699 340.5h152.568v-62.75" fill="none" stroke-width="7.917"/></g><path stroke-miterlimit="10" d="M68.335 29.686v5.843" fill="none" stroke-width=".5032289999999999"/><g transform="matrix(.0635 0 0 -.0635 20.393 57.15)" clip-path="url(#h)"><path stroke-miterlimit="10" d="M755 407.25h153V278M501.893 148h-32.649V0m84.589 101V0m100.584 101v57H908v79.918h92M763 100.5V0M39 43.458V189h-69.388" fill="none" stroke-width="7.917"/></g><path stroke-miterlimit="10" d="M25.663 35.246h4.45" fill="none" stroke-width=".5032289999999999"/><g transform="matrix(.0635 0 0 -.0635 20.393 57.15)" clip-path="url(#i)"><path stroke-miterlimit="10" d="M-81 667H39v-79.6m51 92.683V745h36.301v55m178.527-651V74H193.1V0" fill="none" stroke-width="7.917"/></g><path stroke-miterlimit="10" d="M44.604 52.723v2.713m10.713-7.125h3.244m8.123.85h3.524M52.734 53.84v1.996m11.727-35.541v3.532" fill="none" stroke-width=".5032289999999999"/><g transform="matrix(.0635 0 0 -.0635 20.393 57.15)" clip-path="url(#j)"><path stroke-miterlimit="10" d="M793 240.98h58.568" fill="none" stroke-width="7.917"/></g><path stroke-miterlimit="10" d="M59.635 40.418h4.826m5.747-28.39v3.486m-32.184-1.549v3.683m-4.296 27.47h3.738m-2.597 9.962h3.738" fill="none" stroke-width=".5032289999999999"/><path d="M26.23 40.437a.559.559.0 11-1.117.0.559.559.0 011.118.0m3.554 3.569a.559.559.0 11-1.118.0.559.559.0 011.118.0M26.23 49.72a.559.559.0 11-1.118.0.559.559.0 011.118.0m-2.874-4.571a.559.559.0 11-1.117.0.559.559.0 011.117.0m0-30.315a.559.559.0 11-1.117.0.559.559.0 011.117.0m-2.405 5.017a.559.559.0 11-1.118.0.559.559.0 011.118.0m3.523-10.77a.559.559.0 11-1.118.0.559.559.0 011.118.0m4.497.731a.559.559.0 11-1.118.0.559.559.0 011.118.0m7.04 4.153a.559.559.0 11-1.118.0.559.559.0 011.117.0m-1.178-2.972a.559.559.0 11-1.118.0.559.559.0 011.118.0m6.503.006a.56.56.0 11-1.118.0.559.559.0 011.118.0m-2.753 2.623a.559.559.0 11-1.117.0.559.559.0 011.117.0m0 4.082a.559.559.0 11-1.117.0.559.559.0 011.117.0m10.162-3.664a.559.559.0 11-1.117.0.559.559.0 011.117.0m2.229-6.076a.559.559.0 11-1.118.0.559.559.0 011.118.0m6.109-.223a.559.559.0 11-1.118.0.559.559.0 011.118.0m0 9.253a.559.559.0 11-1.118.0.559.559.0 011.118.0m-3.354-7.15a.559.559.0 11-1.118.0.559.559.0 011.118.0m11.608.0a.559.559.0 11-1.117.0.559.559.0 011.117.0m-5.265 3.778a.559.559.0 11-1.117.0.559.559.0 011.117.0m8.319.0a.559.559.0 11-1.118.0.559.559.0 011.118.0m0-4.95a.559.559.0 11-1.118.0.559.559.0 011.118.0m2.376 3.006a.56.56.0 11-1.118.0.56.56.0 011.118.0m0 4.185a.559.559.0 11-1.118.0.559.559.0 011.118.0m-8.382 1.841a.559.559.0 11-1.117.0.559.559.0 011.117.0m5.211 6.998a.559.559.0 11-1.117.0.559.559.0 011.117.0m-2.576-4.864a.559.559.0 11-1.118.0.559.559.0 011.118.0m0 3.989a.559.559.0 11-1.118.0.559.559.0 011.118.0m-2.635.716a.559.559.0 11-1.117.0.559.559.0 011.117.0m2.952 5.143a.559.559.0 11-1.117.0.559.559.0 011.117.0m-3.299 2.064a.559.559.0 11-1.118.0.559.559.0 011.118.0m0 3.781a.559.559.0 11-1.118.0.559.559.0 011.118.0M56.12 45.15a.56.56.0 11-1.118.0.559.559.0 011.118.0m-.244 3.162a.559.559.0 11-1.118.0.559.559.0 011.118.0m13.017-3.162a.559.559.0 11-1.117.0.559.559.0 011.117.0m-6.387 2.044a.559.559.0 11-1.117.0.559.559.0 011.117.0m-3.524 1.118a.559.559.0 11-1.117.0.559.559.0 011.117.0m-8.234-.559a.559.559.0 11-1.117.0.559.559.0 011.117.0m-8.278 2.826a.559.559.0 11-1.117.0.559.559.0 011.117.0m2.693 1.873a.559.559.0 11-1.118.0.559.559.0 011.118.0m0 3.385a.559.559.0 11-1.118.0.559.559.0 011.118.0m7.708-5.1a.559.559.0 11-1.117.0.559.559.0 011.117.0m.422 2.833a.559.559.0 11-1.117.0.559.559.0 011.117.0m0 2.603a.559.559.0 11-1.117.0.559.559.0 011.117.0m5.827-2.89a.559.559.0 11-1.118.0.559.559.0 011.118.0m6.217.0a.559.559.0 11-1.117.0.559.559.0 011.117.0m5.652-11.434a.56.56.0 11-1.118.0.56.56.0 011.118.0m-3.874 7.314a.559.559.0 11-1.117.0.559.559.0 011.117.0m3.73.0a.56.56.0 11-1.119.0.56.56.0 011.118.0m-1.95-9.665a.559.559.0 11-1.118.0.559.559.0 011.117.0m-8.999.921a.559.559.0 11-1.117.0.559.559.0 011.117.0m5.302.0a.559.559.0 11-1.117.0.559.559.0 011.117.0m-28.613 7.27a.56.56.0 11-1.118.0.56.56.0 011.118.0m-2.296-2.57a.559.559.0 11-1.118.0.559.559.0 011.118.0m3.737.0a.559.559.0 11-1.117.0.559.559.0 011.117.0m2.284 7.333a.559.559.0 11-1.117.0.559.559.0 011.117.0m-1.142 2.63a.56.56.0 11-1.118.0.56.56.0 011.118.0m-3.738.0a.559.559.0 11-1.118.0.559.559.0 011.118.0m29.91-17.234a.559.559.0 11-1.118.0.559.559.0 011.117.0m3.556-2.382a.559.559.0 11-1.117.0.559.559.0 011.117.0m-6.945 7.423a.559.559.0 11-1.118.0.559.559.0 011.118.0m-39.15-6.798a.559.559.0 11-1.117.0.559.559.0 011.118.0m2.156-16.24a.559.559.0 11-1.118.0.559.559.0 011.118.0m15.02-10.769a.559.559.0 11-1.117.0.559.559.0 011.118.0M28.01 16.994a.56.56.0 11-1.118.0.56.56.0 011.118.0m-.899 7.708a.559.559.0 11-1.117.0.559.559.0 011.117.0m6.102-4.851a.559.559.0 11-1.117.0.559.559.0 011.117.0M22.8 28.505a.559.559.0 11-1.118.0.559.559.0 011.118.0m4.312 3.318a.559.559.0 11-1.117.0.559.559.0 011.117.0m-1.117 3.423a.559.559.0 11-1.118.0.559.559.0 011.118.0m4.677.0a.559.559.0 11-1.118.0.559.559.0 011.118.0M32.25 49.72a.56.56.0 11-1.118.0.56.56.0 011.118.0m-2.846 4.801a.559.559.0 11-1.118.0.559.559.0 011.118.0M32.25 41.89a.559.559.0 11-1.118.0.559.559.0 011.118.0" fill="#93a3a2" stroke-width=".12580724999999998"/></g><path d="M59.894 31.75c0 7.789-6.313 14.102-14.101 14.102-7.789.0-14.102-6.313-14.102-14.101.0-7.789 6.313-14.102 14.102-14.102 7.788.0 14.101 6.313 14.101 14.102" fill="#012c4f"/><path d="M51.867 27.294v-3.947A2.895 2.895.0 0048.98 20.46h-6.375a2.896 2.896.0 00-2.887 2.887v3.947z" fill="#999"/><g transform="matrix(.095 0 0 -.095 7.873 75.6)" clip-path="url(#k)" opacity=".4" fill="#e6e6e6"><path d="M454.72 513.174v36.112c0 14.527-11.886 26.412-26.413 26.412h-58.329c-14.527.0-26.412-11.885-26.412-26.412v-36.112z"/></g><path d="M39.718 27.974v.331A1.498 1.498.0 0041.21 29.8h9.163a1.498 1.498.0 001.493-1.494v-.331z" fill="#999"/><path d="M42.652 26.042a.501.501.0 11-1.002.0.501.501.0 011.002.0m7.048.0a.501.501.0 11-1.002.0.501.501.0 011.002.0" fill="#f2f2f2"/><path d="M50.882 27.974H40.54v-.68h10.34z" fill="#e6e6e6"/><path d="M49.517 31.825a1.817 1.817.0 00-1.811-1.811h-3.827a1.817 1.817.0 00-1.812 1.81v1.247l.002.027h-.002c0 2.78 1.668 5.034 3.726 5.034 2.057.0 3.724-2.253 3.724-5.034v-.027z" fill="#999"/><g transform="matrix(.095 0 0 -.095 7.873 75.6)" clip-path="url(#l)" opacity=".4" fill="#e6e6e6"><path d="M430.783 459.971c0 8.464-6.925 15.388-15.388 15.388h-32.503c-8.464.0-15.39-6.924-15.39-15.388v-10.585c0-.076.006-.152.007-.228h-.006c0-23.619 14.166-42.766 31.64-42.766s31.64 19.147 31.64 42.766h-.006c0 .076.006.152.006.228z"/></g><path d="M39.809 32.94h-.067a.332.332.0 01-.331-.331v-.976c0-.182.149-.332.33-.332h.068c.182.0.33.15.33.332v.975a.332.332.0 01-.33.332m-.967.0h-.066a.332.332.0 01-.332-.331v-.976c0-.182.15-.332.332-.332h.066c.183.0.332.15.332.332v.975a.333.333.0 01-.332.332m-.966.0h-.066a.332.332.0 01-.332-.331v-.976c0-.182.15-.332.332-.332h.066c.183.0.332.15.332.332v.975a.333.333.0 01-.332.332m-2.234 2.588v-.066c0-.183.15-.332.332-.332h.975c.183.0.332.15.332.332v.066a.333.333.0 01-.331.332h-.976a.332.332.0 01-.331-.332m0-.966v-.067c0-.182.149-.33.331-.33h.975c.183.0.332.148.332.33v.067c0 .182-.15.331-.331.331h-.976a.332.332.0 01-.331-.33m-.001-.967v-.067c0-.182.15-.33.332-.33h.975c.183.0.332.148.332.33v.067c0 .182-.15.331-.331.331h-.976a.332.332.0 01-.331-.33m1.638-1.477a.819.819.0 11-1.638.0.819.819.0 011.638.0m4.956.0a.819.819.0 11-1.638.0.819.819.0 011.638.0m-6.576 6.159a.984.984.0 111.751.0h.82a1.753 1.753.0 10-3.39.0zm16.115-5.339h.067a.332.332.0 00.331-.331v-.976a.332.332.0 00-.331-.332h-.067a.332.332.0 00-.331.332v.975c0 .182.149.332.331.332m.966.0h.067a.332.332.0 00.332-.331v-.976a.332.332.0 00-.332-.332h-.067a.332.332.0 00-.331.332v.975c0 .182.149.332.331.332m.966.0h.067a.332.332.0 00.332-.331v-.976a.332.332.0 00-.332-.332h-.067a.332.332.0 00-.331.332v.975a.333.333.0 00.331.332m2.235 2.588v-.066a.332.332.0 00-.332-.332h-.975a.332.332.0 00-.332.332v.066c0 .182.15.332.332.332h.975a.333.333.0 00.332-.332m0-.966v-.067a.332.332.0 00-.332-.33h-.975a.332.332.0 00-.332.33v.067c0 .182.15.332.332.332h.975a.333.333.0 00.332-.332m0-.966v-.067a.332.332.0 00-.332-.33h-.975a.332.332.0 00-.332.33v.067c0 .182.15.331.332.331h.975a.332.332.0 00.332-.33m-1.639-1.477a.819.819.0 101.638.0.819.819.0 00-1.638.0m-4.94.0a.819.819.0 101.638.0.819.819.0 00-1.638.0m6.56 6.159a.984.984.0 10-1.752.0h-.82a1.753 1.753.0 113.391.0z" fill="#999"/><path word-spacing="0" letter-spacing="0" font-size="96" font-stretch="condensed" font-weight="500" aria-label="Botnet" d="M40.917 40.928c.521-.011.618.284.618.754.0.471-.125.726-.618.704zm.141 1.94c.789.0 1.078-.38 1.078-1.168.0-.477-.114-.851-.601-1.004v-.011c.454-.12.539-.528.539-.948.0-.72-.216-1.145-.987-1.145h-.71v4.276zm.46-3.153c0 .453-.074.782-.601.76v-1.401h.096c.392-.005.505.306.505.64zm1.95 3.198c.817.0.902-.868.902-1.469.0-.624-.085-1.485-.901-1.485-.817.0-.902.861-.902 1.485.0.602.085 1.469.902 1.469zm0-.488c-.408.0-.357-.776-.357-.98.0-.228-.05-.999.358-.999s.357.772.357.998c0 .205.05.981-.357.981zm1.418-3.232v.811h-.29v.42h.29v2.444h.533v-2.445h.283v-.419h-.283v-.811zm1.677.811h-.533v2.864h.533V41.08c0-.243-.028-.647.324-.647.283.0.317.256.317.455v1.979h.533V40.9c0-.437-.017-.942-.584-.942a.583.583.0 00-.351.103.733.733.0 00-.228.272h-.01zm2.13 1.156c0-.22-.022-.725.312-.725.323.0.323.505.323.725zm1.18.38v-.084c0-.59-.091-1.498-.868-1.498-.788.0-.856.913-.856 1.498.0.606.073 1.457.873 1.457.601.0.833-.482.833-1.01h-.493c0 .221-.05.534-.334.534-.346.0-.335-.658-.335-.897zm.517-2.347v.811h-.289v.42h.29v2.444h.533v-2.445h.283v-.419h-.283v-.811z" style="line-height:1.25;-inkscape-font-specification:'Futura Std Medium Condensed'" font-family="Futura Std" fill="#fff"/><path d="M74.007 12.987c.218-.426.181-.908-.01-1.308.054-.456-.065-.918-.496-1.273a3814.31 3814.31.0 01-1.204-.99c-.705-.581-1.81-.764-2.496.0a172.354 172.354.0 01-9.753 9.98c-2.512-2.346-5.054-4.66-7.578-6.977-.886-.814-2.167-.559-2.725.41-.812.404-1.47.929-2.014 1.825-.259.427-.239.966.0 1.395 1.629 2.922 4.779 5.49 7.368 7.855-.346.31-.69.623-1.043.926-3.49 2.996-5.843 4.897-1.477 7.969.06.041.12.032.18.057a.974.974.0 00.256.08c.029.001.055.007.084.004.09.008.178.03.269.013 2.347-.46 4.53-2.3 6.51-4.325 1.93 1.9 3.984 3.718 6.243 4.796.538.256 1.18.107 1.593-.252.694.052 1.327-.379 1.645-1 .047-.028.078-.045.129-.077 1.01-.63 1.101-1.886.354-2.752-1.686-1.954-3.48-3.812-5.307-5.637 3.29-3.215 7.4-6.683 9.472-10.719z" fill="#d32f2f"/></g></svg>