<svg xmlns="http://www.w3.org/2000/svg" width="355" height="240" viewBox="0 0 93.927 63.5"><g stroke-width="1.98"><g transform="matrix(.22927 0 0 .22946 -169.895 -105.886)"><path d="M997.288 497.85l73.52 20.97c3.94 1.123 7.397 3.298 7.397 7.397v74.325c0 4.098-3.529 8.749-7.398 7.397l-90.052-31.454c3.568-22.807 4.504-27.517 8.33-50.268 3.793-1.552 4.262-29.491 8.203-28.367z" fill="#424347"/><path d="M995.7 499.437l73.52 20.97c3.94 1.124 7.397 3.299 7.397 7.397v74.325c0 4.098-3.528 8.749-7.397 7.398l-90.053-31.454c3.569-22.808 4.504-27.517 8.33-50.269 3.793-1.551 4.263-29.49 8.204-28.367z" fill="#1a1a1a"/><ellipse ry="48.189" rx="36.092" cy="564.438" cx="1038.742" fill="#424347"/><path d="M1059.761 564.64l16.951-7.864-.22 18.146-16.731 8.267z" fill="#333"/><path d="M1057.19 532.504l14.114-7.46c.829.742 1.764.865 1.815 3.63l-14.316 7.258zm.026 76.316 14.114-7.46c.828.742 1.763.866 1.815 3.63l-14.316 7.258z" fill="#666"/></g><path d="M56.76 9.139 21.394 25.896l.915 22.958 18.87 6.837 31.99-18.599v-21.93z" fill="#dee0df"/><path d="M40.613 36.422l32.556-17.01v.686L40.58 37.273zm.065 1.214 32.491-17.011v.687L40.645 38.487zm0 10.685 32.491-17.01v.687L40.645 49.172zm0 1.214 32.491-17.011v.687L40.645 50.386z" fill="#b3b3b3"/><path d="M21.393 25.896 56.76 9.14l16.407 6.023-32.636 16.749z" fill="#d0d2d2"/><path d="M21.393 25.896l19.138 6.015.647 23.78-18.87-6.838z" fill="#b6b7b9"/><path d="M22.433 26.918l15.92 5.43c.761.26 1.426.65 1.453 1.456l.654 19.204c.028.806-.327 2.018-1.078 1.725L23.413 48.51c-.75-.293-1.132-.455-1.192-1.26l-1.44-19.27c-.059-.803.89-1.322 1.652-1.062z" fill="#333"/><path d="M21.704 27.404l15.92 5.43c.762.26 1.427.65 1.454 1.455l.654 19.205c.028.806-.04 1.46-.8 1.194l-16.247-5.693c-.76-.266-1.157-.454-1.192-1.26l-.85-19.4c-.036-.805.299-1.192 1.062-.931z" fill="#1a1a1a"/><path d="M35.423 54.583l3.236-1.712c.19.17.404.198.416.832l-3.282 1.666z" fill="#666"/><path d="M26.72 29.814a12.78 13.51.0 00-7.943 2.926v17.095h14.776v4.891a12.78 13.51.0 005.949-11.4A12.78 13.51.0 0026.72 29.813z" fill="#424347"/><path d="M34.937 35.52l3.236-1.713c.19.17.404.199.416.833l-3.282 1.666z" fill="#666"/><path d="M35.546 43.816l3.955-1.897.099 4.808-3.923 2.029z" fill="#333"/><path d="M18.865 29.717l3.236-1.712c.19.17.404.198.416.833l-3.281 1.665z" fill="#666"/><path d="M17.943 29.225l15.92 5.43c.763.26 1.765.715 1.781 1.521l.392 19.4c.017.806-.509 1.818-1.258 1.521l-15.854-6.28c-.749-.297-1.157-.454-1.193-1.26l-.85-19.4c-.035-.806.3-1.192 1.062-.932z" fill="#333"/><path d="M17.458 29.59l15.92 5.43c.762.26 1.435.65 1.454 1.455l.458 19.335c.019.806-.448 1.436-1.193 1.129l-15.2-6.282c-.745-.308-1.021-.061-1.063-.866l-.98-19.204c-.041-.806-.158-1.258.604-.998z" fill="#1a1a1a"/><g fill="none" stroke="#b3b3b3" stroke-width="1.19"><path d="M4.62 55.373c6.378-4.21 13.47-5.402 23.957 8.029 8.876 14.496 7.378 23.303 1.165 29.524-8.861 5.754-16.403-.178-23.568-9.453C-.517 72.647-2.1 63.03 4.621 55.373z" transform="matrix(.50485 0 0 .50527 16.772 6.35)"/><path d="M6.375 57.878c5.513-3.639 11.643-4.67 20.708 6.94 7.673 12.531 6.378 20.144 1.007 25.522-7.66 4.974-14.179-.154-20.372-8.171C1.934 72.81.566 64.496 6.375 57.879z" transform="matrix(.50485 0 0 .50527 16.772 6.35)"/><path d="M8.062 60.287c4.681-3.09 9.887-3.965 17.585 5.894 6.516 10.64 5.415 17.105.855 21.672-6.504 4.224-12.04-.13-17.3-6.939-4.912-7.947-6.073-15.007-1.14-20.627z" transform="matrix(.50485 0 0 .50527 16.772 6.35)"/><path d="M9.493 62.331c3.976-2.625 8.397-3.368 14.935 5.005 5.534 9.038 4.6 14.528.727 18.407-5.525 3.587-10.227-.111-14.693-5.893-4.172-6.75-5.159-12.746-.97-17.519z" transform="matrix(.50485 0 0 .50527 16.772 6.35)"/><path d="M11.115 64.648c3.177-2.097 6.709-2.691 11.932 3.998 4.42 7.22 3.674 11.607.58 14.706-4.413 2.865-8.17-.09-11.738-4.709-3.333-5.392-4.121-10.182-.774-13.995z" transform="matrix(.50485 0 0 .50527 16.772 6.35)"/><path d="M12.737 66.964c2.377-1.57 5.02-2.013 8.929 2.992 3.308 5.403 2.75 8.685.434 11.004-3.303 2.144-6.114-.067-8.784-3.523-2.494-4.035-3.084-7.62-.579-10.473z" transform="matrix(.50485 0 0 .50527 16.772 6.35)"/><path d="M14.311 69.212c1.601-1.057 3.382-1.356 6.014 2.016 2.228 3.638 1.852 5.85.293 7.41-2.225 1.445-4.118-.044-5.916-2.372-1.68-2.718-2.077-5.132-.39-7.054z" transform="matrix(.50485 0 0 .50527 16.772 6.35)"/><path d="M15.743 71.256c.895-.59 1.89-.758 3.363 1.127 1.247 2.036 1.036 3.272.164 4.146-1.244.808-2.303-.025-3.31-1.327-.939-1.52-1.16-2.87-.217-3.946z" transform="matrix(.50485 0 0 .50527 16.772 6.35)"/></g><path d="M1.829 50.222l13.183 20.885c1.123 2.054 2.558 2.347 4.37.518l12.594-10.683h-.032m.596 36.788L19.357 76.845c-1.123-2.054-2.558-2.347-4.37-.518L3.39 86.164" fill="none" stroke="#b3b3b3" stroke-width="1.19" transform="matrix(.50485 0 0 .50527 16.772 6.35)"/><g transform="matrix(.20405 -.10462 .10453 .20422 -169.898 -105.888)"><ellipse ry="3.73" rx="3.176" cy="957.423" cx="506.058" fill="#b3b3b3"/><ellipse cx="505.429" cy="957.101" rx="2.108" ry="2.476" fill="#999"/></g><g transform="matrix(.20405 -.10462 .10453 .20422 -169.898 -105.888)"><ellipse cx="468.892" cy="1031.135" rx="3.176" ry="3.73" fill="#b3b3b3"/><ellipse ry="2.476" rx="2.108" cy="1030.813" cx="468.264" fill="#999"/></g><g transform="matrix(.20405 -.10462 .10453 .20422 -169.898 -105.888)"><ellipse ry="2.843" rx="2.421" cy="978.803" cx="422.877" fill="#b3b3b3"/><ellipse cx="422.399" cy="978.558" rx="1.607" ry="1.887" fill="#999"/></g><g transform="matrix(.20405 -.10462 .10453 .20422 -169.898 -105.888)"><ellipse cx="455.552" cy="904.573" rx="2.421" ry="2.843" fill="#b3b3b3"/><ellipse ry="1.887" rx="1.607" cy="904.328" cx="455.073" fill="#999"/></g><path d="M10.966 30.64l33.668 10.62-.13 8.158-33.336-10.824z" fill="#b6b7b9" stroke="#b3b3b3" stroke-width=".238" transform="matrix(.50485 0 0 .50527 16.772 6.35)"/><path d="M44.634 41.259l24.41-12.173-.26 7.446-24.28 12.885z" fill="#d0d2d2" stroke="#b3b3b3" stroke-width=".238" transform="matrix(.50485 0 0 .50527 16.772 6.35)"/><path d="M38.682 18.047c3.99-9.045 3.427-12.406 14.84-6.738-9.894-8.372-16.273-6.12-14.84 6.739z" fill="#ffcc80"/><path d="M51.148 10.329 59.1 6.35l.045 4.21-7.904 4.118z" fill="#012c4f"/><path d="M40.502 18.047c4.186-8.13 9.05-10.77 20.462-5.103-9.893-8.371-22.484-4.353-20.461 5.103z" fill="#ffcc80"/><path d="M56.608 12.514l7.951-3.978.046 4.21-7.905 4.118z" fill="#012c4f"/><path d="M41.528 19.672c6.213-7.345 13.756-11.36 25.169-5.692-9.894-8.372-24.969-2.325-25.17 5.692z" fill="#ffcc80"/><path d="M62.067 14.7l7.952-3.979.045 4.21-7.904 4.118z" fill="#012c4f"/><path d="M10.966 30.64 36.67 19.18l32.373 9.906-24.41 12.173z" fill="#dee0df" stroke="#b3b3b3" stroke-width=".238" transform="matrix(.50485 0 0 .50527 16.772 6.35)"/><path d="M46.29 31.31h28.65v16.376H46.29z" fill="#012c4f"/><path d="M47.86 32.92h1.835v2.054H47.86z" fill="#ffcc80"/><path d="M47.86 33.013h1.835v.122H47.86zm0 .163h1.835v.121H47.86zm0 1.378h1.835v.121H47.86zm0 .162h1.835v.122H47.86z" fill="#372b20"/><path d="M49.877 32.92h1.834v2.054h-1.834z" fill="#ffcc80"/><path d="M49.877 33.013h1.834v.122h-1.834zm0 .163h1.834v.121h-1.834zm0 1.378h1.834v.121h-1.834zm0 .162h1.834v.122h-1.834z" fill="#372b20"/><path d="M51.894 32.92h1.834v2.054h-1.834z" fill="#ffcc80"/><path d="M51.894 33.013h1.834v.122h-1.834zm0 .163h1.834v.121h-1.834zm0 1.378h1.834v.121h-1.834zm0 .162h1.834v.122h-1.834z" fill="#372b20"/><path d="M53.91 32.92h1.834v2.054h-1.833z" fill="#ffcc80"/><path d="M53.91 33.013h1.834v.122h-1.833zm0 .163h1.834v.121h-1.833zm0 1.378h1.834v.121h-1.833zm0 .162h1.834v.122h-1.833z" fill="#372b20"/><path d="M55.927 32.92h1.834v2.054h-1.834z" fill="#ffcc80"/><path d="M55.927 33.013h1.834v.122h-1.834zm0 .163h1.834v.121h-1.834zm0 1.378h1.834v.121h-1.834zm0 .162h1.834v.122h-1.834z" fill="#372b20"/><path d="M57.944 32.92h1.834v2.054h-1.834z" fill="#ffcc80"/><path d="M57.944 33.013h1.834v.122h-1.834zm0 .163h1.834v.121h-1.834zm0 1.378h1.834v.121h-1.834zm0 .162h1.834v.122h-1.834z" fill="#372b20"/><path d="M59.96 32.92h1.835v2.054H59.96z" fill="#ffcc80"/><path d="M59.96 33.013h1.835v.122H59.96zm0 .163h1.835v.121H59.96zm0 1.378h1.835v.121H59.96zm0 .162h1.835v.122H59.96z" fill="#372b20"/><path d="M61.977 32.92h1.834v2.054h-1.834z" fill="#ffcc80"/><path d="M61.977 33.013h1.834v.122h-1.834zm0 .163h1.834v.121h-1.834zm0 1.378h1.834v.121h-1.834zm0 .162h1.834v.122h-1.834z" fill="#372b20"/><path d="M63.994 32.92h1.834v2.054h-1.834z" fill="#ffcc80"/><path d="M63.994 33.013h1.834v.122h-1.834zm0 .163h1.834v.121h-1.834zm0 1.378h1.834v.121h-1.834zm0 .162h1.834v.122h-1.834z" fill="#372b20"/><path d="M66.01 32.92h1.834v2.054h-1.833z" fill="#ffcc80"/><path d="M66.01 33.013h1.834v.122h-1.833zm0 .163h1.834v.121h-1.833zm0 1.378h1.834v.121h-1.833zm0 .162h1.834v.122h-1.833z" fill="#372b20"/><path d="M51.894 35.157h1.834v2.054h-1.834z" fill="#ffcc80"/><path d="M51.894 35.251h1.834v.122h-1.834zm0 .163h1.834v.121h-1.834zm0 1.379h1.834v.12h-1.834zm0 .161h1.834v.123h-1.834z" fill="#372b20"/><path d="M53.91 35.157h1.834v2.054h-1.833z" fill="#ffcc80"/><path d="M53.91 35.251h1.834v.122h-1.833zm0 .163h1.834v.121h-1.833zm0 1.379h1.834v.12h-1.833zm0 .161h1.834v.123h-1.833z" fill="#372b20"/><path d="M55.927 35.157h1.834v2.054h-1.834z" fill="#ffcc80"/><path d="M55.927 35.251h1.834v.122h-1.834zm0 .163h1.834v.121h-1.834zm0 1.379h1.834v.12h-1.834zm0 .161h1.834v.123h-1.834z" fill="#372b20"/><path d="M57.944 35.157h1.834v2.054h-1.834z" fill="#ffcc80"/><path d="M57.944 35.251h1.834v.122h-1.834zm0 .163h1.834v.121h-1.834zm0 1.379h1.834v.12h-1.834zm0 .161h1.834v.123h-1.834z" fill="#372b20"/><path d="M59.96 35.157h1.835v2.054H59.96z" fill="#ffcc80"/><path d="M59.96 35.251h1.835v.122H59.96zm0 .163h1.835v.121H59.96zm0 1.379h1.835v.12H59.96zm0 .161h1.835v.123H59.96z" fill="#372b20"/><path d="M61.977 35.157h1.834v2.054h-1.834z" fill="#ffcc80"/><path d="M61.977 35.251h1.834v.122h-1.834zm0 .163h1.834v.121h-1.834zm0 1.379h1.834v.12h-1.834zm0 .161h1.834v.123h-1.834z" fill="#372b20"/><path d="M63.994 35.157h1.834v2.054h-1.834z" fill="#ffcc80"/><path d="M63.994 35.251h1.834v.122h-1.834zm0 .163h1.834v.121h-1.834zm0 1.379h1.834v.12h-1.834zm0 .161h1.834v.123h-1.834z" fill="#372b20"/><path d="M66.01 35.157h1.834v2.054h-1.833z" fill="#ffcc80"/><path d="M66.01 35.251h1.834v.122h-1.833zm0 .163h1.834v.121h-1.833zm0 1.379h1.834v.12h-1.833zm0 .161h1.834v.123h-1.833z" fill="#372b20"/><path d="M55.927 37.396h1.834v2.054h-1.834z" fill="#ffcc80"/><path d="M55.927 37.49h1.834v.121h-1.834zm0 .162h1.834v.122h-1.834zm0 1.379h1.834v.121h-1.834zm0 .162h1.834v.121h-1.834z" fill="#372b20"/><path d="M57.944 37.396h1.834v2.054h-1.834z" fill="#ffcc80"/><path d="M57.944 37.49h1.834v.121h-1.834zm0 .162h1.834v.122h-1.834zm0 1.379h1.834v.121h-1.834zm0 .162h1.834v.121h-1.834z" fill="#372b20"/><path d="M59.96 37.396h1.835v2.054H59.96z" fill="#ffcc80"/><path d="M59.96 37.49h1.835v.121H59.96zm0 .162h1.835v.122H59.96zm0 1.379h1.835v.121H59.96zm0 .162h1.835v.121H59.96z" fill="#372b20"/><path d="M61.977 37.396h1.834v2.054h-1.834z" fill="#ffcc80"/><path d="M61.977 37.49h1.834v.121h-1.834zm0 .162h1.834v.122h-1.834zm0 1.379h1.834v.121h-1.834zm0 .162h1.834v.121h-1.834z" fill="#372b20"/><path d="M63.994 37.396h1.834v2.054h-1.834z" fill="#ffcc80"/><path d="M63.994 37.49h1.834v.121h-1.834zm0 .162h1.834v.122h-1.834zm0 1.379h1.834v.121h-1.834zm0 .162h1.834v.121h-1.834z" fill="#372b20"/><path d="M66.01 37.396h1.834v2.054h-1.833z" fill="#ffcc80"/><path d="M66.01 37.49h1.834v.121h-1.833zm0 .162h1.834v.122h-1.833zm0 1.379h1.834v.121h-1.833zm0 .162h1.834v.121h-1.833z" fill="#372b20"/><path d="M55.927 39.634h1.834v2.054h-1.834z" fill="#ffcc80"/><path d="M55.927 39.728h1.834v.121h-1.834zm0 .162h1.834v.122h-1.834zm0 1.379h1.834v.121h-1.834zm0 .162h1.834v.121h-1.834z" fill="#372b20"/><path d="M57.944 39.634h1.834v2.054h-1.834z" fill="#ffcc80"/><path d="M57.944 39.728h1.834v.121h-1.834zm0 .162h1.834v.122h-1.834zm0 1.379h1.834v.121h-1.834zm0 .162h1.834v.121h-1.834z" fill="#372b20"/><path d="M59.96 39.634h1.835v2.054H59.96z" fill="#ffcc80"/><path d="M59.96 39.728h1.835v.121H59.96zm0 .162h1.835v.122H59.96zm0 1.379h1.835v.121H59.96zm0 .162h1.835v.121H59.96z" fill="#372b20"/><path d="M61.977 39.634h1.834v2.054h-1.834z" fill="#ffcc80"/><path d="M61.977 39.728h1.834v.121h-1.834zm0 .162h1.834v.122h-1.834zm0 1.379h1.834v.121h-1.834zm0 .162h1.834v.121h-1.834z" fill="#372b20"/><path d="M63.994 39.634h1.834v2.054h-1.834z" fill="#ffcc80"/><path d="M63.994 39.728h1.834v.121h-1.834zm0 .162h1.834v.122h-1.834zm0 1.379h1.834v.121h-1.834zm0 .162h1.834v.121h-1.834z" fill="#372b20"/><path d="M66.01 39.634h1.834v2.054h-1.833z" fill="#ffcc80"/><path d="M66.01 39.728h1.834v.121h-1.833zm0 .162h1.834v.122h-1.833zm0 1.379h1.834v.121h-1.833zm0 .162h1.834v.121h-1.833z" fill="#372b20"/><path d="M51.894 41.872h1.834v2.054h-1.834z" fill="#ffcc80"/><path d="M51.894 41.967h1.834v.12h-1.834zm0 .161h1.834v.121h-1.834zm0 1.379h1.834v.121h-1.834zm0 .162h1.834v.122h-1.834z" fill="#372b20"/><path d="M53.91 41.872h1.834v2.054h-1.833z" fill="#ffcc80"/><path d="M53.91 41.967h1.834v.12h-1.833zm0 .161h1.834v.121h-1.833zm0 1.379h1.834v.121h-1.833zm0 .162h1.834v.122h-1.833z" fill="#372b20"/><path d="M55.927 41.872h1.834v2.054h-1.834z" fill="#ffcc80"/><path d="M55.927 41.967h1.834v.12h-1.834zm0 .161h1.834v.121h-1.834zm0 1.379h1.834v.121h-1.834zm0 .162h1.834v.122h-1.834z" fill="#372b20"/><path d="M57.944 41.872h1.834v2.054h-1.834z" fill="#ffcc80"/><path d="M57.944 41.967h1.834v.12h-1.834zm0 .161h1.834v.121h-1.834zm0 1.379h1.834v.121h-1.834zm0 .162h1.834v.122h-1.834z" fill="#372b20"/><path d="M59.96 41.872h1.835v2.054H59.96z" fill="#ffcc80"/><path d="M59.96 41.967h1.835v.12H59.96zm0 .161h1.835v.121H59.96zm0 1.379h1.835v.121H59.96zm0 .162h1.835v.122H59.96z" fill="#372b20"/><path d="M61.977 41.872h1.834v2.054h-1.834z" fill="#ffcc80"/><path d="M61.977 41.967h1.834v.12h-1.834zm0 .161h1.834v.121h-1.834zm0 1.379h1.834v.121h-1.834zm0 .162h1.834v.122h-1.834z" fill="#372b20"/><path d="M63.994 41.872h1.834v2.054h-1.834z" fill="#ffcc80"/><path d="M63.994 41.967h1.834v.12h-1.834zm0 .161h1.834v.121h-1.834zm0 1.379h1.834v.121h-1.834zm0 .162h1.834v.122h-1.834z" fill="#372b20"/><path d="M66.01 41.872h1.834v2.054h-1.833z" fill="#ffcc80"/><path d="M66.01 41.967h1.834v.12h-1.833zm0 .161h1.834v.121h-1.833zm0 1.379h1.834v.121h-1.833zm0 .162h1.834v.122h-1.833z" fill="#372b20"/><path d="M47.86 44.11h1.835v2.054H47.86z" fill="#ffcc80"/><path d="M47.86 44.204h1.835v.122H47.86zm0 .163h1.835v.12H47.86zm0 1.378h1.835v.121H47.86zm0 .163h1.835v.12H47.86z" fill="#372b20"/><path d="M49.877 44.11h1.834v2.054h-1.834z" fill="#ffcc80"/><path d="M49.877 44.204h1.834v.122h-1.834zm0 .163h1.834v.12h-1.834zm0 1.378h1.834v.121h-1.834zm0 .163h1.834v.12h-1.834z" fill="#372b20"/><path d="M51.894 44.11h1.834v2.054h-1.834z" fill="#ffcc80"/><path d="M51.894 44.204h1.834v.122h-1.834zm0 .163h1.834v.12h-1.834zm0 1.378h1.834v.121h-1.834zm0 .163h1.834v.12h-1.834z" fill="#372b20"/><path d="M53.91 44.11h1.834v2.054h-1.833z" fill="#ffcc80"/><path d="M53.91 44.204h1.834v.122h-1.833zm0 .163h1.834v.12h-1.833zm0 1.378h1.834v.121h-1.833zm0 .163h1.834v.12h-1.833z" fill="#372b20"/><path d="M55.927 44.11h1.834v2.054h-1.834z" fill="#ffcc80"/><path d="M55.927 44.204h1.834v.122h-1.834zm0 .163h1.834v.12h-1.834zm0 1.378h1.834v.121h-1.834zm0 .163h1.834v.12h-1.834z" fill="#372b20"/><path d="M57.944 44.11h1.834v2.054h-1.834z" fill="#ffcc80"/><path d="M57.944 44.204h1.834v.122h-1.834zm0 .163h1.834v.12h-1.834zm0 1.378h1.834v.121h-1.834zm0 .163h1.834v.12h-1.834z" fill="#372b20"/><path d="M59.96 44.11h1.835v2.054H59.96z" fill="#ffcc80"/><path d="M59.96 44.204h1.835v.122H59.96zm0 .163h1.835v.12H59.96zm0 1.378h1.835v.121H59.96zm0 .163h1.835v.12H59.96z" fill="#372b20"/><path d="M61.977 44.11h1.834v2.054h-1.834z" fill="#ffcc80"/><path d="M61.977 44.204h1.834v.122h-1.834zm0 .163h1.834v.12h-1.834zm0 1.378h1.834v.121h-1.834zm0 .163h1.834v.12h-1.834z" fill="#372b20"/><path d="M63.994 44.11h1.834v2.054h-1.834z" fill="#ffcc80"/><path d="M63.994 44.204h1.834v.122h-1.834zm0 .163h1.834v.12h-1.834zm0 1.378h1.834v.121h-1.834zm0 .163h1.834v.12h-1.834z" fill="#372b20"/><path d="M66.01 44.11h1.834v2.054h-1.833z" fill="#ffcc80"/><path d="M66.01 44.204h1.834v.122h-1.833zm0 .163h1.834v.12h-1.833zm0 1.378h1.834v.121h-1.833zm0 .163h1.834v.12h-1.833z" fill="#372b20"/><path d="M47.96 35.783h1.636v.803H47.96zm2.016.0h1.637v.803h-1.637zm-2.016 6.714h1.636v.803H47.96zm2.016.0h1.637v.803h-1.637zM47.96 38.02h1.636v.804H47.96zm2.016.0h1.637v.804h-1.637zm2.017.0h1.636v.804h-1.636zm2.017.0h1.635v.804H54.01zm-6.05 2.24h1.636v.803H47.96zm2.016.0h1.637v.803h-1.637zm2.017.0h1.636v.803h-1.636zm2.017.0h1.635v.803H54.01z" fill="#fce68d"/><path d="M69.631 35.148h2.882v7.778H69.63z" fill="#fadd60"/><g transform="matrix(.15312 0 0 .15325 -163.94 -66.36)" fill="#4fc3f7"><circle cx="1524.249" cy="651.7" r="4.42"/><circle r="4.42" cy="651.7" cx="1534.832"/><circle cx="1545.416" cy="651.7" r="4.42"/></g></g></svg>