<svg xmlns:dc="http://purl.org/dc/elements/1.1/" xmlns:cc="http://creativecommons.org/ns#" xmlns:rdf="http://www.w3.org/1999/02/22-rdf-syntax-ns#" xmlns:svg="http://www.w3.org/2000/svg" xmlns="http://www.w3.org/2000/svg" xmlns:sodipodi="http://sodipodi.sourceforge.net/DTD/sodipodi-0.dtd" xmlns:inkscape="http://www.inkscape.org/namespaces/inkscape" width="355" height="240" viewBox="0 0 93.927 63.5" id="svg138" sodipodi:docname="secure-dapps.64e82181.svg" inkscape:version="0.92.4 (5da689c313, 2019-01-14)" inkscape:export-filename="C:\Users\Ramòn David Fajardo\Desktop\secure-dapps.64e82181.png" inkscape:export-xdpi="96" inkscape:export-ydpi="96"><defs id="defs142"/><sodipodi:namedview pagecolor="#ffffff" bordercolor="#666666" borderopacity="1" objecttolerance="10" gridtolerance="10" guidetolerance="10" inkscape:pageopacity="0" inkscape:pageshadow="2" inkscape:window-width="1920" inkscape:window-height="1017" id="namedview140" showgrid="false" inkscape:zoom="2" inkscape:cx="79.554554" inkscape:cy="120" inkscape:window-x="-8" inkscape:window-y="-8" inkscape:window-maximized="1" inkscape:current-layer="svg138"/><g transform="matrix(.50527 0 0 .50527 101.748 26.12)" id="g136" stroke-width="1.979"><path d="M-100.505 60.127h-23.452l2.82-13.785h17.81z" id="path2" fill="#b3b3b3"/><path d="M-66.766 40.093V-6.915A2.056 2.056.0 00-68.82-8.97h-86.823a2.056 2.056.0 00-2.055 2.055v47.008z" id="path4" fill="#141417"/><path d="M-157.699 39.064v9.506a2.056 2.056.0 002.055 2.054h86.823a2.056 2.056.0 002.056-2.054v-9.506z" id="path6" fill="#ccc"/><path d="M-154.784-5.846h85.105v42.428h-85.105z" id="path8" fill="#e8eaf6"/><path d="M-110.949 44.844a1.284 1.284.0 11-2.568.0 1.284 1.284.0 012.568.0" id="path10" fill="#141417"/><path d="M-98.405 59.015h-27.656v2.397h27.656z" id="path12" fill="#ccc"/><path d="M-96.32 13.59c-.05-.45-.575-.788-1.03-.788-1.467.0-2.77-.862-3.316-2.195a3.567 3.567.0 01.896-3.96.89.89.0 00.098-1.207 15.845 15.845.0 00-2.537-2.562.891.891.0 00-1.217.098c-.954 1.057-2.669 1.45-3.994.898a3.557 3.557.0 01-2.163-3.477.888.888.0 00-.786-.935 15.987 15.987.0 00-3.603-.01.891.891.0 00-.792.917 3.564 3.564.0 01-2.192 3.417c-1.31.534-3.012.144-3.965-.903a.893.893.0 00-1.208-.102 15.905 15.905.0 00-2.59 2.561.891.891.0 00.095 1.218 3.548 3.548.0 01.896 3.994c-.553 1.317-1.92 2.165-3.485 2.165a.87.87.0 00-.924.786 16.041 16.041.0 00-.007 3.641c.05.452.59.788 1.05.788 1.394-.035 2.732.828 3.294 2.194.56 1.365.2 2.955-.895 3.96a.89.89.0 00-.098 1.207 15.903 15.903.0 002.534 2.562.89.89.0 001.22-.096c.956-1.06 2.67-1.452 3.99-.899a3.551 3.551.0 012.167 3.476.89.89.0 00.786.936 15.917 15.917.0 003.602.01.891.891.0 00.793-.918 3.56 3.56.0 012.191-3.415c1.318-.538 3.013-.144 3.966.903a.895.895.0 001.208.1 15.942 15.942.0 002.59-2.56.889.889.0 00-.095-1.218 3.548 3.548.0 01-.897-3.994 3.584 3.584.0 013.275-2.17l.2.005c.457.037.88-.317.935-.785.142-1.204.144-2.43.008-3.642zm-15.887 7.152a5.347 5.347.0 01-5.34-5.34 5.347 5.347.0 015.34-5.342 5.347 5.347.0 015.341 5.34 5.347 5.347.0 01-5.34 5.342z" id="path14" clip-rule="evenodd" fill-rule="evenodd" fill="#012c4f"/><path d="M-62.288 57.157h-23.039v-31.25h23.04z" id="path16" fill="#e8eaf6"/><path d="M-62.147 57.157h-23.19V25.95h23.19zm2.992-32.998a1.523 1.523.0 00-1.523-1.522H-86.7a1.523 1.523.0 00-1.523 1.523v34.68c0 .842.681 1.523 1.523 1.523h26.023a1.523 1.523.0 001.523-1.523z" id="path18" fill="#141417"/><path d="M-66.766 40.745c-.022-.2-.255-.349-.455-.349a1.574 1.574.0 01-1.468-.97 1.579 1.579.0 01.397-1.753.394.394.0 00.043-.535 7.012 7.012.0 00-1.122-1.133.394.394.0 00-.539.043c-.423.468-1.182.642-1.768.397a1.574 1.574.0 01-.957-1.538.393.393.0 00-.348-.414 7.074 7.074.0 00-1.593-.004.394.394.0 00-.35.405 1.576 1.576.0 01-.97 1.512c-.58.237-1.334.064-1.756-.4a.395.395.0 00-.534-.044 7.038 7.038.0 00-1.146 1.133.394.394.0 00.041.54 1.569 1.569.0 01.396 1.767c-.244.582-.848.957-1.54.957a.385.385.0 00-.41.35 7.098 7.098.0 00-.004 1.61c.023.2.262.348.465.348a1.554 1.554.0 011.458.971 1.576 1.576.0 01-.396 1.752.394.394.0 00-.043.535c.33.42.707.8 1.12 1.134a.394.394.0 00.54-.043c.424-.469 1.183-.643 1.766-.397a1.571 1.571.0 01.96 1.538.394.394.0 00.347.414 7.043 7.043.0 001.594.004.394.394.0 00.351-.406 1.575 1.575.0 01.97-1.512c.583-.237 1.333-.063 1.754.4a.396.396.0 00.535.044 7.055 7.055.0 001.146-1.133.394.394.0 00-.042-.538 1.57 1.57.0 01-.397-1.768 1.586 1.586.0 011.45-.96l.087.002a.394.394.0 00.415-.348 7.09 7.09.0 00.003-1.61zm-7.03 3.166a2.366 2.366.0 01-2.363-2.364 2.366 2.366.0 012.363-2.364 2.366 2.366.0 012.364 2.364 2.366 2.366.0 01-2.364 2.364z" id="path20" clip-rule="evenodd" fill-rule="evenodd" fill="#012c4f"/><path d="M-135.17 56.586h-10.605V37.702h10.605zm-4.069-20.329a.281.281.0 01-.28.282h-1.908a.281.281.0 01-.282-.282v-.017c0-.156.126-.282.282-.282h1.906c.156.0.282.126.282.282zm4.94-.553a1.78 1.78.0 00-1.78-1.78h-8.933a1.78 1.78.0 00-1.78 1.78v22.88a1.78 1.78.0 001.78 1.78h8.933a1.78 1.78.0 001.78-1.78z" id="path22" fill="#141417"/><path d="M-135.17 56.586h-10.602V37.702h10.602z" id="path24" fill="#e8eaf6"/><path d="M-136.72 46.725c-.013-.106-.136-.186-.244-.186a.838.838.0 01-.78-.518.84.84.0 01.21-.933.21.21.0 00.023-.284 3.735 3.735.0 00-.597-.604.21.21.0 00-.287.023.87.87.0 01-.942.212.838.838.0 01-.51-.82.21.21.0 00-.185-.22 3.768 3.768.0 00-.85-.003.21.21.0 00-.185.216.84.84.0 01-.517.805.872.872.0 01-.935-.212.21.21.0 00-.285-.024 3.749 3.749.0 00-.61.604.21.21.0 00.022.286.836.836.0 01.211.942c-.13.31-.453.51-.822.51a.205.205.0 00-.217.186 3.776 3.776.0 00-.002.858c.012.107.14.186.247.186a.827.827.0 01.778.517.84.84.0 01-.212.933.21.21.0 00-.023.285c.176.223.377.426.597.603a.21.21.0 00.288-.022.869.869.0 01.94-.212.838.838.0 01.511.82.21.21.0 00.186.22 3.752 3.752.0 00.848.002.21.21.0 00.187-.216.841.841.0 01.517-.805.871.871.0 01.934.213.21.21.0 00.285.023c.226-.177.432-.38.61-.603a.21.21.0 00-.022-.287.837.837.0 01-.21-.942.845.845.0 01.771-.51h.047a.21.21.0 00.22-.185c.034-.284.034-.573.003-.858zm-3.745 1.686a1.26 1.26.0 01-1.26-1.26 1.26 1.26.0 012.518.0 1.26 1.26.0 01-1.258 1.26z" id="path26" clip-rule="evenodd" fill-rule="evenodd" fill="#012c4f"/><g id="g68" fill="#012c4f"><path d="M-73.654-20.114l-2.965 2.894 5.86.072z" id="path28" fill-rule="evenodd"/><g transform="translate(-559.948 243.142) scale(.66093)" id="g66"><circle r="1.035" cy="-390.81" cx="735.714" id="circle30"/><circle cx="735.714" cy="-386.577" r="1.035" id="circle32"/><circle r="1.035" cy="-382.343" cx="735.714" id="circle34"/><circle cx="735.714" cy="-378.11" r="1.035" id="circle36"/><circle r="1.035" cy="-373.877" cx="735.714" id="circle38"/><circle cx="735.714" cy="-369.644" r="1.035" id="circle40"/><circle r="1.035" cy="-365.41" cx="735.714" id="circle42"/><circle cx="735.714" cy="-361.177" r="1.035" id="circle44"/><circle r="1.035" cy="-356.944" cx="735.714" id="circle46"/><circle cx="735.714" cy="-352.71" r="1.035" id="circle48"/><circle r="1.035" cy="-348.477" cx="735.714" id="circle50"/><circle cx="735.714" cy="-344.244" r="1.035" id="circle52"/><circle r="1.035" cy="-340.01" cx="735.714" id="circle54"/><circle cx="735.714" cy="-335.777" r="1.035" id="circle56"/><circle r="1.035" cy="-331.544" cx="735.714" id="circle58"/><circle cx="735.714" cy="-327.31" r="1.035" id="circle60"/><circle r="1.035" cy="-323.077" cx="735.714" id="circle62"/><circle cx="735.714" cy="-318.844" r="1.035" id="circle64"/></g></g><g transform="translate(-553.594 243.142) scale(.66093)" id="g114" fill="#012c4f"><path d="M625-398.309l-4.487 4.378 8.866.11z" id="path70" fill-rule="evenodd"/><circle r="1.035" cy="-390.81" cx="624.946" id="circle72"/><circle cx="624.946" cy="-386.577" r="1.035" id="circle74"/><circle r="1.035" cy="-382.343" cx="624.946" id="circle76"/><circle cx="624.946" cy="-378.11" r="1.035" id="circle78"/><circle r="1.035" cy="-373.877" cx="624.946" id="circle80"/><circle cx="624.946" cy="-369.644" r="1.035" id="circle82"/><circle r="1.035" cy="-365.41" cx="624.946" id="circle84"/><circle cx="624.946" cy="-361.177" r="1.035" id="circle86"/><circle r="1.035" cy="-356.944" cx="624.946" id="circle88"/><circle cx="624.946" cy="-352.71" r="1.035" id="circle90"/><circle r="1.035" cy="-348.477" cx="624.946" id="circle92"/><circle cx="624.946" cy="-344.244" r="1.035" id="circle94"/><circle r="1.035" cy="-340.01" cx="624.946" id="circle96"/><circle cx="624.946" cy="-335.777" r="1.035" id="circle98"/><circle r="1.035" cy="-331.544" cx="624.946" id="circle100"/><circle cx="624.946" cy="-327.31" r="1.035" id="circle102"/><circle r="1.035" cy="-323.077" cx="624.946" id="circle104"/><circle cx="624.946" cy="-318.844" r="1.035" id="circle106"/><circle r="1.035" cy="-314.611" cx="624.946" id="circle108"/><circle cx="624.946" cy="-310.377" r="1.035" id="circle110"/><circle r="1.035" cy="-306.144" cx="624.946" id="circle112"/></g><g transform="translate(-539.27 243.142) scale(.66093)" id="g128" fill="#012c4f"><path d="M646.167-398.309l-4.487 4.378 8.866.11z" id="path116" fill-rule="evenodd"/><circle cx="646.113" cy="-390.81" r="1.035" id="circle118"/><circle r="1.035" cy="-386.577" cx="646.113" id="circle120"/><circle cx="646.113" cy="-382.343" r="1.035" id="circle122"/><circle r="1.035" cy="-378.11" cx="646.113" id="circle124"/><circle cx="646.113" cy="-373.877" r="1.035" id="circle126"/></g><rect rx="4.3902102" ry="4.6298237" y="-39.390823" x="-160.96701" height="14.862795" width="103.50703" id="rect130" style="fill:#012c4f;stroke-width:1.984025"/><g style="line-height:1.25;-inkscape-font-specification:bosun" id="g134"/></g><g aria-label="mintMe.com Coin" style="font-style:normal;font-weight:400;font-size:5.44062614px;line-height:1.25;font-family:sans-serif;letter-spacing:0;word-spacing:0;fill:#000;fill-opacity:1;stroke:none;stroke-width:.13601565" id="text959"><path d="m23.978046 9.2450334t.125134-.043525q.130575-.048966.3482-.1033719.217626-.059847.505979-.1033719.288353-.048966.61479-.048966.239388.0.402607.048966.168659.043525.277472.1033719.212184-.054406.484215-.1033719.272032-.048966.582147-.048966.288354.0.467894.054406.184982.048966.288353.1414563.108813.08705.146897.2013031.04352.1088126.04352.233947.0.1196937-.0272.2393875-.02176.1196938-.04896.2230659l-.484216 1.811728h-.924907l.408047-1.523375q.04352-.168659.08161-.310116.04352-.141456.04896-.2448279.0054-.1033719-.04352-.1632188-.04897-.059847-.17954-.059847-.103372.0-.206744.021762-.09793.016322-.1741.043525-.09249.027203-.1741.065288-.0054.027203-.01632.059847-.0054.027203-.0272.1033719-.02176.070728-.05985.2067438-.03264.130575-.09793.364522-.05985.233947-.152338.582147-.09249.3482-.228506.854178h-.924907l.408047-1.523375q.04353-.163219.08161-.304675.04352-.146897.04352-.2502689.0054-.1033719-.04352-.1632188-.04352-.059847-.1741-.059847-.103372.0-.206744.021762-.09793.016322-.1741.043525-.09249.027203-.1741.065288l-.582147 2.1708095h-.919466z" style="font-style:italic;font-variant:normal;font-weight:900;font-stretch:normal;font-family:PaloAlto;-inkscape-font-specification:'PaloAlto Heavy Italic';fill:#fff;fill-opacity:1;stroke-width:.13601565" id="path969"/><path d="m29.101416 9.0274083h.924906l-.756247 2.8236847h-.919466zm1.017397-.3536407h-.924907l.190422-.7072814h.924907z" style="font-style:italic;font-variant:normal;font-weight:900;font-stretch:normal;font-family:PaloAlto;-inkscape-font-specification:'PaloAlto Heavy Italic';fill:#fff;fill-opacity:1;stroke-width:.13601565" id="path971"/><path d="m30.640688 9.2450334t.146896-.043525q.152338-.048966.397166-.1033719.244828-.059847.554944-.1033719.310116-.048966.636553-.048966.288353.0.467894.054406.184981.048966.288353.1414563.108813.08705.146897.2013031.04353.1088126.04353.233947.0.1196937-.0272.2393875-.02176.1196938-.04897.2230659l-.484215 1.811728h-.924907l.408047-1.523375q.03809-.146897.07073-.282913.03808-.1414559.0272-.2502684-.0054-.1088125-.08705-.1741-.07617-.070728-.26659-.070728-.103372.0-.201303.021762-.09249.016322-.16866.043525-.08705.027203-.163219.065288l-.582147 2.1708095h-.919465z" style="font-style:italic;font-variant:normal;font-weight:900;font-stretch:normal;font-family:PaloAlto;-inkscape-font-specification:'PaloAlto Heavy Italic';fill:#fff;fill-opacity:1;stroke-width:.13601565" id="path973"/><path d="m35.590382 9.6258772h-.582147l-.342759 1.2948688q-.03808.130575-.01632.195863.02176.06529.08705.09249.07073.02176.184981.02176.114254-.0054.26115-.0054l-.168659.625672q-.119694.01088-.277472.02176t-.320997.01088q-.157778.0-.299234-.01632-.136016-.01632-.217625-.06529-.07617-.04352-.130575-.103372-.05441-.05985-.08705-.141457-.0272-.08705-.0272-.206743.0054-.119694.04897-.277472L34.08877 9.6258772h-.462454l.163219-.5984689h.462453L34.480495 8.17323h.924906l-.233947.8541783h.582147z" style="font-style:italic;font-variant:normal;font-weight:900;font-stretch:normal;font-family:PaloAlto;-inkscape-font-specification:'PaloAlto Heavy Italic';fill:#fff;fill-opacity:1;stroke-width:.13601565" id="path975"/><path d="m38.065613 7.9664862q-.01632.4842158-.03264.8813815-.0054.1686594-.01088.3373188-.0054.1686594-.01088.3101157.0.1414563-.0054.2448281.0.1033719.0.1414563.0.1088126-.01088.2557094-.0054.141456-.01632.272031-.01088.152338-.02176.310116h.01088q.07073-.157778.141457-.310116.05985-.130575.125134-.272031.07073-.1468968.130575-.2557094.02176-.038084.07073-.1414563.05441-.1033718.125135-.2448281.07073-.1414563.152337-.3101157.08705-.1686594.1741-.3373188.201303-.3971657.440691-.8813815h1.490731l-.821534 3.8846068h-1.006516l.625672-2.9488191h-.01088l-1.539697 2.9488191h-.816094l.03808-2.9488191h-.01088l-.95211 2.9488191h-1.001075l1.251344-3.8846068z" style="font-style:italic;font-variant:normal;font-weight:900;font-stretch:normal;font-family:PaloAlto;-inkscape-font-specification:'PaloAlto Heavy Italic';fill:#fff;fill-opacity:1;stroke-width:.13601565" id="path977"/><path d="m42.910235 10.104652q.02176-.1196935.01632-.2230654-.0054-.1033719-.04897-.1795406-.04353-.076169-.136016-.1196938-.08705-.043525-.228506-.043525-.288353.0-.467894.1523375-.1741.1523375-.282912.4134873zm-1.30031.565825q-.0272.114254-.01632.233947.01088.114253.07617.212185.06529.09249.190422.157778.125134.05985.331878.05985.136016.0.299234-.0272.16866-.03264.331879-.07617.168659-.04353.326437-.09249.157778-.05441.282913-.103372l-.326438.729044q-.0054.01088-.114253.03809-.108812.0272-.277472.05441-.168659.03264-.375403.05441-.206744.02176-.402606.02176-.369963.0-.636554-.103372-.26115-.103372-.418928-.293794-.152337-.195863-.190422-.473334-.03264-.282913.05985-.636554.09793-.364522.293794-.6419936.195862-.277472.451572-.4624533.255709-.1904219.560384-.2829125.304675-.097931.614791-.097931.299235.0.5223.092491.223066.092491.359082.2557095.141456.1632188.195862.3808438.05985.2121844.03264.4570128-.01632.130575-.04897.26659-.0272.136016-.08705.277472z" style="font-style:italic;font-variant:normal;font-weight:900;font-stretch:normal;font-family:PaloAlto;-inkscape-font-specification:'PaloAlto Heavy Italic';fill:#fff;fill-opacity:1;stroke-width:.13601565" id="path979"/><path d="m44.214116 11.851093q-.04897.0-.07617-.03264-.0272-.03809-.01088-.09249l.201303-.761688q.01632-.05441.05985-.08705.04353-.03808.09249-.03808h.772569q.04897.0.07617.03808.0272.03264.01088.08705l-.201303.761688q-.01632.05441-.05985.09249-.04353.03264-.09249.03264z" style="font-style:italic;font-variant:normal;font-weight:900;font-stretch:normal;font-family:PaloAlto;-inkscape-font-specification:'PaloAlto Heavy Italic';fill:#fff;fill-opacity:1;stroke-width:.13601565" id="path981"/><path d="m46.642844 10.447412q-.04897.184981-.03808.3482.01088.163219.08705.282912.07617.119694.217625.190422.146897.06529.364522.06529.136015.0.26659-.0272.130575-.03264.25571-.07617.130575-.04353.250268-.09249.125135-.05441.250269-.103372l-.184981.69096q-.09793.0272-.212184.06529-.108813.03264-.250269.06529-.141457.03264-.326438.05441-.17954.02176-.413487.02176-.369963.0-.636554-.103372-.26115-.103372-.418928-.293794-.152337-.195863-.190422-.473334-.03264-.282913.05985-.636554.09249-.342759.277472-.6147905.184981-.2774719.440691-.4678939.255709-.1958625.576706-.2992344.320997-.1033719.69096-.1033719.233947.0.402606.021762.168659.021763.293794.054406.125134.032644.217625.070728.09249.032644.179541.059847l-.184982.6909595q-.09793-.048966-.195862-.097931-.09249-.054406-.195863-.097931-.103372-.043525-.217625-.070728-.114253-.032644-.250269-.032644-.217625.0-.402606.076169-.179541.070728-.326438.1958626-.141456.1251344-.239387.2883535-.09793.163218-.146897.3482z" style="font-style:italic;font-variant:normal;font-weight:900;font-stretch:normal;font-family:PaloAlto;-inkscape-font-specification:'PaloAlto Heavy Italic';fill:#fff;fill-opacity:1;stroke-width:.13601565" id="path983"/><path d="m49.654997 10.441971q-.04897.1741-.06529.337319-.01632.157778.01088.282913.03264.125134.119693.201303.09249.07073.266591.07073.168659.0.299234-.07073.136016-.07617.233947-.201303.09793-.125135.163219-.282913.07073-.163219.119694-.337319.04897-.179541.06529-.342759.02176-.1632191-.01088-.2883535t-.125134-.1958626q-.09249-.076169-.26115-.076169t-.299235.076169q-.130575.070728-.228506.1958626-.09793.1251344-.168659.2883535-.07073.163218-.119694.342759zm-.908585-.0054q.08161-.315556.25571-.5875871.1741-.277472.418928-.4733345.244828-.2013032.549503-.3155563.310116-.1196938.658316-.1196938t.593028.1142532q.250269.1142531.386285.3155563.141456.2013031.168659.4787751.0272.2720311-.05441.5875871-.08705.320997-.26115.593029-.1741.272031-.418928.473334-.244829.201303-.554944.315557-.310116.114253-.658316.114253t-.593028-.114253q-.244829-.119694-.380844-.315557-.136016-.201303-.163219-.473334-.0272-.272032.05441-.593029z" style="font-style:italic;font-variant:normal;font-weight:900;font-stretch:normal;font-family:PaloAlto;-inkscape-font-specification:'PaloAlto Heavy Italic';fill:#fff;fill-opacity:1;stroke-width:.13601565" id="path985"/><path d="m52.498828 9.2450334t.125135-.043525q.130575-.048966.3482-.1033719.217625-.059847.505978-.1033719.288353-.048966.614791-.048966.239387.0.402606.048966.16866.043525.277472.1033719.212185-.054406.484216-.1033719.272031-.048966.582147-.048966.288353.0.467894.054406.184981.048966.288353.1414563.108812.08705.146897.2013031.04353.1088126.04353.233947.0.1196937-.0272.2393875-.02176.1196938-.04897.2230659l-.484216 1.811728h-.924906l.408047-1.523375q.04352-.168659.08161-.310116.04352-.141456.04897-.2448279.0054-.1033719-.04353-.1632188-.04897-.059847-.179541-.059847-.103372.0-.206744.021762-.09793.016322-.1741.043525-.09249.027203-.1741.065288-.0054.027203-.01632.059847-.0054.027203-.0272.1033719-.02176.070728-.05985.2067438-.03264.130575-.09793.364522-.05985.233947-.152337.582147-.09249.3482-.228507.854178H53.55431l.408047-1.523375q.04353-.163219.08161-.304675.04353-.146897.04353-.2502689.0054-.1033719-.04353-.1632188-.04352-.059847-.1741-.059847-.103372.0-.206744.021762-.09793.016322-.1741.043525-.09249.027203-.1741.065288L52.732775 11.851093H51.81331z" style="font-style:italic;font-variant:normal;font-weight:900;font-stretch:normal;font-family:PaloAlto;-inkscape-font-specification:'PaloAlto Heavy Italic';fill:#fff;fill-opacity:1;stroke-width:.13601565" id="path987"/><path d="m59.849881 9.9142304q-.06529.2448286-.06529.4787746.0054.228507.08705.408047.08705.179541.255709.288354.1741.103372.446131.103372.1741.0.364522-.03809.190422-.03808.375404-.09793.190421-.05985.369962-.130575.184981-.07073.34276-.136016l-.233947.86506q-.125135.03264-.266591.08161-.136016.04897-.315556.09249-.179541.03808-.408047.06529-.223066.03264-.5223.03264-.457013.0-.788891-.141456-.326438-.141457-.511419-.408047-.184981-.266591-.223066-.641994-.03808-.380844.08705-.8541784.119694-.4515719.359082-.8215345.239387-.3699626.565825-.6311127.326437-.2665906.729044-.4080469.408047-.1468969.865059-.1468969.299235.0.511419.032644.212184.027203.364522.070728.157778.038084.272031.08705.119694.043525.223066.081609l-.228506.8596189q-.125135-.059847-.272032-.130575-.141456-.070728-.299234-.1251344-.157778-.059847-.326438-.097931-.168659-.038084-.342759-.038084-.272031.0-.500538.1142532Q60.5354 8.8369864 60.350419 9.0219677 60.170878 9.206949 60.040303 9.4408959 59.915169 9.6694022 59.849881 9.9142304z" style="font-style:italic;font-variant:normal;font-weight:900;font-stretch:normal;font-family:PaloAlto;-inkscape-font-specification:'PaloAlto Heavy Italic';fill:#fff;fill-opacity:1;stroke-width:.13601565" id="path989"/><path d="m63.384077 10.441971q-.04897.1741-.06529.337319-.01632.157778.01088.282913.03264.125134.119694.201303.09249.07073.26659.07073.16866.0.299235-.07073.136015-.07617.233947-.201303.09793-.125135.163218-.282913.07073-.163219.119694-.337319.04897-.179541.06529-.342759.02176-.1632191-.01088-.2883535t-.125134-.1958626q-.09249-.076169-.26115-.076169-.168659.0-.299234.076169-.130575.070728-.228507.1958626-.09793.1251344-.168659.2883535-.07073.163218-.119694.342759zm-.908585-.0054q.08161-.315556.25571-.5875871.1741-.277472.418928-.4733345.244828-.2013032.549503-.3155563.310116-.1196938.658316-.1196938t.593028.1142532q.250269.1142531.386285.3155563.141456.2013031.168659.4787751.0272.2720311-.05441.5875871-.08705.320997-.26115.593029-.1741.272031-.418928.473334t-.554944.315557q-.310116.114253-.658316.114253t-.593028-.114253q-.244828-.119694-.380844-.315557-.136016-.201303-.163219-.473334-.0272-.272032.05441-.593029z" style="font-style:italic;font-variant:normal;font-weight:900;font-stretch:normal;font-family:PaloAlto;-inkscape-font-specification:'PaloAlto Heavy Italic';fill:#fff;fill-opacity:1;stroke-width:.13601565" id="path991"/><path d="m66.293196 9.0274083h.924907L66.461856 11.851093H65.54239zm1.017397-.3536407h-.924906l.190422-.7072814h.924906z" style="font-style:italic;font-variant:normal;font-weight:900;font-stretch:normal;font-family:PaloAlto;-inkscape-font-specification:'PaloAlto Heavy Italic';fill:#fff;fill-opacity:1;stroke-width:.13601565" id="path993"/><path d="m67.83247 9.2450334t.146896-.043525q.152338-.048966.397166-.1033719.244828-.059847.554944-.1033719.310116-.048966.636553-.048966.288353.0.467894.054406.184981.048966.288353.1414563.108813.08705.146897.2013031.04353.1088126.04353.233947.0.1196937-.0272.2393875-.02176.1196938-.04897.2230659l-.484215 1.811728h-.924907l.408047-1.523375q.03808-.146897.07073-.282913.03808-.1414559.0272-.2502684-.0054-.1088125-.08705-.1741-.07617-.070728-.26659-.070728-.103372.0-.201303.021762-.09249.016322-.16866.043525-.08705.027203-.163219.065288l-.582147 2.1708095h-.919465z" style="font-style:italic;font-variant:normal;font-weight:900;font-stretch:normal;font-family:PaloAlto;-inkscape-font-specification:'PaloAlto Heavy Italic';fill:#fff;fill-opacity:1;stroke-width:.13601565" id="path995"/></g></svg>