<svg xmlns="http://www.w3.org/2000/svg" width="355" height="240" viewBox="0 0 93.927 63.5"><g transform="matrix(.6 0 0 .6 -88.443 43.183)" stroke-width="1.667"><rect width="140.504" height="61.796" x="153.103" y="-38.517" ry="11.925" rx="11.925" fill="#012c4f"/><g style="line-height:1.25;-inkscape-font-specification:'Futura Std Bold Condensed'"><path word-spacing="0" letter-spacing="0" font-size="20.528" font-stretch="condensed" font-weight="700" aria-label="ICO" d="M170.153-28.35v15.478h3.058V-28.35zm12.971.103a4.559 4.559.0 00-1.56-.288c-4.168.0-6.713 3.942-6.713 7.78.0 4.065 2.443 8.048 6.856 8.048.493.0.965-.082 1.417-.267v-2.895c-.39.124-.78.226-1.17.226-2.67.0-3.84-2.833-3.84-5.132.0-2.381 1.17-4.824 3.86-4.824.39.0.76.062 1.15.164zm6.428-.349c-2.73.0-5.44 2.176-5.44 7.985.0 5.81 2.71 7.986 5.44 7.986s5.44-2.176 5.44-7.986-2.71-7.985-5.44-7.985zm-2.176 7.985c0-1.375.144-5.152 2.176-5.152 2.033.0 2.176 3.777 2.176 5.152.0 1.232-.143 5.153-2.176 5.153-2.032.0-2.176-3.921-2.176-5.153z" style="-inkscape-font-specification:'Futura Std Bold Condensed'" font-family="Futura Std" fill="#fafafa"/></g><path word-spacing="0" letter-spacing="0" font-size="10.373" font-weight="400" aria-label="Initial Coin Offering" d="M170.538-1.064V-8.47h.86v7.405zm6.569.0v-3.591q0-.68-.309-1.013-.309-.335-.967-.335-.872.0-1.277.471-.405.471-.405 1.555v2.913h-.84v-5.552h.683l.137.76h.04q.259-.41.725-.633.466-.228 1.038-.228 1.003.0 1.51.486.506.482.506 1.545v3.622zm3.403.0h-.84v-5.552h.84zm-.91-7.056q0-.289.14-.42.143-.137.355-.137.203.0.35.137.147.136.147.42t-.147.426q-.147.136-.35.136-.212.0-.354-.136-.142-.142-.142-.426zm4.497 6.463q.223.0.43-.03.208-.036.33-.071v.643q-.137.066-.406.107-.263.045-.476.045-1.61.0-1.61-1.697v-3.302h-.796v-.405l.796-.35.354-1.185h.486v1.286h1.611v.654h-1.61v3.267q0 .501.237.77.239.268.654.268zm2.715.593h-.841v-5.552h.84zM185.9-8.12q0-.289.142-.42.142-.137.354-.137.203.0.35.137.147.136.147.42t-.147.426q-.147.136-.35.136-.212.0-.354-.136-.142-.142-.142-.426zm6.119 7.056-.167-.79h-.04q-.416.521-.832.709-.41.182-1.028.182-.825.0-1.296-.425-.466-.426-.466-1.21.0-1.683 2.69-1.764l.941-.03v-.344q0-.654-.283-.963-.279-.314-.897-.314-.694.0-1.57.426l-.258-.644q.41-.222.896-.35.491-.126.983-.126.992.0 1.469.441.48.44.48 1.413v3.789zm-1.9-.593q.785.0 1.231-.43.45-.43.45-1.206v-.501l-.84.035q-1.003.036-1.449.314-.44.274-.44.856.0.456.273.694.279.238.775.238zm5.101.593h-.84v-7.881h.84zm-21.512 5.188q-1.22.0-1.93.815-.703.81-.703 2.224.0 1.453.678 2.248.684.79 1.945.79.775.0 1.768-.278v.755q-.77.288-1.9.288-1.635.0-2.527-.992-.886-.993-.886-2.822.0-1.144.425-2.005.43-.861 1.236-1.327.81-.466 1.904-.466 1.165.0 2.037.425l-.365.74q-.84-.395-1.682-.395zm8.039 3.96q0 1.358-.684 2.123-.684.76-1.89.76-.744.0-1.321-.35-.578-.35-.892-1.003t-.314-1.53q0-1.357.679-2.112.679-.76 1.884-.76 1.165.0 1.849.775.689.775.689 2.097zm-4.23.0q0 1.064.426 1.621.425.557 1.25.557.826.0 1.252-.552.43-.557.43-1.626.0-1.058-.43-1.605-.426-.552-1.261-.552-.826.0-1.246.542-.42.542-.42 1.615zm6.539 2.781h-.84V5.314h.84zm-.911-7.056q0-.288.141-.42.142-.137.355-.137.203.0.35.137.146.137.146.42.0.284-.146.426-.147.137-.35.137-.213.0-.355-.137-.141-.142-.141-.426zm6.503 7.056V7.274q0-.679-.309-1.013t-.967-.334q-.871.0-1.277.47-.405.472-.405 1.556v2.912h-.84V5.314h.683l.137.76h.04q.259-.41.725-.634.466-.227 1.038-.227 1.003.0 1.51.486.506.48.506 1.545v3.621zm11.812-3.713q0 1.778-.902 2.796-.896 1.018-2.497 1.018-1.636.0-2.527-.997-.886-1.003-.886-2.827.0-1.808.891-2.8.891-.999 2.533-.999 1.595.0 2.492 1.014.896 1.013.896 2.795zm-5.9.0q0 1.505.637 2.285.644.775 1.864.775 1.231.0 1.86-.775.627-.775.627-2.285.0-1.494-.628-2.264-.623-.775-1.848-.775-1.231.0-1.875.78-.638.775-.638 2.26zm13.447-1.185h-1.413v4.898h-.84V5.967h-.994v-.38l.993-.304v-.309q0-2.046 1.788-2.046.44.0 1.033.177l-.217.674q-.487-.157-.831-.157-.476.0-.704.32-.228.313-.228 1.012v.36h1.413zm-3.515.0h-1.413v4.898h-.841V5.967h-.993v-.38l.993-.304v-.309q0-2.046 1.788-2.046.44.0 1.033.177l-.218.674q-.486-.157-.83-.157-.476.0-.704.32-.228.313-.228 1.012v.36h1.413zm6.873 4.999q-1.23.0-1.945-.75-.709-.749-.709-2.08.0-1.343.659-2.133.663-.79 1.777-.79 1.044.0 1.652.688.607.684.607 1.809v.531h-3.824q.026.978.492 1.485.47.506 1.322.506.896.0 1.772-.375v.75q-.445.192-.845.273-.396.086-.958.086zm-.228-5.05q-.668.0-1.068.436-.395.436-.466 1.206h2.902q0-.796-.355-1.216-.354-.425-1.013-.425zm6.23-.703q.37.0.664.06l-.117.78q-.344-.076-.607-.076-.674.0-1.155.547-.476.547-.476 1.363v2.978h-.841V5.314h.694l.096 1.028h.04q.31-.542.745-.836.436-.293.957-.293zm2.543 5.652h-.84V5.314h.84zm-.912-7.056q0-.288.142-.42.142-.137.355-.137.202.0.35.137.146.137.146.42.0.284-.147.426-.147.137-.35.137-.212.0-.354-.137-.142-.142-.142-.426zm6.504 7.056V7.274q0-.679-.309-1.013t-.967-.334q-.872.0-1.277.47-.405.472-.405 1.556v2.912h-.84V5.314h.683l.137.76h.04q.259-.41.724-.634.466-.227 1.039-.227 1.003.0 1.51.486.506.48.506 1.545v3.621zm7.106-5.551v.532l-1.028.121q.142.177.253.466.112.284.112.643.0.816-.557 1.302-.558.486-1.53.486-.248.0-.466-.04-.537.284-.537.714.0.228.187.34.188.106.644.106h.982q.902.0 1.383.38.486.38.486 1.104.0.922-.74 1.403-.739.486-2.157.486-1.089.0-1.681-.405-.588-.405-.588-1.145.0-.506.324-.876t.912-.501q-.213-.097-.36-.3-.142-.202-.142-.47.0-.304.163-.532.162-.228.511-.44-.43-.178-.704-.604-.268-.425-.268-.972.0-.912.547-1.403.547-.496 1.55-.496.435.0.785.1zm-4.427 6.483q0 .45.38.684.38.233 1.09.233 1.058.0 1.564-.32.512-.313.512-.855.0-.451-.279-.628-.278-.172-1.048-.172h-1.008q-.572.0-.892.273-.319.274-.319.785zm.456-4.705q0 .582.33.881.329.299.916.299 1.231.0 1.231-1.196.0-1.25-1.246-1.25-.593.0-.912.318-.319.32-.319.948z" style="line-height:1.14999998;-inkscape-font-specification:'Open Sans'" font-family="Open Sans" fill="#fafafa"/><path d="M233.358-61.388h64.895v40.75h-64.895z" fill="#64b5f6"/><path d="M275.622-20.703h-2.462a3.13 3.13.0 00.015-.308v-.033l-.036-3.294a5.748 5.748.0 00-3.329-5.136l-2.888-1.33a5.656 5.656.0 00-.387-.161 5.552 5.552.0 012.91.477l2.888 1.33a5.618 5.618.0 013.254 5.02l.035 3.435" fill="#42a5f5"/><path d="M275.623-20.575s-.538-.008-1.364-.008c-.319.0-.68.0-1.07.006l-.037-.06.008-.067h2.462l.001.13" fill="#42a5f5"/><path d="M233.358-61.388h64.895v40.75h-64.895z" fill="none"/><path d="M255.25-14.776a2.843 2.843.0 01-1.725-.56c-1.267-.937-1.713-2.666-.776-3.933l7.282-9.664a5.616 5.616.0 016.837-1.755l2.888 1.33c1.953.9 3.23 2.87 3.253 5.02l.036 3.294a2.854 2.854.0 01-5.706.062l-.035-3.222-2.74-1.261-7.048 9.532a2.85 2.85.0 01-2.266 1.157" fill="#fbcdac"/><path d="M255.25-14.776l-.002-.13h-.03a2.71 2.71.0 01-1.617-.534c-.772-.57-1.224-1.447-1.223-2.313.0-.5.149-.997.475-1.439l7.281-9.663h.001a5.483 5.483.0 016.678-1.715l2.888 1.33a5.488 5.488.0 013.178 4.903l.035 3.294v.03c0 1.49-1.2 2.706-2.693 2.723h-.03c-1.49.0-2.707-1.2-2.723-2.694l-.036-3.304-2.91-1.34-7.111 9.618a2.72 2.72.0 01-2.163 1.104l.002.13.001.13a2.98 2.98.0 002.369-1.21l6.986-9.447 2.568 1.183.034 3.139a2.984 2.984.0 002.983 2.951h.033a2.984 2.984.0 002.951-2.983v-.033l-.036-3.294a5.748 5.748.0 00-3.33-5.136l-2.887-1.33a5.742 5.742.0 00-6.996 1.796l-7.281 9.663h-.001a2.653 2.653.0 00-.526 1.593c0 .957.494 1.905 1.329 2.523a2.97 2.97.0 001.772.585h.032v-.13" fill="#e7b096"/><path d="M264.559-25.239l.047-.064.067.03-.114.034" fill="#d3a645"/><path d="M261.445-23.858l2.848-3.406 3.505 1.879a6.55 6.55.0 00-2.722.012l-.553-.255-.398.538a6.705 6.705.0 00-.438.186l-2.242 1.046" fill="#e7b096"/><path d="M272.998-20.48v-3.1a.52.52.0 10-1.04.0v3.1a.52.52.0 001.04.0" fill="#feeee4"/><path d="M273.01-24.338v4.486-4.486" fill="#fbcdac"/><path d="M272.88-24.338v4.486a.13.13.0 00.26.0v-4.486a.13.13.0 00-.26.0" fill="#e7b096"/><path d="M271.813 1.727c-.21.442-.367.683-.367.683v5.109h-15.06V3.018l-4.356-19.673s4.656-3.557 5.375-3.476c3.052.344 9.246 5.545 12.639 10.054.952 1.265 1.682 2.476 2.062 3.51 1.407 3.836.332 6.968-.293 8.294" fill="#fbcdac"/><path d="M271.813 1.727l-.118-.056a7.533 7.533.0 01-.332.626l-.02.031-.005.008v.006l-.022.033v5.018h-14.8V3.008l-4.359-19.687-.127.028.08.104.196-.15a78.808 78.808.0 012.64-1.91 25.708 25.708.0 011.523-.982c.221-.129.418-.234.578-.305.08-.036.15-.063.207-.08a.483.483.0 01.125-.024h.012c.732.082 1.681.464 2.735 1.066 3.166 1.805 7.283 5.572 9.814 8.937.948 1.259 1.672 2.463 2.044 3.476a10.9 10.9.0 01.683 3.773 10.5 10.5.0 01-.972 4.421l.118.056.118.055a10.76 10.76.0 00.997-4.533c0-1.16-.188-2.466-.7-3.862-.387-1.052-1.123-2.27-2.08-3.542-1.705-2.266-4.107-4.698-6.469-6.612-1.181-.957-2.353-1.784-3.424-2.395-1.072-.611-2.041-1.008-2.835-1.099-.014-.006-.028-.006-.04-.006a.757.757.0 00-.233.046 3.782 3.782.0 00-.575.267c-.782.427-1.933 1.223-2.894 1.914a80.76 80.76.0 00-1.727 1.278l-.066.05 4.37 19.74v4.617h15.321v-5.24h-.13l.109.072c.003-.006.164-.25.376-.699l-.118-.056" fill="#e7b096"/><path d="M252.182-16.243a2.854 2.854.0 011.379-3.792l10.18-4.751a6.448 6.448.0 018.211 2.453l1.921 3.11a2.853 2.853.0 01-4.855 2.999l-1.92-3.11a.74.74.0 00-.943-.28l-4.074 1.9-9.9 1.471" fill="#fbcdac"/><path d="M252.3-16.298a2.723 2.723.0 011.316-3.62l10.18-4.75a6.319 6.319.0 018.045 2.404l1.921 3.109A2.722 2.722.0 01271.448-15a2.72 2.72.0 01-2.32-1.293l-1.92-3.109a.871.871.0 00-1.108-.33l-4.074 1.9a.13.13.0 10.11.236l4.074-1.9a.61.61.0 01.776.232l1.921 3.108a2.98 2.98.0 004.107.97 2.983 2.983.0 00.97-4.106l-1.921-3.11a6.579 6.579.0 00-8.376-2.502l-10.181 4.751a2.983 2.983.0 00-1.442 3.965.13.13.0 10.236-.11" fill="#e7b096"/><path d="M274.123-17.23a6.02 6.02.0 00-2.316-2.598 6.016 6.016.0 00-4.701-.667l-8.86 2.31 8.382-3.367a5.665 5.665.0 015.643.824l1.022.813.47.76a2.71 2.71.0 01.36 1.925m-2.421 18.886-2.772-1.78c-3.423-2.06-3.918-4.726-4.607-7.739l.051-.014.055.01 1.06-.319.018-.006v.565a2.853 2.853.0 002.76 3.587c.081.0.162-.006.243-.01a2.844 2.844.0 001.123-.34l1.977-1.079a5.1 5.1.0 00.597-.383 10.78 10.78.0 01.46 3.1c0 2.002-.57 3.566-.965 4.406" fill="#e7b096"/><path d="M271.813 1.727l-.11-.071c.393-.84.964-2.404.964-4.406.0-.945-.127-1.988-.46-3.1.038-.028.075-.056.111-.085a10.712 10.712.0 01-.505 7.662" fill="#e7b096"/><path d="M254.333-14.083c-.415-1.52.736-3.121 2.256-3.536l10.55-2.75a5.888 5.888.0 014.6.652 5.89 5.89.0 012.684 3.792l.561 2.652a2.854 2.854.0 01-5.583 1.183l-.562-2.653c-.004-.019-.014-.068-.072-.103-.06-.036-.107-.022-.126-.018l-9.35 2.55-4.958-1.769" fill="#fbcdac"/><path d="M254.458-14.117a2.293 2.293.0 01-.08-.606c0-.618.245-1.225.65-1.721a3.16 3.16.0 011.596-1.05l-.035-.125.033.126 10.55-2.75.003-.001a5.755 5.755.0 014.498.638 5.76 5.76.0 012.623 3.708l.562 2.652a2.725 2.725.0 01-2.667 3.288 2.725 2.725.0 01-2.662-2.16l-.562-2.652c-.003-.011-.009-.045-.029-.081a.288.288.0 00-.103-.107.286.286.0 00-.15-.043c-.037.0-.067.008-.076.01h-.002l-9.35 2.55a.13.13.0 10.068.252l9.35-2.55-.033-.126.032.126.011-.006c.002.0.004.0.015.006l.01.01.003.008.562 2.653a2.985 2.985.0 005.903-.616c0-.205-.021-.413-.065-.62l-.562-2.653a6.02 6.02.0 00-2.743-3.876 6.017 6.017.0 00-4.702-.667l.035.125-.033-.126-10.55 2.751h-.001a3.422 3.422.0 00-1.728 1.136c-.439.536-.71 1.198-.71 1.886.0.224.029.45.09.674a.13.13.0 10.251-.069" fill="#e7b096"/><path d="M274.24-10.368l-.012-.132c.208-.194.386-.416.53-.66-.12.28-.289.548-.517.792" fill="#eddee2"/><path d="M274.182-10.821a5.065 5.065.0 00-2.152-3.323 5.072 5.072.0 00-4.324-.665l-7.505 1.966a2.968 2.968.0 00-.363.12l8.035-3.465a5.182 5.182.0 015.102.565l1.63 1.184.252 1.193a2.726 2.726.0 01-.675 2.425" fill="#e7b096"/><path d="M264.43-7.867l1.335-.4a2.852 2.852.0 003.868 3.88l1.976-1.08a5.092 5.092.0 00.421-8.677 5.068 5.068.0 00-4.324-.665l-7.505 1.966a2.979 2.979.0 00-2.083 3.785l6.311 1.191" fill="#fbcdac"/><path d="M260.394 6.626h-3.878V3.003l-4.241-19.154a.13.13.0 00.035-.11l.38-.057 1.45 1.939c.015.11.038.22.068.33a.13.13.0 00.125.096c.011.0.023.0.034-.006a.127.127.0 00.061-.036l3.69 4.935 2.276 12.63v3.055" fill="#e7b096"/><path d="M256.516 6.626h-.13V3.202l-4.202-19.314a.159.159.0 00.053-.013.138.138.0 00.037-.027l4.242 19.155v3.623m-4.206-22.888a.129.129.0 00-.01-.036 2.72 2.72.0 01-.242-.867l.633.847-.38.056m2.022 2.309a.13.13.0 01-.125-.096c-.03-.11-.053-.22-.067-.33l.287.385a.128.128.0 01-.06.036c-.012.006-.023.006-.035.006" fill="#e7b096"/><path d="M265.765-8.268l3.597-.987-3.597.987" fill="#455a64"/><path d="M265.8-8.142l3.596-.987a.13.13.0 10-.069-.251l-3.597.987a.13.13.0 10.07.25" fill="#e7b096"/><path d="M265.507-8.19l.134-.037-.134.037" fill="#455a64"/><path d="M265.507-7.625v-.565l.134-.037c.011.033.035.06.064.074-.083.17-.15.346-.198.528" fill="#d69886"/><path d="M265.507-6.161v-1.464a2.91 2.91.0 01.198-.527.13.13.0 00.06.014c.011.0.023.0.034-.006l3.597-.987a.157.157.0 00.047-.024c.522.727.18 1.777-.703 2.038l-3.232.954" fill="#e7b096"/><path d="M264.565-25.465l-.272-1.799" fill="#fbcdac"/><path stroke-miterlimit="10" d="M264.565-25.465l-.272-1.799" fill="none" stroke="#e7b096" stroke-width=".433" stroke-linecap="round"/><path stroke-miterlimit="10" d="M268.482-4.495l2.594-1.34" fill="none" stroke="#feeee4" stroke-width="1.735" stroke-linecap="round"/><path stroke-miterlimit="10" d="M264.43-7.867l1.335-.4a2.854 2.854.0 003.868 3.88l1.977-1.08a5.092 5.092.0 00.42-8.677 5.068 5.068.0 00-4.324-.665l-7.505 1.966a2.979 2.979.0 00-2.083 3.785" fill="none" stroke="#e7b096" stroke-width=".433" stroke-linecap="round"/><path d="M271.434 3.202V1.065s.455-3.605-1.756-5.103c-2.73-1.849-3.925-4.23-3.925-4.23s-2.27-.034-2.4.0-.37 1.549-.17 2.889c.202 1.34 1.265 4.267 1.676 4.657.412.39 2.233 2.212 2.949 2.537.715.325 3.626 1.387 3.626 1.387" fill="#fbcdac"/><path d="M265.765-8.268s1.248 1.04 3.601 3.348c4.309 4.229 2.08 9.539 2.08 9.539v2.137" fill="#fbcdac"/><path stroke-miterlimit="10" d="M265.765-8.268s1.248 1.04 3.601 3.348c4.309 4.229 2.08 9.539 2.08 9.539v2.137" fill="none" stroke="#e7b096" stroke-width=".433" stroke-linecap="round"/><path d="M266.89-8.573l-2.177.61" fill="#455a64"/><path stroke-miterlimit="10" d="M266.89-8.573l-2.177.61" fill="#455a64" stroke="#e7b096" stroke-width=".433" stroke-linecap="round"/><g style="line-height:1.25;-inkscape-font-specification:'Futura Std Medium Condensed'"><path word-spacing="0" letter-spacing="0" font-size="10.96" font-stretch="condensed" font-weight="500" aria-label="UNAVAILABLE" d="M243.535-49.53v5.699c0 1.49.154 2.674 1.896 2.674 1.907.0 1.896-1.425 1.896-2.51v-5.864h-1.096v6.182c-.01.68-.076 1.162-.833 1.162-.45.0-.767-.22-.767-1.283v-6.06zm5.982 1.917.022-.022 1.929 6.368h1.02v-8.264h-1.097v2.949l.263 3.31-.022.021-1.929-6.28h-1.052v8.264h1.096v-3.036l-.164-2.773zm5.487-1.917-1.797 8.263h1.074l.307-1.611h1.644l.306 1.611h1.107l-1.775-8.264zm1.063 5.797h-1.315l.658-4.197h.022l.416 3.003zm1.303-5.797 1.601 8.263h.877l1.622-8.264h-1.041l-.504 2.916-.439 2.784-.055.515h-.021l-.943-6.215zm5.597.0-1.797 8.263h1.074l.307-1.611h1.644l.307 1.611h1.106l-1.775-8.264zm1.063 5.797h-1.315l.658-4.197h.022l.416 3.003zm3.399-5.797h-1.096v8.263h1.096zm1.344.0v8.263h2.937v-.953h-1.841v-7.31zm4.79.0-1.797 8.263h1.074l.307-1.611h1.644l.307 1.611h1.106l-1.775-8.264zm1.063 5.797h-1.315l.658-4.197h.022l.416 3.003zm3.344-1.282c1.008-.022 1.194.548 1.194 1.458s-.24 1.402-1.194 1.359zm.274 3.748c1.523.0 2.082-.734 2.082-2.258.0-.92-.22-1.644-1.162-1.94v-.021c.877-.23 1.042-1.02 1.042-1.83.0-1.393-.417-2.215-1.907-2.215h-1.37v8.264zm.887-6.094c0 .877-.142 1.513-1.161 1.47V-48.6h.186c.756-.011.975.592.975 1.238zm2.379-2.169v8.263h2.937v-.953h-1.842v-7.31zm3.617.0v8.263h2.948v-.953h-1.852v-2.806h1.655v-.954h-1.655v-2.597h1.852v-.954z" style="-inkscape-font-specification:'Futura Std Medium Condensed'" font-family="Futura Std" fill="#fff"/></g><path d="M255.004 11.694h18.106V6.756h-18.106z" fill="#fafafa"/><path d="M273.11 11.694v-.13h-17.976V6.886h17.846v4.808h.13v-.13.13h.13V6.626h-18.366v5.198h18.366v-.13h-.13" fill="#b0bec5"/><path d="M253.59 23.148h21.006v-13.06H253.59z" fill="#455a64"/><path d="M274.596 23.148v-.13H253.72v-12.8h20.746v12.93h.13v-.13.13h.13V9.958H253.46v13.32h21.266v-.13h-.13" fill="#455a64"/><path d="M272.798 13.376a.786.786.0 11-1.573.0.786.786.0 011.573.0" fill="#263238"/><path d="M253.72 23.018h5.46v-12.8h-5.46z" fill="#546e7a"/><path d="M259.18 23.148h-5.59v-13.06h5.59v.13h-5.46v12.8h5.46v.13" fill="#455a64"/><path d="M260.394 9.957h-5.26v-3.07h5.26v3.07" fill="#eceff1"/><path d="M255.134 9.957h-.13v-3.2h5.39v.13h-5.26v3.07" fill="#b0bec5"/><path d="M260.394 10.087h-5.39v-.13h5.39v.13" fill="#455a64"/></g></svg>