<svg xmlns="http://www.w3.org/2000/svg" width="509.491" height="233.479" viewBox="0 0 134.803 61.775">
    <g stroke-width="1.991">
        <path d="M36.029 26.929l-11.192-5.057V8.412L36.03 13.47v13.46" fill="#d7e8f4"/>
        <path d="M36.029 26.929l11.191-5.057V8.412L36.029 13.47v13.46" fill="#c6dae5"/>
        <path d="M24.837 8.412L36.03 13.47 47.22 8.412l-11.191-4.59-11.192 4.59" fill="#e4f0f4"/>
        <path d="M125.4 19.417l-9.405-4.25V3.858l9.404 4.25v11.31" fill="#d7e8f4"/>
        <path d="M125.4 19.417l9.403-4.25V3.858l-9.404 4.25v11.31" fill="#c6dae5"/>
        <path d="M115.995 3.858l9.404 4.249 9.404-4.25L125.399 0l-9.404 3.858" fill="#e4f0f4"/>
        <path d="M43.049 18.625l-1.54-.698.232-.513 1.54.698zm2.567 1.163l-1.54-.698.232-.513 1.541.698zm2.568 1.163l-1.54-.698.232-.513 1.54.698zm2.568 1.163l-1.54-.698.232-.513 1.54.697zm2.568 1.163l-1.54-.698.232-.514 1.54.698zm2.568 1.163l-1.541-.698.232-.514 1.541.698zm2.567 1.163l-1.54-.698.232-.514 1.541.698zm2.568 1.162l-1.54-.697.232-.514 1.54.698zm2.568 1.163l-1.54-.697.232-.514 1.54.698zm2.568 1.163l-1.541-.697.233-.514 1.54.698zm2.345 1.063l-1.318-.598.232-.513 1.319.597-.233.514M29.08 19.823l-.278-.49 1.47-.838.278.49zm-2.448 1.395l-.28-.49 1.47-.837.28.49zm-2.45 1.396l-.278-.49 1.47-.837.278.49zm-2.448 1.396l-.28-.49 1.47-.837.28.49zm-2.45 1.396l-.278-.49 1.469-.838.28.49zM16.837 26.8l-.28-.49 1.47-.837.28.49zm-2.45 1.396l-.278-.49 1.47-.837.278.49zm-1.732.987l-.279-.49.753-.429.28.49-.754.43" fill="#587bc9"/>
        <path d="M9.404 41.464L0 37.216v-11.31l9.404 4.248v11.31" fill="#d7e8f4"/>
        <path d="M9.404 41.464l9.404-4.248v-11.31l-9.404 4.248v11.31" fill="#c6dae5"/>
        <path d="M0 25.906l9.404 4.248 9.404-4.248-9.404-3.858L0 25.906" fill="#e4f0f4"/>
        <path d="M118.617 11.813l-.225-.517 1.552-.674.224.517zm-2.586 1.122l-.224-.517 1.551-.673.224.517zm-2.586 1.123l-.224-.518 1.551-.673.225.517zm-2.585 1.122l-.225-.517 1.552-.674.224.517zm-2.586 1.122l-.225-.517 1.552-.674.224.518zm-2.586 1.122l-.224-.517 1.55-.673.225.517zm-2.586 1.123l-.224-.517 1.551-.674.225.517zm-2.586 1.122l-.224-.517 1.552-.674.224.517zm-2.585 1.122l-.225-.517 1.552-.673.224.517zm-2.586 1.123l-.224-.518 1.551-.673.224.517zm-2.586 1.122l-.224-.517 1.551-.674.225.518zm-2.586 1.122l-.224-.517 1.552-.673.224.517zm-2.585 1.123l-.225-.518 1.552-.673.224.517zm-2.586 1.122l-.225-.517 1.552-.674.224.517zm-2.586 1.122l-.224-.517 1.551-.673.225.517zm-2.586 1.123l-.224-.518 1.551-.673.225.517zm-2.585 1.122l-.225-.517 1.552-.674.224.517zm-2.586 1.122l-.224-.517 1.551-.674.224.518zm-2.586 1.122l-.224-.517 1.551-.673.225.517zm-2.586 1.123l-.224-.518 1.551-.673.225.517zm-1.081.469l-.224-.517.047-.02.224.517-.047.02" fill="#587bc9"/>
        <path d="M77.488 48.305L58.422 39.69V16.759l19.066 8.615v22.93" fill="#d7e8f4"/>
        <path d="M77.488 48.305l19.066-8.615V16.759l-19.066 8.615v22.93" fill="#c6dae5"/>
        <path d="M58.422 16.759l19.066 8.615 19.066-8.615-19.066-7.822-19.066 7.822" fill="#e4f0f4"/>
        <path d="M88.45 33.48l-1.544-.691.23-.515 1.544.692zm2.572 1.152l-1.544-.691.23-.515 1.544.692zm2.573 1.152l-1.544-.691.23-.515 1.544.691zm2.572 1.152l-1.543-.691.23-.515 1.544.691zm2.573 1.152l-1.543-.691.23-.515 1.543.691zm2.573 1.152l-1.544-.691.23-.515 1.544.691zm2.573 1.152l-1.544-.691.23-.515 1.544.691zm2.572 1.152l-1.543-.691.23-.515 1.543.691zm2.573 1.152l-1.544-.691.23-.515 1.544.691-.23.515M67.153 34.598l-.24-.51 1.528-.722.241.51zm-2.55 1.204l-.24-.51 1.53-.722.24.51zm-2.548 1.203l-.24-.51 1.528-.722.241.51zm-2.55 1.204l-.24-.51 1.53-.722.24.51zm-2.548 1.203l-.24-.51 1.529-.722.24.51zm-2.549 1.204l-.24-.51 1.529-.722.24.51zM51.86 41.82l-.24-.51 1.529-.722.24.51-1.529.722" fill="#587bc9"/>
        <path d="M45.98 61.775l-13.04-5.892V40.201l13.04 5.891v15.683" fill="#d7e8f4"/>
        <path d="M45.98 61.775l13.038-5.892V40.201L45.98 46.092v15.683" fill="#c6dae5"/>
        <path d="M32.94 40.201l13.04 5.891 13.038-5.891-13.039-5.349-13.039 5.349" fill="#e4f0f4"/>
        <path d="M116.318 53.517l-13.04-5.891V31.944l13.04 5.891v15.682" fill="#d7e8f4"/>
        <path d="M116.318 53.517l13.039-5.891V31.944l-13.04 5.891v15.682" fill="#c6dae5"/>
        <path d="M103.279 31.944l13.039 5.891 13.039-5.891-13.04-5.35-13.038 5.35" fill="#e4f0f4"/>
    </g>
</svg>
