<svg xmlns="http://www.w3.org/2000/svg" width="355" height="240" viewBox="0 0 93.927 63.5"><g stroke-width="1.979"><path d="M38.92 42.203l6.474 3.737v7.472L38.92 57.15l-6.472-3.738V45.94l6.472-3.737m.047-35.853-6.472 3.738v7.474l6.472 3.737 6.469-3.737v-7.474L38.967 6.35m-10.01 17.975-6.473 3.738v7.474l6.473 3.734 6.472-3.734v-7.474l-6.472-3.738" fill="#012c4f" fill-rule="evenodd"/><g fill="#eee"><path d="M41.692 17.498a.106.106.0 01-.076-.031.108.108.0 01-.032-.077v-.385h-.324v.385a.108.108.0 11-.215.0v-.386h-.324v.385a.108.108.0 01-.217.0v-.384h-.323v.386a.108.108.0 11-.216.0v-.386h-.324v.385a.108.108.0 11-.216.0v-.385h-.323v.385a.108.108.0 01-.216.0v-.385h-.324v.385a.108.108.0 11-.216.0v-.385h-.324v.385a.108.108.0 11-.216.0v-.385h-.324v.385a.108.108.0 01-.216.0v-.385h-.323v.385a.108.108.0 11-.216.0v-.385h-.324v.385a.108.108.0 11-.216.0v-.385h-.052a.323.323.0 01-.323-.324v-.052h-.422a.108.108.0 010-.216h.422v-.324h-.422a.108.108.0 01-.108-.108c0-.06.049-.107.108-.107h.422v-.324h-.422a.108.108.0 010-.216h.422v-.324h-.422a.108.108.0 010-.216h.422v-.324h-.422a.108.108.0 010-.216h.422v-.324h-.422a.108.108.0 010-.215h.422v-.324h-.422a.108.108.0 010-.216h.422v-.324h-.422a.108.108.0 010-.215h.422v-.324h-.422a.108.108.0 010-.217h.422v-.324h-.422a.108.108.0 110-.215h.422v-.324h-.422a.108.108.0 010-.216h.422v-.051a.323.323.0 01.323-.324h.052v-.381a.108.108.0 11.216.0v.381h.324v-.381a.108.108.0 11.215.0v.381h.324v-.381a.108.108.0 11.216.0v.381h.324v-.381a.108.108.0 11.216.0v.381h.324v-.381a.108.108.0 11.216.0v.381h.324v-.381a.108.108.0 11.215.0v.381h.324v-.381a.108.108.0 11.216.0v.381h.324v-.381a.108.108.0 11.216.0v.381h.323v-.381a.108.108.0 11.217.0v.381h.324v-.381a.108.108.0 11.215.0v.381h.324v-.381a.108.108.0 11.216.0v.381h.051c.01.0.02.0.028.002.013.002.027.003.04.006a.341.341.0 01.118.051.326.326.0 01.138.266v.051h.376a.132.132.0 01.038.01.108.108.0 01-.048.205h-.366v.324h.366a.108.108.0 010 .216h-.366v.323h.366a.108.108.0 010 .217h-.366v.324h.366a.107.107.0 01.108.108.108.108.0 01-.108.107h-.366v.324h.366a.108.108.0 01.108.108.108.108.0 01-.108.108h-.366v.324h.366a.107.107.0 01.108.108.108.108.0 01-.108.108h-.366v.323h.366a.107.107.0 01.108.108.108.108.0 01-.108.109h-.366v.323h.366a.108.108.0 01.108.108.108.108.0 01-.108.108h-.366v.324h.366a.108.108.0 010 .216h-.366v.324h.366a.108.108.0 01.108.108.108.108.0 01-.108.107h-.366v.324h.366a.108.108.0 010 .216h-.366v.052a.323.323.0 01-.324.324H41.8v.385a.108.108.0 01-.108.108"/><path d="M41.851 17.005h-5.716a.323.323.0 01-.323-.324v-5.716a.323.323.0 01.323-.324h5.716a.323.323.0 01.324.324v5.715a.323.323.0 01-.324.324m-5.556-6.744v.9-.9"/><path d="M36.295 11.267a.108.108.0 01-.108-.108v-.9a.108.108.0 11.216.0v.9a.108.108.0 01-.108.108m.54-1.007v.9-.9m0 1.007a.108.108.0 01-.108-.108v-.9a.108.108.0 11.215.0v.9a.108.108.0 01-.107.108m.539-1.007v.9-.9m0 1.007a.108.108.0 01-.108-.108v-.9a.108.108.0 11.216.0v.9a.108.108.0 01-.108.108m.54-1.007v.9-.9m0 1.007a.108.108.0 01-.108-.108v-.9a.108.108.0 11.216.0v.9a.108.108.0 01-.108.108m.54-1.007v.9-.9m0 1.007a.108.108.0 01-.108-.108v-.9a.108.108.0 11.216.0v.9a.108.108.0 01-.108.108m.54-1.007v.9-.9m0 1.007a.108.108.0 01-.108-.108v-.9a.108.108.0 11.215.0v.9a.108.108.0 01-.108.108m.54-1.007v.9-.9m0 1.007a.108.108.0 01-.108-.108v-.9a.108.108.0 11.216.0v.9a.108.108.0 01-.108.108m.54-1.007v.9-.9m0 1.007a.108.108.0 01-.108-.108v-.9a.108.108.0 11.216.0v.9a.108.108.0 01-.108.108m.54-1.007v.9-.9m0 1.007a.108.108.0 01-.109-.108v-.9a.108.108.0 11.217.0v.9a.108.108.0 01-.108.108m.54-1.007v.9-.9m0 1.007a.108.108.0 01-.108-.108v-.9a.108.108.0 11.215.0v.9a.108.108.0 01-.108.108m.54-1.007v.9-.9m0 1.007a.108.108.0 01-.108-.108v-.9a.108.108.0 11.216.0v.9a.108.108.0 01-.108.108m-5.397 5.224v.899-.9m0 1.008a.108.108.0 01-.108-.108v-.9a.108.108.0 01.216.0v.9a.108.108.0 01-.108.108m.54-1.007v.899-.9m0 1.008a.108.108.0 01-.108-.108v-.9a.108.108.0 01.215.0v.9a.108.108.0 01-.107.108m.539-1.007v.899-.9m0 1.008a.108.108.0 01-.108-.108v-.9a.108.108.0 01.216.0v.9a.108.108.0 01-.108.108m.54-1.007v.899-.9m0 1.008a.108.108.0 01-.108-.108v-.9a.108.108.0 01.216.0v.9a.108.108.0 01-.108.108m.54-1.007v.899-.9m0 1.008a.108.108.0 01-.108-.108v-.9a.108.108.0 01.216.0v.9a.108.108.0 01-.108.108m.54-1.007v.899-.9m0 1.008a.108.108.0 01-.108-.108v-.9a.108.108.0 01.215.0v.9a.108.108.0 01-.108.108m.54-1.007v.899-.9m0 1.008a.108.108.0 01-.108-.108v-.9a.108.108.0 01.216.0v.9a.108.108.0 01-.108.108m.54-1.007v.899-.9m0 1.008a.108.108.0 01-.108-.108v-.9a.108.108.0 01.216.0v.9a.108.108.0 01-.108.108m.54-1.007v.899-.9m0 1.008a.108.108.0 01-.109-.108v-.9a.108.108.0 01.217.0v.9a.108.108.0 01-.108.108m.54-1.007v.899-.9m0 1.008a.108.108.0 01-.108-.108v-.9a.108.108.0 01.215.0v.9a.108.108.0 01-.108.108m.54-1.007v.899-.9m0 1.008a.108.108.0 01-.108-.108v-.9a.108.108.0 01.216.0v.9a.108.108.0 01-.108.108m.849-6.373h-.9.9"/><path d="M42.54 11.232h-.899a.108.108.0 010-.216h.9a.108.108.0 010 .216m0 .432h-.9.9m0 .107h-.9a.108.108.0 110-.215h.9a.108.108.0 010 .216m0 .432h-.9.9m0 .108h-.9a.108.108.0 110-.216h.9a.108.108.0 010 .216m0 .432h-.9.9m0 .107h-.9a.108.108.0 110-.215h.9a.108.108.0 110 .215m0 .432h-.9.9m0 .108h-.9a.108.108.0 110-.216h.9a.108.108.0 010 .216m0 .432h-.9.9m0 .108h-.9a.108.108.0 110-.216h.9a.108.108.0 010 .216m0 .431h-.9.9m0 .109h-.9a.108.108.0 010-.216h.9a.108.108.0 110 .216m0 .431h-.9.9m0 .108h-.9a.108.108.0 010-.216h.9a.108.108.0 010 .216m0 .432h-.9.9m0 .108h-.9a.108.108.0 110-.216h.9a.108.108.0 010 .216m0 .432h-.9.9m0 .107h-.9a.108.108.0 010-.215h.9a.108.108.0 110 .215m0 .432h-.9.9m0 .109h-.9a.108.108.0 110-.217h.9a.108.108.0 010 .217m-6.251-5.505h-.9.9m0 .107h-.9a.108.108.0 010-.216h.9a.108.108.0 010 .216m0 .432h-.9.9m0 .107h-.9a.108.108.0 010-.215h.9a.108.108.0 010 .216m0 .432h-.9.9m0 .108h-.9a.108.108.0 110-.216h.9a.108.108.0 010 .216m0 .432h-.9.9m0 .107h-.9a.108.108.0 010-.215h.9a.108.108.0 110 .215m0 .432h-.9.9m0 .108h-.9a.108.108.0 010-.216h.9a.108.108.0 010 .216m0 .432h-.9.9m0 .108h-.9a.108.108.0 010-.216h.9a.108.108.0 010 .216m0 .431h-.9.9m0 .109h-.9a.108.108.0 010-.216h.9a.108.108.0 110 .216m0 .431h-.9.9m0 .108h-.9a.108.108.0 010-.216h.9a.108.108.0 110 .216m0 .432h-.9.9m0 .108h-.9a.108.108.0 110-.216h.9a.108.108.0 010 .216m0 .432h-.9.9m0 .107h-.9a.108.108.0 010-.215h.9a.108.108.0 110 .215m0 .432h-.9.9m0 .109h-.9a.108.108.0 010-.217h.9a.108.108.0 010 .217"/></g><path d="M37.493 15.628a.305.305.0 01-.304-.305v-3c0-.168.136-.304.304-.304h3c.169.0.305.136.305.304v3a.305.305.0 01-.305.305h-3" fill="#424242"/><path d="M40.493 15.493h-3a.17.17.0 01-.17-.17v-3a.17.17.0 01.17-.17h3a.17.17.0 01.17.17v3a.17.17.0 01-.17.17" fill="#e7e8ed"/><path d="M38.482 13.96v.004a.294.294.0 01-.09.235.375.375.0 01-.26.085.36.36.0 01-.273-.108.39.39.0 01-.103-.28v-.187c0-.114.033-.208.1-.28a.345.345.0 01.266-.11c.114.0.204.028.268.084.065.056.096.134.094.236l-.001.003H38.3c0-.06-.015-.104-.043-.134-.03-.03-.074-.044-.135-.044a.152.152.0 00-.131.068.3.3.0 00-.048.176v.187c0 .072.017.131.05.176.033.046.08.07.139.07.056.0.098-.016.126-.045.027-.03.041-.075.041-.136h.182m.323-.175h.171c.053.0.092-.014.12-.042a.152.152.0 00.04-.11.16.16.0 00-.04-.11c-.027-.031-.067-.045-.12-.045h-.17zm0 .145v.341h-.188v-.938h.359a.37.37.0 01.255.083.278.278.0 01.093.216c0 .09-.031.162-.093.217a.373.373.0 01-.255.081h-.17m1.396-.597v.614a.308.308.0 01-.105.248.406.406.0 01-.273.09.4.4.0 01-.271-.09.31.31.0 01-.104-.248v-.614h.189v.614c0 .062.017.11.05.143a.185.185.0 00.136.05.189.189.0 00.138-.05c.034-.033.05-.08.05-.143v-.614h.19" fill="#424242"/><g fill="#eee"><path d="M31.683 35.471a.106.106.0 01-.076-.03.108.108.0 01-.032-.078v-.385h-.324v.385a.108.108.0 11-.216.0v-.385h-.324v.385a.108.108.0 01-.216.0v-.385h-.323v.385a.108.108.0 11-.216.0v-.385h-.324v.385a.108.108.0 11-.216.0v-.385h-.323v.385a.108.108.0 01-.217.0v-.385h-.324v.385a.108.108.0 11-.215.0v-.385h-.324v.385a.108.108.0 11-.216.0v-.385h-.324v.385a.108.108.0 01-.216.0v-.385h-.323v.385a.108.108.0 11-.217.0v-.385h-.323v.385a.108.108.0 11-.216.0v-.385h-.052a.323.323.0 01-.323-.324v-.051h-.422a.108.108.0 010-.216h.422v-.324h-.422a.108.108.0 01-.108-.108c0-.06.048-.108.108-.108h.422v-.323h-.422a.108.108.0 010-.217h.422v-.324h-.422a.108.108.0 010-.215h.422v-.324h-.422a.108.108.0 010-.216h.422v-.324h-.422a.108.108.0 010-.216h.422v-.323h-.422a.108.108.0 010-.216h.422v-.324h-.422a.108.108.0 010-.216h.422v-.324h-.422a.108.108.0 010-.216h.422v-.324h-.422a.108.108.0 110-.216h.422v-.323h-.422a.108.108.0 010-.216h.422v-.052a.323.323.0 01.323-.323h.052v-.382a.108.108.0 11.215.0v.381h.324v-.381a.108.108.0 11.216.0v.381h.324v-.381a.108.108.0 11.216.0v.381h.324v-.381a.108.108.0 11.216.0v.381h.324v-.381a.108.108.0 11.215.0v.381h.324v-.381a.108.108.0 11.216.0v.381h.324v-.381a.108.108.0 11.216.0v.381h.324v-.381a.108.108.0 11.216.0v.381h.324v-.381a.108.108.0 11.215.0v.381h.324v-.381a.108.108.0 11.216.0v.381h.324v-.381a.108.108.0 11.216.0v.381h.051c.01.0.019.0.028.002l.04.006a.341.341.0 01.118.052.326.326.0 01.138.265v.051h.376a.152.152.0 01.037.01.108.108.0 01-.048.206h-.365v.323h.365a.108.108.0 010 .216h-.365v.324h.365a.108.108.0 010 .216h-.365v.324h.365a.107.107.0 01.109.108.108.108.0 01-.109.108h-.365v.323h.365a.108.108.0 01.109.108.108.108.0 01-.109.109h-.365v.323h.365a.107.107.0 01.109.109.108.108.0 01-.109.107h-.365v.324h.365a.107.107.0 01.109.108.108.108.0 01-.109.108h-.365v.324h.365a.108.108.0 01.109.108.108.108.0 01-.109.108h-.365v.323h.365a.108.108.0 010 .217h-.365v.323h.365a.108.108.0 01.109.108.108.108.0 01-.109.108h-.365v.324h.365a.108.108.0 010 .216h-.365v.051a.323.323.0 01-.324.324h-.051v.385a.108.108.0 01-.108.108"/><path d="M31.842 34.978h-5.716a.323.323.0 01-.323-.324V28.94a.323.323.0 01.323-.324h5.716a.323.323.0 01.324.323v5.717a.323.323.0 01-.324.323m-5.556-6.745v.9-.9"/><path d="M26.286 29.24a.108.108.0 01-.108-.107v-.9a.108.108.0 11.215.0v.9a.108.108.0 01-.107.107m.54-1.007v.9-.9m0 1.007a.108.108.0 01-.109-.107v-.9a.108.108.0 11.216.0v.9a.108.108.0 01-.108.107m.54-1.007v.9-.9m0 1.007a.108.108.0 01-.108-.107v-.9a.108.108.0 11.216.0v.9a.108.108.0 01-.108.107m.54-1.007v.9-.9m0 1.007a.108.108.0 01-.108-.107v-.9a.108.108.0 11.216.0v.9a.108.108.0 01-.108.107m.54-1.007v.9-.9m0 1.007a.108.108.0 01-.108-.107v-.9a.108.108.0 11.215.0v.9a.108.108.0 01-.108.107m.54-1.007v.9-.9m0 1.007a.108.108.0 01-.108-.107v-.9a.108.108.0 11.216.0v.9a.108.108.0 01-.108.107m.54-1.007v.9-.9m0 1.007a.108.108.0 01-.108-.107v-.9a.108.108.0 11.216.0v.9a.108.108.0 01-.108.107m.54-1.007v.9-.9m0 1.007a.108.108.0 01-.108-.107v-.9a.108.108.0 11.215.0v.9a.108.108.0 01-.107.107m.54-1.007v.9-.9m0 1.007a.108.108.0 01-.109-.107v-.9a.108.108.0 11.216.0v.9a.108.108.0 01-.108.107m.54-1.007v.9-.9m0 1.007a.108.108.0 01-.108-.107v-.9a.108.108.0 11.216.0v.9a.108.108.0 01-.108.107m.54-1.007v.9-.9m0 1.007a.108.108.0 01-.108-.107v-.9a.108.108.0 11.216.0v.9a.108.108.0 01-.108.107m-5.397 5.224v.9-.9m0 1.007a.108.108.0 01-.108-.108v-.9a.108.108.0 01.215.0v.9a.108.108.0 01-.107.108m.54-1.007v.9-.9m0 1.007a.108.108.0 01-.109-.108v-.9a.108.108.0 01.216.0v.9a.108.108.0 01-.108.108m.54-1.007v.9-.9m0 1.007a.108.108.0 01-.108-.108v-.9a.108.108.0 01.216.0v.9a.108.108.0 01-.108.108m.54-1.007v.9-.9m0 1.007a.108.108.0 01-.108-.108v-.9a.108.108.0 01.216.0v.9a.108.108.0 01-.108.108m.54-1.007v.9-.9m0 1.007a.108.108.0 01-.108-.108v-.9a.108.108.0 01.215.0v.9a.108.108.0 01-.108.108m.54-1.007v.9-.9m0 1.007a.108.108.0 01-.108-.108v-.9a.108.108.0 01.216.0v.9a.108.108.0 01-.108.108m.54-1.007v.9-.9m0 1.007a.108.108.0 01-.108-.108v-.9a.108.108.0 01.216.0v.9a.108.108.0 01-.108.108m.54-1.007v.9-.9m0 1.007a.108.108.0 01-.108-.108v-.9a.108.108.0 01.215.0v.9a.108.108.0 01-.107.108m.54-1.007v.9-.9m0 1.007a.108.108.0 01-.109-.108v-.9a.108.108.0 01.216.0v.9a.108.108.0 01-.108.108m.54-1.007v.9-.9m0 1.007a.108.108.0 01-.108-.108v-.9a.108.108.0 01.216.0v.9a.108.108.0 01-.108.108m.54-1.007v.9-.9m0 1.007a.108.108.0 01-.108-.108v-.9a.108.108.0 01.216.0v.9a.108.108.0 01-.108.108m.848-6.373h-.899.9"/><path d="M32.531 29.206h-.899a.108.108.0 010-.216h.9a.108.108.0 010 .216m0 .432h-.9.9m0 .107h-.9a.108.108.0 110-.216h.9a.108.108.0 010 .216m0 .432h-.9.9m0 .108h-.9a.108.108.0 110-.216h.9a.108.108.0 010 .216m0 .432h-.9.9m0 .108h-.9a.108.108.0 110-.216h.9a.108.108.0 110 .216m0 .431h-.9.9m0 .109h-.9a.108.108.0 110-.216h.9a.108.108.0 010 .216m0 .432h-.9.9m0 .107h-.9a.108.108.0 110-.216h.9a.108.108.0 010 .216m0 .432h-.9.9m0 .108h-.9a.108.108.0 010-.216h.9a.108.108.0 110 .216m0 .432h-.9.9m0 .108h-.9a.108.108.0 010-.216h.9a.108.108.0 010 .216m0 .431h-.9.9m0 .108h-.9a.108.108.0 110-.216h.9a.108.108.0 010 .217m0 .431h-.9.9m0 .109h-.9a.108.108.0 010-.217h.9a.108.108.0 110 .216m0 .432h-.9.9m0 .108h-.9a.108.108.0 110-.216h.9a.108.108.0 010 .216m-6.252-5.505h-.9.9m0 .108h-.9a.108.108.0 010-.216h.9a.108.108.0 010 .216m0 .432h-.9.9m0 .107h-.9a.108.108.0 010-.216h.9a.108.108.0 010 .216m0 .432h-.9.9m0 .108h-.9a.108.108.0 110-.216h.9a.108.108.0 010 .216m0 .432h-.9.9m0 .108h-.9a.108.108.0 010-.216h.9a.108.108.0 110 .216m0 .431h-.9.9m0 .109h-.9a.108.108.0 010-.216h.9a.108.108.0 010 .216m0 .432h-.9.9m0 .107h-.9a.108.108.0 010-.216h.9a.108.108.0 010 .216m0 .432h-.9.9m0 .108h-.9a.108.108.0 010-.216h.9a.108.108.0 110 .216m0 .432h-.9.9m0 .108h-.9a.108.108.0 010-.216h.9a.108.108.0 110 .216m0 .431h-.9.9m0 .108h-.9a.108.108.0 110-.216h.9a.108.108.0 010 .217m0 .431h-.9.9m0 .109h-.9a.108.108.0 010-.217h.9a.108.108.0 110 .216m0 .432h-.9.9m0 .108h-.9a.108.108.0 010-.216h.9a.108.108.0 010 .216"/></g><path d="M27.484 33.6a.305.305.0 01-.304-.303v-3c0-.169.136-.305.304-.305h3c.168.0.305.136.305.304v3a.305.305.0 01-.305.305h-3" fill="#424242"/><path d="M30.484 33.466h-3a.17.17.0 01-.17-.17v-3a.17.17.0 01.17-.17h3a.17.17.0 01.17.17v3a.17.17.0 01-.17.17" fill="#e7e8ed"/><path d="M28.473 31.934v.004a.294.294.0 01-.09.235.373.373.0 01-.26.085.36.36.0 01-.273-.109.39.39.0 01-.103-.28v-.187c0-.114.033-.207.1-.28a.345.345.0 01.266-.11c.114.0.203.029.268.085a.288.288.0 01.094.235l-.001.004h-.183c0-.06-.015-.105-.044-.134-.029-.03-.074-.045-.134-.045a.152.152.0 00-.132.069.3.3.0 00-.047.175v.187c0 .073.017.132.05.177a.162.162.0 00.138.068c.057.0.099-.014.127-.044.027-.029.041-.074.041-.135h.182m.323-.175h.17c.053.0.093-.014.12-.043a.152.152.0 00.04-.109.16.16.0 00-.04-.112c-.026-.029-.066-.043-.12-.043h-.17zm0 .145v.34h-.188v-.938h.359a.37.37.0 01.255.083.279.279.0 01.093.217c0 .09-.031.162-.093.216a.373.373.0 01-.255.082h-.171m1.396-.598v.614a.308.308.0 01-.105.248.406.406.0 01-.272.09.4.4.0 01-.271-.09.31.31.0 01-.104-.248v-.614h.189v.614c0 .063.016.111.05.144a.185.185.0 00.136.05.189.189.0 00.137-.05c.034-.033.051-.081.051-.144v-.614h.19" fill="#424242"/><g fill="#eee"><path d="M41.647 53.35a.106.106.0 01-.075-.032.108.108.0 01-.032-.077v-.385h-.324v.385a.108.108.0 11-.216.0v-.385h-.324v.385a.108.108.0 01-.216.0v-.385h-.323v.385a.108.108.0 11-.217.0v-.385h-.324v.385a.108.108.0 11-.215.0v-.385h-.325v.385a.108.108.0 01-.215.0v-.385h-.324v.385a.108.108.0 11-.217.0v-.385h-.323v.385a.108.108.0 11-.216.0v-.385h-.324v.385a.108.108.0 01-.216.0v-.385h-.323v.385a.108.108.0 11-.216.0v-.385h-.324v.385a.108.108.0 11-.216.0v-.385h-.052a.323.323.0 01-.323-.324v-.051h-.422a.108.108.0 010-.216h.422v-.324h-.421a.108.108.0 01-.108-.108c0-.06.048-.108.108-.108h.421v-.324h-.421a.108.108.0 010-.215h.421v-.324h-.421a.108.108.0 010-.217h.421v-.323h-.421a.108.108.0 010-.216h.421v-.324h-.421a.108.108.0 010-.216h.421v-.324h-.421a.108.108.0 010-.215h.421v-.324h-.421a.108.108.0 010-.216h.421v-.324h-.421a.108.108.0 010-.216h.421v-.324h-.421a.108.108.0 110-.216h.421v-.323h-.421a.108.108.0 010-.216h.421v-.051a.323.323.0 01.324-.324h.051v-.382a.108.108.0 11.216.0v.382h.324v-.382a.108.108.0 11.216.0v.382h.324v-.382a.108.108.0 11.215.0v.382h.324v-.382a.108.108.0 11.217.0v.382h.323v-.382a.108.108.0 11.216.0v.382h.324v-.382a.108.108.0 11.216.0v.382h.324v-.382a.108.108.0 11.215.0v.382h.324v-.382a.108.108.0 11.216.0v.382h.324v-.382a.108.108.0 11.216.0v.382H41v-.382a.108.108.0 11.216.0v.382h.324v-.382a.108.108.0 11.215.0v.382h.052c.01.0.018.0.027.002l.04.005a.341.341.0 01.118.052.326.326.0 01.139.265v.052h.376a.108.108.0 01-.01.215h-.366v.323h.365a.108.108.0 010 .216h-.365v.324h.365a.108.108.0 010 .216h-.366v.324h.366a.107.107.0 01.108.108.108.108.0 01-.108.108h-.366v.324h.366a.108.108.0 01.108.108.108.108.0 01-.108.108h-.366v.323h.366a.107.107.0 01.108.108.108.108.0 01-.108.108h-.366v.324h.366a.107.107.0 01.108.108.108.108.0 01-.108.108h-.366v.323h.366a.108.108.0 01.108.109.108.108.0 01-.108.108h-.366v.323h.366a.108.108.0 010 .216h-.366v.324h.366a.108.108.0 01.108.108.108.108.0 01-.108.108h-.366v.324h.366a.108.108.0 010 .216h-.366v.051a.323.323.0 01-.323.324h-.052v.385a.108.108.0 01-.108.108"/><path d="M41.807 52.856H36.09a.323.323.0 01-.323-.323v-5.716a.323.323.0 01.323-.324h5.716a.323.323.0 01.324.324v5.715a.323.323.0 01-.324.324m-5.556-6.745v.9-.9"/><path d="M36.25 47.119a.108.108.0 01-.108-.108v-.9a.108.108.0 11.216.0v.9a.108.108.0 01-.108.108m.54-1.008v.9-.9m0 1.008a.108.108.0 01-.108-.108v-.9a.108.108.0 11.216.0v.9a.108.108.0 01-.108.108m.54-1.008v.9-.9m0 1.008a.108.108.0 01-.108-.108v-.9a.108.108.0 11.215.0v.9a.108.108.0 01-.107.108m.539-1.008v.9-.9m0 1.008a.108.108.0 01-.108-.108v-.9a.108.108.0 11.217.0v.9a.108.108.0 01-.109.108m.54-1.008v.9-.9m0 1.008a.108.108.0 01-.108-.108v-.9a.108.108.0 11.216.0v.9a.108.108.0 01-.108.108m.54-1.008v.9-.9m0 1.008a.108.108.0 01-.108-.108v-.9a.108.108.0 11.216.0v.9a.108.108.0 01-.108.108m.54-1.008v.9-.9m0 1.008a.108.108.0 01-.108-.108v-.9a.108.108.0 11.215.0v.9a.108.108.0 01-.108.108m.54-1.008v.9-.9m0 1.008a.108.108.0 01-.108-.108v-.9a.108.108.0 11.216.0v.9a.108.108.0 01-.108.108m.54-1.008v.9-.9m0 1.008a.108.108.0 01-.108-.108v-.9a.108.108.0 11.216.0v.9a.108.108.0 01-.108.108m.54-1.008v.9-.9m0 1.008A.108.108.0 0141 47.01v-.9a.108.108.0 11.216.0v.9a.108.108.0 01-.108.108m.54-1.008v.9-.9m0 1.008a.108.108.0 01-.108-.108v-.9a.108.108.0 11.215.0v.9a.108.108.0 01-.108.108m-5.397 5.223v.9-.9m0 1.008a.108.108.0 01-.108-.109v-.899a.108.108.0 01.216.0v.9a.108.108.0 01-.108.108m.54-1.008v.9-.9m0 1.008a.108.108.0 01-.108-.109v-.899a.108.108.0 01.216.0v.9a.108.108.0 01-.108.108m.54-1.008v.9-.9m0 1.008a.108.108.0 01-.108-.109v-.899a.108.108.0 01.215.0v.9a.108.108.0 01-.107.108m.539-1.008v.9-.9m0 1.008a.108.108.0 01-.108-.109v-.899a.108.108.0 01.217.0v.9a.108.108.0 01-.109.108m.54-1.008v.9-.9m0 1.008a.108.108.0 01-.108-.109v-.899a.108.108.0 01.216.0v.9a.108.108.0 01-.108.108m.54-1.008v.9-.9m0 1.008a.108.108.0 01-.108-.109v-.899a.108.108.0 01.216.0v.9a.108.108.0 01-.108.108m.54-1.008v.9-.9m0 1.008a.108.108.0 01-.108-.109v-.899a.108.108.0 01.215.0v.9a.108.108.0 01-.108.108m.54-1.008v.9-.9m0 1.008a.108.108.0 01-.108-.109v-.899a.108.108.0 01.216.0v.9a.108.108.0 01-.108.108m.54-1.008v.9-.9m0 1.008a.108.108.0 01-.108-.109v-.899a.108.108.0 01.216.0v.9a.108.108.0 01-.108.108m.54-1.008v.9-.9m0 1.008A.108.108.0 0141 53.24v-.899a.108.108.0 01.216.0v.9a.108.108.0 01-.108.108m.54-1.008v.9-.9m0 1.008a.108.108.0 01-.108-.109v-.899a.108.108.0 01.215.0v.9a.108.108.0 01-.108.108m.85-6.374h-.9.9"/><path d="M42.496 47.084h-.9a.108.108.0 010-.216h.9a.108.108.0 010 .216m0 .431h-.9.9m0 .108h-.9a.108.108.0 110-.215h.9a.108.108.0 010 .215m0 .432h-.9.9m0 .108h-.9a.108.108.0 110-.216h.9a.108.108.0 010 .216m0 .432h-.9.9m0 .108h-.9a.108.108.0 110-.216h.9a.108.108.0 110 .216m0 .432h-.9.9m0 .108h-.9a.108.108.0 110-.216h.9a.108.108.0 010 .216m0 .431h-.9.9m0 .108h-.9a.108.108.0 110-.216h.9a.108.108.0 010 .216m0 .432h-.9.9m0 .108h-.9a.108.108.0 010-.216h.9a.108.108.0 110 .216m0 .432h-.9.9m0 .108h-.9a.108.108.0 010-.216h.9a.108.108.0 010 .216m0 .431h-.9.9m0 .108h-.9a.108.108.0 110-.215h.9a.108.108.0 010 .215m0 .432h-.9.9m0 .108h-.9a.108.108.0 010-.216h.9a.108.108.0 110 .216m0 .432h-.9.9m0 .108h-.9a.108.108.0 110-.216h.9a.108.108.0 010 .216m-6.25-5.505h-.9.9m0 .108h-.9a.108.108.0 010-.216h.9a.108.108.0 010 .216m0 .431h-.9.9m0 .108h-.9a.108.108.0 010-.215h.9a.108.108.0 010 .215m0 .432h-.9.9m0 .108h-.9a.108.108.0 110-.216h.9a.108.108.0 010 .216m0 .432h-.9.9m0 .108h-.9a.108.108.0 010-.216h.9a.108.108.0 110 .216m0 .432h-.9.9m0 .108h-.9a.108.108.0 010-.216h.9a.108.108.0 010 .216m0 .431h-.9.9m0 .108h-.9a.108.108.0 010-.216h.9a.108.108.0 010 .216m0 .432h-.9.9m0 .108h-.9a.108.108.0 010-.216h.9a.108.108.0 110 .216m0 .432h-.9.9m0 .108h-.9a.108.108.0 010-.216h.9a.108.108.0 110 .216m0 .431h-.9.9m0 .108h-.9a.108.108.0 110-.215h.9a.108.108.0 010 .215m0 .432h-.9.9m0 .108h-.9a.108.108.0 010-.216h.9a.108.108.0 110 .216m0 .432h-.9.9m0 .108h-.9a.108.108.0 010-.216h.9a.108.108.0 010 .216"/></g><path d="M37.449 51.48a.305.305.0 01-.305-.306v-3c0-.168.137-.304.305-.304h3c.168.0.305.136.305.304v3a.305.305.0 01-.305.305h-3" fill="#424242"/><path d="M40.449 51.345h-3a.17.17.0 01-.17-.17v-3a.17.17.0 01.17-.17h3a.17.17.0 01.17.17v3a.17.17.0 01-.17.17" fill="#e7e8ed"/><path d="M38.437 49.812l.001.004a.294.294.0 01-.091.235.373.373.0 01-.26.085.36.36.0 01-.273-.109.39.39.0 01-.103-.28v-.186c0-.115.034-.209.1-.281a.345.345.0 01.267-.11c.114.0.203.028.267.084.065.056.096.135.095.236l-.002.004h-.182c0-.06-.015-.105-.044-.134-.03-.03-.074-.044-.134-.044a.152.152.0 00-.132.067.3.3.0 00-.048.176v.188c0 .072.017.131.05.176a.162.162.0 00.14.069c.055.0.098-.016.126-.045.027-.03.041-.074.041-.135h.182m.323-.175h.17c.053.0.092-.014.12-.042a.152.152.0 00.04-.11.16.16.0 00-.04-.111c-.027-.03-.066-.045-.12-.045h-.17zm0 .145v.34h-.188v-.938h.359a.37.37.0 01.254.083.277.277.0 01.094.217c0 .09-.032.162-.094.216a.372.372.0 01-.254.082h-.171m1.396-.598v.614a.308.308.0 01-.105.248.406.406.0 01-.273.09.4.4.0 01-.27-.09.31.31.0 01-.105-.247v-.615h.19v.614c0 .063.016.111.05.144a.185.185.0 00.135.05.189.189.0 00.138-.05c.034-.033.05-.08.05-.144v-.614h.19" fill="#424242"/><path d="M50.778 23.256l-.02-.02a.353.353.0 10-.351.613.362.362.0 00.491-.121.347.347.0 00-.12-.48zm-1.367-.788-.018-.02a.355.355.0 00-.483.13.353.353.0 00.129.483.363.363.0 00.492-.124.343.343.0 00-.12-.478zm-1.367-.787-.02-.02a.35.35.0 00-.48.128.349.349.0 00.128.481.36.36.0 00.492-.122.342.342.0 00-.12-.475zm-1.367-.79-.018-.02a.353.353.0 10-.354.612.367.367.0 00.494-.124.345.345.0 00-.121-.476zm-1.367-.79h-.01a.354.354.0 10-.353.613.364.364.0 00.49-.127.349.349.0 00-.125-.48zm5.468 20.433-.02.02a.353.353.0 11-.351-.613.362.362.0 01.491.122.347.347.0 01-.12.48zm-1.367.788-.018.02a.355.355.0 01-.483-.13.353.353.0 01.129-.482.363.363.0 01.492.123c.099.169.05.38-.12.478zm-1.367.787-.02.02a.35.35.0 01-.48-.128.349.349.0 01.128-.481.36.36.0 01.492.122.342.342.0 01-.12.476zm-1.367.79-.018.02a.353.353.0 11-.354-.612.367.367.0 01.494.124c.096.17.047.38-.121.476zm-1.367.79h-.01a.354.354.0 11-.353-.612.364.364.0 01.49.126.349.349.0 01-.125.479z" fill="#012c4f" fill-rule="evenodd"/><path d="M69.562 55.445H50.451a1.881 1.881.0 01-1.881-1.881V9.936a1.882 1.882.0 011.881-1.881h19.111a1.882 1.882.0 011.882 1.88v43.629a1.881 1.881.0 01-1.882 1.881" fill="#616161"/><path d="M71.444 53.564v-16.93c-1.844-3.833-6.267-6.537-11.438-6.537-5.17.0-9.593 2.704-11.436 6.536v16.93a1.881 1.881.0 001.881 1.882h19.111a1.881 1.881.0 001.882-1.882" fill="#424242"/><path d="M60.49 55.445h-.965V40.77h.965v14.675" fill="#616161"/><path d="M60.006 41.139c-.88.0-1.687-.524-2.214-1.437l-1.194-2.07c-.528-.913-.577-1.874-.138-2.636.44-.763 1.297-1.2 2.352-1.2h2.389c1.055.0 1.911.437 2.352 1.2.44.762.39 1.723-.136 2.636l-1.196 2.07c-.526.913-1.334 1.437-2.215 1.437" fill="#212121"/><path d="M57.684 37.005l1.194 2.07c.624 1.08 1.634 1.08 2.257.0l1.195-2.07c.623-1.08.118-1.954-1.129-1.954h-2.389c-1.246.0-1.752.874-1.128 1.954" fill="#b3b3b3"/><path d="M70.052 16.441h-20.09v-5.223h20.09v5.223m0 6.027h-20.09v-5.223h20.09v5.223" fill="#424242"/><path d="M55.19 25.392h-3.053v-1.444h3.054v1.444" fill="#757575"/><path d="M55.19 24.479h-3.053v-.53h3.054v.53" fill="#424242"/><path d="M59.894 25.392h-3.052v-1.444h3.053v1.444" fill="#757575"/><path d="M59.894 24.479h-3.052v-.53h3.053v.53" fill="#424242"/><path d="M63.15 24.79a.575.575.0 11-1.151.0.575.575.0 011.15.0" fill="#302f30"/><path d="M62.574 25.238a.45.45.0 110-.9.45.45.0 010 .9" fill="#757575"/><path d="M65.383 24.79a.575.575.0 11-1.15.0.575.575.0 011.15.0" fill="#302f30"/><path d="M64.808 25.238a.45.45.0 110-.899.45.45.0 010 .899" fill="#757575"/><path d="M67.877 24.79a.45.45.0 11-.9-.002.45.45.0 01.9.001" fill="#9ccc65"/><path d="M69.284 19h-1.858v-.862h1.858V19m0-6.075h-1.858v-.863h1.858v.863" fill="#616161"/><path d="M48.57 52.976v.588a1.881 1.881.0 001.881 1.881h19.111a1.881 1.881.0 001.882-1.881v-.588H48.57" fill="#141417"/><path d="M45.384 31.517l-.028-.008a.353.353.0 10-.013.706.362.362.0 00.372-.343.347.347.0 00-.336-.363zm-1.579-.034-.025-.009a.356.356.0 00-.36.346.353.353.0 00.344.362.363.363.0 00.372-.345.343.343.0 00-.335-.362zm-1.576-.032-.027-.008a.35.35.0 00-.36.343.349.349.0 00.343.36.36.36.0 00.373-.343.342.342.0 00-.334-.36zm-1.58-.034-.024-.01a.353.353.0 10-.015.707.367.367.0 00.372-.346.345.345.0 00-.336-.36zm-1.577-.036-.01.005a.354.354.0 10-.015.707.364.364.0 00.37-.346.349.349.0 00-.34-.36z" fill="#012c4f" fill-rule="evenodd"/></g></svg>