<svg xmlns="http://www.w3.org/2000/svg" viewBox="0 0 561.14 80.56"><defs><style>.cls-1{fill:#3f3f3f}.cls-2{fill:#100000}</style></defs><g id="Layer_2" data-name="Layer 2"><g id="Layer_1-2" data-name="Layer 1"><path class="cls-1" d="M126.83 20.71l-3.06 16.51L120.1 60h9l4.46-24.55 4.72 22.94h0l.33 1.61h7.23l.52-.91h0l12.39-21.91L155 60h9l7.14-39.33H159.62l-15.57 27.5-5.67-27.46H126.83zm49.23 7.86h9.67L180 60h-9.77zm36.78-.13a20.63 20.63.0 00-11.74 4.05l.71-3.92h-9.67L186.31 60h9.77l3.56-19.53c2.23-4.27 11.78-5.47 11.45 3L208 60h9.77L222 37.22C223 32 218.77 28.47 212.84 28.44z"/><path class="cls-1" d="M232 20.71l-1.16 7.86h-3.62l-1.6 8.65h3.94C227.67 47 223 60 236 60h5.11l1.57-8.64H240.1s-1.74.08-2.23-.51-.14-2.8-.14-2.8l1.59-10.87h5.94l1.57-8.65h-6.26l1.15-7.86zm8.38 32.92v0zm0 .06v0zm-3.95 5.79-.41.16h0z"/><path class="cls-2" d="M253.28 20.71l-3.06 16.51L246.55 60h9L260 35.49l4.72 22.94h0L265 60h7.23l.52-.91h0l12.39-21.91L281.49 60h9l7.14-39.33H286.07L270.5 48.17l-5.67-27.46H253.28z"/><ellipse class="cls-1" cx="182.19" cy="20.6" rx="5.75" ry="5.09" transform="translate(6.21 72.09) rotate(-22.76)"/><path class="cls-2" d="M316.62 28.11c-8.83.0-17.34 7.22-19 16.12s4.17 16.11 13 16.11h0c6.56.0 13.21-4 16.77-10.19H316.36a7.36 7.36.0 01-5 2.34c-2.84.0-4.83-2.44-4.87-6H329a17.8 17.8.0 00.59-2.31c1.65-8.9-4.17-16.12-13-16.12zM314.91 36c2.6.0 4.51 2 4.85 5.1H307.88C309.53 38 312.31 36 314.91 36z"/><path class="cls-2" d="M351.51 40a12.77 12.77.0 00-12 10.17c-1 5.62 2.63 10.17 8.2 10.17h0a12.77 12.77.0 0011.18-7.61h-6.55a5 5 0 01-3.89 2.65c-2.13.0-3.38-2.33-2.8-5.21S348.45 45 350.58 45h0a2.93 2.93.0 012.77 2.54h6.49a8 8 0 00-8.33-7.5zm21.23.0a12.78 12.78.0 00-12 10.17c-1 5.62 2.63 10.17 8.21 10.17h0a12.76 12.76.0 0012-10.17c1-5.61-2.63-10.17-8.21-10.17zm-1.08 5c2.24.0 3.56 2.33 2.94 5.21h0c-.61 2.88-2.92 5.21-5.16 5.21s-3.56-2.33-2.95-5.21h0c.61-2.88 2.93-5.21 5.17-5.21z"/><ellipse class="cls-2" cx="333.04" cy="56.62" rx="3.52" ry="3.12" transform="matrix(0.92, -0.39, 0.39, 0.92, 4.03, 133.25)"/><path class="cls-2" d="M398.47 40.38a12.93 12.93.0 00-7.31 2.52l.45-2.44h-6L382 60h6l2.22-12.15c1.38-2.66 7.33-3.4 7.12 1.87L395.47 60h6.09l2.36-13c2-1.93 6.68-2 6.49 2.69L408.51 60h6.08l2.58-14.2c1-5.33-6.54-7.72-13.31-2.69-.81-1.72-2.85-2.76-5.39-2.77z"/><path class="cls-2" d="M67.19.0A40.26 40.26.0 0051.83 3V9.89h-8V7.51a39.91 39.91.0 00-6.64 6H38v8.05H31.55a40.47 40.47.0 00-3.94 11.3h5v8H26.92a40.64 40.64.0 00.79 7.38h6.71V56.3H30.24A40.31 40.31.0 0042 71.68V69.51h8v7.2A40.28 40.28.0 1067.19.0zM32.57 23.31h8v8.05h-8zM43 24.75h8.38l4.12 20.31 11.3-20.31H75.2L70 53.84h-6.5L66.18 37l-9 16.2-.38.68H51.56l-.24-1.2h0l-3.43-17-3.24 18.16h-6.5L40.81 37zm45.5 5.48c6.41.0 10.64 5.33 9.44 11.91h0a13.37 13.37.0 01-.43 1.71H81.19c0 2.6 1.48 4.39 3.54 4.4a5.27 5.27.0 003.61-1.73h8a14.55 14.55.0 01-12.18 7.54c-6.41.0-10.64-5.33-9.44-11.92s7.38-11.91 13.79-11.91zM87.28 36c-1.88.0-3.9 1.49-5.1 3.77H90.8C90.56 37.53 89.17 36 87.28 36zM35.38 56.78h8.06v8H35.38z"/><path class="cls-2" d="M27.77 2.24h8.06V10.3H27.77zM19.93 13.46H28v8.05H19.93zM.12 14.6H8.17v8h-8zM8.23 29.9h8.05V38h-8zm6.7 18.34H23V56.3H14.93zM0 56.44H8.06V64.5H0zM22 68.77h8v8.06H22z"/><path class="cls-2" d="M551.87 28.75a20.5 20.5.0 00-11.74 4l.71-3.92h-9.67l-5.83 31.46h9.77l3.56-19.53c2.23-4.27 11.78-5.46 11.45 3l-3.06 16.52h9.77L561 37.52c1-5.27-3.19-8.75-9.12-8.77zM516 28.88h9.67L519.9 60.34h-9.77z"/><ellipse class="cls-2" cx="522.09" cy="21.04" rx="5.75" ry="5.09" transform="translate(32.51 203.61) rotate(-22.76)"/><path class="cls-2" d="M496.79 29.54c-8.45.0-16.58 6.89-18.16 15.4s4 15.4 12.44 15.4h0c8.44.0 16.57-6.89 18.15-15.4s-4-15.4-12.43-15.4zm-1.64 7.51c3.39.0 5.39 3.53 4.46 7.89h0c-.93 4.36-4.43 7.89-7.82 7.89s-5.4-3.53-4.47-7.89h0c.93-4.36 4.43-7.89 7.83-7.89z"/><path class="cls-2" d="M461.59 23.1c-10.22.0-20 8.34-22 18.62h0c-1.91 10.29 4.82 18.62 15 18.62 8.42.0 16.84-5.73 20.49-13.93h-12c-1.86 3-4.58 4.85-7.13 4.85-3.9.0-6.19-4.27-5.12-9.54s5.09-9.54 9-9.54h0c2.47.0 4.4 1.78 5.09 4.65h11.88c-.68-8.1-6.93-13.72-15.26-13.73z"/></g></g></svg>