<svg xmlns="http://www.w3.org/2000/svg" width="355" height="240" viewBox="0 0 93.927 63.5"><circle r="24.723" cy="31.75" cx="46.964" fill="#396da7"/><path d="M46.963 6.35c-14.02.0-25.399 11.38-25.399 25.4s11.38 25.4 25.4 25.4 25.4-11.38 25.4-25.4c0-14.02-11.38-25.4-25.4-25.4zm0 1.354c13.288.0 24.046 10.758 24.046 24.046S60.25 55.796 46.963 55.796 22.918 45.038 22.918 31.75 33.675 7.704 46.963 7.704z" style="line-height:normal;font-variant-ligatures:normal;font-variant-position:normal;font-variant-caps:normal;font-variant-numeric:normal;font-variant-alternates:normal;font-feature-settings:normal;text-indent:0;text-align:start;text-decoration-line:none;text-decoration-style:solid;text-decoration-color:#000;text-transform:none;text-orientation:mixed;white-space:normal;shape-padding:0;isolation:auto;mix-blend-mode:normal;solid-color:#000;solid-opacity:1" color="#000" font-weight="400" font-family="sans-serif" overflow="visible" fill="#012d4f"/><path d="M58.082 19.995c0 5.023-24.218 10.568-26.052 10.568-1.028.0-2.194-.237-2.194-1.184.0-.317.365-.775 1.007-1.327h-.001l-1.7-3.02a.776.776.0 01.388-1.101l.292-.117a1.941 1.941.0 011.63.086l3.086 1.634a73.969 73.969.0 014.001-2.193l-6.014-3.902a.776.776.0 01.01-1.309l.491-.309a3.493 3.493.0 012.75-.42l10.005 2.64c3.12-1.239 5.94-2.084 7.61-2.084.445.0.891.012 1.322.043l-3.021 1.364-.072 1.016 4.664-2.144c1.118.267 1.798.764 1.798 1.759zM45.91 28.667l3.732 4.24a.776.776.0 00.91.19l.5-.232a2.329 2.329.0 001.332-2.383l-.468-3.994a.388.388.0 00-.514-.321l-5.33 1.877a.388.388.0 00-.162.623z" fill="#fff" stroke-width="5.576"/><g fill="#fff" stroke-width="23.743"><path d="M35.045 36.543c-.001.0-.002.0-.003-.002a.59.59.0 00-.846-.001l-.005.005a.58.58.0 00-.176.402l1.036 2.334h.17v-2.316a.58.58.0 00-.176-.422zm0 0"/><path d="M33.773 36.393c.054.052.1.11.137.176a.756.756.0 01.137-.175.799.799.0 011.141.0c.054.05.1.11.138.175a.756.756.0 01.136-.175.799.799.0 011.142.0c.054.05.1.11.137.175a.756.756.0 01.137-.175.799.799.0 011.126-.016 2.732 2.732.0 00-2.678-2.21 2.732 2.732.0 00-2.678 2.209.8.8.0 011.125.016zm0 0"/><path d="M37.873 36.541a.59.59.0 00-.846-.002l-.004.005a.58.58.0 00-.178.423c0 .014-.003.029-.008.042l-.998 2.272h.162l2.04-2.408c-.03-.096-.09-.26-.165-.33l-.003-.002zm0 0M36.46 36.543l-.002-.002a.59.59.0 00-.847-.002l-.004.004a.58.58.0 00-.177.422v2.316h.182l1.025-2.334a.584.584.0 00-.177-.404zm0 0m-1.61 3.406h.95v.653h-.95zm0 0"/><path d="M34.405 41.033h1.841v-1.544h-1.84zm.238-1.188c0-.057.046-.104.104-.104h1.158c.057.0.104.047.104.104v.861a.104.104.0 01-.104.104h-1.158a.104.104.0 01-.104-.104zm0 0M34.824 39.28l-1.009-2.27v-.002a.102.102.0 01-.009-.043.58.58.0 00-.18-.424.59.59.0 00-.846-.001l-.004.005c-.074.07-.136.233-.166.328l2.04 2.408zm0 0"/></g><g fill="#fff" stroke-width="16.226"><path d="M61.084 34.167l-.003-.004a.863.863.0 00-1.239-.002l-.006.007a.85.85.0 00-.259.59l1.517 3.414h.25v-3.388a.848.848.0 00-.26-.617zm0 0"/><path d="M59.223 33.946c.08.076.147.163.201.258.054-.095.121-.18.2-.256a1.169 1.169.0 011.67-.002c.08.076.147.163.201.258.054-.095.121-.18.2-.256a1.169 1.169.0 011.67-.002c.08.076.148.163.202.258.053-.095.12-.181.2-.256.449-.46 1.185-.47 1.647-.024a3.997 3.997.0 00-3.919-3.233 3.997 3.997.0 00-3.918 3.232 1.17 1.17.0 011.646.023zm0 0"/><path d="M65.223 34.163a.864.864.0 00-1.238-.003l-.007.007a.85.85.0 00-.259.619.172.172.0 01-.013.062l-1.459 3.324h.236l2.986-3.523c-.044-.141-.133-.38-.242-.483l-.004-.003zm0 0M63.155 34.166l-.003-.003a.864.864.0 00-1.239-.003l-.006.006a.848.848.0 00-.26.618v3.388h.268l1.499-3.414a.855.855.0 00-.259-.592zm0 0M60.8 39.15h1.39v.956H60.8zm0 0"/><path d="M60.149 40.736h2.693v-2.26H60.15zm.347-1.738c0-.084.068-.152.152-.152h1.695c.084.0.152.068.152.152v1.26a.152.152.0 01-.152.152h-1.695a.152.152.0 01-.152-.152zm0 0M60.76 38.172l-1.475-3.322v-.004a.15.15.0 01-.013-.062.848.848.0 00-.263-.62.863.863.0 00-1.238-.003l-.007.007c-.108.102-.199.342-.243.481l2.986 3.523zm0 0"/></g><g fill="#fff" stroke-width="10.336"><path d="M47.513 40.96l-.005-.005a1.355 1.355.0 00-.975-.412 1.332 1.332.0 00-.97.408l-.01.012a1.334 1.334.0 00-.406.924l2.381 5.361h.392V41.93a1.33 1.33.0 00-.407-.97zm0 0"/><path d="M44.591 40.614c.125.119.232.255.316.405.084-.149.19-.284.314-.402a1.835 1.835.0 012.622-.003c.125.119.231.255.316.405.084-.149.19-.284.314-.402a1.835 1.835.0 012.622-.003c.124.119.23.255.316.405.084-.149.19-.284.313-.402a1.835 1.835.0 012.587-.037 6.275 6.275.0 00-6.152-5.076 6.275 6.275.0 00-6.151 5.073 1.837 1.837.0 012.583.037zm0 0"/><path d="M54.011 40.955a1.356 1.356.0 00-.974-.413 1.331 1.331.0 00-.97.408l-.01.01c-.263.255-.41.606-.407.972a.27.27.0 01-.02.098l-2.291 5.218h.371l4.688-5.53c-.07-.222-.21-.597-.382-.758l-.005-.005zm0 0M50.765 40.96l-.006-.006a1.357 1.357.0 00-.974-.412 1.331 1.331.0 00-.97.407l-.01.01c-.263.254-.41.605-.407.97v5.32h.42l2.353-5.361a1.342 1.342.0 00-.406-.928zm0 0m-3.697 7.823h2.182v1.5h-2.182zm0 0"/><path d="M46.044 51.273h4.23v-3.547h-4.23zm.546-2.729c0-.132.107-.239.239-.239h2.66c.132.0.239.107.239.24v1.977a.239.239.0 01-.239.239h-2.66a.239.239.0 01-.239-.239zm0 0M47.005 47.248l-2.316-5.216v-.006a.235.235.0 01-.02-.097 1.33 1.33.0 00-.413-.974 1.355 1.355.0 00-.975-.412 1.332 1.332.0 00-.97.408l-.01.012c-.17.16-.312.536-.38.755l4.687 5.53zm0 0"/></g><path d="M73.263 10.878c.205-.4.17-.854-.01-1.23.051-.43-.061-.865-.467-1.199a3589.787 3589.787.0 01-1.133-.932c-.663-.546-1.703-.719-2.349.0-2.933 3.263-6 6.386-9.179 9.394-2.364-2.209-4.756-4.386-7.132-6.567-.833-.766-2.04-.526-2.565.386-.763.38-1.383.874-1.894 1.718-.244.401-.225.909.0 1.312 1.532 2.75 4.497 5.167 6.934 7.392-.326.292-.65.587-.982.872-3.284 2.82-5.499 4.609-1.39 7.5.056.04.112.03.168.053a.917.917.0 00.242.076c.027.001.052.006.08.004.084.007.167.028.252.012 2.21-.433 4.264-2.165 6.128-4.07 1.815 1.789 3.749 3.499 5.875 4.513.506.242 1.11.1 1.5-.237.652.05 1.248-.356 1.547-.94l.121-.073c.95-.594 1.037-1.776.334-2.59-1.587-1.84-3.275-3.588-4.995-5.306 3.097-3.026 6.965-6.29 8.915-10.088z" fill="#d32f2f"/></svg>