<svg xmlns="http://www.w3.org/2000/svg" width="355" height="240" viewBox="0 0 93.927 63.5"><g stroke-width="1.979" fill-rule="evenodd"><path d="M26.827 6.35c6.22.0 11.264 5.043 11.264 11.264.0 6.222-5.044 11.266-11.264 11.266-6.223.0-11.265-5.044-11.265-11.266.0-6.221 5.042-11.264 11.265-11.264" fill="#d0d2d2"/><path d="M46.665 27.754l-.021-.02a.379.379.0 10-.378.656c.181.105.424.05.527-.13a.372.372.0 00-.128-.515zM45.2 26.91l-.02-.022a.381.381.0 00-.517.14.379.379.0 00.138.517c.18.105.424.047.527-.133A.368.368.0 0045.2 26.9zm-1.465-.844-.021-.021a.375.375.0 00-.516.137.374.374.0 00.138.515c.18.108.424.05.527-.13a.367.367.0 00-.128-.51zm-1.465-.846-.02-.022a.379.379.0 10-.38.656c.181.103.424.047.53-.133a.37.37.0 00-.13-.51zm-1.466-.847h-.01a.38.38.0 10-.38.656.39.39.0 00.526-.135.374.374.0 00-.135-.514zm-.326-1.712-2.319.621.621 2.319 1.698-2.94" fill="#012c4f"/><path d="M26.827 34.62c6.22.0 11.264 5.042 11.264 11.263.0 6.222-5.044 11.267-11.264 11.267-6.223.0-11.265-5.045-11.265-11.267.0-6.22 5.042-11.263 11.265-11.263" fill="#d0d2d2"/><path d="M46.665 35.707l-.021.021a.379.379.0 01-.378-.657.389.389.0 01.527.133.368.368.0 01-.128.511zm-1.466.845-.02.021a.38.38.0 01-.379-.657.39.39.0 01.527.132.365.365.0 01-.128.51zm-1.465.845-.021.022a.377.377.0 01-.516-.137.377.377.0 01.138-.52.39.39.0 01.527.134.367.367.0 01-.128.51zm-1.465.848-.02.022a.379.379.0 11-.38-.656.392.392.0 01.53.133.369.369.0 01-.13.51zm-1.466.847h-.01a.38.38.0 01-.517-.137.381.381.0 01.137-.52.39.39.0 01.526.135.376.376.0 01-.135.516zm-.326 1.71-2.319-.621.621-2.318 1.698 2.939" fill="#012c4f"/><path d="M61.962 15.243c9.062.0 16.404 7.34 16.404 16.398s-7.342 16.404-16.404 16.404c-9.054.0-16.396-7.346-16.396-16.404s7.342-16.398 16.396-16.398" fill="#012c4f"/><g fill="#fafafa"><path d="M61.97 18.345c-7.332.0-13.301 5.97-13.301 13.301.0 7.334 5.969 13.298 13.3 13.298 7.334.0 13.294-5.964 13.294-13.298.0-7.33-5.96-13.301-13.294-13.301zm0 24.628c-6.246.0-11.335-5.08-11.335-11.327s5.09-11.323 11.334-11.323c6.238.0 11.327 5.076 11.327 11.323.0 6.246-5.089 11.327-11.327 11.327"/><path d="M61.97 23.579a.654.654.0 00.644-.662v-1.294a.654.654.0 00-.645-.662.655.655.0 00-.653.662v1.295c0 .362.287.661.653.661m0 15.988a.653.653.0 00-.653.65v1.31a.647.647.0 00.653.65.644.644.0 00.645-.65v-1.31a.652.652.0 00-.645-.65m-8.654-8.644h-1.3a.647.647.0 00-.66.651c0 .363.294.64.66.64h1.3a.644.644.0 00.662-.64.647.647.0 00-.662-.65m18.6.0H70.61a.643.643.0 00-.645.65c0 .363.294.64.645.64h1.307a.638.638.0 00.654-.64.64.64.0 00-.654-.65m-9.302-.73V26.02a.645.645.0 00-.645-.65.647.647.0 00-.653.65v4.185a1.494 1.494.0 00-.71 1.949l-5.497 4.279a.647.647.0 00-.12.917.666.666.0 00.914.118L61.643 33c1.722.395 2.58-2.036.971-2.803"/></g><path d="M32.992 13.993v-.78c0-1.051-3.178-1.62-6.17-1.62-2.983.0-6.161.57-6.161 1.62v.78c0 .228.145.432.408.617-.257.179-.408.377-.408.608v.785c0 .222.15.432.412.616-.261.18-.412.377-.412.609v.78c0 .234.15.432.412.61-.261.187-.412.385-.412.617v.78c0 .228.145.432.408.616-.257.18-.408.384-.408.616v.776c0 1.05 3.178 1.615 6.16 1.615 2.993.0 6.17-.564 6.17-1.615v-.776c0-.228-.152-.438-.418-.616.266-.18.419-.39.419-.615v-.782c0-.227-.153-.431-.419-.616.266-.18.419-.377.419-.61v-.78c0-.227-.153-.431-.419-.609.266-.186.419-.39.419-.616v-.785c0-.227-.153-.432-.419-.608.266-.186.419-.39.419-.616zm-6.17-2.168c3.498.0 5.935.732 5.935 1.388.0.649-2.437 1.381-5.936 1.381-3.496.0-5.925-.732-5.925-1.381.0-.656 2.428-1.388 5.925-1.388zm5.935 9.422c0 .645-2.437 1.382-5.936 1.382-3.496.0-5.925-.737-5.925-1.382.0-.162.137-.324.406-.486 1.074.576 3.347.874 5.52.874 2.18.0 4.447-.3 5.527-.874.261.162.408.324.408.486zm0-2.012c0 .654-2.437 1.388-5.936 1.388-3.496.0-5.925-.734-5.925-1.388.0-.162.137-.324.406-.48 1.074.57 3.347.869 5.52.869 2.18.0 4.447-.3 5.527-.87.261.157.408.32.408.48zm0-2.007c0 .65-2.437 1.383-5.936 1.383-3.496.0-5.925-.734-5.925-1.383.0-.162.137-.324.406-.48 1.074.564 3.347.87 5.52.87 2.18.0 4.447-.306 5.527-.87.261.156.408.318.408.48zm0-2.01c0 .657-2.437 1.386-5.936 1.386-3.496.0-5.925-.73-5.925-1.386.0-.156.137-.318.406-.48 1.074.57 3.347.87 5.52.87 2.18.0 4.447-.3 5.527-.87.261.156.408.318.408.48m.235 27.045v-.78c0-1.051-3.178-1.62-6.17-1.62-2.983.0-6.161.569-6.161 1.62v.78c0 .228.145.432.408.616-.257.18-.408.378-.408.608v.786c0 .222.15.432.412.615-.261.18-.412.378-.412.61v.78c0 .234.15.432.412.61-.261.187-.412.385-.412.617v.78c0 .228.145.432.408.617-.257.18-.408.383-.408.615v.775c0 1.05 3.178 1.616 6.16 1.616 2.993.0 6.17-.564 6.17-1.616v-.775c0-.228-.152-.438-.418-.616.266-.18.419-.39.419-.616v-.78c0-.228-.153-.432-.419-.616.266-.18.419-.378.419-.61v-.781c0-.228-.153-.432-.419-.61.266-.185.419-.39.419-.615v-.786c0-.227-.153-.431-.419-.608.266-.186.419-.39.419-.616zm-6.17-2.168c3.498.0 5.935.731 5.935 1.388.0.649-2.437 1.38-5.936 1.38-3.496.0-5.925-.731-5.925-1.38.0-.657 2.428-1.388 5.925-1.388zm5.935 9.422c0 .645-2.437 1.382-5.936 1.382-3.496.0-5.925-.737-5.925-1.382.0-.162.137-.324.406-.486 1.074.576 3.347.874 5.52.874 2.18.0 4.447-.3 5.527-.874.261.161.408.324.408.486zm0-2.012c0 .654-2.437 1.388-5.936 1.388-3.496.0-5.925-.734-5.925-1.388.0-.162.137-.324.406-.48 1.074.57 3.347.869 5.52.869 2.18.0 4.447-.3 5.527-.87.261.157.408.32.408.48zm0-2.007c0 .65-2.437 1.382-5.936 1.382-3.496.0-5.925-.733-5.925-1.382.0-.162.137-.324.406-.48 1.074.564 3.347.87 5.52.87 2.18.0 4.447-.306 5.527-.87.261.156.408.318.408.48zm0-2.01c0 .656-2.437 1.385-5.936 1.385-3.496.0-5.925-.729-5.925-1.386.0-.155.137-.317.406-.48 1.074.57 3.347.871 5.52.871 2.18.0 4.447-.3 5.527-.87.261.156.408.318.408.48" fill="#012c4f"/></g></svg>