<svg xmlns="http://www.w3.org/2000/svg" width="720" height="148.199" viewBox="0 0 190.5 39.211">
    <g transform="translate(-22.494 -162.565)">
        <path d="M195.3 176.678h3.889l-3.18 11.875h-3.867zm4.278-1.487h-3.89l.801-2.975h3.89zM201.714 177.593c.839-.26 1.602-.47 2.288-.63a29.81 29.81 0 012.334-.434c.87-.13 1.762-.194 2.677-.194.808 0 1.468.072 1.98.217.51.145.915.343 1.212.595.297.252.503.534.618.846.114.313.171.641.171.984 0 .343-.034.683-.103 1.019-.068.335-.141.648-.217.938l-2.037 7.619h-3.89l1.717-6.407.309-1.2c.099-.39.137-.737.114-1.042a1.047 1.047 0 00-.366-.744c-.222-.19-.6-.286-1.133-.286-.29 0-.568.027-.835.08a5.212 5.212 0 00-.72.195 4.657 4.657 0 00-.687.274l-2.448 9.13h-3.866zM168.482 180.447c-.19.712-.263 1.382-.221 2.01.042.627.21 1.172.503 1.631.294.462.717.822 1.272 1.084.554.261 1.25.392 2.087.392.522 0 1.036-.058 1.538-.173.502-.115.999-.255 1.492-.423.49-.168.973-.35 1.443-.55.47-.198.947-.392 1.428-.58l-1.067 3.986c-.377.105-.78.225-1.208.361a17.75 17.75 0 01-3.328.706c-.7.083-1.501.125-2.4.125-1.426 0-2.65-.199-3.67-.596-1.02-.397-1.832-.967-2.43-1.71-.6-.743-.968-1.653-1.104-2.732-.137-1.077-.027-2.295.33-3.656a11.802 11.802 0 011.61-3.563 11.207 11.207 0 012.557-2.699c.988-.742 2.099-1.313 3.335-1.71 1.234-.398 2.563-.597 3.985-.597.9 0 1.675.043 2.323.126.648.083 1.213.188 1.695.314.482.125.9.256 1.256.392.355.137.7.257 1.036.362l-1.068 3.985a34.236 34.236 0 01-1.114-.58 13.111 13.111 0 00-1.146-.55 9.39 9.39 0 00-1.255-.424 5.71 5.71 0 00-1.444-.172c-.837 0-1.606.141-2.307.424a6.626 6.626 0 00-1.884 1.146 6.87 6.87 0 00-1.396 1.663 7.712 7.712 0 00-.848 2.008zM179.117 182.018a8.968 8.968 0 011.118-2.578 8.52 8.52 0 011.833-2.067 8.752 8.752 0 012.416-1.378 8.013 8.013 0 012.869-.51c1.015 0 1.884.166 2.606.498.723.333 1.286.793 1.69 1.379.405.586.647 1.28.726 2.078.08.8 0 1.66-.237 2.578a9.257 9.257 0 01-1.143 2.59 8.809 8.809 0 01-1.833 2.068 8.323 8.323 0 01-5.308 1.877c-1.016 0-1.88-.17-2.595-.511-.714-.34-1.27-.8-1.666-1.378-.397-.578-.635-1.263-.714-2.056-.08-.792 0-1.655.238-2.59zm3.968.024a8.603 8.603 0 00-.285 1.462c-.048.467-.028.883.06 1.247.086.365.26.654.522.868.261.213.645.32 1.152.32.49 0 .93-.107 1.32-.32a3.29 3.29 0 001.009-.868c.284-.364.526-.78.725-1.247.197-.467.368-.954.51-1.462.143-.523.241-1.021.297-1.497.055-.475.035-.894-.06-1.259a1.58 1.58 0 00-.546-.867c-.27-.214-.65-.321-1.14-.321-.491 0-.927.107-1.307.32-.38.214-.713.504-.998.868a5.71 5.71 0 00-.737 1.26c-.205.475-.38.973-.522 1.496z" fill="#c3af83"/>
        <circle r="19.378" cy="182.171" cx="94.313" fill="none" stroke="#c3af83" stroke-width=".455"/>
        <circle cx="94.313" cy="182.171" r="18.099" fill="none" stroke="#c3af83" stroke-width=".304"/>
        <path d="M94.313 164.715a17.455 17.455 0 00-17.456 17.456 17.455 17.455 0 0017.456 17.455 17.455 17.455 0 0017.455-17.455 17.455 17.455 0 00-17.455-17.456zM84.246 174.75H89.4a515.395 515.395 0 00-.236 7.446c-.007.708-.148 1.513-.103 2.157 1.076-2.463 2.346-4.831 3.535-7.24.392-.786.78-1.574 1.167-2.363h5.152l-2.84 13.55h-3.478l2.162-10.286c-.232.28-.376.704-.575 1.04l-4.784 9.246h-2.82l.13-10.286c-.159.226-.206.607-.322.893l-3.006 9.393h-3.46l4.325-13.55zm21.03 3.4c.376 0 .751.032 1.121.1 1.25.215 2.362 1.174 2.643 2.44.307 1.116.066 2.3-.307 3.37-.058.232-.373.078-.557.122h-6.526c-.19.715-.015 1.594.661 1.987.752.473 1.7.345 2.53.205 1.058-.225 2.105-.514 3.108-.92l-1.128 2.543c-.679.26-1.42.324-2.134.45-1.507.183-3.144.306-4.538-.422-1.044-.506-1.677-1.64-1.702-2.79-.052-2.317 1.11-4.636 3.031-5.92a6.886 6.886 0 013.799-1.165zm-.58 2.08c-.42.006-.843.118-1.208.304-.629.365-1.034 1.017-1.312 1.675h3.968c.118-.614.13-1.448-.505-1.783a2.104 2.104 0 00-.944-.196zM46.374 176.606h3.845l-3.144 11.737h-3.821zm4.23-1.47h-3.845l.791-2.94h3.845zM52.503 177.51c2.639-.804 5.404-1.393 8.178-1.201 1.087.091 2.365.485 2.8 1.598.444 1.303-.104 2.634-.414 3.906l-1.745 6.53h-3.845c.686-2.6 1.417-5.189 2.064-7.8.196-.67-.009-1.615-.827-1.711-.96-.172-1.95.082-2.82.488l-2.42 9.023h-3.82l2.849-10.832zM72.81 179.094h-2.42c-.499 1.918-1.03 3.828-1.508 5.75-.206.76.688 1.012 1.268.907.34.068 1.192-.248.872.335l-.609 2.257c-1.406.104-2.846.27-4.237-.034-.882-.242-1.497-1.134-1.405-2.046.062-.973.42-1.894.642-2.837l1.156-4.332h-1.922l.678-2.487h1.922l.95-3.55h3.845l-.973 3.55h2.42l-.679 2.487zM115.048 188.227c-.143.013-.24-.148-.184-.273.145-.544.287-1.088.433-1.632a.362.362 0 01.374-.252c.54 0 1.078-.001 1.618.001.136.005.21.162.156.279-.143.541-.285 1.083-.43 1.625a.362.362 0 01-.375.252h-1.592zM121.212 183.74c-.225.803-.217 1.835.499 2.396.825.617 1.962.492 2.89.207.652-.19 1.267-.48 1.899-.725l-.592 2.21c-1.098.356-2.231.639-3.393.653-1.301.057-2.758-.125-3.702-1.121-.888-.944-.894-2.364-.594-3.55.468-2.02 1.973-3.782 3.94-4.472 1.462-.53 3.08-.52 4.587-.2.439.135 1.043.263 1.358.498l-.577 2.155c-.952-.507-1.97-1.08-3.09-.942-1.57.123-2.855 1.396-3.225 2.89zM128.173 183.704c.491-1.968 1.958-3.674 3.868-4.386 1.222-.464 2.624-.557 3.866-.117 1.031.361 1.812 1.313 1.945 2.4.228 1.716-.447 3.47-1.556 4.765-1.44 1.7-3.87 2.514-6.032 1.945-1.079-.289-1.999-1.172-2.2-2.29-.162-.766-.082-1.564.109-2.317zm2.905.018c-.19.755-.393 1.61-.022 2.342.36.6 1.18.589 1.77.4.992-.36 1.492-1.39 1.796-2.33.238-.81.509-1.687.27-2.527-.157-.577-.786-.834-1.338-.77-.962.031-1.67.84-2.036 1.66a7.966 7.966 0 00-.44 1.225zM139.967 179.895c1.898-.68 4.608-1.023 5.962-.9 1.353.125.882.61 1.94.281 1.056-.33 2.926-.515 4.355-.152.797.183 1.467.882 1.448 1.726-.003 1.096-.421 2.13-.67 3.186l-1.12 4.191h-2.957c.563-2.127 1.154-4.247 1.694-6.38.258-.713-.43-1.009-1.094-.954-.546.045-1.413.113-1.472.798-.602 2.174-1.163 4.36-1.754 6.536h-2.957c.556-2.094 1.13-4.185 1.674-6.281.256-.668-.273-1.107-.993-1.062-.525.034-1.147.148-1.475.509l-1.833 6.834h-2.94l2.192-8.332zM25.343 177.51c2.468-.884 5.99-1.33 7.75-1.169 1.76.161 1.148.793 2.522.365 1.375-.43 3.806-.67 5.663-.198 1.036.238 1.907 1.147 1.883 2.243-.004 1.425-.548 2.77-.87 4.143l-1.457 5.45H36.99c.732-2.766 1.5-5.523 2.202-8.295.337-.928-.558-1.313-1.422-1.241-.71.058-1.837.147-1.913 1.037-.783 2.826-1.513 5.668-2.28 8.498H29.73c.724-2.723 1.47-5.44 2.177-8.167.333-.868-.354-1.439-1.291-1.38-.683.044-1.491.192-1.917.662l-2.383 8.885h-3.822l2.849-10.833z" fill="#c3af83"/>
    </g>
</svg>
