<svg xmlns="http://www.w3.org/2000/svg" viewBox="0 0 198.89 300"><defs><style>.cls-1{fill:#4f2e16}.cls-2{fill:#ffdda8}.cls-3{fill:#bc7c46}.cls-4{fill:#dda866}.cls-5{fill:#f9c98a}.cls-6{fill:#e5e0dc}.cls-7{fill:#aaa}.cls-8{fill:#939899}.cls-9{fill:#d1d1d1}.cls-10{fill:#cb9904}.cls-11{fill:#d5eefa}.cls-12{fill:#eaf5f9}.cls-13{fill:#cc0e0e}.cls-14{fill:#d1b000}</style></defs><title>Recurso 6</title><g id="Capa_2" data-name="Capa 2"><g id="Capa_1-2" data-name="Capa 1"><polygon class="cls-1" points="39.84 279.43 38.24 280.07 38.48 278.37 40.08 277.73 39.84 279.43"/><path class="cls-2" d="M110 202.47l-7-5.5-22.4-17.68-24.68 9.85-4.08 1.64-.41.17-3.76 1.5-26.86 10.73 20.52 16.16L43.39 221l.36.29 3.33 2.62 3.31 2.62L72.51 243.9l26.7-10.68 3.91-1.57.42-.18 3.94-1.57 24.77-9.9z"/><polygon class="cls-3" points="72.52 243.88 64.42 300 42.3 282.71 42.21 282.64 38.31 279.59 36.99 278.57 35.29 277.24 33.22 275.62 12.69 259.57 20.83 203.18 43.4 220.96 45.11 222.31 46.42 223.34 50.42 226.48 72.52 243.88"/><path class="cls-4" d="M107.46 229.9l-2.14.86-1.56.62-.31.13-.4.16-3.86 1.54-26.67 10.67L64.42 3e2l26.65-10.57 4.58-1.82L97.2 287l2.14-.85 24.81-9.83L132.27 220z"/><path class="cls-5" d="M80.47 180.15 22.31 203.41l50.35 39.38 58.13-23z"/><polygon class="cls-3" points="132.18 220.56 132.12 221 72.36 244.88 72.43 244.44 132.18 220.56"/><polygon class="cls-3" points="103.53 231.48 103.13 231.65 51.43 190.96 51.83 190.78 103.53 231.48"/><polygon class="cls-3" points="103.45 231.52 103.32 232.43 102.94 232.37 103.04 231.68 103.45 231.52"/><polygon class="cls-6" points="126.13 241.45 108.87 248.35 110.84 234.65 128.11 227.75 126.13 241.45"/><polygon class="cls-7" points="107.55 200.51 93.52 200.8 78.13 201.13 78.11 199.69 97.3 199.28 105.77 199.1 107.55 200.51"/><rect class="cls-8" x="75.58" y="198.65" width="3.59" height="4.81" transform="translate(-69.1 43.08) rotate(-21.79)"/><path class="cls-8" d="M77.29 196.66a3.45 3.45.0 00-.21.8 6.7 6.7.0 000 1.67v0a.91.91.0 01.53.23 3 3 0 011 2.51 1.16 1.16.0 01-.23.56 5.57 5.57.0 001.13 1.23 3.37 3.37.0 00.7.44 2 2 0 001.62.13 1.84 1.84.0 00.82-.68 3.32 3.32.0 00.46-1.33A7.42 7.42.0 0080.68 196a3.32 3.32.0 00-1.25-.62 1.81 1.81.0 00-1.06.07A2 2 0 0077.29 196.66z"/><path class="cls-8" d="M75.68 196.52l2.69-1.07a1.81 1.81.0 011.06-.07l3.28 8.19a1.84 1.84.0 01-.82.68l-2.69 1.08-1-2.64a.52.52.0 00.29-.24 1.16 1.16.0 00.23-.56 3 3 0 00-1-2.51.91.91.0 00-.53-.23v0a.69.69.0 00-.38.0z"/><path class="cls-9" d="M78 197.08a2.55 2.55.0 00-.7-.42 1.9 1.9.0 00-1.61-.13 2.32 2.32.0 00-1.28 2 6.68 6.68.0 00.45 3.28 8.06 8.06.0 00.64 1.32 6 6 0 001.39 1.62 2.35 2.35.0 002.31.57 2 2 0 001.09-1.22 3.15 3.15.0 00.2-.79A7.45 7.45.0 0078 197.08zm.68 4.81a1.2 1.2.0 01-.23.57.57.57.0 01-.3.23 1 1 0 01-.93-.24 1 1 0 01-.29-.29 3.15 3.15.0 01-.65-1.32 2.47 2.47.0 01-.06-.89 1 1 0 01.53-.8.58.58.0 01.37.0h0a.82.82.0 01.53.24 1.64 1.64.0 01.3.29l.18-.12.82 1.18-.34.25A2.52 2.52.0 0178.67 201.89z"/><polygon class="cls-7" points="46.42 223.34 38.24 280.07 36.93 279.01 45.11 222.31 46.42 223.34"/><path class="cls-9" d="M79 200.74l-.34.25a3.12 3.12.0 00-.66-1.31l.18-.12z"/><path class="cls-7" d="M78.61 201l-1.69 1.17-1.43 1-29.07 20.2-1.31-1.05 29.74-20.47 1.42-1L78 199.68A3.12 3.12.0 0178.61 201z"/><path class="cls-1" d="M78.46 200.56a1.82 1.82.0 01.16.55v0l-.33-.38z"/><path class="cls-7" d="M182.73 110.17 82 197.52a9.76 9.76.0 01.51.89l1e2-86.73z"/><polygon class="cls-7" points="77.88 201.33 5.71 83.94 6.57 83.41 78.61 200.99 77.88 201.33"/><polygon class="cls-7" points="77.75 201.11 56.82 121.99 57.8 121.73 78.61 200.99 77.75 201.11"/><path class="cls-1" d="M78.46 200.56a1.82 1.82.0 01.16.55v0l-.43-.28.24-.36A.18.18.0 0178.46 200.56z"/><path class="cls-7" d="M126.38 130.16 81.8 197.21a5.54 5.54.0 00-.69-.82l44.43-66.78z"/><path class="cls-10" d="M172.77 33.24C139.57 2.64 79.83-6 39.34 14s-46.41 61-13.21 91.54 92.93 39.22 133.43 19.26S206 63.84 172.77 33.24z"/><path class="cls-11" d="M198.86 75.16c-.52-14.85-7.9-30.23-22.5-43.69A106.58 106.58.0 00154.3 16 133.29 133.29.0 00123.52 4.3q-7.08-1.76-14.33-2.8c-.55-.08-1.08-.15-1.63-.21C103.5.72 99.4.35 95.31.16 91.48.0 87.63.0 83.82.09h-.27q-6.27.21-12.43 1a110.9 110.9.0 00-34.7 10.16A85.24 85.24.0 0026 17.3c22.67-8.88 49.8-10.15 75.15-4.71.48-.1 1-.19 1.5-.25h.28a11.92 11.92.0 011.59-.09c.47.0 1 0 1.45.0.26.0.54.0.8.06.57.07 1.14.15 1.71.26l1 .2.93.26a.1.1.0 01.08.0c.27.08.53.15.8.25a.48.48.0 01.2.07c.24.08.48.17.71.27l.21.08a14.33 14.33.0 013.25 1.88 9.62 9.62.0 011.44 1.4c1.88 2.27 1.76 4.77-.21 6.6a8.48 8.48.0 01-2.62 1.57 16.11 16.11.0 01-7.19.93 20.09 20.09.0 01-2.87-.43 17.44 17.44.0 01-4.39-1.55 12.28 12.28.0 01-3.18-2.29c-5.66-.15-18-.22-28.41 2.08a108.28 108.28.0 00-26.16 9.16C17.44 45.23 5 64.82 5.73 85.4a75.32 75.32.0 0016.82 21.89c1.68 1.56 3.41 3 5.21 4.48a117.29 117.29.0 0031.78 17.78c30.41 11.54 66.54 12.58 95.39 1.27 2.58-1 5.11-2.12 7.56-3.33 24.67-12.16 37.1-31.75 36.37-52.33z"/><path class="cls-11" d="M36.39 11.27A85.24 85.24.0 0026 17.3c3.18-1.24 6.44-2.3 9.77-3.3a66.8 66.8.0 015.74-5c-1.73.69-3.45 1.45-5.12 2.27z"/><path class="cls-12" d="M26.66 63.39c3.38 1.7 7.61 5.94 12.7 4.26 3.9-1.86 7.63-2.53 9.5-7.11 1.35 7.46 1.66 22 12.68 21.2 2.37.35 6.62-3.88 8.32-7.27 1.5 14.74 18.61 22 33.18 21.74 7.46-1.35 17.29-2.35 20.69-9.12 3.23-5.59 8.66-9.65 9.51-15.58-.34 2.37.33 6.1 2.87 5.26 2.38.34.69-4.75 2.22-7 10.83 8.83 31.5 16.65 39.65 2.09 3.4-6.78 6-16.09 1.05-24.06-2-2.72-2.7-6.45-4.73-9.16 2.2 1.53 3.9-1.86 4.07-3a13.14 13.14.0 001.3-.94q-1.59-1.64-3.31-3.23A106.58 106.58.0 00154.3 16 133.29 133.29.0 00123.52 4.3q-7.08-1.76-14.33-2.8c-.55-.08-1.08-.15-1.63-.21C103.5.72 99.4.35 95.31.16 91.48.0 87.63.0 83.82.09h-.27q-6.27.21-12.43 1A113.7 113.7.0 0041.51 9a66.8 66.8.0 00-5.74 5c20.45-5.83 43.58-6.13 65.38-1.45.48-.1 1-.19 1.5-.25h.28a11.92 11.92.0 011.59-.09c.47.0 1 0 1.45.0.26.0.54.0.8.06.57.07 1.14.15 1.71.26l1 .2.93.26a.1.1.0 01.08.0c.27.08.53.15.8.25a.48.48.0 01.2.07c.24.08.48.17.71.27l.21.08a14.33 14.33.0 013.25 1.88 9.62 9.62.0 011.44 1.4c1.88 2.27 1.76 4.77-.21 6.6a8.48 8.48.0 01-2.62 1.57 16.11 16.11.0 01-7.19.93 20.09 20.09.0 01-2.87-.43 17.44 17.44.0 01-4.39-1.55 12.28 12.28.0 01-3.18-2.29c-5.66-.15-18-.22-28.41 2.08a108.28 108.28.0 00-26.16 9.16 85.1 85.1.0 00-11.32 6.7l.51.07C23.46 43.56 16.84 55.92 26.66 63.39z"/><path class="cls-10" d="M96.65 21.83a151.36 151.36.0 00-20.47 1.22 103.16 103.16.0 00-34.1 10C17.44 45.23 5 64.82 5.73 85.4-6.4 60.84.91 34.42 26 17.3c22.67-8.88 49.8-10.15 75.15-4.71a12.88 12.88.0 00-2.05.62C94.61 15 93.67 18.69 96.65 21.83z"/><path class="cls-10" d="M115.48 24.54a152 152 0 0119.29 7 103 103 0 0129.87 19.26c20.21 18.63 26.6 40.93 20.08 60.46 18.58-20.12 19-47.53-.21-71-19.22-14.93-44.88-23.81-70.73-25.76a13.52 13.52.0 011.79 1.18C119.37 18.58 119.23 22.38 115.48 24.54z"/><path class="cls-10" d="M59.54 129.55a117.29 117.29.0 01-31.78-17.78c0-10.15 2.09-22.42 8.56-36.16C48.26 50.26 77.87 28.67 99.83 24.12a17.44 17.44.0 004.39 1.55C87.63 37.23 55.73 114.71 59.54 129.55z"/><path class="cls-10" d="M120.55 138.35a117.26 117.26.0 0035.5-8.07c2.88-9.73 4.34-22.09 2-37.1-4.28-27.69-26.58-56.77-46.36-67.35a17.88 17.88.0 01-4.65.25c12.66 15.77 21.35 99.12 13.51 112.27z"/><path class="cls-13" d="M154.3 16c-15.23-4.57-32.85-5.14-41.75-2.21h-.13l-.21-.08a6.09 6.09.0 00-.71-.27.48.48.0 00-.2-.07l-.51-.17-.29-.08a.1.1.0 00-.08.0c-.3-.1-.62-.19-.93-.26l-.88-.2c.3-1.81 7.27-6.1 14.91-8.29A133.29 133.29.0 01154.3 16z"/><path class="cls-13" d="M106 12.25c-.5.0-1 0-1.45.0a11.92 11.92.0 00-1.59.09C96.54 8.13 83.58 1.69 71.12 1.11q6.15-.8 12.43-1h.27C87.63.0 91.48.0 95.31.16c3.88 3.03 9.91 8.52 10.69 12.09z"/><path class="cls-14" d="M99.1 13.21a12.88 12.88.0 012.05-.62C75.8 7.15 48.67 8.42 26 17.3q-2.57 1.75-4.87 3.63c-4.09 6.76-4.27 14.1 4 19.24a10.14 10.14.0 003.1 1.44 82.79 82.79.0 0113.82-8.54 103.16 103.16.0 0134.1-10 151.36 151.36.0 0120.47-1.22C93.67 18.69 94.61 15 99.1 13.21z"/><path class="cls-14" d="M192.41 55.83a50.46 50.46.0 00-2-7.4 72.63 72.63.0 00-5.85-8.26c-19.22-14.93-44.88-23.81-70.73-25.76a13.52 13.52.0 011.79 1.18c3.8 3 3.66 6.79-.09 9a152 152 0 0119.29 7 103 103 0 0129.87 19.26 76.74 76.74.0 0116.05 20.38C189.43 71.9 193.49 63.74 192.41 55.83z"/><path class="cls-14" d="M104.22 25.67a17.44 17.44.0 01-4.39-1.55c-19.45 4-44.89 21.43-58.75 43-1.45 2.26.32 8.18 1.31 10.34a15.62 15.62.0 008.15 8.12c4 1.58 8.39.77 12.23-.92C65.53 83.41 72.72 80 74 77 83.57 54.14 95.84 31.5 104.22 25.67z"/><path class="cls-14" d="M111.7 25.83a17.88 17.88.0 01-4.65.25c6.92 8.63 12.65 37.46 15.15 64 4.42 5.72 10.15 10.5 18 9.09 10.08-2 13.33-9.91 14.68-18.93C146.89 56.87 128.4 34.76 111.7 25.83z"/><path class="cls-14" d="M123.52 4.28c-7.64 2.19-14.61 6.48-14.91 8.29l.88.2c.31.07.63.16.93.26a.1.1.0 01.08.0l.29.08.51.17a.48.48.0 01.2.07 6.09 6.09.0 01.71.27l.21.08h.13c8.9-2.93 26.52-2.36 41.75 2.21A133.29 133.29.0 00123.52 4.28z"/><path class="cls-14" d="M106 12.25c-.5.0-1 0-1.45.0a11.92 11.92.0 00-1.59.09C96.54 8.13 83.58 1.69 71.12 1.11q6.15-.8 12.43-1h.27C87.63.0 91.48.0 95.31.16c3.88 3.03 9.91 8.52 10.69 12.09z"/></g></g></svg>