<svg xmlns="http://www.w3.org/2000/svg" xmlns:xlink="http://www.w3.org/1999/xlink" viewBox="0 0 186.62 348.66"><defs><style>.cls-1,.cls-10,.cls-13{fill:none}.cls-2{isolation:isolate}.cls-3{fill:url(#Degradado_sin_nombre_129)}.cls-4{fill:url(#Degradado_sin_nombre_144)}.cls-5{fill:url(#Degradado_sin_nombre_106)}.cls-6{fill:#d1b000}.cls-7{fill:#fff;opacity:.33}.cls-10,.cls-12,.cls-13,.cls-16,.cls-28,.cls-29,.cls-7{mix-blend-mode:soft-light}.cls-8{fill:url(#Degradado_sin_nombre_36)}.cls-9{fill:url(#Degradado_sin_nombre_36-2)}.cls-10,.cls-13{stroke:#000;stroke-miterlimit:10;stroke-width:1.89px}.cls-10{opacity:.09}.cls-11{fill:url(#Degradado_sin_nombre_13)}.cls-12{fill:url(#Degradado_sin_nombre_126)}.cls-14{clip-path:url(#clip-path)}.cls-15{fill:#f86363}.cls-16{fill:url(#Degradado_sin_nombre_153)}.cls-17{fill:#d4d4d4}.cls-18{fill:url(#Degradado_sin_nombre_13-2)}.cls-19{fill:#76c9f0}.cls-20{fill:url(#Degradado_sin_nombre_6)}.cls-21{clip-path:url(#clip-path-2)}.cls-22{fill:url(#Degradado_sin_nombre_158)}.cls-23{fill:url(#Degradado_sin_nombre_158-2)}.cls-24{fill:#a3a3a3}.cls-25{fill:#b9b9b9}.cls-26{opacity:.48}.cls-27{clip-path:url(#clip-path-3)}.cls-28{fill:url(#Degradado_sin_nombre_126-2)}.cls-29{fill:url(#Degradado_sin_nombre_126-3)}</style><linearGradient id="Degradado_sin_nombre_129" x1="1223.44" y1="-2644.73" x2="1304" y2="-2720.61" gradientTransform="matrix(0.4, -0.92, 0.92, 0.4, 2098.74, 2545.72)" gradientUnits="userSpaceOnUse"><stop offset="0" stop-color="#ff8533"/><stop offset="1" stop-color="#ffd052"/></linearGradient><linearGradient id="Degradado_sin_nombre_144" x1="1260.25" y1="-2679.11" x2="1309.91" y2="-2727.97" gradientTransform="matrix(0.4, -0.92, 0.92, 0.4, 2098.74, 2545.72)" gradientUnits="userSpaceOnUse"><stop offset="0" stop-color="#ffd052"/><stop offset="1" stop-color="#ffe9ae"/></linearGradient><linearGradient id="Degradado_sin_nombre_106" x1="1352.98" y1="-2703.71" x2="1306.5" y2="-2779.69" gradientTransform="matrix(0.4, -0.92, 0.92, 0.4, 2098.74, 2545.72)" gradientUnits="userSpaceOnUse"><stop offset="0" stop-color="#767b7f"/><stop offset="1" stop-color="#a3a3a3"/></linearGradient><linearGradient id="Degradado_sin_nombre_36" x1="1384.34" y1="-2859.67" x2="1439.45" y2="-2729.51" gradientTransform="matrix(0.4, -0.92, 0.92, 0.4, 2098.74, 2545.72)" gradientUnits="userSpaceOnUse"><stop offset="0" stop-color="#eef4fa"/><stop offset="1" stop-color="#cddeed"/></linearGradient><linearGradient id="Degradado_sin_nombre_36-2" x1="1391.86" y1="-2845.24" x2="1438.61" y2="-2734.82" xlink:href="#Degradado_sin_nombre_36"/><linearGradient id="Degradado_sin_nombre_13" x1="1303.94" y1="-2791.98" x2="1353.68" y2="-2730.61" gradientTransform="matrix(0.4, -0.92, 0.92, 0.4, 2098.74, 2545.72)" gradientUnits="userSpaceOnUse"><stop offset="0" stop-color="#c7c7c7"/><stop offset="1" stop-color="#a3a3a3"/></linearGradient><linearGradient id="Degradado_sin_nombre_126" x1="1340.12" y1="-2761.92" x2="1350.3" y2="-2730.53" gradientTransform="matrix(0.4, -0.92, 0.92, 0.4, 2098.74, 2545.72)" gradientUnits="userSpaceOnUse"><stop offset="0" stop-color="#1d262d"/><stop offset="1" stop-color="#1d262d" stop-opacity="0"/></linearGradient><clipPath id="clip-path"><path class="cls-1" d="M62.48 43.51C34.74 26 25.21 28.83 25.21 28.83s-8.84 4.55-16.93 36.4c-8.54 33.65 2.13 62 9.66 81.4 9.76 25.12 37.18 71.47 65.28 99.94l24.71-10 24.81-9.8c.8-40.06-11.17-92.6-21.35-117.55C103.51 89.89 91.78 62 62.48 43.51z"/></clipPath><linearGradient id="Degradado_sin_nombre_153" x1="1403.8" y1="-2803.6" x2="1424.86" y2="-2759.52" gradientTransform="translate(-935.59 3121.61) rotate(-7.72)" gradientUnits="userSpaceOnUse"><stop offset="0" stop-color="#1d262d"/><stop offset=".68" stop-color="#1d262d" stop-opacity=".32"/><stop offset="1" stop-color="#1d262d" stop-opacity="0"/></linearGradient><linearGradient id="Degradado_sin_nombre_13-2" x1="1382.2" y1="-2853.53" x2="1423.55" y2="-2756.78" gradientTransform="translate(-1336.22 2955.21) rotate(0.18)" xlink:href="#Degradado_sin_nombre_13"/><linearGradient id="Degradado_sin_nombre_6" x1="1377.27" y1="-2847.92" x2="1426.15" y2="-2773.22" gradientTransform="translate(-1340.67 2953.13) rotate(0.28)" gradientUnits="userSpaceOnUse"><stop offset="0" stop-color="#ade5ff"/><stop offset="1" stop-color="#76c9f0"/></linearGradient><clipPath id="clip-path-2"><circle class="cls-1" cx="70.22" cy="142.4" r="24.76" transform="translate(-88.32 150.9) rotate(-66.82)"/></clipPath><linearGradient id="Degradado_sin_nombre_158" x1="1420.98" y1="-2838.2" x2="1368.73" y2="-2803.6" gradientTransform="translate(-2348.69 2160.5) rotate(23.83)" gradientUnits="userSpaceOnUse"><stop offset="0" stop-color="#f9fbfc"/><stop offset="1" stop-color="#f9fbfc" stop-opacity="0"/></linearGradient><linearGradient id="Degradado_sin_nombre_158-2" x1="1427.67" y1="-2828.09" x2="1375.42" y2="-2793.49" gradientTransform="translate(-2335.73 2148.58) rotate(23.83)" xlink:href="#Degradado_sin_nombre_158"/><clipPath id="clip-path-3"><path class="cls-1" d="M62.48 43.51C34.74 26 25.21 28.83 25.21 28.83s-8.84 4.55-16.93 36.4c-8.54 33.65 2.13 62 9.66 81.4 7.79 20 26.81 53.6 48.46 80.81a239.6 239.6.0 0016.82 19.13l24.71-10 24.81-9.8c.8-40.06-11.17-92.6-21.35-117.55C103.51 89.89 91.78 62 62.48 43.51z"/></clipPath><linearGradient id="Degradado_sin_nombre_126-2" x1="1521.97" y1="-2747.41" x2="1409.28" y2="-2817.78" xlink:href="#Degradado_sin_nombre_126"/><linearGradient id="Degradado_sin_nombre_126-3" x1="1360.73" y1="-2751.71" x2="1372.39" y2="-2725.57" xlink:href="#Degradado_sin_nombre_126"/></defs><title>Recurso 5</title><g class="cls-2"><g id="Capa_2" data-name="Capa 2"><g id="Capa_1-2" data-name="Capa 1"><path class="cls-3" d="M119.57 264.33s-35.23 36.45 3.09 64.15l2.16-10s7.71 16.16 29.56 30.18c5.59-25.35-.33-42.24-.33-42.24l8.58 5.56C170.24 265.31 119.57 264.33 119.57 264.33z"/><path class="cls-4" d="M119.57 264.33s-22 22.73 1.93 40l1.34-6.23s4.81 10.08 18.44 18.82c3.49-15.81-.21-26.35-.21-26.35l5.35 3.47c4.75-29.1-26.85-29.71-26.85-29.71z"/><polygon class="cls-5" points="130.76 232.63 88.47 249.57 83.79 237.81 126.07 220.87 130.76 232.63"/><path class="cls-6" d="M51 206.53s-14 26.7-7.54 43C50.45 267 61.1 283.68 79 301.17c9.58 9.33 2.72-7.32-.94-18-6.42-18.67-3.31-25.16 5.13-36.62C83.22 246.57 72.15 233.62 51 206.53z"/><path class="cls-7" d="M51 206.53s-14 26.7-7.54 43C50.45 267 61.1 283.68 79 301.17c1.8 1.75 3 2.59 3.79 2.72.0.0-22.12-23.55-29.86-42.2s-9-29.38-2-55.16"/><path class="cls-6" d="M128.57 175.43s28.49 9.67 35 25.92c7 17.55 10.71 37 9.73 62-.52 13.38-7-3.42-11.66-13.69-8.18-18-14.88-20.51-28.87-23C132.74 226.72 131.86 209.68 128.57 175.43z"/><path class="cls-8" d="M62.48 43.51C34.74 26 25.21 28.83 25.21 28.83s-8.84 4.55-16.93 36.4c-8.54 33.65 2.13 62 9.66 81.4 9.76 25.12 37.18 71.47 65.28 99.94l24.71-10 24.81-9.8c.8-40.06-11.17-92.6-21.35-117.55C103.51 89.89 91.78 62 62.48 43.51z"/><path class="cls-9" d="M89.48 244l18.45-7.5 24.81-9.8c.8-40.06-11.17-92.6-21.35-117.55C103.51 89.89 91.78 62 62.48 43.51 34.74 26 25.21 28.83 25.21 28.83"/><line class="cls-10" x1="86.71" y1="245.15" x2="129.09" y2="228.16"/><path class="cls-11" d="M83.22 246.57l24.71-10 24.81-9.8a242.81 242.81.0 00-1-25.49L66.4 227.43a241.8 241.8.0 0016.82 19.14z"/><polygon class="cls-12" points="93.12 195.45 132.74 226.72 129.05 229.13 130.76 232.63 114.34 239.21 93.12 195.45"/><line class="cls-13" x1="5.2" y1="94.59" x2="84.87" y2="62.65"/><path class="cls-6" d="M25.21 28.83s-8.84 4.55-16.93 36.4A102.73 102.73.0 005.2 94.59L84.87 62.65A101.71 101.71.0 0062.48 43.51C34.74 26 25.21 28.83 25.21 28.83z"/><g class="cls-14"><rect class="cls-15" x="-2.95" y="82.71" width="102.83" height="4.43" transform="translate(-28.42 24.52) rotate(-22.13)"/><rect class="cls-15" x=".89" y="90.59" width="102.83" height="2.95" transform="translate(-30.83 26.49) rotate(-22.13)"/></g><line class="cls-10" x1="66.4" y1="227.44" x2="131.77" y2="201.23"/><path class="cls-6" d="M91.38 195s-5.08.84 9.1 36.44 28.89 67.11 31.7 66-8.18-34.12-22.36-69.72S91.38 195 91.38 195z"/><path class="cls-7" d="M91.38 195s-5.08.84 9.1 36.44 28.89 67.11 31.7 66c0 0-7-11.24-18.69-38.44s-24.12-57.95-22.11-64z"/><circle class="cls-16" cx="70.78" cy="142.37" r="33.62" transform="translate(-87.66 129.23) rotate(-58.82)"/><circle class="cls-17" cx="69.76" cy="142.2" r="33.43" transform="translate(-88.43 150.06) rotate(-66.71)"/><circle class="cls-18" cx="70.3" cy="141.98" r="33.02" transform="translate(-87.91 150.45) rotate(-66.72)"/><circle class="cls-19" cx="69.68" cy="142.37" r="25.81" transform="translate(-88.62 150.54) rotate(-66.88)"/><circle class="cls-20" cx="70.22" cy="142.4" r="24.76" transform="translate(-88.32 150.9) rotate(-66.82)"/><g class="cls-21"><rect class="cls-22" x="36.4" y="138.77" width="60" height="9.74" transform="translate(-76.81 210.96) rotate(-90.37)"/><rect class="cls-23" x="48.8" y="141.67" width="60" height="4.9" transform="translate(-64.81 223.85) rotate(-90.37)"/></g><path class="cls-24" d="M44.31 154.14a1.41 1.41.0 10.33 2A1.42 1.42.0 0044.31 154.14z"/><path class="cls-24" d="M49.44 161.71a1.41 1.41.0 10-1.63 2.3 1.41 1.41.0 001.63-2.3z"/><path class="cls-24" d="M41.63 146.92a1.41 1.41.0 10-1.63 2.3 1.41 1.41.0 001.63-2.3z"/><path class="cls-24" d="M64.28 169.53a1.41 1.41.0 101.75.95A1.4 1.4.0 0064.28 169.53z"/><path class="cls-24" d="M73.4 170.2a1.41 1.41.0 101.75 1 1.41 1.41.0 00-1.75-1z"/><path class="cls-24" d="M55.76 166.45a1.41 1.41.0 101.75 1 1.41 1.41.0 00-1.75-1z"/><path class="cls-24" d="M88.59 163.93a1.41 1.41.0 101.83-.79A1.41 1.41.0 0088.59 163.93z"/><path class="cls-24" d="M94.73 157.15a1.41 1.41.0 002.62 1 1.41 1.41.0 10-2.62-1z"/><path class="cls-24" d="M80.93 168.76a1.41 1.41.0 101.83-.79A1.41 1.41.0 0080.93 168.76z"/><path class="cls-24" d="M99 141.09a1.41 1.41.0 102.44-1.41A1.41 1.41.0 1099 141.09z"/><path class="cls-24" d="M97.42 132.5a1.41 1.41.0 10.51-1.93A1.41 1.41.0 0097.42 132.5z"/><path class="cls-24" d="M97.84 149.88a1.41 1.41.0 10.51-1.92A1.41 1.41.0 0097.84 149.88z"/><path class="cls-24" d="M87.46 120a1.41 1.41.0 10-1.15-1.62A1.42 1.42.0 0087.46 120z"/><path class="cls-24" d="M80.16 115.8A1.41 1.41.0 1079 114.17a1.41 1.41.0 001.16 1.63z"/><path class="cls-24" d="M94 126a1.41 1.41.0 10-1.15-1.63A1.42 1.42.0 0094 126z"/><path class="cls-24" d="M64.06 114.1A1.41 1.41.0 0062.15 112a1.41 1.41.0 101.91 2.08z"/><path class="cls-24" d="M55.67 117.44a1.41 1.41.0 10-2-.09A1.4 1.4.0 0055.67 117.44z"/><path class="cls-24" d="M72.76 113.8a1.41 1.41.0 10-2-.09A1.4 1.4.0 0072.76 113.8z"/><circle class="cls-24" cx="42.88" cy="130.62" r="1.41" transform="translate(-85.85 82.38) rotate(-51.28)"/><path class="cls-24" d="M42.21 139.15a1.41 1.41.0 10-1.3 1.51A1.42 1.42.0 0042.21 139.15z"/><circle class="cls-24" cx="47.7" cy="122.76" r="1.41" transform="translate(-70.82 65.33) rotate(-42.91)"/><path class="cls-17" d="M43.92 154.29a1.41 1.41.0 10.33 2A1.41 1.41.0 0043.92 154.29z"/><path class="cls-17" d="M49.05 161.86a1.41 1.41.0 10.33 2A1.42 1.42.0 0049.05 161.86z"/><path class="cls-17" d="M41.24 147.07a1.41 1.41.0 10.33 2A1.41 1.41.0 0041.24 147.07z"/><path class="cls-17" d="M63.89 169.68a1.41 1.41.0 101.75 1 1.41 1.41.0 00-1.75-1z"/><path class="cls-17" d="M73 170.35a1.41 1.41.0 101.75 1 1.41 1.41.0 00-1.75-1z"/><path class="cls-17" d="M55.37 166.61a1.41 1.41.0 101.75.95A1.4 1.4.0 0055.37 166.61z"/><path class="cls-17" d="M88.2 164.09A1.41 1.41.0 1090 163.3 1.41 1.41.0 0088.2 164.09z"/><path class="cls-17" d="M94.34 157.31a1.4 1.4.0 00.79 1.83 1.42 1.42.0 001.83-.79 1.41 1.41.0 10-2.62-1z"/><path class="cls-17" d="M80.54 168.91a1.41 1.41.0 101.83-.79A1.42 1.42.0 0080.54 168.91z"/><path class="cls-17" d="M98.65 141.24a1.41 1.41.0 10.51-1.92A1.41 1.41.0 0098.65 141.24z"/><path class="cls-17" d="M97 132.65a1.41 1.41.0 102.44-1.41A1.41 1.41.0 0097 132.65z"/><path class="cls-17" d="M97.45 150a1.41 1.41.0 10.51-1.93A1.41 1.41.0 0097.45 150z"/><path class="cls-17" d="M87.07 120.16a1.41 1.41.0 10-1.15-1.63A1.41 1.41.0 0087.07 120.16z"/><path class="cls-17" d="M79.77 116a1.41 1.41.0 10-1.16-1.62A1.41 1.41.0 0079.77 116z"/><path class="cls-17" d="M93.61 126.12a1.41 1.41.0 10-1.15-1.62A1.4 1.4.0 0093.61 126.12z"/><path class="cls-17" d="M63.67 114.26a1.41 1.41.0 10-2-.09A1.43 1.43.0 0063.67 114.26z"/><circle class="cls-17" cx="54.33" cy="116.56" r="1.41" transform="translate(-62.48 62.76) rotate(-40.28)"/><path class="cls-17" d="M72.37 114a1.41 1.41.0 10-2-.08A1.42 1.42.0 0072.37 114z"/><circle class="cls-17" cx="42.49" cy="130.77" r="1.41" transform="translate(-86.12 82.12) rotate(-51.28)"/><path class="cls-17" d="M41.82 139.3a1.41 1.41.0 10-1.3 1.51A1.41 1.41.0 0041.82 139.3z"/><circle class="cls-17" cx="47.31" cy="122.91" r="1.41" transform="translate(-71.03 65.11) rotate(-42.91)"/><rect class="cls-25" x="41.78" y="155.3" width="2.63" height=".28" transform="translate(-85.66 252.6) rotate(-111.54)"/><rect class="cls-25" x="46.91" y="162.87" width="2.63" height=".28" transform="translate(-85.69 267.72) rotate(-111.54)"/><rect class="cls-25" x="39.1" y="148.08" width="2.63" height=".28" transform="translate(-82.61 240.24) rotate(-111.54)"/><rect class="cls-25" x="62.97" y="170.89" width="2.63" height=".28" transform="translate(-71.2 293.63) rotate(-111.54)"/><rect class="cls-25" x="72.09" y="171.56" width="2.63" height=".28" transform="translate(-59.36 303.02) rotate(-111.54)"/><rect class="cls-25" x="54.45" y="167.82" width="2.63" height=".28" transform="translate(-79.99 281.5) rotate(-111.54)"/><rect class="cls-25" x="88.19" y="164.46" width="2.63" height=".28" transform="matrix(-0.37, -0.93, 0.93, -0.37, -30.74, 308.3)"/><rect class="cls-25" x="94.33" y="157.69" width="2.63" height=".28" transform="translate(-16.04 304.74) rotate(-111.54)"/><rect class="cls-25" x="80.53" y="169.29" width="2.63" height=".28" transform="matrix(-0.37, -0.93, 0.93, -0.37, -45.7, 307.77)"/><rect class="cls-25" x="98.55" y="140.4" width="2.63" height=".28" transform="translate(5.81 285.03) rotate(-111.54)"/><rect class="cls-25" x="96.93" y="131.81" width="2.63" height=".28" transform="translate(11.58 271.78) rotate(-111.54)"/><rect class="cls-25" x="97.35" y="149.19" width="2.63" height=".28" transform="translate(-4 295.94) rotate(-111.54)"/><rect class="cls-25" x="85.99" y="118.62" width="2.63" height=".28" transform="translate(8.89 243.58) rotate(-111.54)"/><rect class="cls-25" x="78.69" y="114.42" width="2.63" height=".28" transform="translate(2.81 231.04) rotate(-111.54)"/><rect class="cls-25" x="92.53" y="124.59" width="2.63" height=".28" transform="translate(12.28 257.82) rotate(-111.54)"/><rect class="cls-25" x="61.4" y="113.08" width="2.63" height=".28" transform="translate(-19.57 213.12) rotate(-111.54)"/><rect class="cls-25" x="53.01" y="116.42" width="2.63" height=".28" transform="translate(-34.14 209.88) rotate(-111.54)"/><rect class="cls-25" x="70.1" y="112.77" width="2.63" height=".28" transform="translate(-7.39 220.8) rotate(-111.54)"/><rect class="cls-25" x="41.18" y="130.63" width="2.63" height=".28" transform="translate(-63.55 218.31) rotate(-111.54)"/><rect class="cls-25" x="39.1" y="139.26" width="2.63" height=".28" transform="translate(-74.42 228.18) rotate(-111.54)"/><rect class="cls-25" x="45.99" y="122.77" width="2.63" height=".28" transform="translate(-49.65 212.05) rotate(-111.54)"/><path class="cls-7" d="M25.21 28.83s-8.84 4.55-16.93 36.4c-8.54 33.65 2.13 62 9.66 81.4 9.76 25.12 37.18 71.47 65.28 99.94h0S-22 125.75 25.21 28.83z"/><polygon class="cls-7" points="88.31 244.48 90.02 248.94 88.47 249.57 86.71 245.15 88.31 244.48"/><g class="cls-26"><g class="cls-27"><path class="cls-28" d="M132.74 226.72S123.55 72.78 25.21 28.83L56.29.0 186.62 196.61s-19.23 19.88-53.88 30.11z"/></g></g><path class="cls-29" d="M132.74 226.72l10.15 1.44s-1.44-29.46-14.32-52.73h0S133 209.29 132.74 226.72z"/><path class="cls-7" d="M164.35 253.5c-4.07-10.63-9.92-16.5-11.06-17.57a13.37 13.37.0 011.37 1.68 60.31 60.31.0 017 12.09c3 6.64 6.78 16 9.21 18.17.53.44 1 .52 1.32.36h0S168.86 265.29 164.35 253.5z"/></g></g></g></svg>