<?xml version="1.0" encoding="utf-8"?>
<!-- Generator: Adobe Illustrator 24.1.1, SVG Export Plug-In . SVG Version: 6.00 Build 0)  -->
<svg version="1.1" id="Layer_5" xmlns="http://www.w3.org/2000/svg" xmlns:xlink="http://www.w3.org/1999/xlink" x="0px" y="0px"
	 viewBox="0 0 64 40" style="enable-background:new 0 0 64 40;" xml:space="preserve">
<style type="text/css">
	.st0{fill:#ebebeb;}
	.st1{fill:#241F20;}
</style>
<g>
	<polygon class="st0" points="49.7,21.9 53.3,21.9 51.6,15.6 	"/>
	<path class="st0" d="M40,15.8h-2.8v4.4h2.6c0.4,0,1.6-0.1,1.7-0.7h0c0.1-0.6,0.1-1.1,0.1-1.7c0-0.3-0.1-0.7-0.1-1.1
		C41.3,15.8,40,15.8,40,15.8z"/>
	<path class="st0" d="M58.3,0H5.7C2.5,0,0,2.5,0,5.7v28.7C0,37.5,2.5,40,5.7,40h52.7c3.1,0,5.7-2.5,5.7-5.7V5.7
		C64,2.5,61.5,0,58.3,0z M17.1,25.1c-0.7,1.9-3.2,2-3.2,2c-0.9,0.1-1.7,0.1-2.6,0.1H9.6c-1.3,0.1-2.5-0.3-3.6-1C4.9,25.4,5,23,5,23
		v-0.6h3.7v0.5c0,0.6,0.4,1.1,1,1.2h2.4c0.5,0,1.1-0.1,1.3-0.4c0-0.1,0.1-0.1,0.1-0.1c0.1-0.1,0.1-0.3,0.1-1.2
		c0-0.5-0.3-0.9-0.8-0.9h-0.4c-0.9-0.1-3.1-0.2-4-0.3H8.2H8c-0.7-0.1-2.1-0.6-2.5-1.8C5,17.8,4.8,15.2,6,13.9c0,0,0-0.1,0.1-0.1
		v-0.1c0.4-0.3,0.8-0.5,1.3-0.7c0.7-0.2,1.4-0.3,2.1-0.3c1.1,0,3.3,0,3.3,0c1,0,1.9,0.3,2.8,0.7c0.9,0.6,1.4,1.7,1.3,2.7v1.1h-3.7
		c0.1-1.2-0.4-1.5-0.8-1.6c-0.4,0-0.7-0.1-1.1-0.1c-0.1,0-1.8-0.1-2.3,0.5c-0.3,0.5-0.3,1-0.1,1.5c0,0.1,0,0.7,1.5,0.7h0.1
		c0.8,0,2.2,0.1,3.1,0.2l0.9,0.1c2.4,0.5,2.7,2.2,2.7,2.2C17.6,22.3,17.5,23.7,17.1,25.1z M31.6,17.2l-1.1,2.2h-8c0,0.1,0,0.3,0,0.5
		c0,0.3,0,0.5,0.1,0.8h7.4l-1,2.2h-5.5c0.3,0.5,0.7,0.9,1.2,1.2c2.3,1.7,5.6,1.3,7.3-1v2.8c-0.5,0.4-1.1,0.8-1.8,1
		c-3.8,1.5-8.1-0.3-9.6-4H18l1-2.2h1c0-0.2,0-0.5,0-0.7s0-0.4,0-0.6h-2.2l1.1-2.2h1.6c1.1-2.8,3.8-4.6,6.8-4.6c2,0,4,0.9,5.3,2.3
		l-0.8,1.7c-1-1.3-2.5-2.1-4.1-2.1c-1.8,0-3.6,1-4.5,2.6H31.6z M40.1,23.5h-2.9v3.9h-3.9V12.7h7.5c1,0,3.5,0.2,4.2,1.7
		c0.5,1.2,0.8,2.4,0.7,3.7c0,0.9-0.1,1.8-0.3,2.7c-0.2,1-0.9,1.8-1.7,2.3C42.6,23.5,41.3,23.6,40.1,23.5z M54.9,27.3l-0.7-2.5h-5.3
		l-0.7,2.5h-4l4.4-14.7h6L59,27.3H54.9z"/>
</g>
<path class="st1" d="M6.3,46.4H59c3.1,0,5.7,2.5,5.7,5.7v28.7c0,3.1-2.5,5.7-5.7,5.7H6.3c-3.1,0-5.7-2.5-5.7-5.7V52
	C0.7,48.9,3.2,46.4,6.3,46.4z"/>
<path class="st0" d="M46.1,67.2c0.1-0.9,0.2-1.8,0.3-2.7c0.1-1.3-0.2-2.6-0.7-3.7c-0.8-1.5-3.2-1.7-4.2-1.7h-7.5v14.7h3.9v-3.9h2.9
	c1.2,0.1,2.5,0,3.6-0.4C45.3,69,45.9,68.2,46.1,67.2z M42.1,65.8c-0.1,0.7-1.3,0.7-1.7,0.7h-2.6v-4.4h2.8c0,0,1.3,0,1.5,0.8
	c0.1,0.4,0.1,0.8,0.1,1.1C42.3,64.6,42.2,65.2,42.1,65.8L42.1,65.8z"/>
<path class="st0" d="M28.3,61c1.6,0,3.2,0.8,4.1,2.1l0,0l0.8-1.7C31.9,59.9,30,59,28,59c-3,0-5.7,1.8-6.8,4.6h-1.6l-1.1,2.2h2.2
	c0,0.2,0,0.4,0,0.6s0,0.4,0,0.7h-1l-1,2.2h2.5c1.5,3.8,5.8,5.6,9.6,4c0.6-0.3,1.2-0.6,1.8-1v-2.8c-1.7,2.3-5,2.8-7.3,1
	c-0.5-0.3-0.9-0.8-1.2-1.2h5.5l1-2.2h-7.4c-0.1-0.3-0.1-0.5-0.1-0.8c0-0.2,0-0.3,0-0.5h8l1.1-2.2h-8.3C24.8,62,26.5,61,28.3,61z"/>
<path class="st0" d="M15.2,65L15.2,65l-0.9-0.1l0,0c-0.9-0.1-2.4-0.2-3.1-0.2h-0.1c-1.5,0-1.5-0.6-1.5-0.7c-0.2-0.5-0.1-1,0.1-1.5
	c0.4-0.6,2.1-0.5,2.3-0.5c0.4,0,0.7,0,1.1,0.1c0.4,0.1,0.9,0.3,0.8,1.6h3.7v-1.1c0-1.1-0.5-2.1-1.3-2.7c-0.9-0.5-1.8-0.7-2.8-0.7
	l0,0c0,0-2.2,0-3.3,0c-0.7,0-1.4,0.1-2.1,0.3c-0.5,0.1-0.9,0.3-1.3,0.7v0.1l0,0c0,0-0.1,0.1-0.1,0.1c-1.2,1.3-1,3.9-0.5,5.5
	c0.4,1.2,1.8,1.7,2.5,1.8l0,0h0.2H9c0.9,0.1,3.1,0.3,4,0.3l0,0h0.4c0.5,0,0.8,0.5,0.8,0.9c0,0.8,0,1-0.1,1.2c-0.1,0-0.1,0.1-0.1,0.1
	c-0.2,0.3-0.8,0.4-1.3,0.4h-2.4c-0.6-0.1-1-0.6-1-1.2v-0.5H5.6v0.6c0,0-0.1,2.4,1.1,3.2c1.1,0.7,2.3,1,3.6,1l0,0h1.6
	c0.9,0,1.7,0,2.6-0.1l0,0c0,0,2.5-0.1,3.2-2c0.4-1.4,0.5-2.8,0.3-4.3C18,67.2,17.7,65.5,15.2,65z"/>
<path class="st0" d="M55.2,59h-6l-4.4,14.7h4l0.7-2.5h5.3l0.7,2.5h4.1L55.2,59z M50.4,68.2l1.8-6.2l1.8,6.2H50.4z"/>
</svg>
