<svg id="Layer_5" xmlns="http://www.w3.org/2000/svg" xmlns:xlink="http://www.w3.org/1999/xlink" viewBox="0 0 64 40" style="enable-background:new 0 0 64 40"><style>.st0{fill:#ebebeb}.st1{fill:#241f20}</style><g><polygon class="st0" points="49.7,21.9 53.3,21.9 51.6,15.6"/><path class="st0" d="M40 15.8h-2.8v4.4h2.6c.4.0 1.6-.1 1.7-.7h0c.1-.6.1-1.1.1-1.7.0-.3-.1-.7-.1-1.1C41.3 15.8 40 15.8 40 15.8z"/><path class="st0" d="M58.3.0H5.7C2.5.0.0 2.5.0 5.7v28.7C0 37.5 2.5 40 5.7 40h52.7c3.1.0 5.7-2.5 5.7-5.7V5.7C64 2.5 61.5.0 58.3.0zM17.1 25.1c-.7 1.9-3.2 2-3.2 2-.9.1-1.7.1-2.6.1H9.6c-1.3.1-2.5-.3-3.6-1C4.9 25.4 5 23 5 23v-.6h3.7v.5c0 .6.4 1.1 1 1.2h2.4c.5.0 1.1-.1 1.3-.4.0-.1.1-.1.1-.1.1-.1.1-.3.1-1.2.0-.5-.3-.9-.8-.9h-.4c-.9-.1-3.1-.2-4-.3H8.2 8c-.7-.1-2.1-.6-2.5-1.8-.5-1.6-.7-4.2.5-5.5.0.0.0-.1.1-.1v-.1c.4-.3.8-.5 1.3-.7.7-.2 1.4-.3 2.1-.3 1.1.0 3.3.0 3.3.0 1 0 1.9.3 2.8.7.9.6 1.4 1.7 1.3 2.7v1.1h-3.7c.1-1.2-.4-1.5-.8-1.6-.4.0-.7-.1-1.1-.1-.1.0-1.8-.1-2.3.5-.3.5-.3 1-.1 1.5.0.1.0.7 1.5.7h.1c.8.0 2.2.1 3.1.2l.9.1c2.4.5 2.7 2.2 2.7 2.2C17.6 22.3 17.5 23.7 17.1 25.1zm14.5-7.9-1.1 2.2h-8c0 .1.0.3.0.5.0.3.0.5.1.8H30l-1 2.2h-5.5c.3.5.7.9 1.2 1.2 2.3 1.7 5.6 1.3 7.3-1v2.8c-.5.4-1.1.8-1.8 1-3.8 1.5-8.1-.3-9.6-4H18l1-2.2h1c0-.2.0-.5.0-.7s0-.4.0-.6h-2.2l1.1-2.2h1.6c1.1-2.8 3.8-4.6 6.8-4.6 2 0 4 .9 5.3 2.3l-.8 1.7c-1-1.3-2.5-2.1-4.1-2.1-1.8.0-3.6 1-4.5 2.6h8.4zm8.5 6.3h-2.9v3.9h-3.9V12.7h7.5c1 0 3.5.2 4.2 1.7.5 1.2.8 2.4.7 3.7.0.9-.1 1.8-.3 2.7-.2 1-.9 1.8-1.7 2.3C42.6 23.5 41.3 23.6 40.1 23.5zm14.8 3.8-.7-2.5h-5.3l-.7 2.5h-4l4.4-14.7h6L59 27.3H54.9z"/></g><path class="st1" d="M6.3 46.4H59c3.1.0 5.7 2.5 5.7 5.7v28.7c0 3.1-2.5 5.7-5.7 5.7H6.3C3.2 86.5.6 84 .6 80.8V52c.1-3.1 2.6-5.6 5.7-5.6z"/><path class="st0" d="M46.1 67.2c.1-.9.2-1.8.3-2.7.1-1.3-.2-2.6-.7-3.7-.8-1.5-3.2-1.7-4.2-1.7H34v14.7h3.9v-3.9h2.9c1.2.1 2.5.0 3.6-.4C45.3 69 45.9 68.2 46.1 67.2zM42.1 65.8c-.1.7-1.3.7-1.7.7h-2.6v-4.4h2.8s1.3.0 1.5.8c.1.4.1.8.1 1.1C42.3 64.6 42.2 65.2 42.1 65.8z"/><path class="st0" d="M28.3 61c1.6.0 3.2.8 4.1 2.1l.8-1.7C31.9 59.9 30 59 28 59c-3 0-5.7 1.8-6.8 4.6h-1.6l-1.1 2.2h2.2c0 .2.0.4.0.6s0 .4.0.7h-1l-1 2.2h2.5c1.5 3.8 5.8 5.6 9.6 4 .6-.3 1.2-.6 1.8-1v-2.8c-1.7 2.3-5 2.8-7.3 1-.5-.3-.9-.8-1.2-1.2h5.5l1-2.2h-7.4c-.1-.3-.1-.5-.1-.8.0-.2.0-.3.0-.5h8l1.1-2.2h-8.3C24.8 62 26.5 61 28.3 61z"/><path class="st0" d="M15.2 65l-.9-.1c-.9-.1-2.4-.2-3.1-.2h-.1c-1.5.0-1.5-.6-1.5-.7-.2-.5-.1-1 .1-1.5.4-.6 2.1-.5 2.3-.5.4.0.7.0 1.1.1s.9.3.8 1.6h3.7v-1.1c0-1.1-.5-2.1-1.3-2.7-.9-.5-1.8-.7-2.8-.7s-2.2.0-3.3.0c-.7.0-1.4.1-2.1.3-.5.1-.9.3-1.3.7v.1s-.1.1-.1.1c-1.2 1.3-1 3.9-.5 5.5.4 1.2 1.8 1.7 2.5 1.8h.2H9c.9.1 3.1.3 4 .3h.4c.5.0.8.5.8.9.0.8.0 1-.1 1.2-.1.0-.1.1-.1.1-.2.3-.8.4-1.3.4h-2.4c-.6-.1-1-.6-1-1.2v-.5H5.6v.6s-.1 2.4 1.1 3.2c1.1.7 2.3 1 3.6 1h1.6c.9.0 1.7.0 2.6-.1s2.5-.1 3.2-2c.4-1.4.5-2.8.3-4.3C18 67.2 17.7 65.5 15.2 65z"/><path class="st0" d="M55.2 59h-6l-4.4 14.7h4l.7-2.5h5.3l.7 2.5h4.1L55.2 59zm-4.8 9.2 1.8-6.2 1.8 6.2H50.4z"/></svg>