<?xml version="1.0" encoding="UTF-8" standalone="no"?>
<!-- Generator: Adobe Illustrator 24.0.0, SVG Export Plug-In . SVG Version: 6.00 Build 0)  -->

<svg
   version="1.1"
   id="Layer_1"
   x="0px"
   y="0px"
   viewBox="0 0 397.7 311.7"
   style="enable-background:new 0 0 397.7 311.7;"
   xml:space="preserve"
   sodipodi:docname="SOL.svg"
   inkscape:version="1.3.2 (091e20e, 2023-11-25, custom)"
   inkscape:export-filename="SOL.svg"
   inkscape:export-xdpi="96"
   inkscape:export-ydpi="96"
   xmlns:inkscape="http://www.inkscape.org/namespaces/inkscape"
   xmlns:sodipodi="http://sodipodi.sourceforge.net/DTD/sodipodi-0.dtd"
   xmlns="http://www.w3.org/2000/svg"
   xmlns:svg="http://www.w3.org/2000/svg"><defs
   id="defs6" /><sodipodi:namedview
   id="namedview6"
   pagecolor="#ffffff"
   bordercolor="#000000"
   borderopacity="0.25"
   inkscape:showpageshadow="2"
   inkscape:pageopacity="0.0"
   inkscape:pagecheckerboard="0"
   inkscape:deskcolor="#d1d1d1"
   inkscape:zoom="3.525826"
   inkscape:cx="198.81866"
   inkscape:cy="155.85001"
   inkscape:window-width="2560"
   inkscape:window-height="1334"
   inkscape:window-x="-11"
   inkscape:window-y="-11"
   inkscape:window-maximized="1"
   inkscape:current-layer="Layer_1" />
<style
   type="text/css"
   id="style1">
	.st0{fill:url(#SVGID_1_);}
	.st1{fill:url(#SVGID_2_);}
	.st2{fill:url(#SVGID_3_);}
</style>
<linearGradient
   id="SVGID_1_"
   gradientUnits="userSpaceOnUse"
   x1="360.8791"
   y1="351.4553"
   x2="141.213"
   y2="-69.2936"
   gradientTransform="matrix(1 0 0 -1 0 314)">
	<stop
   offset="0"
   style="stop-color:#d1b000;stop-opacity:1;"
   id="stop1" />
	<stop
   offset="1"
   style="stop-color:#DC1FFF"
   id="stop2" />
</linearGradient>
<path
   class="st0"
   d="M64.6,237.9c2.4-2.4,5.7-3.8,9.2-3.8h317.4c5.8,0,8.7,7,4.6,11.1l-62.7,62.7c-2.4,2.4-5.7,3.8-9.2,3.8H6.5  c-5.8,0-8.7-7-4.6-11.1L64.6,237.9z"
   id="path2"
   style="fill:#d1b000;fill-opacity:1" />
<linearGradient
   id="SVGID_2_"
   gradientUnits="userSpaceOnUse"
   x1="264.8291"
   y1="401.6014"
   x2="45.163"
   y2="-19.1475"
   gradientTransform="matrix(1 0 0 -1 0 314)">
	<stop
   offset="0"
   style="stop-color:#00FFA3"
   id="stop3" />
	<stop
   offset="1"
   style="stop-color:#DC1FFF"
   id="stop4" />
</linearGradient>
<path
   class="st1"
   d="M64.6,3.8C67.1,1.4,70.4,0,73.8,0h317.4c5.8,0,8.7,7,4.6,11.1l-62.7,62.7c-2.4,2.4-5.7,3.8-9.2,3.8H6.5  c-5.8,0-8.7-7-4.6-11.1L64.6,3.8z"
   id="path4"
   style="fill:#d1b000;fill-opacity:1" />
<linearGradient
   id="SVGID_3_"
   gradientUnits="userSpaceOnUse"
   x1="312.5484"
   y1="376.688"
   x2="92.8822"
   y2="-44.061"
   gradientTransform="matrix(1 0 0 -1 0 314)">
	<stop
   offset="0"
   style="stop-color:#d1b000;stop-opacity:1;"
   id="stop5" />
	<stop
   offset="1"
   style="stop-color:#DC1FFF"
   id="stop6" />
</linearGradient>
<path
   class="st2"
   d="M333.1,120.1c-2.4-2.4-5.7-3.8-9.2-3.8H6.5c-5.8,0-8.7,7-4.6,11.1l62.7,62.7c2.4,2.4,5.7,3.8,9.2,3.8h317.4  c5.8,0,8.7-7,4.6-11.1L333.1,120.1z"
   id="path6"
   style="fill:#d1b000;fill-opacity:1" />
</svg>

