<svg xmlns:dc="http://purl.org/dc/elements/1.1/" xmlns:cc="http://creativecommons.org/ns#" xmlns:rdf="http://www.w3.org/1999/02/22-rdf-syntax-ns#" xmlns:svg="http://www.w3.org/2000/svg" xmlns="http://www.w3.org/2000/svg" xmlns:sodipodi="http://sodipodi.sourceforge.net/DTD/sodipodi-0.dtd" xmlns:inkscape="http://www.inkscape.org/namespaces/inkscape" width="512" height="512" viewBox="0 0 135.46666 135.46667" id="svg8" inkscape:version="0.92.3 (2405546, 2018-03-11)" sodipodi:docname="icon-success.svg"><defs id="defs2"/><sodipodi:namedview id="base" pagecolor="#ffffff" bordercolor="#666666" borderopacity="1" inkscape:pageopacity="0" inkscape:pageshadow="2" inkscape:zoom=".56851852" inkscape:cx="143.84365" inkscape:cy="188.20847" inkscape:document-units="px" inkscape:current-layer="layer1" showgrid="false" units="px"/><g inkscape:label="Capa 1" inkscape:groupmode="layer" id="layer1" transform="translate(0,-161.53332)"><g id="g302" transform="matrix(0.84666666,0,0,-0.84666666,39.783173,253.17821)" style="fill:#2e7d32;fill-opacity:1;stroke-width:.41666666"><path d="m0 0h66.113c.948.0 1.47-.733 1.16-1.629.0.0-6.926-22.9-35.094-22.9s-33.463 22.862-33.463 22.862C-1.527-.75-.949.0.0.0m60.932 50.939c5.602.0 10.143-4.617 10.143-10.761.0-6.145-4.541-11.126-10.143-11.126s-10.145 4.981-10.145 11.126c0 6.144 4.543 10.761 10.145 10.761m-55.48.0c5.602.0 10.143-4.617 10.143-10.761.0-6.145-4.541-11.126-10.143-11.126s-10.145 4.981-10.145 11.126c0 6.144 4.543 10.761 10.145 10.761m27.56 57.303c-44.183.0-80-35.817-80-80 0-44.184 35.817-80 80-80s80 35.816 80 80c0 44.183-35.817 80-80 80" style="fill:#2e7d32;fill-opacity:1;fill-rule:nonzero;stroke:none;stroke-width:.41666666" id="path304" inkscape:connector-curvature="0"/></g></g></svg>