<?xml version="1.0" encoding="UTF-8" standalone="no"?>
<!-- Created with Inkscape (http://www.inkscape.org/) -->

<svg
   xmlns:dc="http://purl.org/dc/elements/1.1/"
   xmlns:cc="http://creativecommons.org/ns#"
   xmlns:rdf="http://www.w3.org/1999/02/22-rdf-syntax-ns#"
   xmlns:svg="http://www.w3.org/2000/svg"
   xmlns="http://www.w3.org/2000/svg"
   xmlns:sodipodi="http://sodipodi.sourceforge.net/DTD/sodipodi-0.dtd"
   xmlns:inkscape="http://www.inkscape.org/namespaces/inkscape"
   width="512"
   height="512"
   viewBox="0 0 135.46666 135.46667"
   version="1.1"
   id="svg8"
   inkscape:version="0.92.3 (2405546, 2018-03-11)"
   sodipodi:docname="icon-success.svg">
  <defs
     id="defs2" />
  <sodipodi:namedview
     id="base"
     pagecolor="#ffffff"
     bordercolor="#666666"
     borderopacity="1.0"
     inkscape:pageopacity="0.0"
     inkscape:pageshadow="2"
     inkscape:zoom="0.56851852"
     inkscape:cx="143.84365"
     inkscape:cy="188.20847"
     inkscape:document-units="px"
     inkscape:current-layer="layer1"
     showgrid="false"
     units="px" />
  <metadata
     id="metadata5">
    <rdf:RDF>
      <cc:Work
         rdf:about="">
        <dc:format>image/svg+xml</dc:format>
        <dc:type
           rdf:resource="http://purl.org/dc/dcmitype/StillImage" />
        <dc:title></dc:title>
      </cc:Work>
    </rdf:RDF>
  </metadata>
  <g
     inkscape:label="Capa 1"
     inkscape:groupmode="layer"
     id="layer1"
     transform="translate(0,-161.53332)">
    <g
       id="g302"
       transform="matrix(0.84666666,0,0,-0.84666666,39.783173,253.17821)"
       style="fill:#2e7d32;fill-opacity:1;stroke-width:0.41666666">
      <path
         d="m 0,0 h 66.113 c 0.948,0 1.47,-0.733 1.16,-1.629 0,0 -6.926,-22.9 -35.094,-22.9 -28.168,0 -33.463,22.862 -33.463,22.862 C -1.527,-0.75 -0.949,0 0,0 m 60.932,50.939 c 5.602,0 10.143,-4.617 10.143,-10.761 0,-6.145 -4.541,-11.126 -10.143,-11.126 -5.602,0 -10.145,4.981 -10.145,11.126 0,6.144 4.543,10.761 10.145,10.761 m -55.48,0 c 5.602,0 10.143,-4.617 10.143,-10.761 0,-6.145 -4.541,-11.126 -10.143,-11.126 -5.602,0 -10.145,4.981 -10.145,11.126 0,6.144 4.543,10.761 10.145,10.761 m 27.56,57.303 c -44.183,0 -80,-35.817 -80,-80 0,-44.184 35.817,-80 80,-80 44.183,0 80,35.816 80,80 0,44.183 -35.817,80 -80,80"
         style="fill:#2e7d32;fill-opacity:1;fill-rule:nonzero;stroke:none;stroke-width:0.41666666"
         id="path304"
         inkscape:connector-curvature="0" />
    </g>
  </g>
</svg>
