<svg width="475.09" height="341.33" viewBox="0 0 125.7 90.31" id="svg8" xmlns:xlink="http://www.w3.org/1999/xlink" xmlns="http://www.w3.org/2000/svg"><defs id="defs2"><color-profile name="U.S.-Web-Coated--SWOP--v2" xlink:href="file:///usr/share/color/icc/USWebCoatedSWOP.icc" id="color-profile59454"/><color-profile name="sRGB" xlink:href="file:///usr/share/color/icc/colord/sRGB.icc" id="color-profile59456"/><clipPath clipPathUnits="userSpaceOnUse" id="clipPath8554"><path d="M0 3354h1920V0H0z" id="path8552"/></clipPath></defs><g id="layer1" transform="translate(-234.68 -130.77)"><g id="g8548" transform="matrix(.35278 0 0 -.35278 -33.33 838.09)"><g id="g8550" clip-path="url(#clipPath8554)"><g id="g8556" transform="translate(808.1 1749.89)"><path d="M0 0v-.04h-27.57a51.7 51.7.0 00-10.07 8.26 41.13 41.13.0 00-7.23 10.63c-3.63 7.76-4.75 16.59-1.94 24.56l.23.61.34-.59a57.57 57.57.0 015.37-7.56l.46-.55a60.03 60.03.0 0117.2-13.85l.05-.03a.62.62.0 01.07-.04h.01A58.46 58.46.0 01-15 17.82c2.6-.92 5.4-1.75 7.9-2.95 2.43-1.17 4.56-2.7 5.95-4.97l.31-.56-.81-5.62h1.62L-.18.97-.23.17z" style="fill:#1f1f1f;fill-opacity:1;fill-rule:nonzero;stroke:none" id="path8558"/></g><g id="g8560" transform="translate(801.29 1749.85)"><path d="M0 0h-.58l-.18 1.01a21.53 21.53.0 01-1.1 3.9c-.95 2.2-2.56 4.14-4.95 4.78-.7.19-1.42.29-2.13.3-1.43.06-2.87-.12-4.3-.2l-1.03-.02h-.01c-1.84-.03-3.67.34-5.36 1.08a20.2 20.2.0 00-5.6 3.98 43.42 43.42.0 00-3.04 3.22l-.37.43a51.42 51.42.0 00-8.16 13.64A51.59 51.59.0 00-40 43.46l-.08.53c-.06.36.52.37.57.01l.08-.52c.6-3.73 1.62-7.38 3.02-10.88l.22-.53a51.1 51.1.0 018.1-13.36l.12-.13v-.01c.8-.93 1.62-1.83 2.48-2.7a22.04 22.04.0 015.46-4.2c1.7-.86 3.57-1.32 5.47-1.33h.58l.45.01c1.45.07 2.91.25 4.36.23.66-.02 1.32-.08 1.96-.2a7.77 7.77.0 005.1-3.74A13.46 13.46.0 00-.54 2.73 26.57 26.57.0 00-.17 1L0 0" style="fill:#4c4c4c;fill-opacity:1;fill-rule:nonzero;stroke:none" id="path8562"/></g><g id="g8564" transform="translate(812.25 1768.56)"><path d="m0 0-.23-2.16-3.73.06-.56-3.9-.1-.67L-5-9.32l-.81-5.62h1.62l-.15-2.76-.04-.8.22-.17.05-.04.02-.01-.15-.29.07.3h-10.77c-.2.34-.4.67-.58 1.01a74.12 74.12.0 00-4.39 8.98c-.08.2-.16.39-.22.58A55.47 55.47.0 00-22.78.58a48.74 48.74.0 00-.8 4.93 41.04 41.04.0 00.65 12.87c1.7 8.03 5.84 15.46 12.39 20.16.27.2.55.4.84.59h.01l.53.35-.07-.69a56.56 56.56.0 01-.28-9.26c0-.24.02-.48.04-.72v-.01A60.24 60.24.0 01-4.04 7.3l.02-.06A57.4 57.4.0 010 0" style="fill:#1f1f1f;fill-opacity:1;fill-rule:nonzero;stroke:none" id="path8566"/></g><g id="g8568" transform="translate(803.27 1807.83)"><path d="m0 0-.25-.48a50.14 50.14.0 01-4.28-11.05A50.74 50.74.0 01-5.74-30.9c.25-2.3.87-4.54 1.82-6.64l.43-.8a11.6 11.6.0 012.4-2.93c.24-.22.48-.43.74-.63l.46-.35.38-.27c1.32-.9 2.74-1.7 3.97-2.74l-.1-.67c-1.2 1.08-2.64 1.9-3.97 2.8a15.6 15.6.0 00-2.34 1.87l-.28.3a11.46 11.46.0 00-1.87 2.52 20.39 20.39.0 00-2.07 6.55 43.88 43.88.0 00-.53 4.98A52.21 52.21.0 00-.7-.13l.24.46C-.29.65.17.33.0.0" style="fill:#4c4c4c;fill-opacity:1;fill-rule:nonzero;stroke:none" id="path8570"/></g><g id="g8572" transform="translate(886.72 1749.5)"><path d="M0 0a.5.5.0 00-.5-.5h-119.22a.5.5.0 100 1H-.51A.5.5.0 000 0z" style="fill:#2e2e2e;fill-opacity:1;fill-rule:nonzero;stroke:none" id="path8574"/></g><g id="g8576" transform="translate(1093.03 1957.82)"><path d="M0 0h-77.08a2.51 2.51.0 000 5.03H0A2.51 2.51.0 100 0z" style="fill:#d1b000;fill-opacity:1;fill-rule:nonzero;stroke:none" id="path8578"/></g><g id="g8580" transform="translate(1093.03 1947.89)"><path d="M0 0h-77.08a2.51 2.51.0 000 5.03H0A2.51 2.51.0 000 0" style="fill:#d1b000;fill-opacity:1;fill-rule:nonzero;stroke:none" id="path8582"/></g><g id="g8584" transform="translate(1049.37 1937.95)"><path d="M0 0h-33.41a2.51 2.51.0 000 5.03H0A2.51 2.51.0 000 0z" style="fill:#d1b000;fill-opacity:1;fill-rule:nonzero;stroke:none" id="path8586"/></g><g id="g8588" transform="translate(1093.03 1901.33)"><path d="M0 0h-77.08a2.51 2.51.0 100 5.03H0A2.51 2.51.0 100 0" style="fill:#f1f1f1;fill-opacity:1;fill-rule:nonzero;stroke:none" id="path8590"/></g><g id="g8592" transform="translate(1093.03 1891.4)"><path d="M0 0h-77.08a2.51 2.51.0 100 5.03H0A2.51 2.51.0 100 0" style="fill:#f1f1f1;fill-opacity:1;fill-rule:nonzero;stroke:none" id="path8594"/></g><g id="g8596" transform="translate(1049.37 1881.47)"><path d="M0 0h-33.41a2.51 2.51.0 100 5.03H0A2.51 2.51.0 000 0z" style="fill:#f1f1f1;fill-opacity:1;fill-rule:nonzero;stroke:none" id="path8598"/></g><g id="g8600" transform="translate(1093.03 1841.74)"><path d="M0 0h-77.08a2.51 2.51.0 100 5.03H0A2.51 2.51.0 000 0" style="fill:#f1f1f1;fill-opacity:1;fill-rule:nonzero;stroke:none" id="path8602"/></g><g id="g8604" transform="translate(1093.03 1831.8)"><path d="M0 0h-77.08a2.51 2.51.0 100 5.03H0A2.51 2.51.0 100 0" style="fill:#f1f1f1;fill-opacity:1;fill-rule:nonzero;stroke:none" id="path8606"/></g><g id="g8608" transform="translate(1049.37 1821.87)"><path d="M0 0h-33.41a2.51 2.51.0 100 5.03H0A2.51 2.51.0 100 0" style="fill:#f1f1f1;fill-opacity:1;fill-rule:nonzero;stroke:none" id="path8610"/></g><g id="g8612" transform="translate(1114.9 1996.16)"><path d="M0 0h-200.13c-.62.0-1.12.5-1.12 1.12v6.6c0 .61.5 1.12 1.12 1.12H0c.62.0 1.12-.5 1.12-1.13V1.13C1.12.5.62.0.0.0" style="fill:#2e2e2e;fill-opacity:1;fill-rule:nonzero;stroke:none" id="path8614"/></g><g id="g8616" transform="translate(920.15 2002.5)"><path d="M0 0a1.6 1.6.0 100-3.18A1.6 1.6.0 000 0" style="fill:#f1f1f1;fill-opacity:1;fill-rule:nonzero;stroke:none" id="path8618"/></g><g id="g8620" transform="translate(926.19 2002.5)"><path d="M0 0a1.6 1.6.0 100-3.18A1.6 1.6.0 000 0" style="fill:#f1f1f1;fill-opacity:1;fill-rule:nonzero;stroke:none" id="path8622"/></g><g id="g8624" transform="translate(932.23 2002.5)"><path d="M0 0a1.6 1.6.0 100-3.18A1.6 1.6.0 000 0" style="fill:#f1f1f1;fill-opacity:1;fill-rule:nonzero;stroke:none" id="path8626"/></g><g id="g8628" transform="translate(1108.98 2002)"><path d="M0 0h-6.96a.52.52.0 100 1.03H0A.52.52.0 000 0" style="fill:#f1f1f1;fill-opacity:1;fill-rule:nonzero;stroke:none" id="path8630"/></g><g id="g8632" transform="translate(1108.98 2000.06)"><path d="M0 0h-6.96a.52.52.0 100 1.03H0A.52.52.0 000 0" style="fill:#f1f1f1;fill-opacity:1;fill-rule:nonzero;stroke:none" id="path8634"/></g><g id="g8636" transform="translate(1108.98 1998.13)"><path d="M0 0h-6.96a.52.52.0 100 1.03H0A.52.52.0 100 0" style="fill:#f1f1f1;fill-opacity:1;fill-rule:nonzero;stroke:none" id="path8638"/></g><g id="g8640" transform="translate(1074.04 1943.03)"><path d="M0 0a2.88 2.88.0 100-5.76A2.88 2.88.0 000 0" style="fill:#d1b000;fill-opacity:1;fill-rule:nonzero;stroke:none" id="path8642"/></g><g id="g8644" transform="translate(1083.39 1943.03)"><path d="M0 0a2.88 2.88.0 100-5.76A2.88 2.88.0 000 0" style="fill:#d1b000;fill-opacity:1;fill-rule:nonzero;stroke:none" id="path8646"/></g><g id="g8648" transform="translate(1092.73 1943.03)"><path d="M0 0a2.88 2.88.0 100-5.76A2.88 2.88.0 000 0" style="fill:#d1b000;fill-opacity:1;fill-rule:nonzero;stroke:none" id="path8650"/></g><g id="g8652" transform="translate(1074.04 1886.94)"><path d="M0 0a2.88 2.88.0 100-5.76A2.88 2.88.0 000 0" style="fill:#f1f1f1;fill-opacity:1;fill-rule:nonzero;stroke:none" id="path8654"/></g><g id="g8656" transform="translate(1083.39 1886.94)"><path d="M0 0a2.88 2.88.0 100-5.76A2.88 2.88.0 000 0" style="fill:#f1f1f1;fill-opacity:1;fill-rule:nonzero;stroke:none" id="path8658"/></g><g id="g8660" transform="translate(1092.73 1886.94)"><path d="M0 0a2.88 2.88.0 100-5.76A2.88 2.88.0 000 0" style="fill:#f1f1f1;fill-opacity:1;fill-rule:nonzero;stroke:none" id="path8662"/></g><g id="g8664" transform="translate(1074.04 1827.24)"><path d="M0 0a2.88 2.88.0 100-5.76A2.88 2.88.0 000 0" style="fill:#f1f1f1;fill-opacity:1;fill-rule:nonzero;stroke:none" id="path8666"/></g><g id="g8668" transform="translate(1083.39 1827.24)"><path d="M0 0a2.88 2.88.0 100-5.76A2.88 2.88.0 000 0" style="fill:#f1f1f1;fill-opacity:1;fill-rule:nonzero;stroke:none" id="path8670"/></g><g id="g8672" transform="translate(1092.73 1827.24)"><path d="M0 0a2.88 2.88.0 100-5.76A2.88 2.88.0 000 0" style="fill:#f1f1f1;fill-opacity:1;fill-rule:nonzero;stroke:none" id="path8674"/></g><g id="g8676" transform="translate(804.27 1836.82)"><path d="M0 0a3.64 3.64.0 01-.73 5.54l2.99 12.6-6.32-2.31-1.87-11.61A3.66 3.66.0 010 0" style="fill:#efbdbd;fill-opacity:1;fill-rule:nonzero;stroke:none" id="path8678"/></g><g id="g8680" transform="translate(819.46 1889.61)"><path d="m0 0-2.54-6.52s1.09-6.52-.72-7.97c-1.81-1.45-1.09-1.45-1.09-2.54A5.58 5.58.0 00-6.52-21c-1.45-1.1-7.97-23.2-7.97-23.2h-6.53a20.4 20.4.0 010 5.08c-.36 2.54 1.1 9.06 1.82 10.14.72 1.1.0 2.54.0 4.71.0 2.18 1.45 3.27 1.45 6.89s4.34 31.88 3.98 35.14c-.36 3.27 3.63 6.16 3.63 6.16h3.62z" style="fill:#964891;fill-opacity:1;fill-rule:nonzero;stroke:none" id="path8682"/></g><g id="g8684" transform="translate(806.23 1757.47)"><path d="M0 0h4.7l2.23 18.1H0z" style="fill:#efbdbd;fill-opacity:1;fill-rule:nonzero;stroke:none" id="path8686"/></g><g id="g8688" transform="translate(804.7 1760.68)"><path d="m0 0 7.5.45v-3.22l7.13-4.92a2 2 0 00-1.14-3.66H4.56L3.02-8.17l-.6-3.18H-.94z" style="fill:#2f2e41;fill-opacity:1;fill-rule:nonzero;stroke:none" id="path8690"/></g><g id="g8692" transform="translate(832.6 1757.47)"><path d="M0 0h4.7l2.23 18.1H0z" style="fill:#efbdbd;fill-opacity:1;fill-rule:nonzero;stroke:none" id="path8694"/></g><g id="g8696" transform="translate(831.07 1760.68)"><path d="m0 0 7.5.45v-3.22l7.13-4.92a2 2 0 00-1.14-3.66H4.56L3.02-8.17l-.6-3.18H-.94z" style="fill:#2f2e41;fill-opacity:1;fill-rule:nonzero;stroke:none" id="path8698"/></g><g id="g8700" transform="translate(804.2 1773.08)"><path d="M0 0h.05l2.6 29.44a7.7 7.7.0 00.1 7.28l.13.23-.33 1.55a9.9 9.9.0 00.57 5.96l-.86 27.46c-3.01 19.5 11.33 32.22 11.33 32.22h21.48l4.61-15.84c1.73-16.87 7.15-34.62 6.43-50.97-.54-12.44-6.68-23.61-8.77-35.73l.13-.06c.48-.17.68-.83.46-1.47-.23-.65-.8-1.04-1.27-.88l-11.34.4c-.48.16-.68.82-.46 1.46.23.65.8 1.04 1.27.88l.77-.39 5.58 29.69.19 5.19-.38 5.88-8.97 25.2-6.58-32.55L10.02-.34a1.24 1.24.0 00-.84-2.15H0A1.24 1.24.0 100 0z" style="fill:#2f2e41;fill-opacity:1;fill-rule:nonzero;stroke:none" id="path8702"/></g><g id="g8704" transform="translate(802.42 1863.98)"><path d="M0 0c-.7.0-1.1.14-1.26.43-.23.44.17 1 .62 1.67.34.43.61.91.8 1.42.27 1.1 2.12 28.73 1.01 34.26-.25 1.27-.03 2.91.66 4.86 1.88 5.33 4.45 6.97 9.56 10.24l1.3.83c.58.37.55 1.61.52 2.92-.04 1.46-.08 2.97.63 3.91l.05.06.07.02c1.73.4 7.54 1.14 10.99.0l.05-.02.03-.03c.82-.82.9-2.4.97-3.94.05-1.25.11-2.44.57-2.96 3.54-3.94 7.55-3.86 7.6-3.86h.2l.01-.2c1.54-15.65 4.02-39.27 4.55-40.2a.28.28.0 000-.29C38.17 7.68 2.67.0.0.0" style="fill:#964891;fill-opacity:1;fill-rule:nonzero;stroke:none" id="path8706"/></g><g id="g8708" transform="translate(825.53 1950.02)"><path d="M0 0a10.5 10.5.0 100-20.98A10.5 10.5.0 000 0" style="fill:#efbdbd;fill-opacity:1;fill-rule:nonzero;stroke:none" id="path8710"/></g><g id="g8712" transform="translate(796.7 1944.2)"><path d="M0 0c1.77 2.07 2.62 4.81 4.04 7.16 1.41 2.35 3.88 4.45 6.49 3.9 1.8-.37 3.18-1.96 3.89-3.72.7-1.77.83-3.72.95-5.63-.04 3.92 2.55 7.73 6.11 8.98a8.99 8.99.0 0010.06-3.3 5.44 5.44.0 007.23.16c2-1.8 2.44-5.2.97-7.48a5.48 5.48.0 00-7-1.87l-.83-.76a3.59 3.59.0 00-1.95-4.17c-1.23-.5-2.97-.41-3.43-1.7-.32-.9.28-1.87.92-2.56.64-.7 1.4-1.41 1.47-2.37.12-1.45-1.38-2.47-2.74-2.77a8.54 8.54.0 00-8.93 3.84A12.67 12.67.0 0014.71-2.6c.1.67.0 1.17-.47 1.33-1.99.68-7.58-.76-9.27-2.06C3.28-4.63 1.93-6.34.3-7.73-1.33-9.1-3.4-10.18-5.47-9.8c-1.66.3-3.07 1.5-4.01 2.95a17.8 17.8.0 00-1.99 4.82A9.33 9.33.0 010 0" style="fill:#2f2e41;fill-opacity:1;fill-rule:nonzero;stroke:none" id="path8714"/></g><g id="g8716" transform="translate(842.35 1836.82)"><path d="M0 0a3.64 3.64.0 00.73 5.54l-2.99 12.6 6.32-2.31L5.93 4.22A3.66 3.66.0 000 0" style="fill:#efbdbd;fill-opacity:1;fill-rule:nonzero;stroke:none" id="path8718"/></g><g id="g8720" transform="translate(827.15 1889.61)"><path d="m0 0 2.54-6.52s-1.09-6.52.72-7.97c1.81-1.45 1.09-1.45 1.09-2.54A5.58 5.58.0 016.52-21c1.45-1.1 7.97-23.2 7.97-23.2h6.53a20.4 20.4.0 000 5.08c.36 2.54-1.1 9.06-1.82 10.14-.72 1.1.0 2.54.0 4.71.0 2.18-1.45 3.27-1.45 6.89s-4.34 31.88-3.98 35.14c.36 3.27-3.63 6.16-3.63 6.16H6.52z" style="fill:#964891;fill-opacity:1;fill-rule:nonzero;stroke:none" id="path8722"/></g><g id="g8724" transform="translate(986.35 1834.32)"><path d="M0 0a24.24 24.24.0 10-48.49.0A24.24 24.24.0 000 0" style="fill:#f1f1f1;fill-opacity:1;fill-rule:nonzero;stroke:none" id="path8726"/></g><g id="g8728" transform="translate(985.01 1892.21)"><path d="M0 0a24.24 24.24.0 10-48.49.0A24.24 24.24.0 000 0" style="fill:#f1f1f1;fill-opacity:1;fill-rule:nonzero;stroke:none" id="path8730"/></g><g id="g8732" transform="translate(985.01 1950.4)"><path d="M0 0a24.24 24.24.0 10-48.49.0A24.24 24.24.0 000 0" style="fill:#d1b000;fill-opacity:1;fill-rule:nonzero;stroke:none" id="path8734"/></g><g id="g8736" transform="translate(992.11 1937.66)"><path d="m0 0-14.84 9.4a1.87 1.87.0 01-2.86-1.6l.15-16.2a1.87 1.87.0 013.59-.69l1.93 4.7L-6.65-15a2.12 2.12.0 013.8 1.92L-8.37-2.23l7.05-1.19A1.87 1.87.0 010 0" style="fill:#fff;fill-opacity:1;fill-rule:nonzero;stroke:none" id="path8738"/></g><g id="g8740" transform="translate(992.11 1937.66)"><path d="m0 0-14.84 9.4a1.87 1.87.0 01-2.86-1.6l.15-16.2a1.87 1.87.0 013.59-.69l1.93 4.7L-6.65-15a2.12 2.12.0 013.8 1.92L-8.37-2.23l7.05-1.19A1.87 1.87.0 010 0z" style="fill:none;stroke:#3a3a3a;stroke-width:1;stroke-linecap:butt;stroke-linejoin:miter;stroke-miterlimit:10;stroke-dasharray:none;stroke-opacity:1" id="path8742"/></g></g></g></g></svg>