<svg width="448.64" height="341.33" viewBox="0 0 118.7 90.31" id="svg8" xmlns:xlink="http://www.w3.org/1999/xlink" xmlns="http://www.w3.org/2000/svg"><defs id="defs2"><color-profile name="U.S.-Web-Coated--SWOP--v2" xlink:href="file:///usr/share/color/icc/USWebCoatedSWOP.icc" id="color-profile60331"/><color-profile name="sRGB" xlink:href="file:///usr/share/color/icc/colord/sRGB.icc" id="color-profile60333"/><clipPath clipPathUnits="userSpaceOnUse" id="clipPath8832"><path d="M1473.57 1930.29h70.92v-96.12h-70.92z" id="path8830"/></clipPath></defs><g id="layer1" transform="translate(-271.3 -131.61)"><g id="g59830" transform="matrix(.35278 0 0 -.35278 -176.21 838.93)"><g id="g8758" transform="translate(1554.74 1778.14)"><path d="M0 0a10.85 10.85.0 002.22 2.58 11.6 11.6.0 0019.13-6.6c1.7 6.3-2.73 12.49-7.18 17.24-4.45 4.76-9.54 9.98-9.51 16.5.0 3.62 1.78 6.85 4.46 9.25l.25.22a16.92 16.92.0 0011.66 4.06c7.92-.42 14.83-5.74 19.63-12.05 7.72-10.15 11.1-24.4 5.7-35.96-4.76-10.17-14.9-16.2-25.26-21.05a216.6 216.6.0 00-4.33-1.98h-.03l-.2-.1-.89-.4.14-.08.42-.28-.44.27-.13.08C10.55-25.25 5.4-22.02 1.88-17.26-1.76-12.3-3.22-5.23.0.0" style="fill:#1f1f1f;fill-opacity:1;fill-rule:nonzero;stroke:none" id="path8760"/></g><g id="g8762" transform="translate(1588.67 1789.63)"><path d="M0 0a28.81 28.81.0 002.22-8.05c.27-2.48.17-4.98-.3-7.43A32.03 32.03.0 00-4.52-29.2a46.1 46.1.0 00-8.32-8.1c-1.44-.67-2.89-1.33-4.33-1.96l-.03-.02a7.78 7.78.0 01-.2-.09l-.89-.39.14-.09.42-.27-.44.26-.13.08c2.27 7.94.55 16.5-4.62 22.94a25.7 25.7.0 01-9.53 7.26c.23.24.48.47.73.69a26.1 26.1.0 0014.54-30.33l.76.5c4.73 3.2 9.1 7.03 12.39 11.74a29.79 29.79.0 015.29 13.43C1.9-8.26.57-3.06-1.8 1.66a62.38 62.38.0 01-9.77 13.88 70.83 70.83.0 01-13.1 11.26.51.51.0 00-.15.68c.05.1.14.18.25.22.11.03.23.0.32-.07l1.77-1.2a71.64 71.64.0 0013.1-11.96C-5.67 10.1-2.28 5.28.0.0" style="fill:#4c4c4c;fill-opacity:1;fill-rule:nonzero;stroke:none" id="path8764"/></g><g id="g8766" transform="translate(1485 2003.62)"><path d="M0 0a7.4 7.4.0 100-14.79A7.4 7.4.0 000 0" style="fill:#2e2e2e;fill-opacity:1;fill-rule:nonzero;stroke:none" id="path8768"/></g><g id="g8770" transform="translate(1576.92 1898.9)"><path d="M0 0a4.5 4.5.0 100-9.01A4.5 4.5.0 000 0" style="fill:#2e2e2e;fill-opacity:1;fill-rule:nonzero;stroke:none" id="path8772"/></g><g id="g8774" transform="translate(1445 1886.54)"><path d="M0 0a4.5 4.5.0 100-9.02A4.5 4.5.0 000 0" style="fill:#2e2e2e;fill-opacity:1;fill-rule:nonzero;stroke:none" id="path8776"/></g><g id="g8778" transform="translate(1447.55 1749)"><path d="M0 0h157.06a.41.41.0 010 .82H0A.41.41.0 010 0" style="fill:#2e2e2e;fill-opacity:1;fill-rule:nonzero;stroke:none" id="path8780"/></g><g id="g8782" transform="translate(1587.28 1965.16)"><path d="M0 0a6.04 6.04.0 01-11.6 3.06l-12.75-14.61L-20.6-22-7.8-4.92A6 6 0 010 0" style="fill:#efbdbd;fill-opacity:1;fill-rule:nonzero;stroke:none" id="path8784"/></g><g id="g8786" transform="translate(1534.45 1908.3)"><path d="m0 0 42.3 45.15-5.7 9.08-53.06-44.88z" style="fill:#3f3d56;fill-opacity:1;fill-rule:nonzero;stroke:none" id="path8788"/></g><g id="g8790" transform="translate(1525 1965.42)"><path d="M0 0a14.84 14.84.0 100-29.68A14.84 14.84.0 000 0" style="fill:#2f2e41;fill-opacity:1;fill-rule:nonzero;stroke:none" id="path8792"/></g><g id="g8794" transform="translate(1526.2 1958.96)"><path d="M0 0a31.13 31.13.0 0011.32 7.32c2.74 1.01 5.72 1.64 8.58 1.07 2.86-.58 5.57-2.56 6.36-5.37.66-2.3-.02-4.76-1.03-6.93-1.01-2.16-2.37-4.16-3.19-6.4a14.62 14.62.0 0114.72-19.6c-2.81-.38-5.4-1.7-8.15-2.4-2.75-.71-6-.67-8.04 1.3-2.16 2.09-2.2 5.47-2.1 8.47l.47 13.38c.08 2.27.15 4.62-.67 6.74s-2.77 3.98-5.05 3.96C11.5 1.53 9.97.48 8.6-.55 7.21-1.58 5.74-2.68 4.03-2.83 2.3-2.98.35-1.71.48.0z" style="fill:#2f2e41;fill-opacity:1;fill-rule:nonzero;stroke:none" id="path8796"/></g><g id="g8798" transform="translate(1468.64 1850.93)"><path d="M0 0a6.04 6.04.0 00-4.55 11.1L8.27 25.64l10.84-2.34L3.86 8.36A6 6 0 000 0" style="fill:#efbdbd;fill-opacity:1;fill-rule:nonzero;stroke:none" id="path8800"/></g><g id="g8802" transform="translate(1510.82 1903)"><path d="m0 0-31.95-40.11-9.74 4.47 37.55 58.48z" style="fill:#3f3d56;fill-opacity:1;fill-rule:nonzero;stroke:none" id="path8804"/></g><g id="g8806" transform="translate(1485.32 1781.89)"><path d="m0 0-7.62.12.92-25.96H0z" style="fill:#efbdbd;fill-opacity:1;fill-rule:nonzero;stroke:none" id="path8808"/></g><g id="g8810" transform="translate(1487.03 1758.24)"><path d="M0 0h-13.2a8.4 8.4.0 01-8.4-8.4v-.28H0z" style="fill:#2f2e41;fill-opacity:1;fill-rule:nonzero;stroke:none" id="path8812"/></g><g id="g8814" transform="translate(1535.75 1788.77)"><path d="m0 0-8.32-5.34L8.32-25.36l5.64 3.62z" style="fill:#efbdbd;fill-opacity:1;fill-rule:nonzero;stroke:none" id="path8816"/></g><g id="g8818" transform="translate(1549.96 1769.8)"><path d="m0 0-11.1-7.13a8.4 8.4.0 01-2.54-11.61l.15-.23L4.7-7.31z" style="fill:#2f2e41;fill-opacity:1;fill-rule:nonzero;stroke:none" id="path8820"/></g><g id="g8822" transform="translate(1538.71 1868.03)"><path d="M0 0s-18.48 61.4-24.43 62.22c-5.94.83-15.5-15.75-15.5-15.75-12.42-15.83-25.21-67.12-25.21-67.12s21.33-1.33 36.92-9.63c15.6-8.3 34 .42 34 .42z" style="fill:#3f3d56;fill-opacity:1;fill-rule:nonzero;stroke:none" id="path8824"/></g><g id="g8826"><g id="g8840"><g clip-path="url(#clipPath8832)" opacity=".1" id="g8838"><g transform="translate(1538.71 1868.03)" id="g8836"><path d="M0 0s-18.48 61.4-24.43 62.22c-5.94.83-13.08-15.92-13.08-15.92-6.18-25.56-27.63-66.95-27.63-66.95s21.33-1.34 36.92-9.63c15.6-8.3 34 .42 34 .42z" style="fill:#000;fill-opacity:1;fill-rule:nonzero;stroke:none" id="path8834"/></g></g></g></g><g id="g8842" transform="translate(1523.55 1886.4)"><path d="M0 0v-30.85l3.63-44.69 18.14-33.8-8.66-6.19-24.73 32.16-9.79 31.93-15.36-70.68-11.54.82 8.01 98 15.22 27.58z" style="fill:#2f2e41;fill-opacity:1;fill-rule:nonzero;stroke:none" id="path8844"/></g><g id="g8846" transform="translate(1504.91 1916.24)"><path d="M0 0c-5.77-5.77-.41-11.96-.41-11.96l-6.6-14.84 25.97-7 9.08 40.55-6.18 6.6c-12.37.41-12.38.67-12.38.67C7.31 11.9.0.0.0.0" style="fill:#d1b000;fill-opacity:1;fill-rule:nonzero;stroke:none" id="path8848"/></g><g id="g8850" transform="translate(1534 1927.2)"><path d="M0 0a11.08 11.08.0 01-15.5-2.33l-.07-.1c-6.53-9.1-12.57-23.78-4.25-42.09 13.35-29.4 24.98-44.44 29.7-44.44.2.0.41.03.6.1 2.92.98 7.12 5.9 7.88 10.24.28 1.55.21 3.72-1.64 5.2-5.34 4.27-14.91 17.55-17.9 35.03-1.65 9.66 1.55 18.45 4.53 24.13A11.08 11.08.0 01.15-.1z" style="fill:#3f3d56;fill-opacity:1;fill-rule:nonzero;stroke:none" id="path8852"/></g><g id="g8854" transform="translate(1515.29 1956.37)"><path d="M0 0a10.92 10.92.0 1010.48-19.17A10.92 10.92.0 000 0" style="fill:#efbdbd;fill-opacity:1;fill-rule:nonzero;stroke:none" id="path8856"/></g><g id="g8858" transform="translate(1505.17 1947.6)"><path d="M0 0h15.77l.17 2.27.8-2.27h2.44l.32 4.49L21.1.0h4.7v.22A11.8 11.8.0 0114 12.01h-2.2A11.8 11.8.0 010 .22z" style="fill:#2f2e41;fill-opacity:1;fill-rule:nonzero;stroke:none" id="path8860"/></g><g id="g8862" transform="translate(1528.58 1939.47)"><path d="m0 0 6.73 2.19v16.34H-5.98l.31-.31C-1.29 13.84 3.58-1.68.0.0" style="fill:#2f2e41;fill-opacity:1;fill-rule:nonzero;stroke:none" id="path8864"/></g><g id="g8866" transform="translate(1403.19 1951.9)"><path d="M0 0h-1.23v33.63a19.46 19.46.0 01-19.46 19.46h-71.24a19.46 19.46.0 01-19.46-19.46v-184.48a19.46 19.46.0 0119.46-19.46h71.24a19.46 19.46.0 0119.46 19.46v126.91H0z" style="fill:#2e2e2e;fill-opacity:1;fill-rule:nonzero;stroke:none" id="path8868"/></g><g id="g8870" transform="translate(1383.29 1999.93)"><path d="M0 0h-9.3a6.9 6.9.0 00-6.4-9.51h-40.8A6.9 6.9.0 00-62.9.0h-8.69c-8.02.0-14.53-6.5-14.53-14.53v-184.21c0-8.03 6.5-14.53 14.53-14.53H0c8.03.0 14.53 6.5 14.53 14.53v184.2C14.53-6.5 8.03.0.0.0" style="fill:#f1f1f1;fill-opacity:1;fill-rule:nonzero;stroke:none" id="path8872"/></g><g id="g8874" transform="translate(1426.03 1781.56)"><path d="M0 0h-157.06a.41.41.0 000 .82H0A.41.41.0 000 0" style="fill:#2e2e2e;fill-opacity:1;fill-rule:nonzero;stroke:none" id="path8876"/></g><g id="g8878" transform="translate(1347.5 1932.12)"><path d="M0 0a34.81 34.81.0 100-69.62A34.81 34.81.0 000 0" style="fill:#d1b000;fill-opacity:1;fill-rule:nonzero;stroke:none" id="path8880"/></g><g id="g8882" transform="translate(1361.54 1899.9)"><path d="m0 0-12.02 12.38c-.53.53-1.25.83-2 .8h-.04a2.75 2.75.0 01-2.01-.8L-28.1.0l-.12-.13c-1-1.07-.95-2.74.12-3.75a2.96 2.96.0 014.05.0l7.13 7.45v-19.2a2.87 2.87.0 015.74.0v19.2l7.11-7.45a2.97 2.97.0 014.06.0l.13.13A2.65 2.65.0 010 0" style="fill:#fff;fill-opacity:1;fill-rule:nonzero;stroke:none" id="path8884"/></g></g></g></svg>