<svg width="299.998" height="224.873" viewBox="0 0 79.375 59.498" xmlns="http://www.w3.org/2000/svg"><defs><clipPath clipPathUnits="userSpaceOnUse" id="a"><path d="M0 192h192V0H0z"/></clipPath></defs><g clip-path="url(#a)" style="stroke-width:.853333" transform="matrix(.41341 0 0 -.41341 0 69.436)"><path d="M77.608 52.126H63.217v14.392h14.391zm-19.426 74.196h14.391v-14.391H58.182zm61.859 41.638h-.001a71.968 71.968 0 0 1-27.434-5.438v-12.223H78.215v4.253a71.994 71.994 0 0 1-11.853-10.634h1.482v-14.391H56.373a71.97 71.97 0 0 1-7.039-20.182h8.848V94.953H48.093a71.892 71.892 0 0 1 1.419-13.182h11.981V67.38h-7.467a71.964 71.964 0 0 1 20.951-27.475v3.868h14.391V30.912a71.951 71.951 0 0 1 30.672-6.872C159.782 24.04 192 56.257 192 96c0 39.742-32.217 71.96-71.959 71.96m-70.419-4.004h14.391v-14.391H49.622zm-14.009-20.038h14.391v-14.391H35.613zM.214 141.877h14.391v-14.391H.214zm14.487-27.331h14.391v-14.391H14.701zm11.974-32.775h14.391V67.38H26.675zM0 67.12h14.391V52.729H0zm39.219-22.03H53.61V30.699H39.219z" style="fill:#d1b000;fill-opacity:1;fill-rule:nonzero;stroke:none;stroke-width:.853333"/><g style="stroke-width:.853333"><path d="M0 0h14.974l7.36-36.28L42.522 0h14.941l-9.262-51.961H36.585l4.76 30.154-16.074-28.951-.667-1.203h-9.377l-.431 2.133.001.001-6.123 30.306-5.782-32.44H-8.723l4.759 30.154z" style="fill:#252525;fill-opacity:1;fill-rule:nonzero;stroke:none;stroke-width:.853333" transform="translate(76.884 123.735)"/></g><g style="stroke-width:.853333"><path d="M0 0c2.143 4.076 5.738 6.734 9.109 6.733 3.371 0 5.854-2.658 6.292-6.733zm11.337 17.115c-11.46 0-22.488-9.532-24.632-21.291-2.145-11.758 5.406-21.29 16.865-21.29 8.516 0 17.14 5.339 21.753 13.464h-14.33c-1.967-1.976-4.279-3.081-6.446-3.083-3.687.023-6.258 3.223-6.319 7.863h29.206c.326 1.009.583 2.027.77 3.046v.001c2.144 11.759-5.408 21.291-16.867 21.29" style="fill:#252525;fill-opacity:1;fill-rule:nonzero;stroke:none;stroke-width:.853333" transform="translate(146.83 96.84)"/></g></g></svg>