<svg xmlns="http://www.w3.org/2000/svg" viewBox="0 0 2000 2000" style="enable-background:new 0 0 2000 2000" xml:space="preserve"><switch><g><path d="M1000 0C445.8 0 0 445.8 0 1000s445.8 1000 1000 1000 1000-445.8 1000-1000S1554.2 0 1000 0zM812.5 1691.7c0 8.3 0 12.5-4.2 16.7-4.2 16.7-20.8 25-37.5 16.7-233.3-75-412.5-254.2-487.5-487.5-125-395.8 91.7-816.7 487.5-941.7 4.2-4.2 12.5-4.2 16.7-4.2 16.7 4.2 25 16.7 25 33.3v58.3c0 20.8-8.3 33.3-25 41.7-170.8 62.5-308.3 195.8-370.8 370.8-120.8 320.8 45.8 683.3 370.8 800 12.5 8.3 25 25 25 37.5v58.4zm254.2-212.5c-4.2 20.8-16.7 33.3-33.3 33.3h-62.5c-20.8-4.2-33.3-16.7-33.3-33.3v-100c-137.5-20.8-204.2-95.8-220.8-200v-4.2c0-16.7 12.5-29.2 29.2-29.2h70.8c12.5 0 25 8.3 29.2 25 12.5 62.5 50 108.3 158.3 108.3 79.2 0 137.5-45.8 137.5-112.5s-37.5-91.7-154.2-112.5c-175-20.8-258.3-75-258.3-212.5 0-104.2 79.2-187.5 204.2-204.2v-95.8c4.2-20.8 16.7-33.3 33.3-33.3h62.5c20.8 4.2 33.3 16.7 33.3 33.3v100c95.8 8.3 170.8 79.2 187.5 170.8v4.2c0 16.7-12.5 29.2-29.2 29.2h-66.7c-12.5 0-25-8.3-29.2-20.8-20.8-62.5-62.5-87.5-137.5-87.5-83.3 0-125 37.5-125 95.8s25 91.7 150 108.3c175 20.8 262.5 70.8 262.5 216.7 0 112.5-83.3 200-208.3 220.8v100.1zm162.5 250c-4.2 4.2-12.5 4.2-16.7 4.2-16.7-4.2-25-16.7-25-33.3v-58.3c0-20.8 8.3-33.3 25-41.7 170.8-62.5 308.3-195.8 370.8-370.8 120.8-320.8-45.8-683.3-370.8-800-12.5-8.3-25-25-25-41.7v-58.3c0-8.3 0-12.5 4.2-16.7 4.2-16.7 20.8-25 37.5-16.7 229.2 75 412.5 254.2 487.5 491.7 125 395.7-91.7 816.6-487.5 941.6z" style="fill:#d1b000"/></g></switch></svg>