<?xml version="1.0" encoding="utf-8"?>
<!-- Generator: $$$/GeneralStr/196=Adobe Illustrator 27.6.0, SVG Export Plug-In . SVG Version: 6.00 Build 0)  -->
<svg version="1.1"
	 id="svg8" xmlns:dc="http://purl.org/dc/elements/1.1/" xmlns:sodipodi="http://sodipodi.sourceforge.net/DTD/sodipodi-0.dtd" xmlns:svg="http://www.w3.org/2000/svg" xmlns:rdf="http://www.w3.org/1999/02/22-rdf-syntax-ns#" xmlns:cc="http://creativecommons.org/ns#" xmlns:inkscape="http://www.inkscape.org/namespaces/inkscape" sodipodi:docname="MATIC-logo_gold.svg"
	 xmlns="http://www.w3.org/2000/svg" xmlns:xlink="http://www.w3.org/1999/xlink" x="0px" y="0px" viewBox="0 0 128 128"
	 style="enable-background:new 0 0 128 128;" xml:space="preserve">
<style type="text/css">
	.st0{fill-rule:evenodd;clip-rule:evenodd;fill:#D1B000;}
</style>
<sodipodi:namedview  bordercolor="#666666" borderopacity="1.0" guidetolerance="20" id="base" inkscape:bbox-paths="false" inkscape:current-layer="layer1" inkscape:cx="64" inkscape:cy="64" inkscape:deskcolor="#d1d1d1" inkscape:document-rotation="0" inkscape:document-units="px" inkscape:guide-bbox="true" inkscape:pagecheckerboard="0" inkscape:pageopacity="0.0" inkscape:pageshadow="2" inkscape:showpageshadow="false" inkscape:snap-bbox="false" inkscape:snap-bbox-edge-midpoints="false" inkscape:snap-bbox-midpoints="false" inkscape:snap-page="true" inkscape:snap-path-clip="false" inkscape:snap-path-mask="false" inkscape:window-height="1008" inkscape:window-maximized="1" inkscape:window-width="1920" inkscape:window-x="0" inkscape:window-y="0" inkscape:zoom="6.3671875" objecttolerance="20" pagecolor="#ffffff" showgrid="false" showguides="true" units="px">
	</sodipodi:namedview>
<g>
	<path class="st0" d="M71.8,49.7v10.6c-0.4,0-2.8,0.2-7.7,0.2c-4,0-6.9-0.2-7.9-0.2V49.7c-15.5,0.7-27.1,3.4-27.1,6.6
		c0,3.2,11.6,5.9,27.1,6.6c1,0,3.9,0.2,7.9,0.2c5.1,0,7.3-0.1,7.8-0.2l0,0c15.5-0.7,27.1-3.4,27.1-6.6
		C98.9,53.1,87.3,50.4,71.8,49.7z"/>
	<polygon class="st0" points="71.8,48.6 71.8,48.6 71.8,48.6 	"/>
	<path class="st0" d="M125.9,58.1l-22.6-47.5c-0.1-0.3-0.5-0.5-0.8-0.5H25.5c-0.4,0-0.7,0.2-0.8,0.5L2.1,58.1
		c-0.2,0.4-0.1,0.8,0.2,1.1l61.1,58.5c0.4,0.3,0.9,0.3,1.3,0l61.1-58.5C126,58.9,126.1,58.5,125.9,58.1z M71.8,65.5v30.3H56.2V65.5
		c-17.6-0.8-30.8-4.3-30.8-8.5s13.2-7.7,30.8-8.5v-9.4H34.6V24.8h58.9v14.4H71.8v9.4c17.5,0.8,30.7,4.3,30.7,8.5
		C102.6,61.2,89.4,64.7,71.8,65.5z"/>
</g>
</svg>
